<svg width="107" height="37" viewBox="0 0 107 37" fill="none" xmlns="http://www.w3.org/2000/svg">
<path d="M81.6925 18.5955C81.6925 18.2675 81.6748 17.9394 81.657 17.6291C81.6393 17.3188 81.5861 16.9907 81.5506 16.6804H77.1175H72.6845L71.3368 18.7906L69.9891 20.9007H76.825C76.426 22.2839 75.6369 23.4719 74.5818 24.3053C73.5267 25.1476 72.1968 25.653 70.6452 25.653C68.7124 25.653 67.0012 24.855 65.7422 23.5606C64.4832 22.2661 63.7208 20.5018 63.7208 18.5512C63.7208 16.6361 64.4832 14.8895 65.76 13.6127C67.019 12.336 68.7656 11.5381 70.6984 11.5381C71.5407 11.5381 72.3209 11.6622 73.048 11.9193C73.775 12.1587 74.4311 12.5222 75.0163 12.9566L76.2043 11.0593L77.3924 9.16192C76.4792 8.52355 75.4596 8.00931 74.3336 7.68127C73.2253 7.33548 72.0018 7.16703 70.725 7.16703C69.0139 7.16703 67.4623 7.47734 66.0969 8.04478C64.7315 8.61221 63.508 9.4279 62.4884 10.4475C60.0679 12.868 59.3675 15.3328 58.8976 17.5759C58.4011 19.8368 58.1351 21.8937 56.4771 23.534C55.7855 24.2255 55.0408 24.7575 54.1985 25.1033C53.3562 25.4491 52.4696 25.6353 51.5032 25.6353C49.5171 25.6353 47.7262 24.8107 46.414 23.5251C45.1195 22.2307 44.3216 20.4663 44.3216 18.5512C44.3216 16.6716 45.1195 14.9249 46.414 13.6305C47.7084 12.336 49.4906 11.5203 51.5032 11.4937C52.3455 11.5115 53.108 11.6356 53.8172 11.8572C54.5265 12.0789 55.1826 12.4247 55.7678 12.8591L56.9736 10.9617L58.1794 9.06439C57.2662 8.42602 56.2466 7.93838 55.1383 7.61034C54.03 7.28229 52.8065 7.11383 51.5298 7.11383C49.5615 7.11383 47.7173 7.58374 46.1125 8.42602C44.5078 9.26831 43.1424 10.4475 42.105 11.875C41.7061 10.616 40.8638 9.54316 39.72 8.7984C38.5674 8.03591 37.1134 7.5926 35.4731 7.5926H30.3307H25.1972V18.5867V29.5452H36.5016C37.9202 29.5452 39.1969 29.1995 40.252 28.6143C41.3071 28.0291 42.1494 27.1957 42.7345 26.2116C43.7896 27.3819 45.0663 28.3217 46.5292 28.9778C47.9922 29.6339 49.6058 29.9974 51.3613 29.9974C53.4005 29.9974 55.2802 29.5275 56.9027 28.6675C58.5252 27.8075 59.8906 26.5928 60.9456 25.0767C61.9475 26.5751 63.3129 27.7897 64.9532 28.6498C66.5757 29.5098 68.4908 29.9974 70.53 29.9974C73.6863 29.9974 76.4703 28.7207 78.4741 26.646C80.4778 24.6068 81.6925 21.7519 81.6925 18.5955ZM29.9495 16.5031V11.7065H35.3667C36.0583 11.7065 36.6612 11.9636 37.0956 12.3803C37.5301 12.797 37.8049 13.3999 37.8049 14.0915C37.8049 14.7831 37.5301 15.386 37.0956 15.8027C36.6612 16.2371 36.0406 16.4942 35.3667 16.4942H32.6626H29.9495V16.5031ZM29.9495 25.4845V20.5106H36.4395C37.1666 20.5106 37.8049 20.7855 38.2837 21.2199C38.7536 21.6544 39.0462 22.275 39.0462 22.9843C39.0462 23.6936 38.7536 24.3142 38.2837 24.7664C37.8138 25.2186 37.1754 25.4934 36.4395 25.4934H33.1945H29.9495V25.4845Z" fill="#42175B"/>
</svg>
