<svg width="78" height="22" viewBox="0 0 78 22" fill="none" xmlns="http://www.w3.org/2000/svg">
<path d="M20.6691 0.134277H24.1732V21.7686H20.6691V0.134277Z" fill="#17313B"/>
<path d="M36.3618 14.9127C36.3618 18.2645 33.6194 18.5692 32.7053 18.5692C30.5723 18.5692 30.2676 16.5886 30.2676 15.5221V7.14258H26.7635V15.3697C26.7635 17.3503 27.3729 19.1786 28.5917 20.2451C29.6582 21.3115 31.0294 21.7686 32.7053 21.7686C33.9241 21.7686 35.4477 21.4639 36.3618 20.5498V21.7686H39.866V7.14258H36.3618V14.9127Z" fill="#17313B"/>
<path d="M46.7227 1.80957H43.2186V7.14198H40.6285V10.4938H43.2186V21.768H46.7227V10.4938H49.3127V7.14198H46.7227V1.80957Z" fill="#17313B"/>
<path d="M60.2806 17.3503C59.5189 17.9598 58.4524 18.4168 57.3859 18.4168C54.9482 18.4168 53.2723 16.5886 53.2723 14.1509C53.2723 11.7132 54.9482 10.0373 57.3859 10.0373C58.4524 10.0373 59.5189 10.342 60.2806 11.1038L60.7377 11.5609L63.1754 9.27556L62.566 8.8185C61.1948 7.59966 59.3665 6.83789 57.3859 6.83789C53.12 6.83789 49.9205 10.0373 49.9205 14.3033C49.9205 18.5692 53.12 21.7686 57.3859 21.7686C59.3665 21.7686 61.1948 21.0069 62.566 19.788L63.1754 19.331L60.7377 16.8933L60.2806 17.3503Z" fill="#17313B"/>
<path d="M75.5141 8.36142C74.4476 7.29494 73.3811 6.83788 71.7052 6.83788C70.4864 6.83788 69.2675 7.14258 68.3534 8.05671V0.134277H64.8492V21.7686H68.3534V13.6938C68.3534 10.342 70.6387 10.0373 71.5528 10.0373C73.6858 10.0373 73.5335 12.0179 73.5335 13.0844V21.6163H77.0376V13.2368C77.0376 11.2562 76.5805 9.4279 75.5141 8.36142Z" fill="#17313B"/>
<path d="M57.2323 16.7406C58.5786 16.7406 59.67 15.6492 59.67 14.3029C59.67 12.9566 58.5786 11.8652 57.2323 11.8652C55.886 11.8652 54.7946 12.9566 54.7946 14.3029C54.7946 15.6492 55.886 16.7406 57.2323 16.7406Z" fill="#EF4335"/>
<path d="M15.7936 16.4369C14.5748 17.6558 12.7465 18.4175 10.7659 18.4175C6.95703 18.4175 4.21465 15.3704 4.21465 11.2569C4.21465 7.1433 6.95703 4.09621 10.9182 4.09621C12.7465 4.09621 14.5748 4.85798 15.9459 6.22917L16.403 6.68624L18.6883 4.40092L18.2313 3.94386C16.2507 1.96325 13.6606 0.896767 10.9182 0.896767C5.12878 0.744412 0.862854 5.31505 0.862854 11.2569C0.862854 17.1987 5.12878 21.7693 10.7659 21.7693C13.5083 21.7693 16.2507 20.7028 18.0789 18.7222L18.536 18.2652L16.2507 15.9799L15.7936 16.4369Z" fill="#17313B"/>
</svg>
