<svg width="74" height="74" viewBox="0 0 74 74" fill="none" xmlns="http://www.w3.org/2000/svg">
<circle cx="37.1092" cy="37.0467" r="36.4842" fill="#42175B"/>
<path d="M11.3516 40.6429C11.3516 31.3058 17.9036 22.9397 27.4381 18.8047C27.4381 18.8047 27.9034 21.6129 28.836 23.0464C21.5691 27.4909 21.1102 34.4431 21.0782 36.6947C21.9052 36.5773 22.7802 36.5613 23.6339 36.6413C28.4519 37.0895 32.2454 41.0431 32.2454 45.9518C32.2454 51.1059 28.0624 55.2889 22.9083 55.2889C20.0431 55.2889 17.306 53.9817 15.5773 52.1463C12.8295 49.2278 11.3516 45.9518 11.3516 40.6429Z" fill="white"/>
<path d="M38.0291 40.6429C38.0291 31.3058 44.5811 22.9397 54.1157 18.8047L56.5007 22.4755C47.601 27.2935 47.7558 35.0247 47.7558 36.6947C48.5828 36.5773 49.4578 36.5613 50.3115 36.6413C55.1295 37.0895 58.923 41.0431 58.923 45.9518C58.923 51.1059 54.74 55.2889 49.5859 55.2889C46.7207 55.2889 43.9836 53.9817 42.2549 52.1463C39.5071 49.2278 38.0291 45.9518 38.0291 40.6429Z" fill="white"/>
</svg>
