<svg width="188" height="38" viewBox="0 0 188 38" fill="none" xmlns="http://www.w3.org/2000/svg">
<g clip-path="url(#clip0_1_3430)">
<path d="M26.7286 21.525C23.8026 22.2497 22.9566 24.1273 21.5745 26.6128C20.25 28.9964 18.3612 31.1099 15.8356 32.194C14.5541 32.7436 12.9718 33.1523 11.5784 32.8409C14.0237 30.6656 14.3573 27.5424 14.3573 24.4089C14.3573 20.7087 16.6635 19.6211 17.4405 19.36C16.6635 19.0979 14.3573 18.0102 14.3573 14.3112C14.3573 11.1776 14.0237 8.05214 11.5784 5.87917C12.9718 5.56777 14.5541 5.97534 15.8356 6.52602C18.3612 7.61022 20.2466 9.72365 21.5745 12.1061C22.9566 14.5928 23.8026 16.4704 26.7286 17.1951C26.7286 17.1951 30.0799 18.0228 35.001 16.1498C34.2095 11.7647 31.8264 7.83766 28.3202 5.1404C24.8139 2.44314 20.4379 1.17064 16.052 1.57291C11.6661 1.97517 7.58729 4.02313 4.61709 7.3144C1.64689 10.6057 0 14.9023 0 19.36C0 23.8178 1.64689 28.1144 4.61709 31.4057C7.58729 34.6969 11.6661 36.7449 16.052 37.1472C20.4379 37.5494 24.8139 36.2769 28.3202 33.5797C31.8264 30.8824 34.2095 26.9554 35.001 22.5703C30.0799 20.6961 26.7297 21.525 26.7286 21.525Z" fill="#42175B"/>
<path d="M48.4214 23.0252C48.4937 23.0257 48.5654 23.0393 48.6329 23.0653C48.7096 23.0966 48.779 23.1438 48.8365 23.2038L50.0185 24.4632C49.5119 25.1409 48.8421 25.6758 48.0731 26.0168C47.2934 26.3648 46.3716 26.5388 45.3077 26.5388C44.4078 26.5543 43.5144 26.3828 42.6826 26.0351C41.9366 25.7179 41.266 25.2433 40.7157 24.6429C40.1648 24.0325 39.7416 23.3155 39.4715 22.5352C39.177 21.6849 39.0308 20.7892 39.0395 19.8883C39.0294 18.9703 39.199 18.0594 39.5383 17.2081C39.8519 16.4136 40.3256 15.694 40.9293 15.0951C41.533 14.4962 42.2534 14.0313 43.0445 13.73C43.9144 13.394 44.8392 13.2273 45.7703 13.2388C46.2277 13.2361 46.6843 13.2795 47.1332 13.3682C47.542 13.4487 47.9423 13.5683 48.3287 13.7254C48.6877 13.8705 49.0307 14.0532 49.3523 14.2704C49.6533 14.4722 49.9314 14.7072 50.1813 14.971L49.1758 16.3369C49.1102 16.4225 49.0342 16.4994 48.9496 16.5658C48.841 16.6407 48.7109 16.6769 48.5798 16.6689C48.4753 16.6694 48.3721 16.6446 48.2789 16.5967C48.176 16.5443 48.0759 16.4862 47.9792 16.4227L47.6308 16.1995C47.4873 16.1109 47.3358 16.0362 47.1784 15.9762C46.9806 15.9015 46.7771 15.8433 46.5699 15.8022C46.301 15.7518 46.0279 15.728 45.7545 15.7312C45.2459 15.7245 44.7413 15.8231 44.2717 16.0209C43.8323 16.2091 43.4392 16.4929 43.1203 16.8521C42.7861 17.2328 42.5297 17.6768 42.3659 18.1583C42.1803 18.7135 42.0896 19.2966 42.0978 19.8825C42.0881 20.4858 42.1787 21.0865 42.3659 21.6594C42.5243 22.1391 42.7732 22.5831 43.0988 22.9668C43.396 23.313 43.7648 23.589 44.1789 23.7751C44.5958 23.9607 45.0468 24.0551 45.5022 24.0522C45.7497 24.0532 45.9971 24.0399 46.2431 24.0121C46.4546 23.9881 46.6631 23.9417 46.8651 23.8736C47.0559 23.8084 47.2393 23.7232 47.4126 23.6194C47.5987 23.5058 47.7743 23.3756 47.9374 23.2301C48.0064 23.1719 48.0824 23.1227 48.1636 23.0836C48.2441 23.0448 48.3322 23.0248 48.4214 23.0252Z" fill="#42175B"/>
<path d="M64.0661 19.8826C64.0737 20.7808 63.9105 21.672 63.5854 22.5078C63.2786 23.3033 62.8131 24.0262 62.218 24.6315C61.623 25.2368 60.911 25.7115 60.1267 26.026C58.3664 26.7033 56.4218 26.7033 54.6615 26.026C53.875 25.7129 53.1609 25.2388 52.5638 24.6334C51.9667 24.0281 51.4995 23.3044 51.1915 22.5078C50.5508 20.8178 50.5508 18.9475 51.1915 17.2574C51.4977 16.4688 51.9595 15.7516 52.5487 15.1497C53.1522 14.5426 53.8709 14.0655 54.6615 13.7472C55.5318 13.3995 56.4608 13.2268 57.3964 13.2389C58.3309 13.2263 59.2588 13.4006 60.1267 13.7518C60.9145 14.0724 61.6301 14.551 62.2304 15.1589C62.8184 15.7614 63.28 16.4779 63.5877 17.2654C63.9114 18.0987 64.0738 18.9872 64.0661 19.8826ZM61.0123 19.8826C61.0201 19.2942 60.9369 18.7082 60.7657 18.1458C60.6196 17.6652 60.3779 17.2198 60.0554 16.8373C59.7457 16.4791 59.3587 16.1979 58.9244 16.0152C58.4397 15.818 57.9209 15.721 57.3986 15.7302C56.8719 15.7209 56.3486 15.8178 55.8593 16.0152C55.4224 16.1967 55.033 16.4781 54.7215 16.8373C54.399 17.2198 54.1572 17.6652 54.0112 18.1458C53.6824 19.2825 53.6824 20.4907 54.0112 21.6274C54.1572 22.1081 54.399 22.5534 54.7215 22.936C55.0323 23.2948 55.422 23.5748 55.8593 23.7534C56.3493 23.9482 56.8723 24.0435 57.3986 24.0339C57.9205 24.0434 58.4391 23.948 58.9244 23.7534C59.3591 23.5737 59.7464 23.2938 60.0554 22.936C60.3779 22.5534 60.6196 22.1081 60.7657 21.6274C60.9376 21.0624 61.0212 20.4737 61.0134 19.8826H61.0123Z" fill="#42175B"/>
<path d="M67.3889 13.4012C67.4713 13.4118 67.5517 13.4346 67.6276 13.4688C67.7016 13.5039 67.7698 13.5502 67.83 13.6061C67.9105 13.6817 67.986 13.7624 68.0562 13.8477L74.1639 21.6615C74.1401 21.4107 74.1231 21.1692 74.1107 20.9333C74.0983 20.6975 74.0937 20.4754 74.0937 20.2681V13.3829H76.7223V26.3944H75.1693C74.9703 26.3997 74.7723 26.363 74.588 26.2867C74.4055 26.1958 74.2478 26.061 74.1288 25.894L68.0687 18.1433C68.086 18.3722 68.1007 18.594 68.1128 18.8084C68.1249 19.0229 68.1305 19.2267 68.1298 19.4198V26.3944H65.4922V13.3829H67.0621C67.1713 13.382 67.2805 13.3882 67.3889 13.4012Z" fill="#42175B"/>
<path d="M88.1654 13.3828V15.7767H84.546V26.3943H81.5646V15.7767H77.9453V13.3828H88.1654Z" fill="#42175B"/>
<path d="M97.6731 13.3827V15.7045H92.398V18.7407H96.438V20.9732H92.398V24.0724H97.6731V26.3942H89.3984V13.3827H97.6731Z" fill="#42175B"/>
<path d="M101.259 13.4012C101.342 13.4115 101.422 13.4342 101.498 13.4687C101.572 13.5038 101.64 13.5502 101.701 13.6061C101.78 13.6813 101.853 13.762 101.921 13.8477L108.029 21.6614C108.005 21.4107 107.987 21.1691 107.976 20.9333C107.964 20.6974 107.957 20.4753 107.957 20.2681V13.3829H110.587V26.3943H109.034C108.835 26.3997 108.636 26.363 108.452 26.2867C108.272 26.1948 108.116 26.0601 107.999 25.894L101.938 18.1432C101.956 18.3722 101.971 18.5939 101.982 18.8084C101.995 19.0259 102 19.2297 102 19.4198V26.3943H99.3672V13.3829H100.937C101.045 13.3822 101.152 13.3883 101.259 13.4012Z" fill="#42175B"/>
<path d="M122.042 13.3828V15.7767H118.422V26.3943H115.44V15.7767H111.82V13.3828H122.042Z" fill="#42175B"/>
<path d="M143.722 13.5703L139.771 26.3929H138.074L134.986 16.8824C134.907 16.6587 134.845 16.429 134.801 16.1955C134.736 16.4703 134.675 16.6992 134.616 16.8824L131.493 26.394H129.807L125.855 13.5715H127.425C127.573 13.566 127.718 13.6086 127.84 13.6928C127.952 13.7703 128.032 13.8857 128.067 14.018L130.563 22.6045C130.609 22.7705 130.652 22.948 130.691 23.1495C130.729 23.351 130.769 23.5502 130.804 23.7654C130.846 23.5502 130.887 23.3452 130.932 23.1495C130.972 22.9648 131.024 22.7828 131.087 22.6045L133.945 14.018C133.985 13.8918 134.064 13.7821 134.171 13.7054C134.288 13.615 134.433 13.5678 134.58 13.5715H135.119C135.264 13.5656 135.407 13.6095 135.525 13.6962C135.629 13.7796 135.707 13.8912 135.751 14.018L138.6 22.6045C138.716 22.9706 138.81 23.3433 138.883 23.7207C138.953 23.3097 139.03 22.9377 139.109 22.6045L141.615 14.018C141.651 13.8897 141.732 13.7788 141.842 13.7054C141.961 13.6155 142.107 13.5684 142.256 13.5715L143.722 13.5703Z" fill="#42175B"/>
<path d="M155.894 13.5703V26.3929H154.015V20.6159H147.408V26.394H145.516V13.5715H147.403V19.2329H154.011V13.5703H155.894Z" fill="#42175B"/>
<path d="M169.473 26.3929H168.026C167.88 26.399 167.737 26.3545 167.62 26.2669C167.515 26.1843 167.437 26.073 167.393 25.9464L166.274 22.9697H160.689L159.569 25.9464C159.522 26.0675 159.444 26.1737 159.343 26.2543C159.228 26.3474 159.084 26.3964 158.937 26.3929H157.484L162.53 13.5703H164.427L169.473 26.3929ZM165.764 21.6153L163.885 16.6409C163.724 16.2211 163.588 15.7917 163.479 15.3552C163.415 15.6116 163.348 15.8498 163.28 16.0696C163.213 16.2905 163.146 16.4863 163.082 16.6592L161.211 21.6153H165.764Z" fill="#42175B"/>
<path d="M178.302 24.794V26.3968H171.051V13.5742H172.929V24.794H178.302Z" fill="#42175B"/>
<path d="M187.997 24.8473L187.988 26.3929H180.137V13.5703H187.988V15.1159H182.024V19.1779H186.823V20.6662H182.024V24.845L187.997 24.8473Z" fill="#42175B"/>
</g>
<defs>
<clipPath id="clip0_1_3430">
<rect width="188" height="37" fill="white" transform="translate(0 0.5)"/>
</clipPath>
</defs>
</svg>
