<svg width="147" height="81" viewBox="0 0 147 81" fill="none" xmlns="http://www.w3.org/2000/svg">
<g clip-path="url(#clip0_1_1767)">
<rect y="0.333252" width="209" height="237" rx="10" fill="white"/>
<path d="M17.7753 19.2177L24.6982 17.5708L25.1252 17.8758L25.0032 22.2369V30.9288C25.0032 31.6404 25.0032 32.3621 25.0032 33.0941C25.0032 33.826 25.0134 34.558 25.0337 35.2899L28.9984 36.0829V37.3333H17.2568V36.0829L21.2825 35.3204C21.3028 34.5885 21.313 33.8565 21.313 33.1246C21.313 32.3723 21.313 31.6404 21.313 30.9288V20.4071L17.7753 20.7121V19.2177ZM35.6936 27.635C35.6936 29.9528 35.8359 31.742 36.1205 33.0026C36.4052 34.2428 36.7813 35.0968 37.249 35.5644C37.7166 36.032 38.235 36.2658 38.8043 36.2658C39.3533 36.2658 39.8616 36.032 40.3292 35.5644C40.7968 35.0764 41.173 34.2123 41.4576 32.9721C41.7423 31.7115 41.8846 29.9325 41.8846 27.635C41.8846 25.2969 41.7423 23.4975 41.4576 22.2369C41.173 20.9764 40.7968 20.1123 40.3292 19.6446C39.8616 19.1567 39.3533 18.9127 38.8043 18.9127C38.235 18.9127 37.7166 19.1567 37.249 19.6446C36.7813 20.1123 36.4052 20.9764 36.1205 22.2369C35.8359 23.4772 35.6936 25.2765 35.6936 27.635ZM38.8043 17.4183C39.9632 17.4183 41.0612 17.764 42.0981 18.4552C43.135 19.1262 43.9686 20.2139 44.5989 21.7185C45.2495 23.2027 45.5748 25.1749 45.5748 27.635C45.5748 30.0545 45.2495 32.0165 44.5989 33.5211C43.9686 35.0053 43.135 36.0829 42.0981 36.7538C41.0612 37.4247 39.9632 37.7602 38.8043 37.7602C37.6251 37.7602 36.517 37.4247 35.4801 36.7538C34.4432 36.0829 33.5994 35.0053 32.9488 33.5211C32.3185 32.0165 32.0034 30.0545 32.0034 27.635C32.0034 25.1749 32.3185 23.2027 32.9488 21.7185C33.5994 20.2139 34.4432 19.1262 35.4801 18.4552C36.517 17.764 37.6251 17.4183 38.8043 17.4183ZM51.538 27.635C51.538 29.9528 51.6804 31.742 51.965 33.0026C52.2496 34.2428 52.6258 35.0968 53.0934 35.5644C53.561 36.032 54.0795 36.2658 54.6488 36.2658C55.1977 36.2658 55.706 36.032 56.1737 35.5644C56.6413 35.0764 57.0174 34.2123 57.3021 32.9721C57.5867 31.7115 57.7291 29.9325 57.7291 27.635C57.7291 25.2969 57.5867 23.4975 57.3021 22.2369C57.0174 20.9764 56.6413 20.1123 56.1737 19.6446C55.706 19.1567 55.1977 18.9127 54.6488 18.9127C54.0795 18.9127 53.561 19.1567 53.0934 19.6446C52.6258 20.1123 52.2496 20.9764 51.965 22.2369C51.6804 23.4772 51.538 25.2765 51.538 27.635ZM54.6488 17.4183C55.8077 17.4183 56.9056 17.764 57.9425 18.4552C58.9795 19.1262 59.8131 20.2139 60.4433 21.7185C61.094 23.2027 61.4193 25.1749 61.4193 27.635C61.4193 30.0545 61.094 32.0165 60.4433 33.5211C59.8131 35.0053 58.9795 36.0829 57.9425 36.7538C56.9056 37.4247 55.8077 37.7602 54.6488 37.7602C53.4696 37.7602 52.3615 37.4247 51.3246 36.7538C50.2876 36.0829 49.4439 35.0053 48.7933 33.5211C48.163 32.0165 47.8478 30.0545 47.8478 27.635C47.8478 25.1749 48.163 23.2027 48.7933 21.7185C49.4439 20.2139 50.2876 19.1262 51.3246 18.4552C52.3615 17.764 53.4696 17.4183 54.6488 17.4183ZM67.3825 27.635C67.3825 29.9528 67.5248 31.742 67.8095 33.0026C68.0941 34.2428 68.4702 35.0968 68.9379 35.5644C69.4055 36.032 69.924 36.2658 70.4932 36.2658C71.0422 36.2658 71.5505 36.032 72.0181 35.5644C72.4858 35.0764 72.8619 34.2123 73.1465 32.9721C73.4312 31.7115 73.5735 29.9325 73.5735 27.635C73.5735 25.2969 73.4312 23.4975 73.1465 22.2369C72.8619 20.9764 72.4858 20.1123 72.0181 19.6446C71.5505 19.1567 71.0422 18.9127 70.4932 18.9127C69.924 18.9127 69.4055 19.1567 68.9379 19.6446C68.4702 20.1123 68.0941 20.9764 67.8095 22.2369C67.5248 23.4772 67.3825 25.2765 67.3825 27.635ZM70.4932 17.4183C71.6522 17.4183 72.7501 17.764 73.787 18.4552C74.8239 19.1262 75.6575 20.2139 76.2878 21.7185C76.9384 23.2027 77.2637 25.1749 77.2637 27.635C77.2637 30.0545 76.9384 32.0165 76.2878 33.5211C75.6575 35.0053 74.8239 36.0829 73.787 36.7538C72.7501 37.4247 71.6522 37.7602 70.4932 37.7602C69.314 37.7602 68.2059 37.4247 67.169 36.7538C66.1321 36.0829 65.2883 35.0053 64.6377 33.5211C64.0074 32.0165 63.6923 30.0545 63.6923 27.635C63.6923 25.1749 64.0074 23.2027 64.6377 21.7185C65.2883 20.2139 66.1321 19.1262 67.169 18.4552C68.2059 17.764 69.314 17.4183 70.4932 17.4183ZM85.4228 35.0764V28.4889H79.2623V26.2931H85.4228V19.8581H87.7406V26.2931H93.8706V28.4889H87.7406V35.0764H85.4228Z" fill="#FCAE0C"/>
<path d="M22.9494 51.5584V53.19H18.0622V56.2474H21.9125V57.8256H18.0622V60.944H22.9494V62.5833H15.996V51.5584H22.9494ZM26.4683 58.5499L23.8989 54.7606H25.7135C25.8508 54.7606 25.9524 54.7809 26.0185 54.8216C26.0846 54.8572 26.143 54.9182 26.1938 55.0046L27.8331 57.6198C27.8585 57.5334 27.889 57.4469 27.9246 57.3605C27.9653 57.2741 28.0135 57.1877 28.0695 57.1013L29.3885 55.0427C29.4495 54.9461 29.513 54.875 29.5791 54.8292C29.6452 54.7835 29.7265 54.7606 29.8231 54.7606H31.5538L28.9768 58.4661L31.6605 62.5833H29.8459C29.7087 62.5833 29.5969 62.5477 29.5105 62.4765C29.4291 62.4053 29.3605 62.324 29.3046 62.2325L27.6425 59.5106C27.5967 59.6936 27.5332 59.8461 27.4519 59.9681L25.988 62.2325C25.9321 62.3189 25.8635 62.4003 25.7821 62.4765C25.7008 62.5477 25.5991 62.5833 25.4772 62.5833H23.7922L26.4683 58.5499ZM32.8505 65.1374V54.7606H34.0018C34.1238 54.7606 34.228 54.7886 34.3144 54.8445C34.4008 54.9004 34.4568 54.9868 34.4822 55.1037L34.6347 55.828C34.9498 55.4671 35.3107 55.1749 35.7173 54.9512C36.129 54.7276 36.6094 54.6158 37.1583 54.6158C37.5853 54.6158 37.9741 54.7047 38.3249 54.8826C38.6807 55.0605 38.9857 55.3197 39.2398 55.6603C39.499 55.9958 39.6973 56.4126 39.8345 56.9107C39.9768 57.4037 40.048 57.9705 40.048 58.6109C40.048 59.1955 39.9692 59.7368 39.8116 60.2349C39.6541 60.7331 39.4279 61.1651 39.1331 61.5311C38.8433 61.8971 38.4901 62.1842 38.0733 62.3926C37.6615 62.596 37.199 62.6976 36.6856 62.6976C36.2434 62.6976 35.8673 62.6315 35.5572 62.4994C35.2522 62.3621 34.9778 62.1741 34.7338 61.9352V65.1374H32.8505ZM36.5103 56.1025C36.1189 56.1025 35.7834 56.1864 35.5038 56.3541C35.2294 56.5168 34.9727 56.748 34.7338 57.0479V60.5552C34.9473 60.8195 35.1785 61.005 35.4276 61.1117C35.6817 61.2134 35.9537 61.2642 36.2434 61.2642C36.5281 61.2642 36.7847 61.2109 37.0135 61.1041C37.2473 60.9974 37.443 60.8347 37.6006 60.6162C37.7632 60.3976 37.8877 60.1231 37.9741 59.7927C38.0606 59.4572 38.1038 59.0633 38.1038 58.6109C38.1038 58.1535 38.0656 57.7672 37.9894 57.452C37.9182 57.1318 37.814 56.8726 37.6768 56.6743C37.5396 56.4761 37.3718 56.3312 37.1736 56.2398C36.9804 56.1483 36.7593 56.1025 36.5103 56.1025ZM44.7054 54.6386C45.1985 54.6386 45.6508 54.7174 46.0626 54.875C46.4794 55.0326 46.8377 55.2638 47.1376 55.5688C47.4375 55.8687 47.6713 56.2397 47.839 56.682C48.0068 57.1191 48.0907 57.6198 48.0907 58.184C48.0907 58.3263 48.083 58.4457 48.0678 58.5423C48.0576 58.6338 48.0347 58.7075 47.9992 58.7634C47.9687 58.8143 47.9255 58.8524 47.8695 58.8778C47.8136 58.8981 47.7425 58.9083 47.6561 58.9083H42.8222C42.8781 59.7114 43.0941 60.301 43.4703 60.6772C43.8464 61.0533 44.3445 61.2414 44.9646 61.2414C45.2696 61.2414 45.5314 61.2058 45.75 61.1346C45.9736 61.0635 46.1668 60.9847 46.3294 60.8983C46.4972 60.8118 46.642 60.7331 46.764 60.6619C46.8911 60.5907 47.0131 60.5552 47.13 60.5552C47.2062 60.5552 47.2723 60.5704 47.3282 60.6009C47.3841 60.6314 47.4324 60.6746 47.4731 60.7305L48.022 61.4167C47.8136 61.6607 47.5798 61.8666 47.3206 62.0343C47.0614 62.1969 46.7894 62.3291 46.5048 62.4308C46.2252 62.5273 45.938 62.596 45.6432 62.6366C45.3535 62.6773 45.0714 62.6976 44.7969 62.6976C44.253 62.6976 43.7473 62.6087 43.2797 62.4308C42.812 62.2478 42.4054 61.9809 42.0598 61.6302C41.7141 61.2744 41.4422 60.8373 41.2439 60.3188C41.0457 59.7953 40.9466 59.1904 40.9466 58.5042C40.9466 57.9705 41.033 57.4698 41.2058 57.0022C41.3786 56.5295 41.6252 56.1203 41.9454 55.7747C42.2707 55.4239 42.6646 55.1469 43.1272 54.9436C43.5948 54.7403 44.1209 54.6386 44.7054 54.6386ZM44.7435 55.9881C44.1946 55.9881 43.7651 56.1432 43.455 56.4532C43.145 56.7633 42.9467 57.203 42.8603 57.7723H46.398C46.398 57.5283 46.365 57.2995 46.2989 57.0861C46.2328 56.8675 46.1312 56.6769 45.9939 56.5142C45.8567 56.3516 45.6839 56.2245 45.4755 56.133C45.2671 56.0364 45.0231 55.9881 44.7435 55.9881ZM49.6183 62.5833V54.7606H50.7238C50.917 54.7606 51.0517 54.7962 51.1279 54.8674C51.2042 54.9385 51.255 55.0605 51.2804 55.2333L51.3948 56.1788C51.6743 55.6959 52.0022 55.3147 52.3783 55.0351C52.7544 54.7555 53.1763 54.6158 53.644 54.6158C54.0303 54.6158 54.3505 54.7047 54.6046 54.8826L54.3607 56.2931C54.3454 56.3846 54.3124 56.4507 54.2615 56.4914C54.2107 56.5269 54.1421 56.5447 54.0557 56.5447C53.9794 56.5447 53.8752 56.5269 53.7431 56.4914C53.6109 56.4558 53.4356 56.438 53.217 56.438C52.8256 56.438 52.4901 56.5473 52.2106 56.7658C51.931 56.9793 51.6947 57.2945 51.5015 57.7113V62.5833H49.6183ZM58.4123 62.7052C57.7363 62.7052 57.2153 62.5146 56.8493 62.1334C56.4833 61.7471 56.3003 61.2159 56.3003 60.5399V56.1711H55.5074C55.4057 56.1711 55.3168 56.1381 55.2406 56.072C55.1694 56.0059 55.1338 55.9068 55.1338 55.7747V55.0275L56.3918 54.8216L56.7883 52.6868C56.8086 52.5851 56.8544 52.5063 56.9255 52.4504C57.0018 52.3945 57.0958 52.3666 57.2076 52.3666H58.1836V54.8292H60.2422V56.1711H58.1836V60.4103C58.1836 60.6543 58.2446 60.8449 58.3666 60.9821C58.4885 61.1194 58.6512 61.188 58.8545 61.188C58.9714 61.188 59.068 61.1753 59.1442 61.1499C59.2256 61.1194 59.2942 61.0889 59.3501 61.0584C59.4111 61.0279 59.4645 60.9999 59.5102 60.9745C59.556 60.944 59.6017 60.9288 59.6475 60.9288C59.7034 60.9288 59.7491 60.944 59.7847 60.9745C59.8203 60.9999 59.8584 61.0406 59.8991 61.0965L60.4633 62.0114C60.1888 62.2402 59.8736 62.413 59.5178 62.5299C59.162 62.6468 58.7935 62.7052 58.4123 62.7052ZM63.7735 51.5584H65.4966C65.6745 51.5584 65.8219 51.6016 65.9388 51.688C66.0608 51.7693 66.1421 51.8811 66.1828 52.0235L68.0584 58.6186C68.1041 58.7812 68.1448 58.9591 68.1804 59.1523C68.221 59.3403 68.2591 59.5411 68.2947 59.7546C68.3354 59.5411 68.3786 59.3403 68.4243 59.1523C68.4752 58.9591 68.5285 58.7812 68.5844 58.6186L70.7498 52.0235C70.7904 51.9065 70.8692 51.7998 70.9861 51.7032C71.1081 51.6067 71.2555 51.5584 71.4283 51.5584H72.0307C72.2086 51.5584 72.356 51.6016 72.4729 51.688C72.5898 51.7693 72.6711 51.8811 72.7169 52.0235L74.867 58.6186C74.9788 58.9439 75.0754 59.3048 75.1567 59.7012C75.1923 59.503 75.2278 59.3124 75.2634 59.1294C75.3041 58.9464 75.3448 58.7761 75.3854 58.6186L77.261 52.0235C77.2966 51.8964 77.3754 51.7871 77.4974 51.6956C77.6194 51.6041 77.7668 51.5584 77.9396 51.5584H79.5483L76.125 62.5833H74.2723L71.8629 55.0503C71.8324 54.9538 71.7994 54.8496 71.7638 54.7377C71.7333 54.6259 71.7028 54.5065 71.6723 54.3794C71.6418 54.5065 71.6088 54.6259 71.5732 54.7377C71.5427 54.8496 71.5122 54.9538 71.4817 55.0503L69.0495 62.5833H67.1968L63.7735 51.5584ZM80.652 62.5833V54.7606H81.7575C81.9507 54.7606 82.0854 54.7962 82.1616 54.8674C82.2378 54.9385 82.2887 55.0605 82.3141 55.2333L82.4285 56.1788C82.708 55.6959 83.0359 55.3147 83.412 55.0351C83.7881 54.7555 84.21 54.6158 84.6777 54.6158C85.064 54.6158 85.3842 54.7047 85.6383 54.8826L85.3943 56.2931C85.3791 56.3846 85.3461 56.4507 85.2952 56.4914C85.2444 56.5269 85.1758 56.5447 85.0894 56.5447C85.0131 56.5447 84.9089 56.5269 84.7768 56.4914C84.6446 56.4558 84.4693 56.438 84.2507 56.438C83.8593 56.438 83.5238 56.5473 83.2443 56.7658C82.9647 56.9793 82.7283 57.2945 82.5352 57.7113V62.5833H80.652ZM88.8818 54.7606V62.5833H86.9986V54.7606H88.8818ZM89.1639 52.4809C89.1639 52.6436 89.1309 52.7961 89.0648 52.9384C88.9987 53.0807 88.9098 53.2052 88.7979 53.312C88.6912 53.4187 88.5641 53.5051 88.4167 53.5712C88.2693 53.6322 88.1117 53.6627 87.944 53.6627C87.7813 53.6627 87.6263 53.6322 87.4789 53.5712C87.3366 53.5051 87.212 53.4187 87.1053 53.312C86.9986 53.2052 86.9122 53.0807 86.8461 52.9384C86.7851 52.7961 86.7546 52.6436 86.7546 52.4809C86.7546 52.3132 86.7851 52.1556 86.8461 52.0082C86.9122 51.8608 86.9986 51.7337 87.1053 51.627C87.212 51.5202 87.3366 51.4364 87.4789 51.3754C87.6263 51.3093 87.7813 51.2763 87.944 51.2763C88.1117 51.2763 88.2693 51.3093 88.4167 51.3754C88.5641 51.4364 88.6912 51.5202 88.7979 51.627C88.9098 51.7337 88.9987 51.8608 89.0648 52.0082C89.1309 52.1556 89.1639 52.3132 89.1639 52.4809ZM93.5858 62.7052C92.9098 62.7052 92.3888 62.5146 92.0228 62.1334C91.6568 61.7471 91.4739 61.2159 91.4739 60.5399V56.1711H90.6809C90.5793 56.1711 90.4903 56.1381 90.4141 56.072C90.3429 56.0059 90.3073 55.9068 90.3073 55.7747V55.0275L91.5653 54.8216L91.9618 52.6868C91.9822 52.5851 92.0279 52.5063 92.0991 52.4504C92.1753 52.3945 92.2693 52.3666 92.3812 52.3666H93.3571V54.8292H95.4157V56.1711H93.3571V60.4103C93.3571 60.6543 93.4181 60.8449 93.5401 60.9821C93.6621 61.1194 93.8247 61.188 94.028 61.188C94.1449 61.188 94.2415 61.1753 94.3178 61.1499C94.3991 61.1194 94.4677 61.0889 94.5236 61.0584C94.5846 61.0279 94.638 60.9999 94.6837 60.9745C94.7295 60.944 94.7752 60.9288 94.821 60.9288C94.8769 60.9288 94.9226 60.944 94.9582 60.9745C94.9938 60.9999 95.0319 61.0406 95.0726 61.0965L95.6368 62.0114C95.3623 62.2402 95.0472 62.413 94.6914 62.5299C94.3355 62.6468 93.967 62.7052 93.5858 62.7052ZM100.146 54.6386C100.639 54.6386 101.092 54.7174 101.503 54.875C101.92 55.0326 102.278 55.2638 102.578 55.5688C102.878 55.8687 103.112 56.2397 103.28 56.682C103.448 57.1191 103.531 57.6198 103.531 58.184C103.531 58.3263 103.524 58.4457 103.508 58.5423C103.498 58.6338 103.475 58.7075 103.44 58.7634C103.409 58.8143 103.366 58.8524 103.31 58.8778C103.254 58.8981 103.183 58.9083 103.097 58.9083H98.2629C98.3188 59.7114 98.5348 60.301 98.911 60.6772C99.2871 61.0533 99.7852 61.2414 100.405 61.2414C100.71 61.2414 100.972 61.2058 101.191 61.1346C101.414 61.0635 101.607 60.9847 101.77 60.8983C101.938 60.8118 102.083 60.7331 102.205 60.6619C102.332 60.5907 102.454 60.5552 102.571 60.5552C102.647 60.5552 102.713 60.5704 102.769 60.6009C102.825 60.6314 102.873 60.6746 102.914 60.7305L103.463 61.4167C103.254 61.6607 103.021 61.8666 102.761 62.0343C102.502 62.1969 102.23 62.3291 101.945 62.4308C101.666 62.5273 101.379 62.596 101.084 62.6366C100.794 62.6773 100.512 62.6976 100.238 62.6976C99.6938 62.6976 99.188 62.6087 98.7204 62.4308C98.2527 62.2478 97.8461 61.9809 97.5005 61.6302C97.1548 61.2744 96.8829 60.8373 96.6847 60.3188C96.4864 59.7953 96.3873 59.1904 96.3873 58.5042C96.3873 57.9705 96.4737 57.4698 96.6465 57.0022C96.8194 56.5295 97.0659 56.1203 97.3861 55.7747C97.7114 55.4239 98.1053 55.1469 98.5679 54.9436C99.0355 54.7403 99.5616 54.6386 100.146 54.6386ZM100.184 55.9881C99.6353 55.9881 99.2058 56.1432 98.8957 56.4532C98.5857 56.7633 98.3874 57.203 98.301 57.7723H101.839C101.839 57.5283 101.806 57.2995 101.74 57.0861C101.674 56.8675 101.572 56.6769 101.435 56.5142C101.297 56.3516 101.125 56.2245 100.916 56.133C100.708 56.0364 100.464 55.9881 100.184 55.9881ZM105.059 62.5833V54.7606H106.165C106.358 54.7606 106.492 54.7962 106.569 54.8674C106.645 54.9385 106.696 55.0605 106.721 55.2333L106.835 56.1788C107.115 55.6959 107.443 55.3147 107.819 55.0351C108.195 54.7555 108.617 54.6158 109.085 54.6158C109.471 54.6158 109.791 54.7047 110.045 54.8826L109.801 56.2931C109.786 56.3846 109.753 56.4507 109.702 56.4914C109.651 56.5269 109.583 56.5447 109.496 56.5447C109.42 56.5447 109.316 56.5269 109.184 56.4914C109.052 56.4558 108.876 56.438 108.658 56.438C108.266 56.438 107.931 56.5473 107.651 56.7658C107.372 56.9793 107.135 57.2945 106.942 57.7113V62.5833H105.059ZM115.927 56.2855C115.876 56.3668 115.823 56.4253 115.767 56.4609C115.711 56.4914 115.64 56.5066 115.553 56.5066C115.462 56.5066 115.363 56.4812 115.256 56.4304C115.154 56.3795 115.035 56.3236 114.898 56.2626C114.76 56.1965 114.603 56.1381 114.425 56.0873C114.252 56.0364 114.046 56.011 113.807 56.011C113.436 56.011 113.144 56.0898 112.93 56.2474C112.717 56.4049 112.61 56.6108 112.61 56.865C112.61 57.0327 112.664 57.175 112.77 57.2919C112.882 57.4037 113.027 57.5029 113.205 57.5893C113.388 57.6757 113.594 57.7545 113.823 57.8256C114.051 57.8917 114.285 57.9654 114.524 58.0467C114.763 58.1281 114.997 58.2221 115.225 58.3288C115.454 58.4305 115.657 58.5627 115.835 58.7253C116.018 58.8829 116.163 59.0735 116.27 59.2971C116.382 59.5208 116.438 59.7902 116.438 60.1053C116.438 60.4815 116.369 60.8296 116.232 61.1499C116.095 61.465 115.894 61.7395 115.63 61.9733C115.365 62.202 115.037 62.3825 114.646 62.5146C114.26 62.6417 113.815 62.7052 113.312 62.7052C113.042 62.7052 112.778 62.6798 112.519 62.629C112.265 62.5833 112.018 62.5172 111.779 62.4308C111.545 62.3444 111.327 62.2427 111.123 62.1258C110.925 62.0089 110.75 61.8818 110.597 61.7446L111.032 61.0279C111.088 60.9415 111.154 60.8754 111.23 60.8296C111.306 60.7839 111.403 60.761 111.52 60.761C111.637 60.761 111.746 60.7941 111.848 60.8601C111.955 60.9262 112.077 60.9974 112.214 61.0736C112.351 61.1499 112.511 61.221 112.694 61.2871C112.882 61.3532 113.119 61.3862 113.403 61.3862C113.627 61.3862 113.817 61.3608 113.975 61.31C114.138 61.2541 114.27 61.1829 114.371 61.0965C114.478 61.0101 114.554 60.911 114.6 60.7991C114.651 60.6822 114.676 60.5628 114.676 60.4408C114.676 60.2578 114.621 60.1079 114.509 59.991C114.402 59.874 114.257 59.7724 114.074 59.686C113.896 59.5996 113.69 59.5233 113.457 59.4572C113.228 59.3861 112.991 59.3098 112.747 59.2285C112.509 59.1472 112.272 59.0532 112.038 58.9464C111.81 58.8346 111.604 58.6948 111.421 58.5271C111.243 58.3593 111.098 58.1535 110.986 57.9095C110.88 57.6655 110.826 57.3707 110.826 57.0251C110.826 56.7048 110.89 56.3999 111.017 56.1101C111.144 55.8204 111.329 55.5688 111.573 55.3553C111.822 55.1368 112.13 54.9639 112.496 54.8369C112.867 54.7047 113.294 54.6386 113.777 54.6386C114.316 54.6386 114.806 54.7276 115.248 54.9055C115.691 55.0834 116.059 55.3172 116.354 55.6069L115.927 56.2855Z" fill="black"/>
</g>
<rect x="0.5" y="0.833252" width="208" height="236" rx="9.5" stroke="#D9D9D9"/>
<defs>
<clipPath id="clip0_1_1767">
<rect y="0.333252" width="209" height="237" rx="10" fill="white"/>
</clipPath>
</defs>
</svg>
