<svg width="39" height="42" viewBox="0 0 39 42" fill="none" xmlns="http://www.w3.org/2000/svg">
<path d="M27.621 16.7238C28.3245 15.2853 29.544 14.2038 31.0605 13.6818C31.695 13.4628 32.349 13.3788 33 13.3758V4.83331C33 2.35231 30.981 0.333313 28.5 0.333313H4.5C2.019 0.333313 0 2.35231 0 4.83331V34.8333C0 37.3143 2.019 39.3333 4.5 39.3333H19.4235L19.2615 38.8623C18.609 36.9588 18.7365 34.9248 19.617 33.1263L27.621 16.7238ZM6 9.33331H24C24.8295 9.33331 25.5 10.0053 25.5 10.8333C25.5 11.6613 24.8295 12.3333 24 12.3333H6C5.1705 12.3333 4.5 11.6613 4.5 10.8333C4.5 10.0053 5.1705 9.33331 6 9.33331ZM6 15.3333H22.5C23.3295 15.3333 24 16.0053 24 16.8333C24 17.6613 23.3295 18.3333 22.5 18.3333H6C5.1705 18.3333 4.5 17.6613 4.5 16.8333C4.5 16.0053 5.1705 15.3333 6 15.3333ZM16.5 30.3333H6C5.1705 30.3333 4.5 29.6613 4.5 28.8333C4.5 28.0053 5.1705 27.3333 6 27.3333H16.5C17.3295 27.3333 18 28.0053 18 28.8333C18 29.6613 17.3295 30.3333 16.5 30.3333ZM6 24.3333C5.1705 24.3333 4.5 23.6613 4.5 22.8333C4.5 22.0053 5.1705 21.3333 6 21.3333H19.5C20.3295 21.3333 21 22.0053 21 22.8333C21 23.6613 20.3295 24.3333 19.5 24.3333H6ZM38.406 21.9858L30.399 38.3943C29.8695 39.4758 28.953 40.2858 27.8175 40.6758L24.981 41.6508C24.8205 41.7063 24.654 41.7333 24.4935 41.7333C23.871 41.7333 23.289 41.3433 23.076 40.7208L22.0995 37.8843C21.708 36.7443 21.7845 35.5233 22.3125 34.4448L30.3195 18.0393C30.669 17.3193 31.281 16.7793 32.0385 16.5183C32.7945 16.2573 33.609 16.3053 34.329 16.6593L37.026 17.9748C37.746 18.3258 38.286 18.9378 38.547 19.6953C38.808 20.4528 38.7585 21.2658 38.406 21.9858Z" fill="black"/>
</svg>
