<svg width="56" height="56" viewBox="0 0 56 56" fill="none" xmlns="http://www.w3.org/2000/svg">
<g clip-path="url(#clip0_155_1413)">
<path d="M33.084 0.967773V10.6103H42.628L33.084 0.967773Z" fill="#EDAD0B"/>
<path d="M40.1934 45.9111V53.376C40.1934 54.8252 41.3691 56.001 42.8184 56.001C44.2676 56.001 45.4434 54.8252 45.4434 53.376V45.9308C44.6088 46.0796 43.7502 46.1572 42.873 46.1572C41.9576 46.1572 41.0629 46.073 40.1934 45.9111Z" fill="#EDAD0B"/>
<path d="M42.873 42.876C49.1251 42.876 54.1934 37.8077 54.1934 31.5557C54.1934 25.3036 49.1251 20.2354 42.873 20.2354C36.621 20.2354 31.5527 25.3036 31.5527 31.5557C31.5527 37.8077 36.621 42.876 42.873 42.876Z" fill="#EDAD0B"/>
<path d="M10.334 10.3916H21.0527V17.6104H10.334V10.3916Z" fill="#EDAD0B"/>
<path d="M28.6575 34.8916H8.69336C7.7873 34.8916 7.05273 34.157 7.05273 33.251C7.05273 32.3449 7.7873 31.6104 8.69336 31.6104H28.2725C28.2724 31.5921 28.2715 31.5739 28.2715 31.5557C28.2715 30.2907 28.4334 29.0629 28.7372 27.8916H8.69336C7.7873 27.8916 7.05273 27.157 7.05273 26.251C7.05273 25.3449 7.7873 24.6104 8.69336 24.6104H30.0318C32.5059 20.0542 37.3343 16.9541 42.873 16.9541C43.1115 16.9541 43.3488 16.9596 43.584 16.9716V13.8916H31.4434C30.5377 13.8916 29.8027 13.1566 29.8027 12.251V0.000976562H6.72461C4.01102 0.000976562 1.80273 2.20926 1.80273 4.92285V47.4697C1.80273 50.1833 4.01102 52.3916 6.72461 52.3916H36.9121V44.8841C32.8088 43.0415 29.7056 39.358 28.6575 34.8916ZM7.05273 8.75098C7.05273 7.84491 7.7873 7.11035 8.69336 7.11035H22.6934C23.5994 7.11035 24.334 7.84491 24.334 8.75098V19.251C24.334 20.157 23.5994 20.8916 22.6934 20.8916H8.69336C7.7873 20.8916 7.05273 20.157 7.05273 19.251V8.75098ZM20.0684 41.8916H8.69336C7.7873 41.8916 7.05273 41.157 7.05273 40.251C7.05273 39.3449 7.7873 38.6104 8.69336 38.6104H20.0684C20.9744 38.6104 21.709 39.3449 21.709 40.251C21.709 41.157 20.9744 41.8916 20.0684 41.8916Z" fill="#EDAD0B"/>
</g>
<defs>
<clipPath id="clip0_155_1413">
<rect width="56" height="56" fill="white"/>
</clipPath>
</defs>
</svg>
