<svg width="145" height="250" viewBox="0 0 145 250" fill="none" xmlns="http://www.w3.org/2000/svg">
<g filter="url(#filter0_d_1_1812)">
<g clip-path="url(#clip0_1_1812)">
<rect x="4" y="2.33331" width="209" height="237" rx="10" fill="white"/>
<path d="M34.1011 34.55H31.0819V39.5821H27.6966V34.55H19.5843V32.3847L28.5506 19.8196H31.0819V31.9577H34.1011V34.55ZM21.7496 31.9577H27.6966V23.5099L21.7496 31.9577ZM39.5764 29.8839C39.5764 32.2017 39.7187 33.9909 40.0034 35.2514C40.288 36.4917 40.6641 37.3456 41.1318 37.8132C41.5994 38.2809 42.1179 38.5147 42.6871 38.5147C43.2361 38.5147 43.7444 38.2809 44.212 37.8132C44.6797 37.3253 45.0558 36.4612 45.3404 35.2209C45.6251 33.9604 45.7674 32.1813 45.7674 29.8839C45.7674 27.5457 45.6251 25.7463 45.3404 24.4858C45.0558 23.2252 44.6797 22.3611 44.212 21.8935C43.7444 21.4055 43.2361 21.1615 42.6871 21.1615C42.1179 21.1615 41.5994 21.4055 41.1318 21.8935C40.6641 22.3611 40.288 23.2252 40.0034 24.4858C39.7187 25.726 39.5764 27.5254 39.5764 29.8839ZM42.6871 19.6672C43.8461 19.6672 44.944 20.0128 45.9809 20.7041C47.0178 21.375 47.8514 22.4628 48.4817 23.9673C49.1323 25.4515 49.4576 27.4237 49.4576 29.8839C49.4576 32.3033 49.1323 34.2653 48.4817 35.7699C47.8514 37.2541 47.0178 38.3317 45.9809 39.0026C44.944 39.6736 43.8461 40.0091 42.6871 40.0091C41.5079 40.0091 40.3998 39.6736 39.3629 39.0026C38.326 38.3317 37.4822 37.2541 36.8316 35.7699C36.2013 34.2653 35.8862 32.3033 35.8862 29.8839C35.8862 27.4237 36.2013 25.4515 36.8316 23.9673C37.4822 22.4628 38.326 21.375 39.3629 20.7041C40.3998 20.0128 41.5079 19.6672 42.6871 19.6672ZM57.6167 37.3253V30.7378H51.4562V28.542H57.6167V22.107H59.9345V28.542H66.0645V30.7378H59.9345V37.3253H57.6167Z" fill="#FCAE0C"/>
<path d="M25.9049 55.5624C25.849 55.6743 25.7829 55.753 25.7067 55.7988C25.6355 55.8445 25.5491 55.8674 25.4474 55.8674C25.3458 55.8674 25.2314 55.8293 25.1043 55.753C24.9773 55.6717 24.8273 55.5828 24.6545 55.4862C24.4817 55.3896 24.2783 55.3032 24.0445 55.227C23.8158 55.1456 23.5439 55.105 23.2287 55.105C22.9441 55.105 22.695 55.1405 22.4815 55.2117C22.2731 55.2778 22.0952 55.3718 21.9478 55.4938C21.8055 55.6158 21.6988 55.7632 21.6276 55.936C21.5564 56.1038 21.5209 56.2893 21.5209 56.4926C21.5209 56.7518 21.592 56.9679 21.7343 57.1407C21.8817 57.3135 22.0749 57.4609 22.3138 57.5829C22.5527 57.7049 22.8246 57.8142 23.1296 57.9107C23.4346 58.0073 23.7446 58.1115 24.0598 58.2233C24.38 58.3301 24.6926 58.4572 24.9976 58.6046C25.3026 58.7469 25.5745 58.9299 25.8134 59.1535C26.0523 59.3721 26.2429 59.6415 26.3852 59.9617C26.5326 60.2819 26.6063 60.6708 26.6063 61.1282C26.6063 61.6264 26.5199 62.094 26.3471 62.5311C26.1794 62.9632 25.9303 63.3419 25.5999 63.6672C25.2746 63.9874 24.8756 64.2415 24.4029 64.4296C23.9302 64.6126 23.3888 64.7041 22.7789 64.7041C22.4282 64.7041 22.0825 64.6685 21.742 64.5973C21.4014 64.5313 21.0736 64.4347 20.7584 64.3076C20.4484 64.1805 20.1561 64.0281 19.8816 63.8501C19.6122 63.6722 19.3708 63.474 19.1573 63.2554L19.752 62.2719C19.8079 62.2007 19.874 62.1423 19.9502 62.0965C20.0316 62.0457 20.1205 62.0203 20.2171 62.0203C20.3442 62.0203 20.4814 62.0737 20.6288 62.1804C20.7762 62.2821 20.949 62.3964 21.1473 62.5235C21.3506 62.6506 21.5869 62.7675 21.8563 62.8742C22.1308 62.9759 22.4587 63.0267 22.8399 63.0267C23.4244 63.0267 23.8768 62.8895 24.197 62.615C24.5172 62.3354 24.6774 61.9364 24.6774 61.418C24.6774 61.1282 24.6037 60.8919 24.4562 60.7089C24.3139 60.5259 24.1233 60.3734 23.8844 60.2514C23.6455 60.1244 23.3736 60.0176 23.0686 59.9312C22.7636 59.8448 22.4536 59.7508 22.1384 59.6491C21.8233 59.5474 21.5132 59.4255 21.2083 59.2831C20.9033 59.1408 20.6313 58.9553 20.3924 58.7266C20.1535 58.4978 19.9604 58.2132 19.813 57.8726C19.6707 57.527 19.5995 57.1026 19.5995 56.5993C19.5995 56.1978 19.6783 55.8064 19.8359 55.4252C19.9985 55.044 20.2323 54.706 20.5373 54.4111C20.8474 54.1163 21.226 53.88 21.6733 53.7021C22.1206 53.5242 22.6315 53.4352 23.2058 53.4352C23.8565 53.4352 24.4563 53.5369 25.0052 53.7402C25.5542 53.9435 26.0218 54.2282 26.4081 54.5941L25.9049 55.5624ZM29.7877 56.7595V61.7306C29.7877 62.2084 29.897 62.5794 30.1156 62.8437C30.3392 63.103 30.6722 63.2326 31.1144 63.2326C31.4397 63.2326 31.7447 63.1614 32.0293 63.0191C32.3139 62.8717 32.5833 62.6709 32.8375 62.4168V56.7595H34.7207V64.5821H33.5694C33.3255 64.5821 33.1653 64.4677 33.0891 64.239L32.9595 63.6138C32.7968 63.7764 32.6291 63.9264 32.4563 64.0636C32.2835 64.1958 32.0979 64.3102 31.8997 64.4067C31.7065 64.4982 31.4956 64.5694 31.2669 64.6202C31.0432 64.6761 30.8018 64.7041 30.5425 64.7041C30.1156 64.7041 29.7369 64.6329 29.4065 64.4906C29.0812 64.3432 28.8067 64.1373 28.5831 63.873C28.3594 63.6087 28.1891 63.2961 28.0722 62.9352C27.9604 62.5693 27.9045 62.1677 27.9045 61.7306V56.7595H29.7877ZM36.7314 67.1363V56.7595H37.8827C38.0047 56.7595 38.1089 56.7874 38.1953 56.8433C38.2817 56.8992 38.3376 56.9856 38.363 57.1026L38.5155 57.8269C38.8307 57.466 39.1916 57.1737 39.5982 56.9501C40.0099 56.7264 40.4902 56.6146 41.0392 56.6146C41.4662 56.6146 41.855 56.7035 42.2057 56.8814C42.5615 57.0593 42.8665 57.3186 43.1207 57.6591C43.3799 57.9946 43.5781 58.4114 43.7154 58.9095C43.8577 59.4026 43.9289 59.9693 43.9289 60.6098C43.9289 61.1943 43.8501 61.7356 43.6925 62.2338C43.5349 62.7319 43.3087 63.164 43.0139 63.5299C42.7242 63.8959 42.3709 64.1831 41.9541 64.3915C41.5424 64.5948 41.0799 64.6965 40.5665 64.6965C40.1243 64.6965 39.7481 64.6304 39.4381 64.4982C39.1331 64.361 38.8586 64.1729 38.6146 63.934V67.1363H36.7314ZM40.3911 58.1014C39.9997 58.1014 39.6643 58.1852 39.3847 58.353C39.1102 58.5156 38.8535 58.7469 38.6146 59.0468V62.554C38.8281 62.8183 39.0594 63.0038 39.3085 63.1106C39.5626 63.2122 39.8345 63.2631 40.1243 63.2631C40.4089 63.2631 40.6656 63.2097 40.8943 63.103C41.1282 62.9962 41.3238 62.8336 41.4814 62.615C41.6441 62.3964 41.7686 62.122 41.855 61.7916C41.9414 61.4561 41.9846 61.0622 41.9846 60.6098C41.9846 60.1523 41.9465 59.766 41.8703 59.4509C41.7991 59.1306 41.6949 58.8714 41.5577 58.6732C41.4204 58.4749 41.2527 58.3301 41.0545 58.2386C40.8613 58.1471 40.6402 58.1014 40.3911 58.1014ZM45.3535 67.1363V56.7595H46.5048C46.6268 56.7595 46.731 56.7874 46.8174 56.8433C46.9038 56.8992 46.9598 56.9856 46.9852 57.1026L47.1377 57.8269C47.4528 57.466 47.8137 57.1737 48.2203 56.9501C48.632 56.7264 49.1124 56.6146 49.6613 56.6146C50.0883 56.6146 50.4771 56.7035 50.8279 56.8814C51.1837 57.0593 51.4886 57.3186 51.7428 57.6591C52.002 57.9946 52.2003 58.4114 52.3375 58.9095C52.4798 59.4026 52.551 59.9693 52.551 60.6098C52.551 61.1943 52.4722 61.7356 52.3146 62.2338C52.1571 62.7319 51.9309 63.164 51.636 63.5299C51.3463 63.8959 50.9931 64.1831 50.5763 64.3915C50.1645 64.5948 49.702 64.6965 49.1886 64.6965C48.7464 64.6965 48.3703 64.6304 48.0602 64.4982C47.7552 64.361 47.4808 64.1729 47.2368 63.934V67.1363H45.3535ZM49.0133 58.1014C48.6219 58.1014 48.2864 58.1852 48.0068 58.353C47.7324 58.5156 47.4757 58.7469 47.2368 59.0468V62.554C47.4503 62.8183 47.6815 63.0038 47.9306 63.1106C48.1847 63.2122 48.4567 63.2631 48.7464 63.2631C49.031 63.2631 49.2877 63.2097 49.5165 63.103C49.7503 62.9962 49.946 62.8336 50.1035 62.615C50.2662 62.3964 50.3907 62.122 50.4771 61.7916C50.5636 61.4561 50.6068 61.0622 50.6068 60.6098C50.6068 60.1523 50.5686 59.766 50.4924 59.4509C50.4212 59.1306 50.317 58.8714 50.1798 58.6732C50.0426 58.4749 49.8748 58.3301 49.6766 58.2386C49.4834 58.1471 49.2623 58.1014 49.0133 58.1014ZM57.3152 56.6375C57.8997 56.6375 58.4283 56.7315 58.901 56.9196C59.3788 57.1076 59.7855 57.3745 60.1209 57.7201C60.4564 58.0658 60.7156 58.4877 60.8986 58.9858C61.0816 59.4839 61.1731 60.0405 61.1731 60.6555C61.1731 61.2756 61.0816 61.8348 60.8986 62.3329C60.7156 62.831 60.4564 63.2554 60.1209 63.6062C59.7855 63.9569 59.3788 64.2263 58.901 64.4144C58.4283 64.6024 57.8997 64.6965 57.3152 64.6965C56.7306 64.6965 56.1995 64.6024 55.7217 64.4144C55.2439 64.2263 54.8347 63.9569 54.4941 63.6062C54.1587 63.2554 53.8969 62.831 53.7088 62.3329C53.5258 61.8348 53.4343 61.2756 53.4343 60.6555C53.4343 60.0405 53.5258 59.4839 53.7088 58.9858C53.8969 58.4877 54.1587 58.0658 54.4941 57.7201C54.8347 57.3745 55.2439 57.1076 55.7217 56.9196C56.1995 56.7315 56.7306 56.6375 57.3152 56.6375ZM57.3152 63.2478C57.9658 63.2478 58.4461 63.0293 58.7562 62.5921C59.0713 62.155 59.2289 61.5145 59.2289 60.6708C59.2289 59.827 59.0713 59.184 58.7562 58.7418C58.4461 58.2996 57.9658 58.0785 57.3152 58.0785C56.6544 58.0785 56.1664 58.3021 55.8513 58.7494C55.5361 59.1916 55.3786 59.8321 55.3786 60.6708C55.3786 61.5095 55.5361 62.1499 55.8513 62.5921C56.1664 63.0293 56.6544 63.2478 57.3152 63.2478ZM62.6425 64.5821V56.7595H63.748C63.9412 56.7595 64.0759 56.795 64.1521 56.8662C64.2283 56.9374 64.2792 57.0593 64.3046 57.2322L64.419 58.1776C64.6985 57.6947 65.0264 57.3135 65.4025 57.0339C65.7786 56.7544 66.2005 56.6146 66.6682 56.6146C67.0545 56.6146 67.3747 56.7035 67.6288 56.8814L67.3848 58.292C67.3696 58.3835 67.3366 58.4495 67.2857 58.4902C67.2349 58.5258 67.1663 58.5436 67.0799 58.5436C67.0036 58.5436 66.8994 58.5258 66.7673 58.4902C66.6351 58.4546 66.4598 58.4368 66.2412 58.4368C65.8498 58.4368 65.5143 58.5461 65.2348 58.7647C64.9552 58.9782 64.7188 59.2933 64.5257 59.7101V64.5821H62.6425ZM71.4365 64.7041C70.7605 64.7041 70.2395 64.5135 69.8735 64.1323C69.5075 63.7459 69.3245 63.2148 69.3245 62.5388V58.17H68.5316C68.4299 58.17 68.341 58.1369 68.2648 58.0709C68.1936 58.0048 68.158 57.9057 68.158 57.7735V57.0263L69.416 56.8205L69.8125 54.6856C69.8328 54.584 69.8786 54.5052 69.9497 54.4493C70.026 54.3934 70.12 54.3654 70.2318 54.3654H71.2078V56.8281H73.2664V58.17H71.2078V62.4091C71.2078 62.6531 71.2688 62.8437 71.3908 62.981C71.5127 63.1182 71.6754 63.1868 71.8787 63.1868C71.9956 63.1868 72.0922 63.1741 72.1684 63.1487C72.2498 63.1182 72.3184 63.0877 72.3743 63.0572C72.4353 63.0267 72.4887 62.9988 72.5344 62.9733C72.5802 62.9428 72.6259 62.9276 72.6717 62.9276C72.7276 62.9276 72.7733 62.9428 72.8089 62.9733C72.8445 62.9988 72.8826 63.0394 72.9233 63.0953L73.4875 64.0103C73.213 64.239 72.8978 64.4118 72.542 64.5287C72.1862 64.6456 71.8177 64.7041 71.4365 64.7041ZM77.9968 56.6375C78.4899 56.6375 78.9422 56.7163 79.354 56.8738C79.7708 57.0314 80.1291 57.2627 80.429 57.5676C80.7289 57.8675 80.9627 58.2386 81.1304 58.6808C81.2982 59.1179 81.3821 59.6186 81.3821 60.1828C81.3821 60.3251 81.3744 60.4446 81.3592 60.5412C81.349 60.6327 81.3261 60.7064 81.2906 60.7623C81.2601 60.8131 81.2169 60.8512 81.1609 60.8766C81.105 60.897 81.0339 60.9071 80.9475 60.9071H76.1136C76.1695 61.7102 76.3855 62.2999 76.7617 62.676C77.1378 63.0521 77.6359 63.2402 78.256 63.2402C78.561 63.2402 78.8228 63.2046 79.0414 63.1335C79.265 63.0623 79.4582 62.9835 79.6208 62.8971C79.7886 62.8107 79.9334 62.7319 80.0554 62.6607C80.1825 62.5896 80.3045 62.554 80.4214 62.554C80.4976 62.554 80.5637 62.5693 80.6196 62.5997C80.6755 62.6302 80.7238 62.6735 80.7645 62.7294L81.3134 63.4156C81.105 63.6595 80.8712 63.8654 80.612 64.0331C80.3528 64.1958 80.0808 64.3279 79.7962 64.4296C79.5166 64.5262 79.2294 64.5948 78.9346 64.6355C78.6449 64.6761 78.3628 64.6965 78.0883 64.6965C77.5444 64.6965 77.0387 64.6075 76.5711 64.4296C76.1034 64.2466 75.6968 63.9798 75.3512 63.629C75.0055 63.2732 74.7336 62.8361 74.5353 62.3176C74.3371 61.7941 74.238 61.1892 74.238 60.503C74.238 59.9693 74.3244 59.4687 74.4972 59.001C74.67 58.5283 74.9166 58.1191 75.2368 57.7735C75.5621 57.4228 75.956 57.1458 76.4186 56.9424C76.8862 56.7391 77.4123 56.6375 77.9968 56.6375ZM78.0349 57.987C77.486 57.987 77.0565 58.142 76.7464 58.4521C76.4364 58.7621 76.2381 59.2018 76.1517 59.7711H79.6894C79.6894 59.5271 79.6564 59.2984 79.5903 59.0849C79.5242 58.8663 79.4226 58.6757 79.2853 58.5131C79.1481 58.3504 78.9753 58.2233 78.7669 58.1318C78.5585 58.0353 78.3145 57.987 78.0349 57.987ZM88.4145 64.5821C88.1705 64.5821 88.0104 64.4677 87.9342 64.239L87.7817 63.4842C87.619 63.6672 87.4487 63.8324 87.2708 63.9798C87.0929 64.1272 86.8998 64.2542 86.6914 64.361C86.4881 64.4677 86.267 64.5491 86.0281 64.605C85.7942 64.666 85.5401 64.6965 85.2656 64.6965C84.8386 64.6965 84.4473 64.6075 84.0915 64.4296C83.7356 64.2517 83.4281 63.995 83.1689 63.6595C82.9148 63.319 82.7165 62.8996 82.5742 62.4015C82.437 61.9034 82.3683 61.3341 82.3683 60.6936C82.3683 60.1142 82.4471 59.5754 82.6047 59.0773C82.7623 58.5791 82.9885 58.1471 83.2833 57.7811C83.5781 57.4152 83.9313 57.1305 84.3431 56.9272C84.7548 56.7188 85.2173 56.6146 85.7307 56.6146C86.1678 56.6146 86.5414 56.6858 86.8515 56.8281C87.1615 56.9653 87.4386 57.1508 87.6825 57.3847V53.2522H89.5658V64.5821H88.4145ZM85.9061 63.2021C86.2974 63.2021 86.6304 63.1207 86.9049 62.9581C87.1793 62.7954 87.4386 62.5642 87.6825 62.2643V58.757C87.4691 58.4978 87.2352 58.3148 86.9811 58.2081C86.732 58.1014 86.4626 58.048 86.1729 58.048C85.8883 58.048 85.629 58.1014 85.3952 58.2081C85.1665 58.3148 84.9708 58.4775 84.8081 58.6961C84.6506 58.9095 84.5286 59.184 84.4422 59.5195C84.3558 59.8499 84.3126 60.2413 84.3126 60.6936C84.3126 61.1511 84.3481 61.54 84.4193 61.8602C84.4955 62.1753 84.6023 62.4346 84.7395 62.6379C84.8768 62.8361 85.0445 62.981 85.2427 63.0725C85.441 63.1589 85.6621 63.2021 85.9061 63.2021ZM21.8945 71.2522V82.5821H20.0112V71.2522H21.8945ZM30.1591 82.5821H29.3128C29.1349 82.5821 28.9951 82.5567 28.8934 82.5058C28.7918 82.4499 28.7155 82.3407 28.6647 82.178L28.4969 81.6214C28.2987 81.7993 28.103 81.9569 27.9099 82.0941C27.7218 82.2263 27.5261 82.3381 27.3228 82.4296C27.1195 82.5211 26.9034 82.5897 26.6747 82.6355C26.446 82.6812 26.1918 82.7041 25.9123 82.7041C25.5819 82.7041 25.2769 82.6609 24.9973 82.5745C24.7178 82.483 24.4763 82.3483 24.273 82.1704C24.0748 81.9925 23.9198 81.7714 23.8079 81.5071C23.6961 81.2427 23.6402 80.9352 23.6402 80.5845C23.6402 80.2897 23.7164 80 23.8689 79.7153C24.0265 79.4256 24.2857 79.1664 24.6466 78.9376C25.0075 78.7038 25.4878 78.5107 26.0876 78.3582C26.6874 78.2057 27.4321 78.1193 28.3216 78.0989V77.6415C28.3216 77.1179 28.2098 76.7316 27.9861 76.4826C27.7675 76.2284 27.4473 76.1014 27.0254 76.1014C26.7205 76.1014 26.4663 76.1369 26.263 76.2081C26.0597 76.2793 25.8818 76.3606 25.7293 76.4521C25.5819 76.5385 25.4446 76.6173 25.3176 76.6884C25.1905 76.7596 25.0507 76.7952 24.8982 76.7952C24.7712 76.7952 24.6619 76.7621 24.5704 76.6961C24.4789 76.63 24.4052 76.5486 24.3493 76.4521L24.0062 75.8497C24.9059 75.0263 25.9911 74.6146 27.2618 74.6146C27.7193 74.6146 28.1259 74.6908 28.4817 74.8433C28.8426 74.9907 29.1476 75.1991 29.3966 75.4685C29.6457 75.7328 29.8338 76.0505 29.9608 76.4216C30.093 76.7926 30.1591 77.1993 30.1591 77.6415V82.5821ZM26.4994 81.4079C26.6925 81.4079 26.8704 81.3901 27.0331 81.3546C27.1957 81.319 27.3482 81.2656 27.4905 81.1945C27.6379 81.1233 27.7777 81.0369 27.9099 80.9352C28.0471 80.8285 28.1843 80.7039 28.3216 80.5616V79.2426C27.7726 79.268 27.3126 79.3163 26.9416 79.3875C26.5756 79.4535 26.2808 79.54 26.0571 79.6467C25.8335 79.7534 25.6734 79.878 25.5768 80.0203C25.4853 80.1626 25.4396 80.3176 25.4396 80.4854C25.4396 80.8158 25.5361 81.0521 25.7293 81.1945C25.9275 81.3368 26.1842 81.4079 26.4994 81.4079ZM32.0108 82.5821V74.7595H33.1621C33.4061 74.7595 33.5662 74.8738 33.6425 75.1026L33.7721 75.7201C33.9296 75.5575 34.0948 75.4101 34.2677 75.2779C34.4456 75.1458 34.6311 75.0314 34.8242 74.9348C35.0225 74.8382 35.2334 74.7645 35.4571 74.7137C35.6807 74.6629 35.9247 74.6375 36.189 74.6375C36.616 74.6375 36.9947 74.7112 37.325 74.8586C37.6554 75.0009 37.9299 75.2042 38.1485 75.4685C38.3721 75.7278 38.5399 76.0404 38.6517 76.4063C38.7686 76.7672 38.8271 77.1662 38.8271 77.6034V82.5821H36.9438V77.6034C36.9438 77.1256 36.832 76.757 36.6084 76.4978C36.3898 76.2335 36.0594 76.1014 35.6172 76.1014C35.2919 76.1014 34.9869 76.1751 34.7023 76.3225C34.4176 76.4699 34.1482 76.6706 33.8941 76.9248V82.5821H32.0108ZM43.3843 74.6222C43.7198 74.6222 44.0349 74.6578 44.3297 74.729C44.6245 74.795 44.8939 74.8942 45.1379 75.0263H47.3871V75.7278C47.3871 75.8447 47.3566 75.9362 47.2956 76.0022C47.2346 76.0683 47.1304 76.1141 46.983 76.1395L46.2816 76.2691C46.3324 76.4012 46.3705 76.541 46.3959 76.6884C46.4264 76.8358 46.4417 76.9909 46.4417 77.1535C46.4417 77.5398 46.3629 77.8905 46.2053 78.2057C46.0528 78.5157 45.8394 78.7801 45.5649 78.9986C45.2955 79.2172 44.9727 79.3875 44.5966 79.5095C44.2255 79.6264 43.8214 79.6848 43.3843 79.6848C43.0895 79.6848 42.8023 79.6569 42.5227 79.601C42.2788 79.7484 42.1568 79.9136 42.1568 80.0965C42.1568 80.2541 42.2279 80.371 42.3703 80.4473C42.5177 80.5184 42.7083 80.5693 42.9421 80.5997C43.181 80.6302 43.4504 80.6506 43.7503 80.6607C44.0502 80.6658 44.3577 80.6811 44.6728 80.7065C44.988 80.7319 45.2955 80.7777 45.5954 80.8437C45.8953 80.9047 46.1621 81.0038 46.3959 81.1411C46.6348 81.2783 46.8254 81.4664 46.9678 81.7053C47.1152 81.9391 47.1889 82.2415 47.1889 82.6126C47.1889 82.9582 47.1025 83.2937 46.9296 83.619C46.7619 83.9443 46.5154 84.234 46.1901 84.4882C45.8699 84.7423 45.4759 84.9457 45.0083 85.0981C44.5407 85.2557 44.007 85.3345 43.4072 85.3345C42.8125 85.3345 42.2966 85.276 41.8594 85.1591C41.4223 85.0473 41.0589 84.8948 40.7691 84.7017C40.4845 84.5136 40.271 84.295 40.1287 84.046C39.9864 83.7969 39.9152 83.5377 39.9152 83.2683C39.9152 82.9023 40.027 82.5948 40.2507 82.3457C40.4743 82.0967 40.7844 81.8984 41.1809 81.751C40.9877 81.6443 40.8327 81.502 40.7158 81.3241C40.5989 81.1462 40.5404 80.9149 40.5404 80.6302C40.5404 80.5133 40.5607 80.3939 40.6014 80.2719C40.6421 80.1448 40.7031 80.0203 40.7844 79.8983C40.8708 79.7763 40.9775 79.6619 41.1046 79.5552C41.2317 79.4434 41.3816 79.3443 41.5544 79.2579C41.158 79.0444 40.8454 78.7597 40.6166 78.4039C40.393 78.0481 40.2812 77.6313 40.2812 77.1535C40.2812 76.7672 40.3574 76.419 40.5099 76.109C40.6675 75.7938 40.8835 75.527 41.158 75.3084C41.4375 75.0848 41.7654 74.9145 42.1415 74.7976C42.5227 74.6807 42.937 74.6222 43.3843 74.6222ZM45.4505 82.9328C45.4505 82.7803 45.4048 82.6558 45.3133 82.5592C45.2218 82.4626 45.0973 82.3889 44.9397 82.3381C44.7821 82.2822 44.5966 82.2415 44.3831 82.2161C44.1747 82.1907 43.951 82.1729 43.7122 82.1628C43.4783 82.1475 43.2344 82.1348 42.9802 82.1246C42.7311 82.1094 42.4897 82.0865 42.2559 82.056C42.0424 82.1729 41.8696 82.3127 41.7374 82.4754C41.6104 82.6329 41.5468 82.8159 41.5468 83.0243C41.5468 83.1615 41.5799 83.2886 41.6459 83.4055C41.7171 83.5275 41.8264 83.6317 41.9738 83.7181C42.1263 83.8045 42.322 83.8706 42.5609 83.9164C42.7998 83.9672 43.092 83.9926 43.4377 83.9926C43.7884 83.9926 44.0908 83.9647 44.345 83.9087C44.5991 83.8579 44.8075 83.7842 44.9702 83.6876C45.1379 83.5961 45.2599 83.4843 45.3361 83.3522C45.4124 83.2251 45.4505 83.0853 45.4505 82.9328ZM43.3843 78.4802C43.6181 78.4802 43.8214 78.4497 43.9943 78.3887C44.1671 78.3226 44.3094 78.2336 44.4212 78.1218C44.5381 78.01 44.6245 77.8753 44.6805 77.7177C44.7414 77.5602 44.7719 77.3873 44.7719 77.1993C44.7719 76.813 44.655 76.508 44.4212 76.2843C44.1925 76.0556 43.8468 75.9412 43.3843 75.9412C42.9218 75.9412 42.5736 76.0556 42.3398 76.2843C42.111 76.508 41.9967 76.813 41.9967 77.1993C41.9967 77.3823 42.0246 77.5525 42.0805 77.7101C42.1415 77.8677 42.2279 78.0049 42.3398 78.1218C42.4567 78.2336 42.6015 78.3226 42.7744 78.3887C42.9523 78.4497 43.1556 78.4802 43.3843 78.4802ZM54.7001 82.5821H53.8538C53.6759 82.5821 53.5361 82.5567 53.4345 82.5058C53.3328 82.4499 53.2566 82.3407 53.2057 82.178L53.038 81.6214C52.8398 81.7993 52.6441 81.9569 52.4509 82.0941C52.2628 82.2263 52.0671 82.3381 51.8638 82.4296C51.6605 82.5211 51.4445 82.5897 51.2158 82.6355C50.987 82.6812 50.7329 82.7041 50.4533 82.7041C50.1229 82.7041 49.8179 82.6609 49.5384 82.5745C49.2588 82.483 49.0174 82.3483 48.8141 82.1704C48.6158 81.9925 48.4608 81.7714 48.349 81.5071C48.2372 81.2427 48.1812 80.9352 48.1812 80.5845C48.1812 80.2897 48.2575 80 48.41 79.7153C48.5675 79.4256 48.8268 79.1664 49.1877 78.9376C49.5486 78.7038 50.0289 78.5107 50.6287 78.3582C51.2285 78.2057 51.9731 78.1193 52.8626 78.0989V77.6415C52.8626 77.1179 52.7508 76.7316 52.5272 76.4826C52.3086 76.2284 51.9884 76.1014 51.5665 76.1014C51.2615 76.1014 51.0074 76.1369 50.804 76.2081C50.6007 76.2793 50.4228 76.3606 50.2703 76.4521C50.1229 76.5385 49.9857 76.6173 49.8586 76.6884C49.7315 76.7596 49.5918 76.7952 49.4393 76.7952C49.3122 76.7952 49.2029 76.7621 49.1114 76.6961C49.0199 76.63 48.9462 76.5486 48.8903 76.4521L48.5472 75.8497C49.4469 75.0263 50.5321 74.6146 51.8028 74.6146C52.2603 74.6146 52.6669 74.6908 53.0227 74.8433C53.3836 74.9907 53.6886 75.1991 53.9377 75.4685C54.1867 75.7328 54.3748 76.0505 54.5019 76.4216C54.634 76.7926 54.7001 77.1993 54.7001 77.6415V82.5821ZM51.0404 81.4079C51.2335 81.4079 51.4114 81.3901 51.5741 81.3546C51.7368 81.319 51.8892 81.2656 52.0316 81.1945C52.179 81.1233 52.3188 81.0369 52.4509 80.9352C52.5881 80.8285 52.7254 80.7039 52.8626 80.5616V79.2426C52.3137 79.268 51.8537 79.3163 51.4826 79.3875C51.1166 79.4535 50.8218 79.54 50.5982 79.6467C50.3745 79.7534 50.2144 79.878 50.1178 80.0203C50.0263 80.1626 49.9806 80.3176 49.9806 80.4854C49.9806 80.8158 50.0772 81.0521 50.2703 81.1945C50.4686 81.3368 50.7253 81.4079 51.0404 81.4079ZM58.275 74.7595V79.7306C58.275 80.2084 58.3843 80.5794 58.6028 80.8437C58.8265 81.103 59.1594 81.2326 59.6016 81.2326C59.9269 81.2326 60.2319 81.1614 60.5166 81.0191C60.8012 80.8717 61.0706 80.6709 61.3248 80.4168V74.7595H63.208V82.5821H62.0567C61.8127 82.5821 61.6526 82.4677 61.5764 82.239L61.4467 81.6138C61.2841 81.7764 61.1164 81.9264 60.9435 82.0636C60.7707 82.1958 60.5852 82.3102 60.387 82.4067C60.1938 82.4982 59.9829 82.5694 59.7541 82.6202C59.5305 82.6761 59.289 82.7041 59.0298 82.7041C58.6028 82.7041 58.2242 82.6329 57.8938 82.4906C57.5685 82.3432 57.294 82.1373 57.0703 81.873C56.8467 81.6087 56.6764 81.2961 56.5595 80.9352C56.4477 80.5693 56.3918 80.1677 56.3918 79.7306V74.7595H58.275ZM67.9253 74.6222C68.2608 74.6222 68.576 74.6578 68.8708 74.729C69.1656 74.795 69.435 74.8942 69.679 75.0263H71.9282V75.7278C71.9282 75.8447 71.8977 75.9362 71.8367 76.0022C71.7757 76.0683 71.6715 76.1141 71.5241 76.1395L70.8226 76.2691C70.8734 76.4012 70.9116 76.541 70.937 76.6884C70.9675 76.8358 70.9827 76.9909 70.9827 77.1535C70.9827 77.5398 70.9039 77.8905 70.7464 78.2057C70.5939 78.5157 70.3804 78.7801 70.1059 78.9986C69.8365 79.2172 69.5138 79.3875 69.1376 79.5095C68.7666 79.6264 68.3625 79.6848 67.9253 79.6848C67.6305 79.6848 67.3433 79.6569 67.0638 79.601C66.8198 79.7484 66.6978 79.9136 66.6978 80.0965C66.6978 80.2541 66.769 80.371 66.9113 80.4473C67.0587 80.5184 67.2493 80.5693 67.4831 80.5997C67.722 80.6302 67.9914 80.6506 68.2913 80.6607C68.5912 80.6658 68.8987 80.6811 69.2139 80.7065C69.529 80.7319 69.8365 80.7777 70.1364 80.8437C70.4363 80.9047 70.7032 81.0038 70.937 81.1411C71.1759 81.2783 71.3665 81.4664 71.5088 81.7053C71.6562 81.9391 71.7299 82.2415 71.7299 82.6126C71.7299 82.9582 71.6435 83.2937 71.4707 83.619C71.303 83.9443 71.0564 84.234 70.7311 84.4882C70.4109 84.7423 70.017 84.9457 69.5493 85.0981C69.0817 85.2557 68.548 85.3345 67.9482 85.3345C67.3535 85.3345 66.8376 85.276 66.4005 85.1591C65.9633 85.0473 65.5999 84.8948 65.3102 84.7017C65.0255 84.5136 64.812 84.295 64.6697 84.046C64.5274 83.7969 64.4562 83.5377 64.4562 83.2683C64.4562 82.9023 64.5681 82.5948 64.7917 82.3457C65.0154 82.0967 65.3254 81.8984 65.7219 81.751C65.5287 81.6443 65.3737 81.502 65.2568 81.3241C65.1399 81.1462 65.0814 80.9149 65.0814 80.6302C65.0814 80.5133 65.1018 80.3939 65.1424 80.2719C65.1831 80.1448 65.2441 80.0203 65.3254 79.8983C65.4118 79.7763 65.5186 79.6619 65.6456 79.5552C65.7727 79.4434 65.9227 79.3443 66.0955 79.2579C65.699 79.0444 65.3864 78.7597 65.1577 78.4039C64.934 78.0481 64.8222 77.6313 64.8222 77.1535C64.8222 76.7672 64.8985 76.419 65.0509 76.109C65.2085 75.7938 65.4245 75.527 65.699 75.3084C65.9786 75.0848 66.3064 74.9145 66.6826 74.7976C67.0638 74.6807 67.478 74.6222 67.9253 74.6222ZM69.9916 82.9328C69.9916 82.7803 69.9458 82.6558 69.8543 82.5592C69.7628 82.4626 69.6383 82.3889 69.4807 82.3381C69.3231 82.2822 69.1376 82.2415 68.9241 82.2161C68.7157 82.1907 68.4921 82.1729 68.2532 82.1628C68.0194 82.1475 67.7754 82.1348 67.5212 82.1246C67.2722 82.1094 67.0307 82.0865 66.7969 82.056C66.5834 82.1729 66.4106 82.3127 66.2785 82.4754C66.1514 82.6329 66.0879 82.8159 66.0879 83.0243C66.0879 83.1615 66.1209 83.2886 66.187 83.4055C66.2581 83.5275 66.3674 83.6317 66.5148 83.7181C66.6673 83.8045 66.863 83.8706 67.1019 83.9164C67.3408 83.9672 67.6331 83.9926 67.9787 83.9926C68.3294 83.9926 68.6319 83.9647 68.886 83.9087C69.1402 83.8579 69.3486 83.7842 69.5112 83.6876C69.679 83.5961 69.8009 83.4843 69.8772 83.3522C69.9534 83.2251 69.9916 83.0853 69.9916 82.9328ZM67.9253 78.4802C68.1592 78.4802 68.3625 78.4497 68.5353 78.3887C68.7081 78.3226 68.8504 78.2336 68.9623 78.1218C69.0792 78.01 69.1656 77.8753 69.2215 77.7177C69.2825 77.5602 69.313 77.3873 69.313 77.1993C69.313 76.813 69.1961 76.508 68.9623 76.2843C68.7335 76.0556 68.3879 75.9412 67.9253 75.9412C67.4628 75.9412 67.1146 76.0556 66.8808 76.2843C66.6521 76.508 66.5377 76.813 66.5377 77.1993C66.5377 77.3823 66.5657 77.5525 66.6216 77.7101C66.6826 77.8677 66.769 78.0049 66.8808 78.1218C66.9977 78.2336 67.1426 78.3226 67.3154 78.3887C67.4933 78.4497 67.6966 78.4802 67.9253 78.4802ZM76.3439 74.6375C76.8369 74.6375 77.2893 74.7163 77.701 74.8738C78.1178 75.0314 78.4762 75.2627 78.7761 75.5676C79.076 75.8675 79.3098 76.2386 79.4775 76.6808C79.6452 77.1179 79.7291 77.6186 79.7291 78.1828C79.7291 78.3251 79.7215 78.4446 79.7062 78.5412C79.6961 78.6327 79.6732 78.7064 79.6376 78.7623C79.6071 78.8131 79.5639 78.8512 79.508 78.8766C79.4521 78.897 79.3809 78.9071 79.2945 78.9071H74.4606C74.5166 79.7102 74.7326 80.2999 75.1087 80.676C75.4849 81.0521 75.983 81.2402 76.6031 81.2402C76.9081 81.2402 77.1698 81.2046 77.3884 81.1335C77.6121 81.0623 77.8052 80.9835 77.9679 80.8971C78.1356 80.8107 78.2805 80.7319 78.4025 80.6607C78.5295 80.5896 78.6515 80.554 78.7684 80.554C78.8447 80.554 78.9108 80.5693 78.9667 80.5997C79.0226 80.6302 79.0709 80.6735 79.1115 80.7294L79.6605 81.4156C79.4521 81.6595 79.2183 81.8654 78.959 82.0331C78.6998 82.1958 78.4279 82.3279 78.1432 82.4296C77.8637 82.5262 77.5765 82.5948 77.2817 82.6355C76.9919 82.6761 76.7098 82.6965 76.4354 82.6965C75.8915 82.6965 75.3857 82.6075 74.9181 82.4296C74.4505 82.2466 74.0438 81.9798 73.6982 81.629C73.3526 81.2732 73.0806 80.8361 72.8824 80.3176C72.6842 79.7941 72.585 79.1892 72.585 78.503C72.585 77.9693 72.6715 77.4687 72.8443 77.001C73.0171 76.5283 73.2636 76.1191 73.5838 75.7735C73.9091 75.4228 74.3031 75.1458 74.7656 74.9424C75.2333 74.7391 75.7593 74.6375 76.3439 74.6375ZM76.382 75.987C75.833 75.987 75.4035 76.142 75.0935 76.4521C74.7834 76.7621 74.5852 77.2018 74.4988 77.7711H78.0365C78.0365 77.5271 78.0035 77.2984 77.9374 77.0849C77.8713 76.8663 77.7696 76.6757 77.6324 76.5131C77.4952 76.3504 77.3223 76.2233 77.1139 76.1318C76.9055 76.0353 76.6616 75.987 76.382 75.987Z" fill="black"/>
<g clip-path="url(#clip1_1_1812)" filter="url(#filter1_d_1_1812)">
<path d="M46.2068 103.249L57.3361 144.784L1.72771 159.684L-3.55609 160.945L-14.6465 119.555L46.2068 103.249Z" fill="#0CA161"/>
<path d="M5.63796 114.12L16.7672 155.654L-1.76894 160.621L-3.55609 160.945L-14.6465 119.555L5.63796 114.12Z" fill="#F47F22"/>
<path d="M25.9224 108.684L37.0516 150.219L18.5155 155.186L16.7283 155.51L5.63794 114.12L25.9224 108.684Z" fill="#FBF9FC"/>
<g clip-path="url(#clip2_1_1812)">
<path d="M46.2068 103.249L57.3361 144.784L1.72771 159.684L-3.55609 160.945L-14.6465 119.555L46.2068 103.249Z" fill="#0CA161"/>
<path d="M5.63796 114.12L16.7672 155.654L-1.76894 160.621L-3.55609 160.945L-14.6465 119.555L5.63796 114.12Z" fill="#F47F22"/>
<path d="M25.9224 108.684L37.0516 150.219L18.5155 155.186L16.7283 155.51L5.63794 114.12L25.9224 108.684Z" fill="#FBF9FC"/>
</g>
</g>
<g clip-path="url(#clip3_1_1812)" filter="url(#filter2_d_1_1812)">
<path d="M116.279 84.6454L54.4602 101.21L65.5033 142.423L127.323 125.859L116.279 84.6454Z" fill="#D80027"/>
<path d="M116.279 84.6454L54.4602 101.21L58.1411 114.947L119.96 98.3827L116.279 84.6454Z" fill="black"/>
<path d="M123.641 112.12L61.8221 128.685L65.503 142.422L127.322 125.858L123.641 112.12Z" fill="#FFDA44"/>
</g>
<g clip-path="url(#clip4_1_1812)" filter="url(#filter3_d_1_1812)">
<path d="M136.021 123.147L195.708 107.154C196.297 106.997 196.646 106.391 196.488 105.803L186.207 67.4323C186.049 66.8437 185.444 66.4943 184.856 66.652L125.168 82.6452C124.58 82.803 124.23 83.4081 124.388 83.9967L134.669 122.367C134.827 122.956 135.432 123.305 136.021 123.147Z" fill="#C8414B"/>
<path d="M188.206 74.8937L126.387 91.4581L132.67 114.907L194.489 98.3428L188.206 74.8937Z" fill="#FFD250"/>
<path d="M139.657 100.468L139.471 96.1588C139.454 95.7619 139.074 95.4831 138.69 95.5859L138.053 95.7565C137.67 95.8593 137.48 96.2908 137.664 96.6431L139.657 100.468Z" fill="#C8414B"/>
<path d="M142.529 96.2715C141.94 96.4292 141.591 97.0344 141.748 97.623L143.605 104.551C143.952 105.846 145.813 107.958 149.934 106.854C154.054 105.749 154.61 102.99 154.263 101.695L152.407 94.7671C152.249 94.1785 151.644 93.8291 151.055 93.9868L142.529 96.2715Z" fill="#F5F5F5"/>
<path d="M148.22 100.458L142.891 101.886L141.748 97.6227C141.591 97.034 141.94 96.4289 142.529 96.2712L146.792 95.1288L148.22 100.458Z" fill="#C8414B"/>
<path d="M142.891 101.886L148.22 100.458L148.934 103.123C149.328 104.595 148.455 106.107 146.983 106.501C145.512 106.896 143.999 106.023 143.605 104.551L142.891 101.886Z" fill="#FAB446"/>
<path d="M146.438 106.59L145.024 101.315L143.958 101.6L145.24 106.385C145.615 106.536 146.02 106.616 146.438 106.59Z" fill="#C8414B"/>
<path d="M146.581 98.6126L143.383 99.4694L143.669 100.535L146.867 99.6785L146.581 98.6126Z" fill="#FFB441"/>
<path d="M146.013 96.4793L142.816 97.3361L143.102 98.402L146.299 97.5452L146.013 96.4793Z" fill="#FAB446"/>
<path d="M145.649 97.2562L143.518 97.8274L144.035 99.7583L146.167 99.1871L145.649 97.2562Z" fill="#FAB446"/>
<path d="M140.148 98.0509L138.016 98.6221L140.444 107.681L142.576 107.11L140.148 98.0509Z" fill="#F5F5F5"/>
<path d="M142.967 106.436L139.77 107.292L140.055 108.358L143.253 107.502L142.967 106.436Z" fill="#FAB446"/>
<path d="M140.397 96.8428L137.199 97.6996L137.485 98.7655L140.682 97.9087L140.397 96.8428Z" fill="#FAB446"/>
<path d="M143.786 107.358L139.523 108.5L139.808 109.566L144.072 108.423L143.786 107.358Z" fill="#5064AA"/>
<path d="M149.704 93.2065L143.309 94.92L143.595 95.9859L149.99 94.2724L149.704 93.2065Z" fill="#FAB446"/>
<path d="M145.011 92.7505C144.13 92.9868 143.22 92.4617 142.984 91.5802C142.748 90.6985 143.273 89.7893 144.155 89.5531C145.036 89.3168 145.945 89.8419 146.182 90.7234C146.418 91.6049 145.893 92.5143 145.011 92.7505ZM144.44 90.6188C144.146 90.6976 143.971 91.0005 144.05 91.2946C144.129 91.5886 144.432 91.7636 144.726 91.6847C145.02 91.6059 145.195 91.3031 145.116 91.009C145.037 90.715 144.734 90.54 144.44 90.6188Z" fill="#F5F5F5"/>
<path d="M147.143 92.1792C146.261 92.4155 145.352 91.8904 145.116 91.0089C144.88 90.1272 145.405 89.218 146.286 88.9818C147.168 88.7455 148.077 89.2706 148.313 90.1521C148.55 91.0337 148.025 91.943 147.143 92.1792ZM146.572 90.0476C146.278 90.1263 146.103 90.4292 146.182 90.7233C146.261 91.0173 146.563 91.1923 146.858 91.1135C147.152 91.0347 147.326 90.7318 147.248 90.4377C147.169 90.1437 146.866 89.9688 146.572 90.0476Z" fill="#F5F5F5"/>
<path d="M143.165 94.3876C142.283 94.6238 141.374 94.0988 141.138 93.2173C140.902 92.3356 141.427 91.4264 142.308 91.1902C143.19 90.9539 144.099 91.479 144.335 92.3605C144.572 93.242 144.047 94.1514 143.165 94.3876ZM142.594 92.2559C142.3 92.3347 142.125 92.6376 142.204 92.9317C142.283 93.2257 142.585 93.4006 142.879 93.3218C143.174 93.243 143.348 92.9401 143.27 92.646C143.191 92.352 142.888 92.1771 142.594 92.2559Z" fill="#F5F5F5"/>
<path d="M145.611 88.5911L144.545 88.8767L145.401 92.0743L146.467 91.7887L145.611 88.5911Z" fill="#FAB446"/>
<path d="M143.307 94.9204L141.955 94.1401L142.413 93.3485C143.119 92.1248 144.283 91.2318 145.648 90.866C147.013 90.5003 148.467 90.6918 149.691 91.3983L150.482 91.8553L149.702 93.2068L143.307 94.9204Z" fill="#C8414B"/>
<path d="M144.231 94.1012C144.525 94.0223 144.7 93.7198 144.621 93.4254C144.542 93.1311 144.24 92.9564 143.945 93.0353C143.651 93.1142 143.476 93.4167 143.555 93.711C143.634 94.0054 143.937 94.1801 144.231 94.1012Z" fill="#FFD250"/>
<path d="M143.385 99.4688L138.056 100.897L138.341 101.963L143.671 100.535L143.385 99.4688Z" fill="#C8414B"/>
<path d="M139.198 105.16L142.11 103.238L141.824 102.172L138.913 104.094L139.198 105.16Z" fill="#C8414B"/>
</g>
<g clip-path="url(#clip5_1_1812)" filter="url(#filter4_d_1_1812)">
<path d="M72.4678 198.546L52.9273 203.782C52.3387 203.94 51.7335 203.591 51.5758 203.002L41.2944 164.631C41.1367 164.043 41.4861 163.438 42.0747 163.28L61.6152 158.044L72.4678 198.546Z" fill="#41479B"/>
<path d="M82.2247 152.522L61.6179 158.044L72.4705 198.547L93.0773 193.025L82.2247 152.522Z" fill="#F5F5F5"/>
<path d="M112.616 187.789L93.0754 193.025L82.2229 152.522L101.763 147.287C102.352 147.129 102.957 147.478 103.115 148.067L113.396 186.437C113.554 187.026 113.205 187.631 112.616 187.789Z" fill="#FF4B55"/>
</g>
<g clip-path="url(#clip6_1_1812)" filter="url(#filter5_d_1_1812)">
<path d="M172.28 128.011L110.46 144.576L121.503 185.789L183.323 169.224L172.28 128.011Z" fill="#F0F0F0"/>
<path d="M149.997 168.49C156.399 166.775 160.198 160.195 158.482 153.793C156.767 147.392 150.187 143.593 143.785 145.308C137.384 147.023 133.585 153.603 135.3 160.005C137.015 166.406 143.595 170.205 149.997 168.49Z" fill="#D80027"/>
</g>
<g clip-path="url(#clip7_1_1812)" filter="url(#filter6_d_1_1812)">
<path d="M35.0026 220.542L96.8218 203.978L107.687 244.527L45.8678 261.092L35.0026 220.542Z" fill="#D80027"/>
<path d="M54.1053 224.501L49.0686 225.857L49.0571 225.868L49.0612 225.852L46.1845 221.275L46.1553 226.637L41.1619 227.969L46.0929 229.789L46.118 229.782L46.079 229.83L45.7234 235.248L48.9158 231.051L48.9173 231.026L48.9313 231.047L53.7908 233.087L50.7734 228.572L50.7197 228.549L50.7351 228.545L54.1053 224.501Z" fill="#FFDA44"/>
<path d="M64.8295 230.218L63.7979 230.495L63.2102 229.561L63.2029 230.654L62.1867 230.926L63.1939 231.3L63.1997 231.299L63.1921 231.309L63.118 232.416L63.7688 231.561L63.7691 231.554L63.7726 231.56L64.7659 231.975L64.1464 231.054L64.1347 231.048L64.1405 231.047L64.8295 230.218Z" fill="#FFDA44"/>
<path d="M60.5452 237.031L60.2295 235.968L59.9249 237.011L58.8691 236.973L59.7425 237.621L59.745 237.622L59.7358 237.626L59.3671 238.661L60.2269 238.037L60.2292 238.031L60.2308 238.036L61.0729 238.722L60.729 237.663L60.7261 237.659L61.6132 237.068L60.5452 237.031Z" fill="#FFDA44"/>
<path d="M61.7361 225.411L62.7426 225.087L62.7474 225.082L62.7475 225.09L63.3611 226.004L63.3322 224.892L63.3257 224.883L63.3301 224.884L64.3535 224.608L63.3358 224.241L63.3319 224.242L63.3347 224.237L63.339 223.132L62.7475 224.024L61.7444 223.657L62.3944 224.545L62.3886 224.546L61.7361 225.411Z" fill="#FFDA44"/>
<path d="M59.0362 219.529L59.0444 219.529L59.9356 218.953L58.869 218.905L58.8656 218.908L58.8679 218.901L58.5638 217.836L58.2504 218.876L57.1929 218.824L58.0583 219.481L58.0665 219.48L58.0526 219.49L57.6749 220.515L58.5393 219.9L58.5416 219.894L58.5432 219.899L59.3812 220.6L59.0465 219.537L59.0362 219.529Z" fill="#FFDA44"/>
</g>
<g clip-path="url(#clip8_1_1812)" filter="url(#filter7_d_1_1812)">
<path d="M169.992 198.868L108.173 215.432L104.841 202.998C104.684 202.409 105.033 201.804 105.622 201.646L165.309 185.653C165.898 185.495 166.503 185.845 166.661 186.433L169.992 198.868Z" fill="#FAB446"/>
<path d="M176.162 226.155L116.474 242.148C115.886 242.306 115.28 241.957 115.123 241.368L111.791 228.933L173.61 212.369L176.942 224.804C177.1 225.392 176.75 225.997 176.162 226.155Z" fill="#73AF00"/>
<path d="M169.992 198.868L108.173 215.432L111.79 228.932L173.61 212.368L169.992 198.868Z" fill="#F5F5F5"/>
<path d="M142.424 219.63C139.265 220.476 136.007 218.595 135.16 215.436C134.314 212.277 136.195 209.018 139.354 208.172C142.513 207.326 145.771 209.207 146.618 212.366C147.464 215.525 145.583 218.783 142.424 219.63ZM139.64 209.238C137.068 209.927 135.537 212.579 136.226 215.15C136.915 217.722 139.567 219.253 142.139 218.564C144.71 217.875 146.241 215.223 145.552 212.651C144.863 210.08 142.211 208.549 139.64 209.238Z" fill="#41479B"/>
<path d="M141.062 214.551C141.421 214.455 141.634 214.086 141.538 213.727C141.442 213.369 141.073 213.156 140.714 213.252C140.356 213.348 140.143 213.717 140.239 214.075C140.335 214.434 140.704 214.647 141.062 214.551Z" fill="#41479B"/>
<path d="M140.914 213.999L139.308 214.608L135.718 215.391L135.666 215.196L139.167 214.079L140.862 213.804L140.914 213.999Z" fill="#41479B"/>
<path d="M140.914 213.999L142.609 213.723L146.11 212.606L146.058 212.412L142.468 213.195L140.862 213.804L140.914 213.999Z" fill="#41479B"/>
<path d="M140.79 213.927L140.181 212.321L139.398 208.731L139.593 208.679L140.71 212.18L140.985 213.875L140.79 213.927Z" fill="#41479B"/>
<path d="M140.79 213.928L141.066 215.623L142.183 219.123L142.378 219.071L141.594 215.481L140.985 213.875L140.79 213.928Z" fill="#41479B"/>
<path d="M140.837 213.989L139.271 213.284L136.179 211.299L136.28 211.124L139.545 212.81L140.938 213.814L140.837 213.989Z" fill="#41479B"/>
<path d="M140.838 213.988L142.232 214.992L145.497 216.678L145.598 216.503L142.505 214.519L140.939 213.814L140.838 213.988Z" fill="#41479B"/>
<path d="M140.801 213.851L141.506 212.285L143.491 209.192L143.666 209.293L141.98 212.558L140.976 213.952L140.801 213.851Z" fill="#41479B"/>
<path d="M140.801 213.851L139.797 215.244L138.111 218.509L138.286 218.61L140.27 215.518L140.975 213.952L140.801 213.851Z" fill="#41479B"/>
<path d="M140.95 213.981L139.699 215.158L136.682 217.256L136.559 217.096L139.366 214.725L140.827 213.821L140.95 213.981Z" fill="#41479B"/>
<path d="M140.949 213.981L142.409 213.078L145.216 210.707L145.094 210.547L142.077 212.644L140.826 213.821L140.949 213.981Z" fill="#41479B"/>
<path d="M140.807 213.963L139.63 212.712L137.532 209.695L137.692 209.572L140.064 212.379L140.967 213.84L140.807 213.963Z" fill="#41479B"/>
<path d="M140.807 213.963L141.711 215.424L144.082 218.231L144.242 218.108L142.145 215.091L140.967 213.84L140.807 213.963Z" fill="#41479B"/>
<path d="M140.875 214.001L139.159 213.949L135.542 213.299L135.568 213.099L139.23 213.407L140.902 213.801L140.875 214.001Z" fill="#41479B"/>
<path d="M140.874 214.002L142.546 214.396L146.207 214.704L146.234 214.504L142.617 213.854L140.901 213.801L140.874 214.002Z" fill="#41479B"/>
<path d="M140.787 213.888L140.839 212.171L141.489 208.555L141.689 208.581L141.381 212.243L140.987 213.914L140.787 213.888Z" fill="#41479B"/>
<path d="M140.787 213.888L140.393 215.56L140.085 219.222L140.285 219.248L140.935 215.631L140.987 213.915L140.787 213.888Z" fill="#41479B"/>
<path d="M141.127 214.777C141.611 214.647 141.898 214.15 141.768 213.666C141.639 213.182 141.141 212.895 140.658 213.024C140.174 213.154 139.887 213.651 140.016 214.135C140.146 214.619 140.643 214.906 141.127 214.777Z" fill="#F5F5F5"/>
<path d="M141.033 214.425C141.323 214.348 141.496 214.049 141.418 213.759C141.34 213.469 141.042 213.297 140.752 213.375C140.462 213.452 140.289 213.751 140.367 214.041C140.445 214.331 140.743 214.503 141.033 214.425Z" fill="#41479B"/>
</g>
</g>
<rect x="4.5" y="2.83331" width="208" height="236" rx="9.5" stroke="#D9D9D9"/>
</g>
<defs>
<filter id="filter0_d_1_1812" x="0" y="0.333313" width="221" height="249" filterUnits="userSpaceOnUse" color-interpolation-filters="sRGB">
<feFlood flood-opacity="0" result="BackgroundImageFix"/>
<feColorMatrix in="SourceAlpha" type="matrix" values="0 0 0 0 0 0 0 0 0 0 0 0 0 0 0 0 0 0 127 0" result="hardAlpha"/>
<feOffset dx="2" dy="4"/>
<feGaussianBlur stdDeviation="3"/>
<feComposite in2="hardAlpha" operator="out"/>
<feColorMatrix type="matrix" values="0 0 0 0 0 0 0 0 0 0 0 0 0 0 0 0 0 0 0.25 0"/>
<feBlend mode="normal" in2="BackgroundImageFix" result="effect1_dropShadow_1_1812"/>
<feBlend mode="normal" in="SourceGraphic" in2="effect1_dropShadow_1_1812" result="shape"/>
</filter>
<filter id="filter1_d_1_1812" x="-17" y="103.603" width="80.6897" height="65.1333" filterUnits="userSpaceOnUse" color-interpolation-filters="sRGB">
<feFlood flood-opacity="0" result="BackgroundImageFix"/>
<feColorMatrix in="SourceAlpha" type="matrix" values="0 0 0 0 0 0 0 0 0 0 0 0 0 0 0 0 0 0 127 0" result="hardAlpha"/>
<feOffset dx="2" dy="4"/>
<feGaussianBlur stdDeviation="2"/>
<feComposite in2="hardAlpha" operator="out"/>
<feColorMatrix type="matrix" values="0 0 0 0 0 0 0 0 0 0 0 0 0 0 0 0 0 0 0.1 0"/>
<feBlend mode="normal" in2="BackgroundImageFix" result="effect1_dropShadow_1_1812"/>
<feBlend mode="normal" in="SourceGraphic" in2="effect1_dropShadow_1_1812" result="shape"/>
</filter>
<filter id="filter2_d_1_1812" x="52.5466" y="84.9678" width="80.6897" height="65.1333" filterUnits="userSpaceOnUse" color-interpolation-filters="sRGB">
<feFlood flood-opacity="0" result="BackgroundImageFix"/>
<feColorMatrix in="SourceAlpha" type="matrix" values="0 0 0 0 0 0 0 0 0 0 0 0 0 0 0 0 0 0 127 0" result="hardAlpha"/>
<feOffset dx="2" dy="4"/>
<feGaussianBlur stdDeviation="2"/>
<feComposite in2="hardAlpha" operator="out"/>
<feColorMatrix type="matrix" values="0 0 0 0 0 0 0 0 0 0 0 0 0 0 0 0 0 0 0.1 0"/>
<feBlend mode="normal" in2="BackgroundImageFix" result="effect1_dropShadow_1_1812"/>
<feBlend mode="normal" in="SourceGraphic" in2="effect1_dropShadow_1_1812" result="shape"/>
</filter>
<filter id="filter3_d_1_1812" x="122.093" y="66.3329" width="80.6897" height="65.1332" filterUnits="userSpaceOnUse" color-interpolation-filters="sRGB">
<feFlood flood-opacity="0" result="BackgroundImageFix"/>
<feColorMatrix in="SourceAlpha" type="matrix" values="0 0 0 0 0 0 0 0 0 0 0 0 0 0 0 0 0 0 127 0" result="hardAlpha"/>
<feOffset dx="2" dy="4"/>
<feGaussianBlur stdDeviation="2"/>
<feComposite in2="hardAlpha" operator="out"/>
<feColorMatrix type="matrix" values="0 0 0 0 0 0 0 0 0 0 0 0 0 0 0 0 0 0 0.1 0"/>
<feBlend mode="normal" in2="BackgroundImageFix" result="effect1_dropShadow_1_1812"/>
<feBlend mode="normal" in="SourceGraphic" in2="effect1_dropShadow_1_1812" result="shape"/>
</filter>
<filter id="filter4_d_1_1812" x="39" y="146.968" width="80.6897" height="65.1333" filterUnits="userSpaceOnUse" color-interpolation-filters="sRGB">
<feFlood flood-opacity="0" result="BackgroundImageFix"/>
<feColorMatrix in="SourceAlpha" type="matrix" values="0 0 0 0 0 0 0 0 0 0 0 0 0 0 0 0 0 0 127 0" result="hardAlpha"/>
<feOffset dx="2" dy="4"/>
<feGaussianBlur stdDeviation="2"/>
<feComposite in2="hardAlpha" operator="out"/>
<feColorMatrix type="matrix" values="0 0 0 0 0 0 0 0 0 0 0 0 0 0 0 0 0 0 0.1 0"/>
<feBlend mode="normal" in2="BackgroundImageFix" result="effect1_dropShadow_1_1812"/>
<feBlend mode="normal" in="SourceGraphic" in2="effect1_dropShadow_1_1812" result="shape"/>
</filter>
<filter id="filter5_d_1_1812" x="108.547" y="128.333" width="80.6897" height="65.1333" filterUnits="userSpaceOnUse" color-interpolation-filters="sRGB">
<feFlood flood-opacity="0" result="BackgroundImageFix"/>
<feColorMatrix in="SourceAlpha" type="matrix" values="0 0 0 0 0 0 0 0 0 0 0 0 0 0 0 0 0 0 127 0" result="hardAlpha"/>
<feOffset dx="2" dy="4"/>
<feGaussianBlur stdDeviation="2"/>
<feComposite in2="hardAlpha" operator="out"/>
<feColorMatrix type="matrix" values="0 0 0 0 0 0 0 0 0 0 0 0 0 0 0 0 0 0 0.1 0"/>
<feBlend mode="normal" in2="BackgroundImageFix" result="effect1_dropShadow_1_1812"/>
<feBlend mode="normal" in="SourceGraphic" in2="effect1_dropShadow_1_1812" result="shape"/>
</filter>
<filter id="filter6_d_1_1812" x="33" y="203.968" width="80.6897" height="65.1333" filterUnits="userSpaceOnUse" color-interpolation-filters="sRGB">
<feFlood flood-opacity="0" result="BackgroundImageFix"/>
<feColorMatrix in="SourceAlpha" type="matrix" values="0 0 0 0 0 0 0 0 0 0 0 0 0 0 0 0 0 0 127 0" result="hardAlpha"/>
<feOffset dx="2" dy="4"/>
<feGaussianBlur stdDeviation="2"/>
<feComposite in2="hardAlpha" operator="out"/>
<feColorMatrix type="matrix" values="0 0 0 0 0 0 0 0 0 0 0 0 0 0 0 0 0 0 0.1 0"/>
<feBlend mode="normal" in2="BackgroundImageFix" result="effect1_dropShadow_1_1812"/>
<feBlend mode="normal" in="SourceGraphic" in2="effect1_dropShadow_1_1812" result="shape"/>
</filter>
<filter id="filter7_d_1_1812" x="102.547" y="185.333" width="80.6897" height="65.1333" filterUnits="userSpaceOnUse" color-interpolation-filters="sRGB">
<feFlood flood-opacity="0" result="BackgroundImageFix"/>
<feColorMatrix in="SourceAlpha" type="matrix" values="0 0 0 0 0 0 0 0 0 0 0 0 0 0 0 0 0 0 127 0" result="hardAlpha"/>
<feOffset dx="2" dy="4"/>
<feGaussianBlur stdDeviation="2"/>
<feComposite in2="hardAlpha" operator="out"/>
<feColorMatrix type="matrix" values="0 0 0 0 0 0 0 0 0 0 0 0 0 0 0 0 0 0 0.1 0"/>
<feBlend mode="normal" in2="BackgroundImageFix" result="effect1_dropShadow_1_1812"/>
<feBlend mode="normal" in="SourceGraphic" in2="effect1_dropShadow_1_1812" result="shape"/>
</filter>
<clipPath id="clip0_1_1812">
<rect x="4" y="2.33331" width="209" height="237" rx="10" fill="white"/>
</clipPath>
<clipPath id="clip1_1_1812">
<rect width="64" height="42" fill="white" transform="translate(-15 120.167) rotate(-15)"/>
</clipPath>
<clipPath id="clip2_1_1812">
<rect width="64" height="64" fill="white" transform="translate(-17.847 109.542) rotate(-15)"/>
</clipPath>
<clipPath id="clip3_1_1812">
<rect width="64" height="42" fill="white" transform="translate(54.5466 101.532) rotate(-15)"/>
</clipPath>
<clipPath id="clip4_1_1812">
<rect width="64" height="42" fill="white" transform="translate(124.093 82.8973) rotate(-15)"/>
</clipPath>
<clipPath id="clip5_1_1812">
<rect width="64" height="42" fill="white" transform="translate(41 163.533) rotate(-15)"/>
</clipPath>
<clipPath id="clip6_1_1812">
<rect width="64" height="42" fill="white" transform="translate(110.547 144.898) rotate(-15)"/>
</clipPath>
<clipPath id="clip7_1_1812">
<rect width="64" height="42" fill="white" transform="translate(35 220.533) rotate(-15)"/>
</clipPath>
<clipPath id="clip8_1_1812">
<rect width="64" height="42" fill="white" transform="translate(104.547 201.898) rotate(-15)"/>
</clipPath>
</defs>
</svg>
