<svg width="52" height="52" viewBox="0 0 52 52" fill="none" xmlns="http://www.w3.org/2000/svg">
<path d="M39.9987 51.6673H11.9987C11.3799 51.6673 10.7864 51.4215 10.3488 50.9839C9.9112 50.5463 9.66537 49.9528 9.66537 49.334C9.66537 48.7151 9.9112 48.1217 10.3488 47.6841C10.7864 47.2465 11.3799 47.0007 11.9987 47.0007H39.9987C40.6175 47.0007 41.211 47.2465 41.6486 47.6841C42.0862 48.1217 42.332 48.7151 42.332 49.334C42.332 49.9528 42.0862 50.5463 41.6486 50.9839C41.211 51.4215 40.6175 51.6673 39.9987 51.6673ZM51.6654 12.0007V30.6673C51.6654 32.1994 51.3636 33.7165 50.7773 35.132C50.191 36.5474 49.3316 37.8335 48.2483 38.9169C47.1649 40.0002 45.8788 40.8596 44.4633 41.4459C43.0479 42.0322 41.5308 42.334 39.9987 42.334H11.9987C10.4666 42.334 8.94952 42.0322 7.53406 41.4459C6.11859 40.8596 4.83247 40.0002 3.74912 38.9169C1.56119 36.729 0.332031 33.7615 0.332031 30.6673V12.0007C0.332031 8.90646 1.56119 5.939 3.74912 3.75107C5.93704 1.56315 8.90451 0.333984 11.9987 0.333984H39.9987C41.5308 0.333984 43.0479 0.635752 44.4633 1.22206C45.8788 1.80836 47.1649 2.66772 48.2483 3.75107C49.3316 4.83442 50.191 6.12055 50.7773 7.53601C51.3636 8.95148 51.6654 10.4686 51.6654 12.0007ZM9.66537 16.6673C9.66537 17.2862 9.9112 17.8797 10.3488 18.3172C10.7864 18.7548 11.3799 19.0007 11.9987 19.0007H25.9987C26.6175 19.0007 27.211 18.7548 27.6486 18.3172C28.0862 17.8797 28.332 17.2862 28.332 16.6673C28.332 16.0485 28.0862 15.455 27.6486 15.0174C27.211 14.5798 26.6175 14.334 25.9987 14.334H11.9987C11.3799 14.334 10.7864 14.5798 10.3488 15.0174C9.9112 15.455 9.66537 16.0485 9.66537 16.6673ZM42.332 26.0007C42.332 25.3818 42.0862 24.7883 41.6486 24.3507C41.211 23.9132 40.6175 23.6673 39.9987 23.6673H11.9987C11.3799 23.6673 10.7864 23.9132 10.3488 24.3507C9.9112 24.7883 9.66537 25.3818 9.66537 26.0007C9.66537 26.6195 9.9112 27.213 10.3488 27.6506C10.7864 28.0882 11.3799 28.334 11.9987 28.334H39.9987C40.6175 28.334 41.211 28.0882 41.6486 27.6506C42.0862 27.213 42.332 26.6195 42.332 26.0007Z" fill="#42175B"/>
</svg>
