<svg width="145" height="22" viewBox="0 0 145 22" fill="none" xmlns="http://www.w3.org/2000/svg">
<path d="M9.79686 7.74929C9.79686 7.74929 8.59726 7.62932 8.59726 8.68497V13.4114H16.4666V14.8269C16.4666 14.8269 16.4906 15.5227 15.7469 15.5227H8.59726V21.6646H17.1864C17.1864 21.6646 22.3926 20.8729 22.4406 15.5227V7.74929H9.79686ZM22.2007 0.21582H6.7019C1.08779 1.53538 0.967834 6.14182 0.967834 6.14182V21.6886H6.91783V7.53335C6.91783 6.33376 8.11743 6.11783 8.11743 6.11783H22.1767L22.2007 0.21582ZM42.6658 17.2261C42.2579 17.49 41.946 17.7059 41.7301 17.8259C40.9624 18.3057 40.2426 18.6656 39.5708 18.9535C38.5872 19.3614 37.7235 19.5533 36.9317 19.5533C34.2446 19.5533 32.0134 18.7376 30.238 17.0821C28.4386 15.4267 27.5509 13.3394 27.5509 10.8442C27.5509 8.42106 28.3426 6.33376 29.9741 4.53437C31.5815 2.75896 33.5489 1.87126 35.8521 1.87126C36.8118 1.87126 37.8434 2.03921 38.8991 2.37509C40.2906 2.80695 41.3942 3.47872 42.3059 4.31844L40.7704 6.02186C40.1226 5.37408 39.2589 4.91824 38.2753 4.63033C37.5315 4.4144 36.7158 4.29445 35.8041 4.29445C34.1966 4.29445 32.8291 4.94223 31.7255 6.23779C30.6458 7.55735 30.094 9.09283 30.094 10.9162C30.094 12.7156 30.7178 14.2031 31.9654 15.3787C33.213 16.5543 34.7964 17.1541 36.7158 17.1541C37.5075 17.1541 38.3233 16.8902 39.163 16.4104C39.8587 15.8825 40.2186 15.6186 40.2186 15.6186V11.8759H35.0124L35.7561 9.54868H42.6658V17.2261ZM58.3325 12.6676C58.3325 14.467 57.6847 16.0265 56.4132 17.3461C55.1416 18.6656 53.5581 19.3374 51.6628 19.3374C49.9114 19.3374 48.3999 18.6896 47.0803 17.394C45.7607 16.0985 45.113 14.539 45.113 12.6916C45.113 10.8682 45.7368 9.30876 46.9843 7.96521C48.2319 6.62166 49.7674 5.97388 51.5428 5.97388C53.5341 5.97388 55.1416 6.62166 56.4132 7.89323C57.6847 9.14081 58.3325 10.7483 58.3325 12.6676ZM55.9093 12.7156C55.9093 11.492 55.5015 10.4604 54.6857 9.62065C53.87 8.75694 52.8624 8.34908 51.6388 8.34908C50.5112 8.34908 49.5515 8.78094 48.7357 9.66864C47.944 10.5323 47.5362 11.54 47.5362 12.6676C47.5362 13.8432 47.944 14.8509 48.7357 15.6906C49.5275 16.5303 50.5351 16.9622 51.7347 16.9622C52.8624 16.9622 53.822 16.5543 54.6378 15.7146C55.5015 14.8509 55.9093 13.8432 55.9093 12.7156ZM73.8073 12.6676C73.8073 14.467 73.1595 16.0265 71.888 17.3461C70.6164 18.6656 69.0329 19.3374 67.1376 19.3374C65.3861 19.3374 63.8747 18.6896 62.5551 17.394C61.2355 16.0985 60.5878 14.539 60.5878 12.6916C60.5878 10.8682 61.2115 9.30876 62.4591 7.96521C63.7067 6.62166 65.2422 5.97388 67.0176 5.97388C69.0089 5.97388 70.6164 6.62166 71.888 7.89323C73.1595 9.14081 73.8073 10.7483 73.8073 12.6676ZM71.3601 12.7156C71.3601 11.492 70.9523 10.4604 70.1365 9.62065C69.3208 8.75694 68.3132 8.34908 67.0896 8.34908C65.9619 8.34908 65.0023 8.78094 64.1865 9.66864C63.3948 10.5323 62.9869 11.54 62.9869 12.6676C62.9869 13.8432 63.3948 14.8509 64.1865 15.6906C64.9783 16.5303 65.9859 16.9622 67.1855 16.9622C68.3132 16.9622 69.2728 16.5543 70.0886 15.7146C70.9523 14.8509 71.3601 13.8432 71.3601 12.7156ZM88.1065 18.9775L85.8752 19.3134V17.1541L85.3954 17.7059C84.9635 18.1138 84.4837 18.4257 83.9799 18.6896C83.2121 19.0495 82.3964 19.2174 81.5567 19.2174C79.8053 19.2174 78.3178 18.5696 77.1182 17.2981C75.9186 16.0265 75.2948 14.467 75.2948 12.6916C75.2948 10.8442 75.8946 9.26077 77.0942 7.96521C78.2938 6.64566 79.7333 5.99787 81.4847 5.99787C82.4924 5.99787 83.3561 6.16581 84.0758 6.47771C84.6037 6.71763 85.0355 7.02952 85.4194 7.41339C85.5394 7.58134 85.6593 7.74928 85.8033 7.91722V2.23114L88.1785 1.89525L88.1065 18.9775ZM86.0192 12.8356C86.0192 11.564 85.5873 10.4844 84.7236 9.62065C83.8599 8.73295 82.8763 8.3011 81.7486 8.3011C80.5011 8.3011 79.5174 8.70896 78.7496 9.54868C78.0299 10.3404 77.67 11.3241 77.67 12.4757C77.67 13.7713 78.0539 14.8509 78.7976 15.6906C79.5414 16.5303 80.4771 16.9382 81.6527 16.9382C82.7803 16.9382 83.7879 16.5543 84.6756 15.7626C85.5633 14.9709 86.0192 13.9872 86.0192 12.8356ZM100.678 4.58235H94.0085V9.11682H99.1908V11.444H94.0085V18.9535L91.4174 19.3374V2.23114H100.174L100.678 4.58235ZM106.028 3.26279L104.421 5.27811L102.886 3.26279L104.493 1.27146L106.028 3.26279ZM105.549 18.9775L103.173 19.3134V6.64566L105.549 6.28578V18.9775ZM116.297 6.14182L115.169 8.73295C115.025 8.70896 114.881 8.70896 114.714 8.70896C114.474 8.70896 114.258 8.73295 114.018 8.75694C113.778 8.78093 113.538 8.8769 113.274 9.02085C112.77 9.23678 112.338 9.71662 111.978 10.4124C111.571 11.2281 111.355 12.1158 111.355 13.0275V18.9535L108.979 19.3374V6.64566L111.187 6.23779V8.8769C111.475 8.42105 111.763 7.96521 112.05 7.48537C112.458 7.00553 112.938 6.66964 113.466 6.45372C113.754 6.33376 114.258 6.26179 115.049 6.18981C115.817 6.14183 116.249 6.11783 116.297 6.14182ZM134.051 18.9775L131.676 19.3134V10.6283C131.676 9.83658 131.508 9.23678 131.148 8.8769C130.788 8.51702 130.26 8.32509 129.565 8.32509C128.725 8.32509 128.101 8.66097 127.669 9.35674C127.381 9.83658 127.213 10.3404 127.213 10.8442V18.9295L124.838 19.3614V10.6523C124.838 9.88456 124.67 9.30876 124.31 8.90089C123.95 8.49303 123.495 8.3011 122.895 8.3011H122.655C121.815 8.3011 121.215 8.63698 120.831 9.35674C120.544 9.88456 120.4 10.5563 120.4 11.3721V18.9055L117.928 19.3374V6.59767L120.16 6.2138V7.84525C120.4 7.46138 120.664 7.14948 120.879 6.93355C121.527 6.33376 122.271 6.04586 123.111 6.04586C124.046 6.04586 124.742 6.18981 125.222 6.5017C125.63 6.76561 126.014 7.26945 126.422 7.9892C127.237 6.69364 128.389 6.04586 129.924 6.04586C131.388 6.04586 132.468 6.5017 133.187 7.43739C133.763 8.20513 134.051 9.33275 134.051 10.7963V18.9775ZM144.919 15.1388C144.919 16.3144 144.511 17.2741 143.696 18.0178C142.88 18.7856 141.848 19.1454 140.601 19.1454C139.665 19.1454 138.825 18.9295 138.058 18.4977C137.29 18.0658 136.714 17.562 136.354 16.9862L138.034 15.4987C138.154 15.6906 138.274 15.8346 138.37 15.9305C138.993 16.5783 139.737 16.8902 140.601 16.8902C141.201 16.8902 141.68 16.7223 142.016 16.4104C142.376 16.0985 142.544 15.6666 142.544 15.0908C142.544 14.443 142.136 14.0112 141.321 13.7713C139.713 13.2914 138.825 13.0035 138.705 12.9555C137.962 12.5717 137.434 12.1638 137.098 11.708C136.714 11.1801 136.522 10.4844 136.522 9.59666C136.522 8.49303 136.93 7.60533 137.722 6.86158C138.514 6.14182 139.473 5.78195 140.577 5.78195C141.417 5.78195 142.184 5.97388 142.904 6.35775C143.624 6.74162 144.128 7.14949 144.44 7.60533L143.024 9.14081C142.808 8.92489 142.568 8.73295 142.328 8.56501C141.752 8.15715 141.201 7.96521 140.697 7.96521C140.193 7.96521 139.785 8.08517 139.473 8.3011C139.089 8.56501 138.897 8.97287 138.897 9.50069C138.897 10.0045 139.065 10.3884 139.449 10.6283C139.761 10.8203 140.433 11.0362 141.512 11.2761C142.568 11.54 143.408 11.9719 143.984 12.5956C144.655 13.2674 144.919 14.0831 144.919 15.1388Z" fill="#3A7AF3"/>
</svg>
