<svg width="49" height="49" viewBox="0 0 49 49" fill="none" xmlns="http://www.w3.org/2000/svg">
<path d="M24.5013 10.333C27.7347 10.333 30.7037 11.44 33.0737 13.2811L40.3478 6.34128C36.1186 2.6131 30.5825 0.333252 24.5013 0.333252C15.2863 0.333252 7.29507 5.53295 3.27344 13.1526L11.3621 19.5383C13.3215 14.1717 18.4564 10.333 24.5013 10.333Z" fill="#F44336"/>
<path d="M48.2915 27.3367C48.4165 26.3535 48.4994 25.3504 48.4994 24.3331C48.4994 22.6175 48.312 20.9469 47.9699 19.3333H24.5V29.333H37.4721C36.4227 32.0605 34.5542 34.3684 32.1758 35.9718L40.2945 42.3813C44.5983 38.6036 47.5434 33.3136 48.2915 27.3367Z" fill="#2196F3"/>
<path d="M10.4998 24.3336C10.4998 22.6467 10.8135 21.0369 11.3602 19.5393L3.27154 13.1536C1.50864 16.4938 0.5 20.294 0.5 24.3336C0.5 28.328 1.49009 32.0861 3.21636 35.3992L11.3153 29.0053C10.7966 27.5424 10.4998 25.9744 10.4998 24.3336Z" fill="#FFC107"/>
<path d="M24.5018 38.333C18.4109 38.333 13.2429 34.4361 11.3177 29.0051L3.21875 35.399C7.22073 43.0799 15.2416 48.3328 24.5018 48.3328C30.5572 48.3328 36.079 46.0832 40.2963 42.3815L32.1776 35.972C29.9841 37.4508 27.3585 38.333 24.5018 38.333Z" fill="#00B060"/>
<path opacity="0.1" d="M24.4982 47.8318C17.435 47.8318 11.084 44.9176 6.59375 40.2747C10.9893 45.2075 17.3713 48.3318 24.4982 48.3318C31.5592 48.3318 37.8884 45.2692 42.274 40.4136C37.7971 44.9812 31.4943 47.8318 24.4982 47.8318Z" fill="black"/>
<path opacity="0.1" d="M24.5 28.8333V29.3332H37.4721L37.6747 28.8333H24.5Z" fill="black"/>
<path d="M48.4884 24.6282C48.49 24.5297 48.4995 24.4329 48.4995 24.3341C48.4995 24.3062 48.4951 24.2792 48.495 24.2512C48.4937 24.3772 48.4873 24.5017 48.4884 24.6282Z" fill="#E6E6E6"/>
<path opacity="0.2" d="M24.5 19.3333V19.8332H48.0706C48.0391 19.6682 48.0047 19.4971 47.9699 19.3333H24.5Z" fill="white"/>
<path d="M47.9693 19.3328H24.4994V29.3325H37.4715C35.4542 34.5756 30.4536 38.3323 24.4994 38.3323C16.7677 38.3323 10.4998 32.0644 10.4998 24.3327C10.4998 16.6008 16.7677 10.333 24.4994 10.333C27.303 10.333 29.8871 11.1943 32.0762 12.6143C32.4113 12.8321 32.757 13.0366 33.0718 13.2811L40.3459 6.34128L40.1819 6.21506C35.973 2.56733 30.5063 0.333252 24.4994 0.333252C11.2449 0.333252 0.5 11.0781 0.5 24.3327C0.5 37.5871 11.2449 48.3321 24.4994 48.3321C36.7345 48.3321 46.8098 39.1698 48.2909 27.3362C48.4159 26.353 48.4988 25.35 48.4988 24.3327C48.4988 22.617 48.3114 20.9464 47.9693 19.3328Z" fill="url(#paint0_linear_1_1856)"/>
<path opacity="0.1" d="M32.0765 12.1141C29.8873 10.6941 27.3033 9.8328 24.4997 9.8328C16.7679 9.8328 10.5 16.1006 10.5 23.8325C10.5 23.9168 10.5011 23.9827 10.5026 24.0668C10.6375 16.4517 16.8523 10.3328 24.4997 10.3328C27.3033 10.3328 29.8873 11.1941 32.0765 12.6141C32.4116 12.8319 32.7573 13.0363 33.0721 13.2808L40.3462 6.34106L33.0721 12.7808C32.7573 12.5363 32.4116 12.3319 32.0765 12.1141Z" fill="black"/>
<path opacity="0.2" d="M24.4994 0.83324C30.4493 0.83324 35.865 3.02996 40.0576 6.6163L40.3459 6.34128L40.1259 6.14965C35.917 2.50192 30.5063 0.333252 24.4994 0.333252C11.2448 0.333252 0.5 11.0781 0.5 24.3327C0.5 24.417 0.511719 24.4984 0.512573 24.5827C0.648068 11.4447 11.3292 0.83324 24.4994 0.83324Z" fill="white"/>
<defs>
<linearGradient id="paint0_linear_1_1856" x1="0.5" y1="24.3327" x2="48.4988" y2="24.3327" gradientUnits="userSpaceOnUse">
<stop stop-color="white" stop-opacity="0.2"/>
<stop offset="1" stop-color="white" stop-opacity="0"/>
</linearGradient>
</defs>
</svg>
