<svg width="124" height="123" viewBox="0 0 124 123" fill="none" xmlns="http://www.w3.org/2000/svg">
<g filter="url(#filter0_d_1_1663)">
<rect x="6.16406" y="3.91919" width="225.835" height="135.717" rx="9.0334" fill="white" shape-rendering="crispEdges"/>
<rect x="5.59948" y="3.3546" width="226.964" height="136.846" rx="9.59799" stroke="#DCDCDC" stroke-width="1.12917" shape-rendering="crispEdges"/>
<path d="M44.4416 103.243L6.16406 73.9465V139.635H231.999V66.994L194.067 46.9744C190.989 45.35 187.203 46.001 184.845 48.5602L156.483 79.3361C155.54 80.3587 154.338 81.106 153.003 81.4979L123.067 90.2905C121.565 90.7316 119.964 90.7027 118.479 90.2077L89.3508 80.4984C86.9518 79.6987 84.3127 80.1326 82.2961 81.6584L53.733 103.269C50.9823 105.35 47.1808 105.339 44.4416 103.243Z" fill="url(#paint0_linear_1_1663)"/>
<path d="M6.16406 73.9465L44.4416 103.243C47.1808 105.339 50.9823 105.35 53.733 103.269L82.2961 81.6584C84.3127 80.1326 86.9517 79.6987 89.3508 80.4984L118.479 90.2077C119.964 90.7027 121.565 90.7316 123.067 90.2905L153.003 81.4979C154.338 81.106 155.54 80.3587 156.483 79.3361L184.845 48.5602C187.203 46.001 190.989 45.35 194.067 46.9744L231.999 66.994" stroke="#0197EA" stroke-width="1.91792" stroke-linecap="round"/>
<path d="M32.8535 19.9969V21.6565H27.8824V24.7663H31.7988V26.3717H27.8824V29.5436H32.8535V31.2109H25.7807V19.9969H32.8535ZM36.4328 27.1084L33.8193 23.2541H35.665C35.8046 23.2541 35.908 23.2747 35.9752 23.3161C36.0424 23.3523 36.1019 23.4143 36.1536 23.5022L37.821 26.1623C37.8468 26.0744 37.8778 25.9865 37.914 25.8986C37.9554 25.8107 38.0045 25.7228 38.0614 25.6349L39.403 23.541C39.4651 23.4428 39.5297 23.3704 39.5969 23.3239C39.6641 23.2773 39.7468 23.2541 39.8451 23.2541H41.6055L38.9842 27.0231L41.7141 31.2109H39.8683C39.7288 31.2109 39.615 31.1747 39.5271 31.1024C39.4444 31.03 39.3746 30.9473 39.3177 30.8542L37.6271 28.0856C37.5805 28.2717 37.5159 28.4268 37.4332 28.5509L35.9442 30.8542C35.8873 30.9421 35.8175 31.0248 35.7348 31.1024C35.6521 31.1747 35.5487 31.2109 35.4246 31.2109H33.7107L36.4328 27.1084ZM42.9245 33.8089V23.2541H44.0956C44.2196 23.2541 44.3256 23.2825 44.4135 23.3394C44.5014 23.3962 44.5583 23.4841 44.5841 23.603L44.7392 24.3398C45.0598 23.9727 45.4269 23.6754 45.8405 23.4479C46.2593 23.2205 46.7479 23.1067 47.3062 23.1067C47.7405 23.1067 48.136 23.1972 48.4928 23.3781C48.8547 23.5591 49.1649 23.8228 49.4234 24.1692C49.6871 24.5104 49.8887 24.9344 50.0283 25.441C50.1731 25.9425 50.2455 26.519 50.2455 27.1705C50.2455 27.765 50.1653 28.3156 50.0051 28.8223C49.8448 29.329 49.6147 29.7685 49.3148 30.1407C49.0201 30.513 48.6608 30.8051 48.2369 31.0171C47.8181 31.2239 47.3476 31.3273 46.8254 31.3273C46.3756 31.3273 45.993 31.2601 45.6776 31.1256C45.3674 30.986 45.0882 30.7947 44.8401 30.5517V33.8089H42.9245ZM46.647 24.619C46.2489 24.619 45.9077 24.7043 45.6233 24.8749C45.3442 25.0403 45.0831 25.2756 44.8401 25.5806V29.148C45.0572 29.4169 45.2925 29.6056 45.5458 29.7142C45.8043 29.8176 46.0809 29.8693 46.3756 29.8693C46.6651 29.8693 46.9262 29.815 47.1589 29.7064C47.3967 29.5978 47.5958 29.4324 47.756 29.2101C47.9215 28.9878 48.0481 28.7086 48.136 28.3725C48.2239 28.0313 48.2679 27.6306 48.2679 27.1705C48.2679 26.7051 48.2291 26.3122 48.1516 25.9917C48.0792 25.6659 47.9732 25.4023 47.8336 25.2006C47.694 24.999 47.5234 24.8516 47.3217 24.7586C47.1253 24.6655 46.9004 24.619 46.647 24.619ZM54.9828 23.13C55.4843 23.13 55.9445 23.2101 56.3633 23.3704C56.7872 23.5307 57.1517 23.7659 57.4568 24.0761C57.7618 24.3812 57.9996 24.7586 58.1702 25.2084C58.3409 25.653 58.4262 26.1623 58.4262 26.7362C58.4262 26.8809 58.4184 27.0024 58.4029 27.1007C58.3926 27.1937 58.3693 27.2687 58.3331 27.3256C58.3021 27.3773 58.2581 27.416 58.2013 27.4419C58.1444 27.4626 58.072 27.4729 57.9841 27.4729H53.0673C53.1242 28.2898 53.3439 28.8895 53.7265 29.2721C54.1091 29.6547 54.6157 29.846 55.2465 29.846C55.5567 29.846 55.823 29.8098 56.0453 29.7374C56.2728 29.6651 56.4693 29.5849 56.6347 29.497C56.8053 29.4091 56.9527 29.329 57.0767 29.2566C57.206 29.1842 57.3301 29.148 57.449 29.148C57.5266 29.148 57.5938 29.1636 57.6506 29.1946C57.7075 29.2256 57.7566 29.2695 57.798 29.3264L58.3564 30.0244C58.1444 30.2726 57.9066 30.4819 57.6429 30.6526C57.3792 30.818 57.1026 30.9524 56.8131 31.0558C56.5287 31.1541 56.2366 31.2239 55.9367 31.2652C55.642 31.3066 55.3551 31.3273 55.0759 31.3273C54.5227 31.3273 54.0083 31.2368 53.5326 31.0558C53.0569 30.8697 52.6433 30.5983 52.2918 30.2415C51.9402 29.8796 51.6636 29.435 51.462 28.9076C51.2603 28.3751 51.1595 27.7599 51.1595 27.0619C51.1595 26.519 51.2474 26.0098 51.4232 25.5341C51.599 25.0533 51.8497 24.6371 52.1754 24.2855C52.5063 23.9288 52.907 23.647 53.3775 23.4402C53.8532 23.2334 54.3883 23.13 54.9828 23.13ZM55.0216 24.5027C54.4632 24.5027 54.0264 24.6603 53.711 24.9757C53.3956 25.2911 53.194 25.7383 53.1061 26.3174H56.7045C56.7045 26.0692 56.6709 25.8366 56.6037 25.6194C56.5365 25.3971 56.4331 25.2032 56.2935 25.0378C56.1539 24.8723 55.9781 24.7431 55.7661 24.65C55.5541 24.5518 55.306 24.5027 55.0216 24.5027ZM65.5715 24.9369C65.5147 25.0093 65.4578 25.0662 65.4009 25.1076C65.3492 25.1489 65.2717 25.1696 65.1683 25.1696C65.07 25.1696 64.9744 25.1412 64.8813 25.0843C64.7882 25.0223 64.6771 24.955 64.5478 24.8827C64.4186 24.8051 64.2635 24.7379 64.0825 24.681C63.9067 24.619 63.687 24.588 63.4233 24.588C63.0873 24.588 62.7926 24.65 62.5392 24.7741C62.2859 24.893 62.0739 25.0662 61.9033 25.2937C61.7379 25.5212 61.6138 25.7978 61.531 26.1235C61.4483 26.444 61.407 26.8085 61.407 27.217C61.407 27.6409 61.4509 28.0184 61.5388 28.3493C61.6319 28.6801 61.7637 28.9593 61.9343 29.1868C62.1049 29.4091 62.3117 29.5798 62.5547 29.6987C62.7977 29.8124 63.0718 29.8693 63.3768 29.8693C63.6818 29.8693 63.9274 29.8331 64.1135 29.7607C64.3048 29.6832 64.4651 29.6004 64.5944 29.5125C64.7236 29.4195 64.8348 29.3368 64.9278 29.2644C65.0261 29.1868 65.1346 29.148 65.2536 29.148C65.4087 29.148 65.525 29.2075 65.6025 29.3264L66.1532 30.0244C65.9412 30.2726 65.7111 30.4819 65.463 30.6526C65.2148 30.818 64.9563 30.9524 64.6874 31.0558C64.4237 31.1541 64.1497 31.2239 63.8654 31.2652C63.581 31.3066 63.2992 31.3273 63.0201 31.3273C62.5289 31.3273 62.0662 31.2368 61.6319 31.0558C61.1976 30.8697 60.8176 30.6009 60.4918 30.2493C60.1713 29.8977 59.9154 29.4686 59.7241 28.9619C59.5379 28.4501 59.4449 27.8684 59.4449 27.217C59.4449 26.6328 59.5276 26.0925 59.6931 25.5961C59.8637 25.0946 60.1118 24.6629 60.4376 24.301C60.7633 23.9339 61.1665 23.647 61.6474 23.4402C62.1282 23.2334 62.6814 23.13 63.307 23.13C63.9016 23.13 64.4212 23.2256 64.8658 23.4169C65.3156 23.6082 65.7189 23.8822 66.0756 24.239L65.5715 24.9369ZM69.9852 31.335C69.2976 31.335 68.7677 31.1411 68.3954 30.7534C68.0232 30.3604 67.837 29.8202 67.837 29.1325V24.6888H67.0305C66.9271 24.6888 66.8366 24.6552 66.759 24.588C66.6867 24.5207 66.6505 24.4199 66.6505 24.2855V23.5255L67.9301 23.3161L68.3334 21.1446C68.354 21.0412 68.4006 20.9611 68.473 20.9042C68.5505 20.8473 68.6462 20.8189 68.7599 20.8189H69.7526V23.3239H71.8465V24.6888H69.7526V29.0007C69.7526 29.2489 69.8146 29.4427 69.9387 29.5823C70.0628 29.7219 70.2282 29.7917 70.435 29.7917C70.5539 29.7917 70.6522 29.7788 70.7297 29.753C70.8125 29.7219 70.8823 29.6909 70.9391 29.6599C71.0012 29.6289 71.0555 29.6004 71.102 29.5746C71.1485 29.5436 71.195 29.528 71.2416 29.528C71.2984 29.528 71.345 29.5436 71.3812 29.5746C71.4174 29.6004 71.4561 29.6418 71.4975 29.6987L72.0714 30.6293C71.7922 30.862 71.4716 31.0377 71.1097 31.1567C70.7478 31.2756 70.373 31.335 69.9852 31.335ZM76.6581 23.13C77.1596 23.13 77.6198 23.2101 78.0386 23.3704C78.4625 23.5307 78.827 23.7659 79.1321 24.0761C79.4371 24.3812 79.6749 24.7586 79.8455 25.2084C80.0162 25.653 80.1015 26.1623 80.1015 26.7362C80.1015 26.8809 80.0937 27.0024 80.0782 27.1007C80.0679 27.1937 80.0446 27.2687 80.0084 27.3256C79.9774 27.3773 79.9334 27.416 79.8766 27.4419C79.8197 27.4626 79.7473 27.4729 79.6594 27.4729H74.7426C74.7995 28.2898 75.0192 28.8895 75.4018 29.2721C75.7844 29.6547 76.291 29.846 76.9218 29.846C77.232 29.846 77.4983 29.8098 77.7206 29.7374C77.9481 29.6651 78.1446 29.5849 78.31 29.497C78.4806 29.4091 78.628 29.329 78.752 29.2566C78.8813 29.1842 79.0054 29.148 79.1243 29.148C79.2019 29.148 79.2691 29.1636 79.3259 29.1946C79.3828 29.2256 79.4319 29.2695 79.4733 29.3264L80.0317 30.0244C79.8197 30.2726 79.5819 30.4819 79.3182 30.6526C79.0545 30.818 78.7779 30.9524 78.4884 31.0558C78.204 31.1541 77.9119 31.2239 77.612 31.2652C77.3173 31.3066 77.0304 31.3273 76.7512 31.3273C76.198 31.3273 75.6836 31.2368 75.2079 31.0558C74.7322 30.8697 74.3186 30.5983 73.9671 30.2415C73.6155 29.8796 73.3389 29.435 73.1372 28.9076C72.9356 28.3751 72.8348 27.7599 72.8348 27.0619C72.8348 26.519 72.9227 26.0098 73.0985 25.5341C73.2743 25.0533 73.525 24.6371 73.8507 24.2855C74.1816 23.9288 74.5823 23.647 75.0528 23.4402C75.5284 23.2334 76.0636 23.13 76.6581 23.13ZM76.6969 24.5027C76.1385 24.5027 75.7016 24.6603 75.3863 24.9757C75.0709 25.2911 74.8693 25.7383 74.7814 26.3174H78.3798C78.3798 26.0692 78.3462 25.8366 78.279 25.6194C78.2118 25.3971 78.1084 25.2032 77.9688 25.0378C77.8292 24.8723 77.6534 24.7431 77.4414 24.65C77.2294 24.5518 76.9813 24.5027 76.6969 24.5027ZM87.2546 31.2109C87.0064 31.2109 86.8436 31.0946 86.766 30.862L86.6109 30.0942C86.4455 30.2803 86.2723 30.4483 86.0913 30.5983C85.9103 30.7482 85.7139 30.8775 85.5019 30.986C85.2951 31.0946 85.0702 31.1773 84.8272 31.2342C84.5894 31.2962 84.3309 31.3273 84.0517 31.3273C83.6174 31.3273 83.2193 31.2368 82.8574 31.0558C82.4954 30.8749 82.1827 30.6138 81.919 30.2726C81.6605 29.9262 81.4588 29.4996 81.3141 28.9929C81.1745 28.4863 81.1047 27.9072 81.1047 27.2558C81.1047 26.6664 81.1848 26.1183 81.3451 25.6117C81.5054 25.105 81.7354 24.6655 82.0353 24.2933C82.3352 23.921 82.6945 23.6315 83.1133 23.4247C83.5321 23.2127 84.0025 23.1067 84.5247 23.1067C84.9694 23.1067 85.3494 23.1791 85.6648 23.3239C85.9801 23.4634 86.2619 23.6522 86.5101 23.89V19.6866H88.4256V31.2109H87.2546ZM84.7031 29.8072C85.1012 29.8072 85.4399 29.7245 85.719 29.5591C85.9982 29.3936 86.2619 29.1584 86.5101 28.8533V25.2859C86.2929 25.0223 86.0551 24.8361 85.7966 24.7276C85.5433 24.619 85.2692 24.5647 84.9745 24.5647C84.685 24.5647 84.4213 24.619 84.1835 24.7276C83.9508 24.8361 83.7518 25.0016 83.5864 25.2239C83.4261 25.441 83.302 25.7202 83.2141 26.0615C83.1262 26.3975 83.0823 26.7956 83.0823 27.2558C83.0823 27.7211 83.1185 28.1166 83.1908 28.4423C83.2684 28.7629 83.377 29.0265 83.5166 29.2334C83.6561 29.435 83.8268 29.5823 84.0284 29.6754C84.23 29.7633 84.4549 29.8072 84.7031 29.8072ZM101.511 19.9969V21.7108H98.1379V31.2109H96.0517V21.7108H92.6627V19.9969H101.511ZM101.483 31.2109V23.2541H102.607C102.804 23.2541 102.941 23.2902 103.018 23.3626C103.096 23.435 103.147 23.5591 103.173 23.7349L103.29 24.6965C103.574 24.2054 103.907 23.8176 104.29 23.5332C104.673 23.2489 105.102 23.1067 105.577 23.1067C105.97 23.1067 106.296 23.1972 106.555 23.3781L106.306 24.8129C106.291 24.9059 106.257 24.9731 106.206 25.0145C106.154 25.0507 106.084 25.0688 105.996 25.0688C105.919 25.0688 105.813 25.0507 105.678 25.0145C105.544 24.9783 105.365 24.9602 105.143 24.9602C104.745 24.9602 104.404 25.0714 104.119 25.2937C103.835 25.5108 103.595 25.8314 103.398 26.2553V31.2109H101.483ZM113.822 31.2109H112.961C112.78 31.2109 112.638 31.1851 112.535 31.1334C112.431 31.0765 112.354 30.9654 112.302 30.7999L112.131 30.2338C111.93 30.4147 111.731 30.575 111.534 30.7146C111.343 30.849 111.144 30.9628 110.937 31.0558C110.73 31.1489 110.511 31.2187 110.278 31.2652C110.045 31.3118 109.787 31.335 109.502 31.335C109.166 31.335 108.856 31.2911 108.572 31.2032C108.287 31.1101 108.042 30.9731 107.835 30.7922C107.633 30.6112 107.476 30.3863 107.362 30.1174C107.248 29.8486 107.191 29.5358 107.191 29.1791C107.191 28.8792 107.269 28.5845 107.424 28.295C107.584 28.0003 107.848 27.7366 108.215 27.5039C108.582 27.2661 109.071 27.0696 109.681 26.9145C110.291 26.7594 111.048 26.6715 111.953 26.6509V26.1855C111.953 25.653 111.839 25.2601 111.612 25.0067C111.39 24.7482 111.064 24.619 110.635 24.619C110.324 24.619 110.066 24.6552 109.859 24.7276C109.652 24.7999 109.471 24.8827 109.316 24.9757C109.166 25.0636 109.027 25.1438 108.898 25.2161C108.768 25.2885 108.626 25.3247 108.471 25.3247C108.342 25.3247 108.231 25.2911 108.138 25.2239C108.044 25.1567 107.969 25.074 107.913 24.9757L107.564 24.3631C108.479 23.5255 109.583 23.1067 110.875 23.1067C111.34 23.1067 111.754 23.1843 112.116 23.3394C112.483 23.4893 112.793 23.7013 113.047 23.9753C113.3 24.2441 113.491 24.5673 113.62 24.9447C113.755 25.3221 113.822 25.7357 113.822 26.1855V31.2109ZM110.1 30.0166C110.296 30.0166 110.477 29.9985 110.642 29.9623C110.808 29.9262 110.963 29.8719 111.108 29.7995C111.258 29.7271 111.4 29.6392 111.534 29.5358C111.674 29.4272 111.814 29.3006 111.953 29.1558V27.8141C111.395 27.84 110.927 27.8891 110.549 27.9615C110.177 28.0287 109.877 28.1166 109.65 28.2252C109.422 28.3337 109.259 28.4604 109.161 28.6052C109.068 28.7499 109.022 28.9076 109.022 29.0782C109.022 29.4143 109.12 29.6547 109.316 29.7995C109.518 29.9442 109.779 30.0166 110.1 30.0166ZM116.047 31.2109V24.6965L115.357 24.588C115.207 24.5621 115.085 24.5104 114.992 24.4329C114.904 24.3553 114.86 24.2467 114.86 24.1071V23.3239H116.047V22.7345C116.047 22.2795 116.114 21.871 116.249 21.5091C116.388 21.1472 116.585 20.8396 116.838 20.5863C117.096 20.3329 117.409 20.139 117.776 20.0046C118.143 19.8702 118.557 19.803 119.017 19.803C119.384 19.803 119.725 19.8521 120.041 19.9503L120.002 20.912C119.992 21.0619 119.922 21.155 119.793 21.1912C119.663 21.2274 119.513 21.2454 119.343 21.2454C119.115 21.2454 118.911 21.2713 118.73 21.323C118.554 21.3695 118.404 21.4548 118.28 21.5789C118.156 21.6978 118.061 21.8581 117.993 22.0597C117.931 22.2562 117.9 22.5018 117.9 22.7965V23.3239H119.971V24.6888H117.962V31.2109H116.047ZM121.485 31.2109V24.6965L120.794 24.588C120.644 24.5621 120.523 24.5104 120.43 24.4329C120.342 24.3553 120.298 24.2467 120.298 24.1071V23.3239H121.485V23.0679C121.485 22.5819 121.565 22.1321 121.725 21.7185C121.885 21.2997 122.128 20.9378 122.454 20.6328C122.78 20.3277 123.191 20.0899 123.687 19.9193C124.183 19.7435 124.77 19.6556 125.448 19.6556C125.665 19.6556 125.887 19.6685 126.115 19.6944C126.342 19.7151 126.538 19.7513 126.704 19.803L126.642 20.7956C126.632 20.9146 126.567 20.9869 126.448 21.0128C126.329 21.0335 126.182 21.0438 126.006 21.0438C125.504 21.0438 125.083 21.0878 124.742 21.1757C124.406 21.2635 124.132 21.3954 123.92 21.5712C123.713 21.7418 123.563 21.9589 123.47 22.2226C123.382 22.4811 123.338 22.7836 123.338 23.13V23.3239H128.27V31.2109H126.355V24.6888H123.4V31.2109H121.485ZM136.05 24.9369C135.993 25.0093 135.937 25.0662 135.88 25.1076C135.828 25.1489 135.75 25.1696 135.647 25.1696C135.549 25.1696 135.453 25.1412 135.36 25.0843C135.267 25.0223 135.156 24.955 135.027 24.8827C134.897 24.8051 134.742 24.7379 134.561 24.681C134.386 24.619 134.166 24.588 133.902 24.588C133.566 24.588 133.271 24.65 133.018 24.7741C132.765 24.893 132.553 25.0662 132.382 25.2937C132.217 25.5212 132.093 25.7978 132.01 26.1235C131.927 26.444 131.886 26.8085 131.886 27.217C131.886 27.6409 131.93 28.0184 132.018 28.3493C132.111 28.6801 132.243 28.9593 132.413 29.1868C132.584 29.4091 132.791 29.5798 133.034 29.6987C133.277 29.8124 133.551 29.8693 133.856 29.8693C134.161 29.8693 134.406 29.8331 134.592 29.7607C134.784 29.6832 134.944 29.6004 135.073 29.5125C135.202 29.4195 135.314 29.3368 135.407 29.2644C135.505 29.1868 135.613 29.148 135.732 29.148C135.887 29.148 136.004 29.2075 136.081 29.3264L136.632 30.0244C136.42 30.2726 136.19 30.4819 135.942 30.6526C135.694 30.818 135.435 30.9524 135.166 31.0558C134.903 31.1541 134.629 31.2239 134.344 31.2652C134.06 31.3066 133.778 31.3273 133.499 31.3273C133.008 31.3273 132.545 31.2368 132.111 31.0558C131.676 30.8697 131.296 30.6009 130.971 30.2493C130.65 29.8977 130.394 29.4686 130.203 28.9619C130.017 28.4501 129.924 27.8684 129.924 27.217C129.924 26.6328 130.006 26.0925 130.172 25.5961C130.342 25.0946 130.591 24.6629 130.916 24.301C131.242 23.9339 131.645 23.647 132.126 23.4402C132.607 23.2334 133.16 23.13 133.786 23.13C134.38 23.13 134.9 23.2256 135.345 23.4169C135.794 23.6082 136.198 23.8822 136.554 24.239L136.05 24.9369Z" fill="black"/>
<path d="M27.2949 47.7309L33.8966 46.1605L34.3037 46.4513L34.1874 50.6101V58.8985C34.1874 59.5771 34.1874 60.2653 34.1874 60.9633C34.1874 61.6613 34.1971 62.3593 34.2165 63.0572L37.9972 63.8134V65.0057H26.8005V63.8134L30.6394 63.0863C30.6588 62.3883 30.6684 61.6904 30.6684 60.9924C30.6684 60.275 30.6684 59.5771 30.6684 58.8985V48.8651L27.2949 49.156V47.7309ZM41.2407 65.0057V62.7664C41.9581 62.0684 42.6657 61.3705 43.3637 60.6725C44.0617 59.9745 44.7112 59.3056 45.3122 58.6658C46.7276 57.2117 47.7745 55.903 48.4531 54.7397C49.1317 53.5764 49.471 52.3841 49.471 51.1626C49.471 49.9993 49.1802 49.0881 48.5985 48.4289C48.0169 47.7697 47.2316 47.4401 46.2429 47.4401C45.9133 47.4401 45.5449 47.4692 45.1377 47.5274L44.7015 49.5631C44.527 50.3968 44.275 50.9784 43.9454 51.308C43.6158 51.6182 43.228 51.7734 42.7821 51.7734C42.0259 51.7734 41.4637 51.4147 41.0953 50.6973C41.1729 49.6504 41.5025 48.7876 42.0841 48.109C42.6657 47.411 43.4219 46.8875 44.3525 46.5386C45.3025 46.1896 46.3204 46.0151 47.4061 46.0151C49.3837 46.0151 50.8281 46.4901 51.7394 47.4401C52.6506 48.3901 53.1062 49.5825 53.1062 51.0172C53.1062 51.9091 52.9027 52.7718 52.4955 53.6055C52.0884 54.4392 51.4195 55.3311 50.4888 56.2811C49.5582 57.2311 48.3174 58.3459 46.7663 59.6255C46.3786 59.9551 45.9326 60.3332 45.4286 60.7597C44.9438 61.1669 44.4398 61.5934 43.9163 62.0394H53.717V65.0057H41.2407ZM68.9715 59.2766C68.9715 60.5562 68.6613 61.6613 68.0408 62.5919C67.4204 63.5032 66.5673 64.2011 65.4816 64.6858C64.4153 65.1705 63.1744 65.4129 61.7591 65.4129C60.0917 65.4129 58.7636 65.0251 57.7748 64.2496C56.8054 63.4741 56.2141 62.3786 56.0008 60.9633C56.1559 60.5756 56.3789 60.2944 56.6697 60.1199C56.9605 59.9261 57.2901 59.8291 57.6585 59.8291C58.182 59.8291 58.5891 59.9939 58.88 60.3235C59.1708 60.6337 59.3937 61.2057 59.5489 62.0394L59.8688 63.8134C60.3341 63.9297 60.7994 63.9879 61.2647 63.9879C62.5249 63.9879 63.504 63.6001 64.202 62.8246C64.9194 62.0491 65.278 61.0021 65.278 59.6837C65.278 58.2684 64.9097 57.1923 64.1729 56.4556C63.4556 55.7188 62.4668 55.3505 61.2065 55.3505C60.7606 55.3505 60.305 55.3795 59.8397 55.4377C59.3937 55.4959 58.9478 55.5734 58.5019 55.6704L57.6876 55.2923L58.2983 46.4222H68.3607V49.3886H59.7233L59.4325 53.7219C60.2662 53.528 61.1871 53.431 62.1953 53.431C64.2505 53.431 65.8888 53.9351 67.1102 54.9433C68.3511 55.9321 68.9715 57.3765 68.9715 59.2766ZM76.6937 65.8491L75.5595 65.0057L88.85 45.6952L89.9842 46.5095L76.6937 65.8491ZM74.2799 52.0351C74.2799 53.3923 74.3574 54.4392 74.5125 55.176C74.687 55.8933 74.9003 56.3877 75.1523 56.6592C75.4238 56.9112 75.7146 57.0372 76.0248 57.0372C76.335 57.0372 76.6161 56.9112 76.8682 56.6592C77.1396 56.3877 77.3529 55.8933 77.508 55.176C77.6825 54.4392 77.7697 53.3923 77.7697 52.0351C77.7697 50.6585 77.6825 49.6116 77.508 48.8942C77.3529 48.1769 77.1396 47.6922 76.8682 47.4401C76.6161 47.1687 76.335 47.033 76.0248 47.033C75.7146 47.033 75.4238 47.1687 75.1523 47.4401C74.9003 47.6922 74.687 48.1769 74.5125 48.8942C74.3574 49.6116 74.2799 50.6585 74.2799 52.0351ZM76.0248 46.0442C76.7616 46.0442 77.4498 46.2574 78.0896 46.684C78.7294 47.0911 79.2529 47.7406 79.6601 48.6325C80.0672 49.5049 80.2708 50.6391 80.2708 52.0351C80.2708 53.4116 80.0672 54.5459 79.6601 55.4377C79.2529 56.3102 78.7294 56.9597 78.0896 57.3862C77.4498 57.7934 76.7616 57.9969 76.0248 57.9969C75.2881 57.9969 74.5901 57.7934 73.9309 57.3862C73.2911 56.9597 72.7676 56.3102 72.3605 55.4377C71.9727 54.5459 71.7788 53.4116 71.7788 52.0351C71.7788 50.6391 71.9727 49.5049 72.3605 48.6325C72.7676 47.7406 73.2911 47.0911 73.9309 46.684C74.5901 46.2574 75.2881 46.0442 76.0248 46.0442ZM87.425 59.3056C87.425 60.6628 87.5026 61.7098 87.6577 62.4465C87.8322 63.1639 88.0454 63.6583 88.2975 63.9297C88.5689 64.1817 88.8597 64.3078 89.1699 64.3078C89.4802 64.3078 89.7613 64.1817 90.0133 63.9297C90.2848 63.6583 90.498 63.1639 90.6531 62.4465C90.8276 61.7098 90.9149 60.6628 90.9149 59.3056C90.9149 57.9291 90.8276 56.8821 90.6531 56.1648C90.498 55.4474 90.2848 54.9627 90.0133 54.7107C89.7613 54.4392 89.4802 54.3035 89.1699 54.3035C88.8597 54.3035 88.5689 54.4392 88.2975 54.7107C88.0454 54.9627 87.8322 55.4474 87.6577 56.1648C87.5026 56.8821 87.425 57.9291 87.425 59.3056ZM89.1699 53.3147C89.9067 53.3147 90.595 53.528 91.2348 53.9545C91.8746 54.3617 92.3981 55.0112 92.8052 55.903C93.2124 56.7755 93.4159 57.9097 93.4159 59.3056C93.4159 60.6822 93.2124 61.8164 92.8052 62.7082C92.3981 63.5807 91.8746 64.2302 91.2348 64.6568C90.595 65.0639 89.9067 65.2675 89.1699 65.2675C88.4332 65.2675 87.7352 65.0639 87.076 64.6568C86.4362 64.2302 85.9127 63.5807 85.5056 62.7082C85.1178 61.8164 84.9239 60.6822 84.9239 59.3056C84.9239 57.9097 85.1178 56.7755 85.5056 55.903C85.9127 55.0112 86.4362 54.3617 87.076 53.9545C87.7352 53.528 88.4332 53.3147 89.1699 53.3147Z" fill="#0B9BEA"/>
</g>
<defs>
<filter id="filter0_d_1_1663" x="0.518212" y="0.531689" width="241.643" height="151.525" filterUnits="userSpaceOnUse" color-interpolation-filters="sRGB">
<feFlood flood-opacity="0" result="BackgroundImageFix"/>
<feColorMatrix in="SourceAlpha" type="matrix" values="0 0 0 0 0 0 0 0 0 0 0 0 0 0 0 0 0 0 127 0" result="hardAlpha"/>
<feOffset dx="2.25835" dy="4.5167"/>
<feGaussianBlur stdDeviation="3.38753"/>
<feComposite in2="hardAlpha" operator="out"/>
<feColorMatrix type="matrix" values="0 0 0 0 0 0 0 0 0 0 0 0 0 0 0 0 0 0 0.16 0"/>
<feBlend mode="normal" in2="BackgroundImageFix" result="effect1_dropShadow_1_1663"/>
<feBlend mode="normal" in="SourceGraphic" in2="effect1_dropShadow_1_1663" result="shape"/>
</filter>
<linearGradient id="paint0_linear_1_1663" x1="119.082" y1="44.2187" x2="119.082" y2="139.635" gradientUnits="userSpaceOnUse">
<stop stop-color="#77CEFF"/>
<stop offset="1" stop-color="white"/>
</linearGradient>
</defs>
</svg>
