<svg width="283" height="135" viewBox="0 0 283 135" fill="none" xmlns="http://www.w3.org/2000/svg">
<g filter="url(#filter0_d_1_1732)">
<rect x="5" y="3.33331" width="293.994" height="123.218" rx="11.0929" fill="white" shape-rendering="crispEdges"/>
<rect x="5.46916" y="3.80248" width="293.055" height="122.279" rx="10.6237" stroke="#DEDEDE" stroke-width="0.938324" shape-rendering="crispEdges"/>
<path d="M38.9387 53.4208H35.6441V58.9117H31.9502V53.4208H23.0981V51.058L32.882 37.3472H35.6441V50.5921H38.9387V53.4208ZM25.4608 50.5921H31.9502V41.3739L25.4608 50.5921ZM44.9132 48.3291C44.9132 50.8583 45.0685 52.8107 45.3791 54.1862C45.6897 55.5395 46.1002 56.4713 46.6104 56.9816C47.1207 57.4919 47.6865 57.747 48.3077 57.747C48.9067 57.747 49.4613 57.4919 49.9716 56.9816C50.4819 56.4491 50.8923 55.5062 51.2029 54.1529C51.5135 52.7774 51.6688 50.8361 51.6688 48.3291C51.6688 45.7778 51.5135 43.8143 51.2029 42.4388C50.8923 41.0633 50.4819 40.1204 49.9716 39.6101C49.4613 39.0777 48.9067 38.8114 48.3077 38.8114C47.6865 38.8114 47.1207 39.0777 46.6104 39.6101C46.1002 40.1204 45.6897 41.0633 45.3791 42.4388C45.0685 43.7921 44.9132 45.7556 44.9132 48.3291ZM48.3077 37.1808C49.5722 37.1808 50.7703 37.5579 51.9018 38.3123C53.0332 39.0444 53.9428 40.2313 54.6306 41.8731C55.3405 43.4926 55.6955 45.6447 55.6955 48.3291C55.6955 50.9692 55.3405 53.1102 54.6306 54.7519C53.9428 56.3715 53.0332 57.5473 51.9018 58.2794C50.7703 59.0116 49.5722 59.3776 48.3077 59.3776C47.0209 59.3776 45.8118 59.0116 44.6803 58.2794C43.5488 57.5473 42.6281 56.3715 41.9182 54.7519C41.2304 53.1102 40.8865 50.9692 40.8865 48.3291C40.8865 45.6447 41.2304 43.4926 41.9182 41.8731C42.6281 40.2313 43.5488 39.0444 44.6803 38.3123C45.8118 37.5579 47.0209 37.1808 48.3077 37.1808ZM64.5986 59.8768L63.3007 58.9117L78.5091 36.8147L79.8069 37.7465L64.5986 59.8768ZM61.8365 44.0695C61.8365 45.6225 61.9252 46.8205 62.1027 47.6636C62.3024 48.4844 62.5464 49.0502 62.8348 49.3608C63.1454 49.6492 63.4782 49.7934 63.8332 49.7934C64.1882 49.7934 64.5099 49.6492 64.7983 49.3608C65.1089 49.0502 65.3529 48.4844 65.5304 47.6636C65.7301 46.8205 65.8299 45.6225 65.8299 44.0695C65.8299 42.4943 65.7301 41.2962 65.5304 40.4754C65.3529 39.6545 65.1089 39.0999 64.7983 38.8114C64.5099 38.5008 64.1882 38.3455 63.8332 38.3455C63.4782 38.3455 63.1454 38.5008 62.8348 38.8114C62.5464 39.0999 62.3024 39.6545 62.1027 40.4754C61.9252 41.2962 61.8365 42.4943 61.8365 44.0695ZM63.8332 37.2141C64.6762 37.2141 65.4638 37.4581 66.196 37.9462C66.9281 38.4121 67.5271 39.1553 67.993 40.1759C68.4589 41.1742 68.6919 42.4721 68.6919 44.0695C68.6919 45.6447 68.4589 46.9425 67.993 47.9631C67.5271 48.9614 66.9281 49.7047 66.196 50.1927C65.4638 50.6586 64.6762 50.8916 63.8332 50.8916C62.9901 50.8916 62.1914 50.6586 61.4371 50.1927C60.705 49.7047 60.106 48.9614 59.6401 47.9631C59.1964 46.9425 58.9745 45.6447 58.9745 44.0695C58.9745 42.4721 59.1964 41.1742 59.6401 40.1759C60.106 39.1553 60.705 38.4121 61.4371 37.9462C62.1914 37.4581 62.9901 37.2141 63.8332 37.2141ZM76.8784 52.3891C76.8784 53.9421 76.9672 55.1402 77.1446 55.9832C77.3443 56.8041 77.5884 57.3698 77.8768 57.6804C78.1874 57.9688 78.5202 58.1131 78.8751 58.1131C79.2301 58.1131 79.5518 57.9688 79.8402 57.6804C80.1508 57.3698 80.3949 56.8041 80.5723 55.9832C80.772 55.1402 80.8719 53.9421 80.8719 52.3891C80.8719 50.8139 80.772 49.6159 80.5723 48.795C80.3949 47.9742 80.1508 47.4195 79.8402 47.1311C79.5518 46.8205 79.2301 46.6652 78.8751 46.6652C78.5202 46.6652 78.1874 46.8205 77.8768 47.1311C77.5884 47.4195 77.3443 47.9742 77.1446 48.795C76.9672 49.6159 76.8784 50.8139 76.8784 52.3891ZM78.8751 45.5337C79.7182 45.5337 80.5058 45.7778 81.2379 46.2659C81.97 46.7318 82.5691 47.475 83.035 48.4955C83.5009 49.4939 83.7338 50.7918 83.7338 52.3891C83.7338 53.9643 83.5009 55.2622 83.035 56.2827C82.5691 57.2811 81.97 58.0243 81.2379 58.5124C80.5058 58.9783 79.7182 59.2113 78.8751 59.2113C78.0321 59.2113 77.2334 58.9783 76.4791 58.5124C75.7469 58.0243 75.1479 57.2811 74.682 56.2827C74.2383 55.2622 74.0164 53.9643 74.0164 52.3891C74.0164 50.7918 74.2383 49.4939 74.682 48.4955C75.1479 47.475 75.7469 46.7318 76.4791 46.2659C77.2334 45.7778 78.0321 45.5337 78.8751 45.5337Z" fill="#0B9BEA"/>
<path d="M32.025 73.8815V75.7202H28.406V85.9117H26.168V75.7202H22.5323V73.8815H32.025ZM31.9942 85.9117V77.3758H33.2006C33.4114 77.3758 33.5583 77.4146 33.6415 77.4922C33.7247 77.5699 33.7802 77.703 33.8079 77.8916L33.9327 78.9232C34.2378 78.3963 34.5955 77.9803 35.006 77.6753C35.4164 77.3702 35.8767 77.2177 36.387 77.2177C36.8085 77.2177 37.158 77.3148 37.4353 77.5089L37.1691 79.048C37.1524 79.1479 37.1164 79.22 37.0609 79.2643C37.0054 79.3032 36.9306 79.3226 36.8363 79.3226C36.7531 79.3226 36.6394 79.3032 36.4952 79.2643C36.351 79.2255 36.1596 79.2061 35.9211 79.2061C35.494 79.2061 35.128 79.3253 34.8229 79.5638C34.5179 79.7968 34.26 80.1407 34.0492 80.5955V85.9117H31.9942ZM45.2317 85.9117H44.3082C44.1141 85.9117 43.9616 85.884 43.8507 85.8285C43.7397 85.7675 43.6565 85.6483 43.6011 85.4708L43.418 84.8635C43.2017 85.0576 42.9882 85.2295 42.7774 85.3793C42.5722 85.5235 42.3587 85.6455 42.1368 85.7453C41.915 85.8452 41.6792 85.9201 41.4296 85.97C41.1801 86.0199 40.9027 86.0449 40.5977 86.0449C40.2372 86.0449 39.9044 85.9977 39.5993 85.9034C39.2943 85.8036 39.0308 85.6566 38.8089 85.4625C38.5926 85.2684 38.4235 85.0271 38.3014 84.7387C38.1794 84.4503 38.1184 84.1147 38.1184 83.732C38.1184 83.4103 38.2016 83.0942 38.368 82.7836C38.5399 82.4674 38.8228 82.1845 39.2166 81.9349C39.6104 81.6798 40.1345 81.469 40.789 81.3027C41.4435 81.1363 42.2561 81.042 43.2267 81.0198V80.5206C43.2267 79.9493 43.1047 79.5278 42.8606 79.256C42.6221 78.9787 42.2727 78.84 41.8123 78.84C41.4796 78.84 41.2022 78.8789 40.9804 78.9565C40.7585 79.0342 40.5644 79.1229 40.398 79.2227C40.2372 79.317 40.0874 79.403 39.9487 79.4806C39.8101 79.5583 39.6576 79.5971 39.4912 79.5971C39.3525 79.5971 39.2333 79.5611 39.1334 79.489C39.0336 79.4169 38.9532 79.3281 38.8921 79.2227L38.5178 78.5655C39.4995 77.667 40.6836 77.2177 42.0703 77.2177C42.5694 77.2177 43.0132 77.3009 43.4014 77.4673C43.7952 77.6281 44.128 77.8555 44.3998 78.1495C44.6715 78.4379 44.8768 78.7846 45.0154 79.1895C45.1596 79.5943 45.2317 80.0381 45.2317 80.5206V85.9117ZM41.2383 84.6305C41.4491 84.6305 41.6432 84.6111 41.8207 84.5723C41.9982 84.5335 42.1645 84.4752 42.3198 84.3976C42.4807 84.3199 42.6332 84.2256 42.7774 84.1147C42.9272 83.9982 43.0769 83.8623 43.2267 83.707V82.2677C42.6277 82.2955 42.1257 82.3482 41.7208 82.4258C41.3215 82.4979 40.9998 82.5922 40.7557 82.7087C40.5117 82.8251 40.337 82.961 40.2316 83.1163C40.1318 83.2716 40.0819 83.4408 40.0819 83.6238C40.0819 83.9844 40.1872 84.2423 40.398 84.3976C40.6143 84.5529 40.8944 84.6305 41.2383 84.6305ZM47.6184 85.9117V78.9232L46.878 78.8068C46.7171 78.779 46.5868 78.7236 46.487 78.6404C46.3927 78.5572 46.3455 78.4407 46.3455 78.2909V77.4506H47.6184V76.8184C47.6184 76.3303 47.6905 75.8921 47.8347 75.5038C47.9845 75.1156 48.1953 74.7856 48.467 74.5138C48.7444 74.242 49.0799 74.034 49.4737 73.8898C49.8675 73.7456 50.3112 73.6735 50.8049 73.6735C51.1987 73.6735 51.5647 73.7262 51.9031 73.8316L51.8615 74.8632C51.8504 75.0241 51.7755 75.1239 51.6368 75.1627C51.4982 75.2016 51.3373 75.221 51.1543 75.221C50.9102 75.221 50.6912 75.2487 50.497 75.3042C50.3085 75.3541 50.1476 75.4456 50.0145 75.5787C49.8814 75.7063 49.7788 75.8782 49.7067 76.0945C49.6401 76.3053 49.6068 76.5688 49.6068 76.8849V77.4506H51.8282V78.9149H49.6734V85.9117H47.6184ZM53.4519 85.9117V78.9232L52.7115 78.8068C52.5506 78.779 52.4203 78.7236 52.3205 78.6404C52.2262 78.5572 52.179 78.4407 52.179 78.2909V77.4506H53.4519V77.1761C53.4519 76.6547 53.5379 76.1722 53.7099 75.7285C53.8818 75.2792 54.1425 74.891 54.4919 74.5637C54.8413 74.2365 55.2823 73.9813 55.8147 73.7983C56.3472 73.6097 56.9767 73.5154 57.7033 73.5154C57.9362 73.5154 58.1747 73.5293 58.4188 73.557C58.6628 73.5792 58.8736 73.6181 59.0511 73.6735L58.9845 74.7384C58.9734 74.866 58.9041 74.9437 58.7765 74.9714C58.649 74.9936 58.4909 75.0047 58.3023 75.0047C57.7643 75.0047 57.3123 75.0518 56.9462 75.1461C56.5857 75.2404 56.2917 75.3818 56.0643 75.5704C55.8425 75.7534 55.6816 75.9864 55.5818 76.2693C55.4875 76.5466 55.4403 76.871 55.4403 77.2427V77.4506H60.7316V85.9117H58.6767V78.9149H55.5069V85.9117H53.4519ZM69.0777 79.1811C69.0167 79.2588 68.9557 79.3198 68.8947 79.3642C68.8392 79.4085 68.756 79.4307 68.6451 79.4307C68.5397 79.4307 68.4371 79.4002 68.3372 79.3392C68.2374 79.2727 68.1182 79.2006 67.9795 79.1229C67.8408 79.0397 67.6744 78.9676 67.4803 78.9066C67.2917 78.84 67.056 78.8068 66.7731 78.8068C66.4126 78.8068 66.0965 78.8733 65.8247 79.0064C65.5529 79.134 65.3255 79.3198 65.1425 79.5638C64.965 79.8079 64.8319 80.1046 64.7431 80.454C64.6544 80.7979 64.61 81.1889 64.61 81.6271C64.61 82.0819 64.6572 82.4868 64.7515 82.8418C64.8513 83.1968 64.9927 83.4963 65.1758 83.7403C65.3588 83.9788 65.5807 84.1618 65.8413 84.2894C66.102 84.4114 66.396 84.4724 66.7232 84.4724C67.0505 84.4724 67.3139 84.4336 67.5136 84.356C67.7188 84.2728 67.8908 84.184 68.0294 84.0897C68.1681 83.9899 68.2873 83.9012 68.3872 83.8235C68.4925 83.7403 68.609 83.6987 68.7366 83.6987C68.903 83.6987 69.0278 83.7625 69.111 83.8901L69.7017 84.6388C69.4743 84.9051 69.2274 85.1297 68.9612 85.3127C68.695 85.4902 68.4177 85.6344 68.1293 85.7453C67.8464 85.8507 67.5524 85.9256 67.2474 85.97C66.9423 86.0144 66.64 86.0365 66.3405 86.0365C65.8136 86.0365 65.3172 85.9395 64.8513 85.7453C64.3854 85.5457 63.9777 85.2573 63.6283 84.8801C63.2844 84.5029 63.0099 84.0426 62.8047 83.499C62.605 82.9499 62.5052 82.326 62.5052 81.6271C62.5052 81.0004 62.5939 80.4208 62.7714 79.8883C62.9544 79.3503 63.2207 78.8872 63.5701 78.4989C63.9195 78.1051 64.3521 77.7973 64.8679 77.5754C65.3838 77.3536 65.9772 77.2427 66.6484 77.2427C67.2862 77.2427 67.8436 77.3453 68.3206 77.5505C68.8031 77.7557 69.2358 78.0497 69.6185 78.4324L69.0777 79.1811ZM29.0716 104.264C29.5763 104.264 30.0145 104.22 30.3861 104.131C30.7632 104.037 31.121 103.909 31.4593 103.749V101.561H29.9535C29.8092 101.561 29.6955 101.522 29.6123 101.444C29.5291 101.361 29.4875 101.261 29.4875 101.145V99.88H33.4893V104.747C33.1843 104.969 32.8653 105.163 32.5325 105.329C32.2053 105.49 31.8531 105.623 31.4759 105.729C31.1043 105.834 30.705 105.912 30.2779 105.962C29.8508 106.017 29.3905 106.045 28.8969 106.045C28.0205 106.045 27.2135 105.892 26.4758 105.587C25.7382 105.282 25.1003 104.858 24.5623 104.314C24.0243 103.771 23.6028 103.122 23.2977 102.368C22.9982 101.613 22.8485 100.79 22.8485 99.8966C22.8485 98.9926 22.9954 98.1634 23.2894 97.409C23.5834 96.6547 23.9993 96.0058 24.5374 95.4622C25.0809 94.9187 25.7382 94.4972 26.5091 94.1977C27.2801 93.8982 28.1453 93.7484 29.1048 93.7484C30.0866 93.7484 30.9352 93.8954 31.6507 94.1893C32.3717 94.4778 32.9818 94.8549 33.481 95.3208L32.8321 96.3358C32.7045 96.541 32.5353 96.6436 32.3246 96.6436C32.1914 96.6436 32.0556 96.5993 31.9169 96.5105C31.7394 96.4051 31.5564 96.2998 31.3678 96.1944C31.1848 96.089 30.9795 95.9975 30.7521 95.9198C30.5303 95.8422 30.2779 95.7784 29.995 95.7285C29.7177 95.6786 29.396 95.6536 29.03 95.6536C28.4365 95.6536 27.8985 95.7534 27.416 95.9531C26.939 96.1528 26.5313 96.4384 26.193 96.81C25.8546 97.1816 25.5939 97.6281 25.4109 98.1495C25.2279 98.6709 25.1364 99.2532 25.1364 99.8966C25.1364 100.59 25.2334 101.208 25.4276 101.752C25.6217 102.29 25.8935 102.745 26.2429 103.116C26.5923 103.488 27.0083 103.774 27.4908 103.973C27.9734 104.167 28.5003 104.264 29.0716 104.264ZM35.4553 105.912V97.3758H36.6617C36.8725 97.3758 37.0194 97.4146 37.1026 97.4922C37.1858 97.5699 37.2413 97.703 37.269 97.8916L37.3938 98.9232C37.6989 98.3963 38.0566 97.9803 38.4671 97.6753C38.8775 97.3702 39.3379 97.2177 39.8481 97.2177C40.2697 97.2177 40.6191 97.3148 40.8964 97.5089L40.6302 99.048C40.6135 99.1479 40.5775 99.22 40.522 99.2643C40.4666 99.3032 40.3917 99.3226 40.2974 99.3226C40.2142 99.3226 40.1005 99.3032 39.9563 99.2643C39.8121 99.2255 39.6207 99.2061 39.3822 99.2061C38.9551 99.2061 38.5891 99.3253 38.284 99.5638C37.979 99.7968 37.7211 100.141 37.5103 100.595V105.912H35.4553ZM45.8916 97.2427C46.5294 97.2427 47.1062 97.3453 47.6221 97.5505C48.1434 97.7557 48.5871 98.0469 48.9532 98.424C49.3193 98.8012 49.6021 99.2616 49.8018 99.8051C50.0015 100.349 50.1013 100.956 50.1013 101.627C50.1013 102.304 50.0015 102.914 49.8018 103.457C49.6021 104.001 49.3193 104.464 48.9532 104.847C48.5871 105.23 48.1434 105.523 47.6221 105.729C47.1062 105.934 46.5294 106.037 45.8916 106.037C45.2537 106.037 44.6741 105.934 44.1528 105.729C43.6314 105.523 43.1849 105.23 42.8133 104.847C42.4472 104.464 42.1616 104.001 41.9564 103.457C41.7567 102.914 41.6569 102.304 41.6569 101.627C41.6569 100.956 41.7567 100.349 41.9564 99.8051C42.1616 99.2616 42.4472 98.8012 42.8133 98.424C43.1849 98.0469 43.6314 97.7557 44.1528 97.5505C44.6741 97.3453 45.2537 97.2427 45.8916 97.2427ZM45.8916 104.456C46.6015 104.456 47.1257 104.217 47.464 103.74C47.8079 103.263 47.9798 102.564 47.9798 101.644C47.9798 100.723 47.8079 100.021 47.464 99.5389C47.1257 99.0563 46.6015 98.8151 45.8916 98.8151C45.1705 98.8151 44.6381 99.0591 44.2942 99.5472C43.9503 100.03 43.7784 100.729 43.7784 101.644C43.7784 102.559 43.9503 103.258 44.2942 103.74C44.6381 104.217 45.1705 104.456 45.8916 104.456ZM50.6647 97.3758H52.2954C52.4507 97.3758 52.581 97.4118 52.6864 97.4839C52.7918 97.556 52.8583 97.6475 52.8861 97.7585L54.1091 102.318C54.1756 102.567 54.2283 102.811 54.2671 103.05C54.3115 103.288 54.3531 103.527 54.3919 103.765C54.4529 103.527 54.5167 103.288 54.5833 103.05C54.6554 102.811 54.7303 102.567 54.8079 102.318L56.2223 97.7418C56.2555 97.6309 56.3221 97.5394 56.4219 97.4673C56.5218 97.3952 56.6382 97.3591 56.7714 97.3591H57.6782C57.828 97.3591 57.9527 97.3952 58.0526 97.4673C58.1524 97.5394 58.219 97.6309 58.2523 97.7418L59.65 102.401C59.7221 102.639 59.7858 102.872 59.8413 103.1C59.9023 103.322 59.9606 103.546 60.016 103.774C60.0548 103.535 60.0964 103.297 60.1408 103.058C60.1907 102.82 60.2517 102.573 60.3238 102.318L61.5884 97.7585C61.6162 97.6475 61.6827 97.556 61.7881 97.4839C61.8935 97.4118 62.0155 97.3758 62.1542 97.3758H63.71L61.0061 105.912H59.3504C59.173 105.912 59.0454 105.79 58.9677 105.546L57.4286 100.612C57.3787 100.451 57.3315 100.29 57.2872 100.13C57.2483 99.9632 57.2151 99.7996 57.1873 99.6387C57.1541 99.8051 57.118 99.9715 57.0792 100.138C57.0404 100.299 56.996 100.462 56.9461 100.629L55.3903 105.546C55.3126 105.79 55.1629 105.912 54.941 105.912H53.3686L50.6647 97.3758ZM67.6704 106.045C66.9327 106.045 66.3642 105.837 65.9648 105.421C65.5655 104.999 65.3658 104.42 65.3658 103.682V98.9149H64.5006C64.3896 98.9149 64.2926 98.8789 64.2094 98.8068C64.1317 98.7346 64.0929 98.6265 64.0929 98.4823V97.667L65.4657 97.4423L65.8983 95.1128C65.9205 95.0019 65.9704 94.9159 66.048 94.8549C66.1312 94.7939 66.2338 94.7634 66.3559 94.7634H67.4208V97.4506H69.6671V98.9149H67.4208V103.541C67.4208 103.807 67.4873 104.015 67.6205 104.165C67.7536 104.314 67.9311 104.389 68.1529 104.389C68.2805 104.389 68.3859 104.375 68.4691 104.348C68.5578 104.314 68.6327 104.281 68.6937 104.248C68.7602 104.215 68.8185 104.184 68.8684 104.156C68.9183 104.123 68.9682 104.106 69.0182 104.106C69.0792 104.106 69.1291 104.123 69.1679 104.156C69.2067 104.184 69.2483 104.228 69.2927 104.289L69.9084 105.288C69.6088 105.537 69.265 105.726 68.8767 105.854C68.4885 105.981 68.0864 106.045 67.6704 106.045ZM71.3014 105.912V93.5487H73.3563V98.2993C73.6891 97.9831 74.0552 97.728 74.4545 97.5338C74.8539 97.3397 75.3226 97.2427 75.8606 97.2427C76.3265 97.2427 76.7397 97.3231 77.1002 97.4839C77.4607 97.6392 77.7602 97.8611 77.9987 98.1495C78.2428 98.4324 78.4258 98.7735 78.5478 99.1728C78.6754 99.5666 78.7392 100.002 78.7392 100.479V105.912H76.6842V100.479C76.6842 99.9576 76.5622 99.5555 76.3181 99.2727C76.0796 98.9842 75.7191 98.84 75.2366 98.84C74.8816 98.84 74.5488 98.9205 74.2382 99.0813C73.9276 99.2421 73.6337 99.4612 73.3563 99.7386V105.912H71.3014Z" fill="black"/>
<rect x="102.063" y="70.9117" width="20" height="39" rx="3.81098" fill="#0197EA"/>
<rect x="128.996" y="60.9117" width="20" height="49" rx="3.81098" fill="#0197EA"/>
<rect x="155.929" y="78.9117" width="19" height="31" rx="3.81098" fill="#0197EA"/>
<rect x="181.862" y="89.9117" width="20" height="20" rx="3.81098" fill="#0197EA"/>
<rect x="208.795" y="72.9117" width="20" height="37" rx="3.81098" fill="#0197EA"/>
<rect x="235.728" y="54.9117" width="20" height="55" rx="3.81098" fill="#0197EA"/>
<rect x="262.661" y="80.9117" width="19" height="29" rx="3.81098" fill="#0197EA"/>
</g>
<defs>
<filter id="filter0_d_1_1732" x="0.84017" y="0.560093" width="305.087" height="134.311" filterUnits="userSpaceOnUse" color-interpolation-filters="sRGB">
<feFlood flood-opacity="0" result="BackgroundImageFix"/>
<feColorMatrix in="SourceAlpha" type="matrix" values="0 0 0 0 0 0 0 0 0 0 0 0 0 0 0 0 0 0 127 0" result="hardAlpha"/>
<feOffset dx="1.38661" dy="2.77322"/>
<feGaussianBlur stdDeviation="2.77322"/>
<feComposite in2="hardAlpha" operator="out"/>
<feColorMatrix type="matrix" values="0 0 0 0 0 0 0 0 0 0 0 0 0 0 0 0 0 0 0.16 0"/>
<feBlend mode="normal" in2="BackgroundImageFix" result="effect1_dropShadow_1_1732"/>
<feBlend mode="normal" in="SourceGraphic" in2="effect1_dropShadow_1_1732" result="shape"/>
</filter>
</defs>
</svg>
