<svg width="290" height="42" viewBox="0 0 290 42" fill="none" xmlns="http://www.w3.org/2000/svg">
<path d="M21.1794 5.45526C21.1794 8.46812 18.737 10.9105 15.7241 10.9105C12.7112 10.9105 10.2688 8.46812 10.2688 5.45526C10.2688 2.4424 12.7112 0 15.7241 0C18.737 0 21.1794 2.4424 21.1794 5.45526Z" fill="#085681"/>
<path d="M21.5003 12.4774C21.1645 13.149 20.9385 13.7766 20.7304 14.3546C20.143 15.9861 19.6981 17.2218 17.3286 17.9326V25.9551H19.5749L27.5412 32.4988C28.1464 32.9959 29.0056 33.0388 29.6573 32.6043C30.1747 32.2594 30.4855 31.6786 30.4855 31.0568V30.1215C30.4855 29.0662 30.2726 28.0218 29.8594 27.0508L24.0675 13.4401C23.6397 12.2634 22.5272 10.4236 21.5003 12.4774Z" fill="#085681"/>
<path fill-rule="evenodd" clip-rule="evenodd" d="M15.7241 25.9551L16.6868 26.9178L9.94792 33.9776V35.9029L17.6495 42H6.09711V33.6567L0 27.5596V25.9551L6.73891 13.761C6.95284 13.3331 8.34341 11.8998 9.62702 12.1565C11.0072 16.1386 12.2711 17.681 16.045 18.2536L15.7241 25.9551ZM9.94792 29.8059C12.4291 29.8059 14.4405 27.7945 14.4405 25.3133C14.4405 22.8321 12.4291 20.8207 9.94792 20.8207C7.46672 20.8207 5.45531 22.8321 5.45531 25.3133C5.45531 27.7945 7.46672 29.8059 9.94792 29.8059Z" fill="#085681"/>
<path d="M11.5524 12.1565C14.9204 12.6379 16.7396 12.696 19.8958 12.1565C20.8585 17.2909 11.8733 19.2163 11.5524 12.1565Z" fill="#085681"/>
<path d="M44.4599 31.5V30.3811L48.2702 29.9275H49.0564L52.8969 30.3811V31.5H44.4599ZM47.0001 31.5C47.0404 30.5323 47.0606 29.5344 47.0606 28.5062C47.0807 27.4579 47.0908 26.3894 47.0908 25.3008C47.111 24.2122 47.121 23.1437 47.121 22.0954V20.7043C47.121 19.656 47.111 18.5976 47.0908 17.5291C47.0908 16.4606 47.0807 15.4022 47.0606 14.3539C47.0606 13.3056 47.0404 12.2976 47.0001 11.3299H50.387C50.3668 12.2774 50.3466 13.2754 50.3265 14.3237C50.3063 15.372 50.2962 16.4405 50.2962 17.5291C50.2962 18.5976 50.2962 19.656 50.2962 20.7043V21.7325C50.2962 22.9018 50.2962 24.0509 50.2962 25.1798C50.2962 26.2886 50.3063 27.3773 50.3265 28.4458C50.3466 29.4941 50.3668 30.5122 50.387 31.5H47.0001ZM48.6633 21.8534V20.5229H60.85V21.8534H48.6633ZM56.6164 31.5V30.3811L60.4266 29.9275H61.2431L65.0534 30.3811V31.5H56.6164ZM59.1263 31.5C59.1666 30.5323 59.1868 29.5243 59.1868 28.476C59.207 27.4075 59.217 26.3088 59.217 25.1798C59.217 24.0509 59.217 22.9018 59.217 21.7325V20.7043C59.217 19.656 59.217 18.5976 59.217 17.5291C59.217 16.4606 59.207 15.4022 59.1868 14.3539C59.1868 13.3056 59.1666 12.2976 59.1263 11.3299H62.5132C62.4931 12.2774 62.4729 13.2754 62.4527 14.3237C62.4326 15.372 62.4225 16.4405 62.4225 17.5291C62.4225 18.5976 62.4225 19.656 62.4225 20.7043V22.0954C62.4225 23.1235 62.4225 24.1819 62.4225 25.2706C62.4225 26.339 62.4326 27.3974 62.4527 28.4458C62.4729 29.4941 62.4931 30.5122 62.5132 31.5H59.1263ZM44.4599 12.4488V11.3299H52.8969V12.4488L49.0564 12.9024H48.2702L44.4599 12.4488ZM56.6164 12.4488V11.3299H65.0534V12.4488L61.2431 12.9024H60.4266L56.6164 12.4488ZM73.8301 31.8931C72.4592 31.8931 71.2496 31.6109 70.2013 31.0464C69.1529 30.4618 68.3365 29.6251 67.7518 28.5365C67.1672 27.4478 66.8749 26.1274 66.8749 24.575C66.8749 23.0026 67.1773 21.6418 67.7821 20.4926C68.407 19.3435 69.2437 18.4565 70.292 17.8315C71.3403 17.1864 72.4793 16.8638 73.7091 16.8638C74.8179 16.8638 75.7957 17.0957 76.6424 17.5594C77.4891 18.023 78.1544 18.6883 78.6382 19.5552C79.1422 20.4019 79.3942 21.42 79.3942 22.6094C79.3942 22.932 79.3741 23.2344 79.3337 23.5166C79.2934 23.7787 79.243 24.0106 79.1825 24.2122H68.1449V23.063H74.707C75.4731 23.063 75.9771 22.9219 76.219 22.6397C76.4609 22.3373 76.5819 21.924 76.5819 21.3998C76.5819 20.6942 76.4609 20.0995 76.219 19.6157C75.9973 19.1117 75.6646 18.7387 75.2211 18.4968C74.7977 18.2347 74.2937 18.1037 73.7091 18.1037C73.1043 18.1037 72.5096 18.3053 71.9249 18.7085C71.3403 19.0915 70.8565 19.7165 70.4734 20.5834C70.1105 21.4502 69.9291 22.6296 69.9291 24.1214C69.9291 25.3512 70.1307 26.3995 70.5339 27.2664C70.9371 28.1131 71.5016 28.7582 72.2273 29.2018C72.9531 29.6453 73.7897 29.867 74.7373 29.867C75.6243 29.867 76.4005 29.7058 77.0657 29.3832C77.7512 29.0606 78.3661 28.5869 78.9104 27.9619L79.5757 28.4458C79.1725 29.1917 78.6987 29.8166 78.1544 30.3206C77.6302 30.8246 77.0153 31.2178 76.3097 31.5C75.6041 31.7621 74.7776 31.8931 73.8301 31.8931ZM81.8444 31.5V30.5021L84.9591 29.9578H86.1687L89.3741 30.5021V31.5H81.8444ZM83.8402 31.5C83.8805 31.0363 83.9007 30.4315 83.9007 29.6856C83.9208 28.9195 83.9309 28.1333 83.9309 27.3269C83.9511 26.5003 83.9612 25.7746 83.9612 25.1496V23.6678C83.9612 23.1034 83.9511 22.6195 83.9309 22.2163C83.9309 21.793 83.9208 21.3998 83.9007 21.037C83.9007 20.6741 83.8906 20.291 83.8704 19.8878L81.6327 19.5552V18.6178L86.2292 16.8638L86.6525 17.1662L86.8944 21.0974V21.1579V25.1496C86.8944 25.7746 86.8944 26.5003 86.8944 27.3269C86.9146 28.1333 86.9247 28.9195 86.9247 29.6856C86.9448 30.4315 86.965 31.0363 86.9852 31.5H83.8402ZM86.8037 23.2747L86.2594 21.3091H86.713C87.0154 20.3414 87.3984 19.535 87.8621 18.8899C88.346 18.2246 88.8701 17.7206 89.4346 17.3779C90.0192 17.0352 90.5938 16.8638 91.1583 16.8638C91.6623 16.8638 92.1159 16.9848 92.5191 17.2267C92.9223 17.4485 93.2045 17.7912 93.3658 18.2549C93.3456 18.9202 93.1743 19.4342 92.8517 19.7971C92.5292 20.16 92.0856 20.3414 91.5212 20.3414C91.1583 20.3414 90.8156 20.2709 90.493 20.1298C90.1906 19.9685 89.8983 19.7366 89.616 19.4342L88.8298 18.6178L90.1604 18.4968C89.3741 18.9202 88.6887 19.535 88.104 20.3414C87.5396 21.1277 87.1061 22.1054 86.8037 23.2747ZM94.5997 31.5V30.5021L97.6842 29.9578H98.7124L101.646 30.5021V31.5H94.5997ZM96.6258 31.5C96.646 31.0363 96.6561 30.4315 96.6561 29.6856C96.6762 28.9195 96.6863 28.1333 96.6863 27.3269C96.7065 26.5003 96.7165 25.7746 96.7165 25.1496V23.7586C96.7165 22.9118 96.7065 22.2062 96.6863 21.6418C96.6863 21.0773 96.6661 20.4926 96.6258 19.8878L94.3881 19.5552V18.6178L99.3474 16.8638L99.7708 17.1662L99.6498 21.2486V25.1496C99.6498 25.7746 99.6498 26.5003 99.6498 27.3269C99.67 28.1333 99.6901 28.9195 99.7103 29.6856C99.7305 30.4315 99.7506 31.0363 99.7708 31.5H96.6258ZM98.0471 13.991C97.4826 13.991 96.9988 13.8096 96.5956 13.4467C96.2125 13.0838 96.021 12.6101 96.021 12.0254C96.021 11.4408 96.2125 10.967 96.5956 10.6042C96.9988 10.2413 97.4826 10.0598 98.0471 10.0598C98.6317 10.0598 99.1156 10.2413 99.4986 10.6042C99.9018 10.967 100.103 11.4408 100.103 12.0254C100.103 12.6101 99.9018 13.0838 99.4986 13.4467C99.1156 13.8096 98.6317 13.991 98.0471 13.991ZM106.632 18.7387V17.257H111.894V18.7387H106.632ZM108.658 31.8931C107.57 31.8931 106.703 31.6109 106.058 31.0464C105.413 30.4618 105.09 29.5747 105.09 28.3853C105.09 27.9216 105.09 27.4882 105.09 27.085C105.11 26.6616 105.12 26.1374 105.12 25.5125V18.7387H102.792V17.5291L106.39 17.0453L105.09 17.9827L106.451 12.9931H108.235L108.084 17.8013V18.2851V28.0829C108.084 28.849 108.225 29.4034 108.507 29.7461C108.809 30.0686 109.213 30.2299 109.717 30.2299C110.059 30.2299 110.382 30.1594 110.684 30.0182C111.007 29.8771 111.34 29.6755 111.682 29.4134L112.317 30.0485C112.055 30.4517 111.743 30.7944 111.38 31.0766C111.037 31.3387 110.644 31.5403 110.201 31.6814C109.757 31.8226 109.243 31.8931 108.658 31.8931ZM117.583 31.8931C116.474 31.8931 115.537 31.5806 114.771 30.9557C114.025 30.3307 113.652 29.4134 113.652 28.2038C113.652 27.599 113.783 27.0346 114.045 26.5104C114.327 25.9661 114.831 25.452 115.557 24.9682C116.283 24.4843 117.341 24.0408 118.732 23.6376C119.196 23.4965 119.679 23.3554 120.183 23.2142C120.687 23.0731 121.202 22.932 121.726 22.7909C122.25 22.6296 122.794 22.4784 123.359 22.3373V23.305C122.613 23.5267 121.907 23.7485 121.242 23.9702C120.597 24.1718 120.002 24.3634 119.458 24.5448C118.651 24.827 118.047 25.1496 117.643 25.5125C117.24 25.8552 116.968 26.2181 116.827 26.6011C116.686 26.964 116.615 27.3269 116.615 27.6898C116.615 28.476 116.827 29.0506 117.25 29.4134C117.694 29.7562 118.238 29.9275 118.883 29.9275C119.226 29.9275 119.559 29.8771 119.881 29.7763C120.204 29.6755 120.587 29.484 121.03 29.2018C121.474 28.8994 122.048 28.4659 122.754 27.9014L123.117 29.3227H122.119C121.595 29.9074 121.101 30.3912 120.637 30.7742C120.173 31.1573 119.7 31.4395 119.216 31.621C118.732 31.8024 118.188 31.8931 117.583 31.8931ZM124.659 31.8326C123.792 31.8326 123.107 31.5706 122.603 31.0464C122.119 30.5222 121.867 29.8267 121.847 28.9598V28.8086V21.8232C121.847 20.8555 121.756 20.1096 121.575 19.5854C121.393 19.0411 121.101 18.6682 120.698 18.4666C120.294 18.2448 119.77 18.1339 119.125 18.1339C118.762 18.1339 118.369 18.1742 117.946 18.2549C117.543 18.3154 117.069 18.4464 116.524 18.648L117.825 17.7106L117.25 20.16C117.129 20.7245 116.928 21.1478 116.645 21.4301C116.363 21.7123 116.01 21.8534 115.587 21.8534C115.143 21.8534 114.801 21.7426 114.559 21.5208C114.317 21.299 114.166 20.9866 114.105 20.5834C114.327 19.4544 114.962 18.5573 116.01 17.892C117.079 17.2066 118.419 16.8638 120.032 16.8638C121.121 16.8638 122.008 17.0453 122.693 17.4082C123.379 17.7509 123.893 18.3053 124.236 19.0714C124.578 19.8374 124.75 20.8454 124.75 22.0954V28.6877C124.75 29.2522 124.83 29.6554 124.992 29.8973C125.173 30.119 125.415 30.2299 125.717 30.2299C125.959 30.2299 126.161 30.1694 126.322 30.0485C126.504 29.9275 126.685 29.7562 126.867 29.5344L127.441 30.0787C127.119 30.6835 126.725 31.127 126.262 31.4093C125.818 31.6915 125.284 31.8326 124.659 31.8326ZM134.039 38.8181C132.668 38.8181 131.549 38.6568 130.682 38.3342C129.836 38.0318 129.211 37.5984 128.808 37.0339C128.404 36.4896 128.203 35.8848 128.203 35.2195C128.203 34.6954 128.334 34.2115 128.596 33.768C128.878 33.3245 129.312 32.9011 129.896 32.4979C130.501 32.1149 131.267 31.7621 132.194 31.4395L132.406 31.621C132.043 31.9234 131.731 32.2258 131.469 32.5282C131.227 32.8507 131.035 33.1733 130.894 33.4958C130.773 33.8386 130.713 34.2317 130.713 34.6752C130.713 35.3203 130.864 35.8546 131.166 36.2779C131.489 36.7013 131.932 37.0138 132.497 37.2154C133.081 37.417 133.767 37.5178 134.553 37.5178C135.662 37.5178 136.579 37.3766 137.305 37.0944C138.051 36.8323 138.605 36.4594 138.968 35.9755C139.351 35.5118 139.543 34.9877 139.543 34.403C139.543 33.7176 139.311 33.1632 138.847 32.7398C138.404 32.3165 137.658 32.1048 136.609 32.1048H133.253C132.95 32.1048 132.648 32.0947 132.346 32.0746C132.043 32.0544 131.761 32.0141 131.499 31.9536L131.469 31.8629C130.703 31.7218 130.108 31.4395 129.685 31.0162C129.281 30.5928 129.08 30.0384 129.08 29.353C129.08 28.7482 129.271 28.1635 129.654 27.599C130.057 27.0144 130.693 26.3693 131.559 25.6637V25.3613L132.436 25.8451C132.033 26.2483 131.741 26.6213 131.559 26.964C131.378 27.3067 131.287 27.6494 131.287 27.9922C131.287 28.5163 131.459 28.9094 131.801 29.1715C132.144 29.4134 132.668 29.5344 133.374 29.5344H137.003C138.152 29.5344 139.099 29.6856 139.845 29.988C140.591 30.2904 141.145 30.7339 141.508 31.3186C141.871 31.9032 142.053 32.5987 142.053 33.4051C142.053 34.0906 141.881 34.7558 141.539 35.401C141.196 36.0461 140.692 36.6206 140.027 37.1246C139.361 37.6488 138.525 38.0621 137.517 38.3645C136.529 38.6669 135.37 38.8181 134.039 38.8181ZM134.462 26.6918C133.374 26.6918 132.406 26.5003 131.559 26.1173C130.733 25.7342 130.088 25.1798 129.624 24.4541C129.16 23.7283 128.929 22.8413 128.929 21.793C128.929 20.7446 129.16 19.8576 129.624 19.1318C130.108 18.3859 130.763 17.8214 131.59 17.4384C132.436 17.0554 133.394 16.8638 134.462 16.8638C135.108 16.8638 135.692 16.9243 136.216 17.0453C136.761 17.1662 137.255 17.3477 137.698 17.5896C138.142 17.8315 138.525 18.1339 138.847 18.4968L138.908 18.5875C139.271 18.9907 139.543 19.4544 139.724 19.9786C139.906 20.5027 139.996 21.0974 139.996 21.7627C139.996 22.7909 139.754 23.6779 139.271 24.4238C138.807 25.1698 138.152 25.7342 137.305 26.1173C136.478 26.5003 135.531 26.6918 134.462 26.6918ZM134.432 25.6032C135.017 25.6032 135.521 25.4419 135.944 25.1194C136.368 24.7968 136.69 24.3533 136.912 23.7888C137.134 23.2042 137.245 22.5086 137.245 21.7022C137.245 20.916 137.134 20.2507 136.912 19.7064C136.69 19.1419 136.378 18.7085 135.974 18.4061C135.571 18.1037 135.077 17.9525 134.493 17.9525C133.928 17.9525 133.434 18.1138 133.011 18.4363C132.588 18.7387 132.265 19.1822 132.043 19.7669C131.821 20.3314 131.711 21.0067 131.711 21.793C131.711 22.5792 131.811 23.2646 132.013 23.8493C132.235 24.4138 132.547 24.8472 132.95 25.1496C133.354 25.452 133.848 25.6032 134.432 25.6032ZM137.91 19.1318V18.3456H138.091L141.841 16.8336L142.234 17.136V19.1318H137.91ZM150.641 31.8931C149.27 31.8931 148.06 31.6109 147.012 31.0464C145.964 30.4618 145.147 29.6251 144.563 28.5365C143.978 27.4478 143.686 26.1274 143.686 24.575C143.686 23.0026 143.988 21.6418 144.593 20.4926C145.218 19.3435 146.054 18.4565 147.103 17.8315C148.151 17.1864 149.29 16.8638 150.52 16.8638C151.629 16.8638 152.606 17.0957 153.453 17.5594C154.3 18.023 154.965 18.6883 155.449 19.5552C155.953 20.4019 156.205 21.42 156.205 22.6094C156.205 22.932 156.185 23.2344 156.145 23.5166C156.104 23.7787 156.054 24.0106 155.993 24.2122H144.956V23.063H151.518C152.284 23.063 152.788 22.9219 153.03 22.6397C153.272 22.3373 153.393 21.924 153.393 21.3998C153.393 20.6942 153.272 20.0995 153.03 19.6157C152.808 19.1117 152.475 18.7387 152.032 18.4968C151.609 18.2347 151.105 18.1037 150.52 18.1037C149.915 18.1037 149.32 18.3053 148.736 18.7085C148.151 19.0915 147.667 19.7165 147.284 20.5834C146.921 21.4502 146.74 22.6296 146.74 24.1214C146.74 25.3512 146.941 26.3995 147.345 27.2664C147.748 28.1131 148.312 28.7582 149.038 29.2018C149.764 29.6453 150.601 29.867 151.548 29.867C152.435 29.867 153.211 29.7058 153.877 29.3832C154.562 29.0606 155.177 28.5869 155.721 27.9619L156.386 28.4458C155.983 29.1917 155.509 29.8166 154.965 30.3206C154.441 30.8246 153.826 31.2178 153.121 31.5C152.415 31.7621 151.588 31.8931 150.641 31.8931ZM165.449 31.5V30.3811L169.26 29.9275H170.046L173.886 30.3811V31.5H165.449ZM167.99 31.5C168.03 30.5323 168.05 29.5344 168.05 28.5062C168.07 27.4579 168.08 26.3894 168.08 25.3008C168.101 24.2122 168.111 23.1437 168.111 22.0954V20.7043C168.111 19.656 168.101 18.5976 168.08 17.5291C168.08 16.4606 168.07 15.4022 168.05 14.3539C168.05 13.3056 168.03 12.2976 167.99 11.3299H171.377C171.356 12.2774 171.336 13.2754 171.316 14.3237C171.296 15.372 171.286 16.4405 171.286 17.5291C171.286 18.5976 171.286 19.656 171.286 20.7043V21.7325C171.286 22.9018 171.286 24.0509 171.286 25.1798C171.286 26.2886 171.296 27.3773 171.316 28.4458C171.336 29.4941 171.356 30.5122 171.377 31.5H167.99ZM169.653 21.8534V20.5229H181.84V21.8534H169.653ZM177.606 31.5V30.3811L181.416 29.9275H182.233L186.043 30.3811V31.5H177.606ZM180.116 31.5C180.156 30.5323 180.176 29.5243 180.176 28.476C180.197 27.4075 180.207 26.3088 180.207 25.1798C180.207 24.0509 180.207 22.9018 180.207 21.7325V20.7043C180.207 19.656 180.207 18.5976 180.207 17.5291C180.207 16.4606 180.197 15.4022 180.176 14.3539C180.176 13.3056 180.156 12.2976 180.116 11.3299H183.503C183.483 12.2774 183.462 13.2754 183.442 14.3237C183.422 15.372 183.412 16.4405 183.412 17.5291C183.412 18.5976 183.412 19.656 183.412 20.7043V22.0954C183.412 23.1235 183.412 24.1819 183.412 25.2706C183.412 26.339 183.422 27.3974 183.442 28.4458C183.462 29.4941 183.483 30.5122 183.503 31.5H180.116ZM165.449 12.4488V11.3299H173.886V12.4488L170.046 12.9024H169.26L165.449 12.4488ZM177.606 12.4488V11.3299H186.043V12.4488L182.233 12.9024H181.416L177.606 12.4488ZM194.789 31.8931C193.56 31.8931 192.41 31.6109 191.342 31.0464C190.294 30.4819 189.447 29.6453 188.802 28.5365C188.177 27.4075 187.864 26.0366 187.864 24.4238C187.864 22.811 188.187 21.4402 188.832 20.3112C189.497 19.1822 190.354 18.3254 191.402 17.7408C192.451 17.1562 193.58 16.8638 194.789 16.8638C196.019 16.8638 197.158 17.1562 198.206 17.7408C199.255 18.3053 200.102 19.152 200.747 20.281C201.412 21.3898 201.745 22.7606 201.745 24.3936C201.745 26.0064 201.422 27.3773 200.777 28.5062C200.132 29.615 199.285 30.4618 198.237 31.0464C197.188 31.6109 196.039 31.8931 194.789 31.8931ZM194.789 30.6835C195.576 30.6835 196.241 30.4517 196.785 29.988C197.35 29.5243 197.773 28.8288 198.055 27.9014C198.358 26.9741 198.509 25.8149 198.509 24.4238C198.509 23.0126 198.358 21.8434 198.055 20.916C197.773 19.9685 197.35 19.2629 196.785 18.7992C196.241 18.3355 195.576 18.1037 194.789 18.1037C194.003 18.1037 193.328 18.3456 192.763 18.8294C192.219 19.2931 191.806 19.9987 191.523 20.9462C191.241 21.8736 191.1 23.0328 191.1 24.4238C191.1 25.835 191.241 27.0043 191.523 27.9317C191.806 28.8389 192.219 29.5243 192.763 29.988C193.328 30.4517 194.003 30.6835 194.789 30.6835ZM208.942 31.8931C208.075 31.8931 207.279 31.7923 206.553 31.5907C205.848 31.4093 205.132 31.117 204.406 30.7138L204.376 27.2059H205.888L206.795 31.0162H205.525V29.6251C206.049 29.988 206.583 30.2602 207.128 30.4416C207.692 30.6029 208.317 30.6835 209.003 30.6835C209.708 30.6835 210.293 30.5928 210.757 30.4114C211.22 30.2098 211.563 29.9376 211.785 29.5949C212.027 29.232 212.148 28.8288 212.148 28.3853C212.148 27.7402 211.916 27.2261 211.452 26.843C210.988 26.4398 210.303 26.087 209.396 25.7846L208.095 25.3008C207.41 25.0387 206.785 24.7262 206.221 24.3634C205.676 24.0005 205.253 23.557 204.95 23.0328C204.648 22.5086 204.497 21.8938 204.497 21.1882C204.497 20.4019 204.698 19.6862 205.102 19.0411C205.505 18.3758 206.1 17.8517 206.886 17.4686C207.672 17.0654 208.64 16.8638 209.789 16.8638C210.615 16.8638 211.361 16.9646 212.027 17.1662C212.692 17.3678 213.357 17.6602 214.022 18.0432L213.871 21.2789H212.42L211.634 17.9525H212.843V19.1923C212.359 18.8093 211.865 18.5371 211.361 18.3758C210.878 18.1944 210.343 18.1037 209.759 18.1037C208.872 18.1037 208.196 18.2952 207.733 18.6782C207.269 19.0411 207.037 19.535 207.037 20.16C207.037 20.8253 207.249 21.3394 207.672 21.7022C208.116 22.045 208.821 22.3978 209.789 22.7606L210.787 23.0933C211.674 23.4158 212.41 23.7888 212.994 24.2122C213.599 24.6355 214.043 25.1093 214.325 25.6334C214.627 26.1576 214.778 26.7725 214.778 27.4781C214.778 28.3248 214.557 29.0808 214.113 29.7461C213.67 30.4114 213.014 30.9355 212.148 31.3186C211.301 31.7016 210.232 31.8931 208.942 31.8931ZM216.563 38.8181V37.8202L219.738 37.2758H220.887L224.244 37.8202V38.8181H216.563ZM218.74 38.8181C218.761 38.1326 218.771 37.417 218.771 36.671C218.791 35.9453 218.801 35.2094 218.801 34.4635C218.821 33.7378 218.831 33.0322 218.831 32.3467V23.6678C218.831 23.1034 218.821 22.6195 218.801 22.2163C218.801 21.793 218.791 21.3998 218.771 21.037C218.771 20.6741 218.761 20.291 218.74 19.8878L216.503 19.5552V18.6178L221.099 16.8638L221.492 17.136L221.674 19.6762L221.764 19.8274V29.111L221.704 29.3227V32.3165C221.704 32.9818 221.704 33.6874 221.704 34.4333C221.724 35.1792 221.734 35.9251 221.734 36.671C221.754 37.417 221.774 38.1326 221.795 38.8181H218.74ZM225.665 31.8931C225.081 31.8931 224.516 31.8024 223.972 31.621C223.448 31.4395 222.934 31.1371 222.43 30.7138C221.926 30.2904 221.452 29.7158 221.008 28.9901H220.434L220.706 27.5083C221.412 28.4357 222.087 29.111 222.732 29.5344C223.397 29.9376 224.103 30.1392 224.849 30.1392C225.575 30.1392 226.22 29.9376 226.784 29.5344C227.349 29.111 227.802 28.4861 228.145 27.6595C228.488 26.8128 228.659 25.7443 228.659 24.4541C228.659 22.5187 228.316 21.0672 227.631 20.0995C226.966 19.1318 226.099 18.648 225.03 18.648C224.607 18.648 224.153 18.7488 223.67 18.9504C223.206 19.152 222.722 19.4443 222.218 19.8274C221.734 20.2104 221.22 20.7043 220.676 21.3091L220.404 19.8878H221.039C221.522 19.2024 222.026 18.648 222.551 18.2246C223.095 17.7811 223.659 17.4485 224.244 17.2267C224.829 16.9848 225.434 16.8638 226.058 16.8638C227.147 16.8638 228.115 17.1562 228.962 17.7408C229.828 18.3053 230.514 19.1419 231.018 20.2507C231.522 21.3394 231.774 22.68 231.774 24.2726C231.774 25.8451 231.502 27.2059 230.957 28.355C230.413 29.484 229.677 30.361 228.75 30.9859C227.843 31.5907 226.814 31.8931 225.665 31.8931ZM234.046 31.5V30.5021L237.131 29.9578H238.159L241.092 30.5021V31.5H234.046ZM236.072 31.5C236.093 31.0363 236.103 30.4315 236.103 29.6856C236.123 28.9195 236.133 28.1333 236.133 27.3269C236.153 26.5003 236.163 25.7746 236.163 25.1496V23.7586C236.163 22.9118 236.153 22.2062 236.133 21.6418C236.133 21.0773 236.113 20.4926 236.072 19.8878L233.835 19.5552V18.6178L238.794 16.8638L239.217 17.1662L239.096 21.2486V25.1496C239.096 25.7746 239.096 26.5003 239.096 27.3269C239.117 28.1333 239.137 28.9195 239.157 29.6856C239.177 30.4315 239.197 31.0363 239.217 31.5H236.072ZM237.494 13.991C236.929 13.991 236.445 13.8096 236.042 13.4467C235.659 13.0838 235.468 12.6101 235.468 12.0254C235.468 11.4408 235.659 10.967 236.042 10.6042C236.445 10.2413 236.929 10.0598 237.494 10.0598C238.078 10.0598 238.562 10.2413 238.945 10.6042C239.348 10.967 239.55 11.4408 239.55 12.0254C239.55 12.6101 239.348 13.0838 238.945 13.4467C238.562 13.8096 238.078 13.991 237.494 13.991ZM246.079 18.7387V17.257H251.341V18.7387H246.079ZM248.105 31.8931C247.016 31.8931 246.149 31.6109 245.504 31.0464C244.859 30.4618 244.537 29.5747 244.537 28.3853C244.537 27.9216 244.537 27.4882 244.537 27.085C244.557 26.6616 244.567 26.1374 244.567 25.5125V18.7387H242.238V17.5291L245.837 17.0453L244.537 17.9827L245.897 12.9931H247.681L247.53 17.8013V18.2851V28.0829C247.53 28.849 247.671 29.4034 247.954 29.7461C248.256 30.0686 248.659 30.2299 249.163 30.2299C249.506 30.2299 249.829 30.1594 250.131 30.0182C250.453 29.8771 250.786 29.6755 251.129 29.4134L251.764 30.0485C251.502 30.4517 251.189 30.7944 250.826 31.0766C250.484 31.3387 250.091 31.5403 249.647 31.6814C249.204 31.8226 248.689 31.8931 248.105 31.8931ZM257.029 31.8931C255.921 31.8931 254.983 31.5806 254.217 30.9557C253.471 30.3307 253.098 29.4134 253.098 28.2038C253.098 27.599 253.229 27.0346 253.491 26.5104C253.774 25.9661 254.278 25.452 255.003 24.9682C255.729 24.4843 256.787 24.0408 258.179 23.6376C258.642 23.4965 259.126 23.3554 259.63 23.2142C260.134 23.0731 260.648 22.932 261.172 22.7909C261.696 22.6296 262.241 22.4784 262.805 22.3373V23.305C262.059 23.5267 261.354 23.7485 260.688 23.9702C260.043 24.1718 259.449 24.3634 258.904 24.5448C258.098 24.827 257.493 25.1496 257.09 25.5125C256.687 25.8552 256.415 26.2181 256.273 26.6011C256.132 26.964 256.062 27.3269 256.062 27.6898C256.062 28.476 256.273 29.0506 256.697 29.4134C257.14 29.7562 257.685 29.9275 258.33 29.9275C258.672 29.9275 259.005 29.8771 259.328 29.7763C259.65 29.6755 260.033 29.484 260.477 29.2018C260.92 28.8994 261.495 28.4659 262.2 27.9014L262.563 29.3227H261.565C261.041 29.9074 260.547 30.3912 260.084 30.7742C259.62 31.1573 259.146 31.4395 258.662 31.621C258.179 31.8024 257.634 31.8931 257.029 31.8931ZM264.106 31.8326C263.239 31.8326 262.553 31.5706 262.049 31.0464C261.565 30.5222 261.313 29.8267 261.293 28.9598V28.8086V21.8232C261.293 20.8555 261.203 20.1096 261.021 19.5854C260.84 19.0411 260.547 18.6682 260.144 18.4666C259.741 18.2448 259.217 18.1339 258.572 18.1339C258.209 18.1339 257.816 18.1742 257.392 18.2549C256.989 18.3154 256.515 18.4464 255.971 18.648L257.271 17.7106L256.697 20.16C256.576 20.7245 256.374 21.1478 256.092 21.4301C255.81 21.7123 255.457 21.8534 255.034 21.8534C254.59 21.8534 254.247 21.7426 254.005 21.5208C253.763 21.299 253.612 20.9866 253.552 20.5834C253.774 19.4544 254.409 18.5573 255.457 17.892C256.525 17.2066 257.866 16.8638 259.479 16.8638C260.567 16.8638 261.455 17.0453 262.14 17.4082C262.825 17.7509 263.339 18.3053 263.682 19.0714C264.025 19.8374 264.196 20.8454 264.196 22.0954V28.6877C264.196 29.2522 264.277 29.6554 264.438 29.8973C264.62 30.119 264.862 30.2299 265.164 30.2299C265.406 30.2299 265.607 30.1694 265.769 30.0485C265.95 29.9275 266.132 29.7562 266.313 29.5344L266.888 30.0787C266.565 30.6835 266.172 31.127 265.708 31.4093C265.265 31.6915 264.731 31.8326 264.106 31.8326ZM267.825 31.5V30.5021L271 29.9578H272.028L275.234 30.5021V31.5H267.825ZM269.972 31.5C270.012 30.8549 270.033 30.1795 270.033 29.4739C270.053 28.7482 270.063 28.0224 270.063 27.2966C270.083 26.5507 270.093 25.835 270.093 25.1496V11.8138L267.765 11.4509V10.4832L272.724 9.18288L273.117 9.45504L272.996 14.0213V25.1496C272.996 25.835 272.996 26.5507 272.996 27.2966C273.016 28.0224 273.036 28.7482 273.057 29.4739C273.077 30.1795 273.097 30.8549 273.117 31.5H269.972ZM281.973 31.8931C281.106 31.8931 280.31 31.7923 279.584 31.5907C278.878 31.4093 278.163 31.117 277.437 30.7138L277.407 27.2059H278.919L279.826 31.0162H278.556V29.6251C279.08 29.988 279.614 30.2602 280.159 30.4416C280.723 30.6029 281.348 30.6835 282.033 30.6835C282.739 30.6835 283.324 30.5928 283.787 30.4114C284.251 30.2098 284.594 29.9376 284.815 29.5949C285.057 29.232 285.178 28.8288 285.178 28.3853C285.178 27.7402 284.947 27.2261 284.483 26.843C284.019 26.4398 283.334 26.087 282.427 25.7846L281.126 25.3008C280.441 25.0387 279.816 24.7262 279.251 24.3634C278.707 24.0005 278.284 23.557 277.981 23.0328C277.679 22.5086 277.528 21.8938 277.528 21.1882C277.528 20.4019 277.729 19.6862 278.132 19.0411C278.536 18.3758 279.13 17.8517 279.917 17.4686C280.703 17.0654 281.671 16.8638 282.82 16.8638C283.646 16.8638 284.392 16.9646 285.057 17.1662C285.723 17.3678 286.388 17.6602 287.053 18.0432L286.902 21.2789H285.451L284.664 17.9525H285.874V19.1923C285.39 18.8093 284.896 18.5371 284.392 18.3758C283.908 18.1944 283.374 18.1037 282.789 18.1037C281.902 18.1037 281.227 18.2952 280.763 18.6782C280.3 19.0411 280.068 19.535 280.068 20.16C280.068 20.8253 280.279 21.3394 280.703 21.7022C281.146 22.045 281.852 22.3978 282.82 22.7606L283.818 23.0933C284.705 23.4158 285.44 23.7888 286.025 24.2122C286.63 24.6355 287.073 25.1093 287.356 25.6334C287.658 26.1576 287.809 26.7725 287.809 27.4781C287.809 28.3248 287.587 29.0808 287.144 29.7461C286.7 30.4114 286.045 30.9355 285.178 31.3186C284.332 31.7016 283.263 31.8931 281.973 31.8931Z" fill="#085681"/>
</svg>
