<svg width="214" height="56" viewBox="0 0 214 56" fill="none" xmlns="http://www.w3.org/2000/svg">
<g clip-path="url(#clip0_222_797)">
<path d="M59.6191 38.7797H63.8768V30.4847L66.0056 27.9647L72.6364 38.7797H77.6619L69.0418 25.2347L77.1384 15.1897H71.8687L65.6915 23.4847C65.1332 24.2897 64.5399 25.1297 63.9815 26.0397H63.8768V15.1897H59.6191V38.7797ZM79.1952 38.7797H83.4878V28.5597C83.4878 28.1047 83.5227 27.6497 83.6623 27.2647C84.1508 25.9697 85.3374 24.8497 87.0126 24.8497C89.3857 24.8497 90.2931 26.7397 90.2931 29.1897V38.7797H94.5856V28.7347C94.5856 23.2747 91.5494 21.3497 88.6528 21.3497C87.5709 21.3497 86.5589 21.6297 85.6864 22.1197C84.8139 22.5747 84.081 23.2397 83.5576 24.0447H83.4878V13.9297H79.1952V38.7797ZM111.661 28.5597C111.661 24.8147 110.09 21.3497 104.646 21.3497C101.959 21.3497 99.76 22.0847 98.5036 22.8547L99.3412 25.6547C100.493 24.9197 102.238 24.3947 103.913 24.3947C106.914 24.3947 107.368 26.2497 107.368 27.3697V27.6497C101.086 27.6147 97.2822 29.8197 97.2822 34.0897C97.2822 36.6797 99.2016 39.1647 102.622 39.1647C104.855 39.1647 106.635 38.2197 107.647 36.8897H107.752L108.066 38.7797H111.94C111.73 37.7297 111.661 36.2247 111.661 34.6847V28.5597ZM107.473 32.7947C107.473 33.1097 107.473 33.4247 107.368 33.7397C106.949 34.9647 105.728 36.0847 103.983 36.0847C102.622 36.0847 101.54 35.3147 101.54 33.6347C101.54 31.0447 104.436 30.4147 107.473 30.4497V32.7947ZM115.986 18.5497V21.7347H113.578V24.9547H115.986V32.9697C115.986 35.2097 116.405 36.7847 117.347 37.7647C118.15 38.6397 119.441 39.1647 121.047 39.1647C122.373 39.1647 123.524 38.9547 124.153 38.7097L124.083 35.4547C123.594 35.5947 123.176 35.6297 122.408 35.6297C120.767 35.6297 120.209 34.5797 120.209 32.4797V24.9547H124.292V21.7347H120.209V17.3597L115.986 18.5497ZM140.017 28.5597C140.017 24.8147 138.447 21.3497 133.003 21.3497C130.315 21.3497 128.117 22.0847 126.86 22.8547L127.698 25.6547C128.85 24.9197 130.595 24.3947 132.27 24.3947C135.271 24.3947 135.725 26.2497 135.725 27.3697V27.6497C129.443 27.6147 125.639 29.8197 125.639 34.0897C125.639 36.6797 127.558 39.1647 130.978 39.1647C133.212 39.1647 134.992 38.2197 136.004 36.8897H136.109L136.423 38.7797H140.297C140.087 37.7297 140.017 36.2247 140.017 34.6847V28.5597ZM135.829 32.7947C135.829 33.1097 135.829 33.4247 135.725 33.7397C135.306 34.9647 134.084 36.0847 132.34 36.0847C130.978 36.0847 129.897 35.3147 129.897 33.6347C129.897 31.0447 132.793 30.4147 135.829 30.4497V32.7947ZM144.199 38.7097C145.211 38.8497 146.816 38.9897 148.91 38.9897C152.749 38.9897 155.401 38.2897 157.007 36.7847C158.228 35.6647 159.031 34.0897 159.031 32.0597C159.031 28.5597 156.413 26.7047 154.18 26.1797V26.0747C156.623 25.1997 158.158 23.2047 158.158 20.8947C158.158 19.0397 157.391 17.6397 156.169 16.7297C154.738 15.5397 152.784 15.0147 149.748 15.0147C147.654 15.0147 145.525 15.2247 144.199 15.5397V38.7097ZM147.235 17.5697C147.724 17.4647 148.526 17.3597 149.922 17.3597C152.993 17.3597 155.052 18.4797 155.052 21.2097C155.052 23.4847 153.168 25.1997 149.992 25.1997H147.235V17.5697ZM147.235 27.4747H149.748C153.063 27.4747 155.82 28.8397 155.82 32.0247C155.82 35.4547 152.923 36.6097 149.783 36.6097C148.701 36.6097 147.863 36.5747 147.235 36.4697V27.4747ZM169.601 21.4897C164.959 21.4897 161.225 24.8147 161.225 30.4497C161.225 35.8047 164.785 39.1647 169.322 39.1647C173.37 39.1647 177.732 36.4347 177.732 30.1697C177.732 25.0247 174.452 21.4897 169.601 21.4897ZM169.531 23.7997C173.161 23.7997 174.592 27.4047 174.592 30.2747C174.592 34.0897 172.393 36.8547 169.461 36.8547C166.46 36.8547 164.366 34.0547 164.366 30.3447C164.366 27.1597 165.937 23.7997 169.531 23.7997ZM188.057 21.4897C183.415 21.4897 179.681 24.8147 179.681 30.4497C179.681 35.8047 183.241 39.1647 187.778 39.1647C191.826 39.1647 196.188 36.4347 196.188 30.1697C196.188 25.0247 192.908 21.4897 188.057 21.4897ZM187.987 23.7997C191.617 23.7997 193.047 27.4047 193.047 30.2747C193.047 34.0897 190.849 36.8547 187.917 36.8547C184.916 36.8547 182.822 34.0547 182.822 30.3447C182.822 27.1597 184.393 23.7997 187.987 23.7997ZM202.395 13.9297H199.359V38.7797H202.395V32.4097L203.965 30.6597L209.758 38.7797H213.528L206.094 28.8047L212.585 21.8397H208.921L203.93 27.6847C203.442 28.2797 202.883 29.0147 202.465 29.6097H202.395V13.9297Z" fill="#A3131D"/>
<path d="M13.9727 9.38514C13.9727 8.86364 14.3543 8.42117 14.8689 8.34607L39.025 4.82072C39.6565 4.72854 40.2227 5.21969 40.2227 5.85977V49.0902C40.2227 49.7187 39.6761 50.2063 39.0537 50.1331L14.8976 47.2904C14.3702 47.2282 13.9727 46.7801 13.9727 46.2475V9.38514Z" fill="white" stroke="#A3131D" stroke-width="3.48989"/>
<path d="M1.30273 6.88362C1.30273 5.48758 2.32811 4.30483 3.7066 4.11079L32.7182 0.0271982C34.3981 -0.209245 35.8982 1.09885 35.8982 2.80002V52.4148C35.8982 54.0964 34.4303 55.3989 32.7659 55.1938L3.75434 51.6207C2.35453 51.4482 1.30273 50.256 1.30273 48.8415V6.88362Z" fill="#A3131D"/>
</g>
<defs>
<clipPath id="clip0_222_797">
<rect width="213.581" height="56" fill="white"/>
</clipPath>
</defs>
</svg>
