<svg width="25" height="25" viewBox="0 0 25 25" fill="none" xmlns="http://www.w3.org/2000/svg">
<g clip-path="url(#clip0_1_1563)">
<path d="M12.5 25.001C10.8219 25.001 9.23854 24.3063 8.10729 23.1052C6.46354 23.15 4.84792 22.5271 3.66042 21.3406C2.47396 20.1531 1.84687 18.5427 1.89479 16.8938C0.694792 15.7625 0 14.1802 0 12.501C0 10.8219 0.694792 9.24063 1.89479 8.10833C1.84687 6.45938 2.47396 4.84896 3.66042 3.66146C4.84896 2.47396 6.45833 1.83646 8.10729 1.89583C9.23854 0.694792 10.8208 0 12.5 0C14.1792 0 15.7615 0.694792 16.8927 1.89583C18.5292 1.83646 20.151 2.47396 21.3396 3.66042C22.526 4.84792 23.1531 6.45833 23.1052 8.10729C24.3052 9.23854 25 10.8208 25 12.5C25 14.1792 24.3052 15.7604 23.1052 16.8927C23.1531 18.5417 22.526 20.1521 21.3396 21.3396C20.151 22.5271 18.5312 23.15 16.8927 23.1052C15.7615 24.3063 14.1792 25.001 12.5 25.001ZM9.50521 19.7313L10.0844 20.5896C10.6271 21.3948 11.5312 21.876 12.5 21.876C13.4688 21.876 14.3729 21.3948 14.9156 20.5896L15.4948 19.7313L16.5104 19.9292C17.4688 20.1146 18.4448 19.8167 19.1302 19.1302C19.8146 18.4448 20.1135 17.4656 19.9292 16.5104L19.7333 15.4958L20.5896 14.9177C21.3948 14.375 21.876 13.4708 21.876 12.501C21.876 11.5313 21.3948 10.6281 20.5896 10.0844L19.7333 9.50625L19.9292 8.49167C20.1146 7.53646 19.8156 6.55729 19.1302 5.87188C18.4448 5.18646 17.4688 4.88854 16.5104 5.07292L15.4948 5.27083L14.9156 4.4125C14.3729 3.60729 13.4688 3.12604 12.5 3.12604C11.5312 3.12604 10.6271 3.60729 10.0844 4.4125L9.50521 5.27083L8.48958 5.07292C7.53229 4.8875 6.55625 5.18646 5.86979 5.87188C5.18542 6.55729 4.88646 7.53646 5.07083 8.49167L5.26667 9.50625L4.41042 10.0844C3.60521 10.6271 3.12396 11.5313 3.12396 12.501C3.12396 13.4708 3.60521 14.374 4.41042 14.9177L5.26667 15.4958L5.07083 16.5104C4.88542 17.4656 5.18437 18.4448 5.86979 19.1302C6.55625 19.8156 7.53229 20.1146 8.48958 19.9292L9.50521 19.7313ZM10.9406 16.6677C10.2729 16.6677 9.60521 16.4135 9.09583 15.9052L6.20417 13.1031L8.37917 10.8594L10.9344 13.3365L16.0917 8.26354L18.2833 10.4917L12.7698 15.9156C12.2687 16.4177 11.6052 16.6698 10.9406 16.6698V16.6677Z" fill="#FBBA18"/>
</g>
<defs>
<clipPath id="clip0_1_1563">
<rect width="25" height="25" fill="white"/>
</clipPath>
</defs>
</svg>
