<svg width="32" height="32" viewBox="0 0 32 32" fill="none" xmlns="http://www.w3.org/2000/svg">
<path d="M30.18 13.6342C29.6875 13.2711 29.067 12.8175 28.9919 12.5212C29.0235 11.9475 29.1873 11.389 29.4705 10.8892C29.9046 9.8931 30.3525 8.86083 29.8545 8.00242C29.3564 7.14401 28.2239 7.0049 27.1346 6.88941C26.57 6.88563 26.0137 6.75285 25.5082 6.50126C25.2562 5.99402 25.1239 5.43572 25.1214 4.86934C24.999 3.78 24.8724 2.6531 24.0084 2.14946C23.1445 1.64581 22.1108 2.08685 21.1147 2.52646C20.6144 2.80955 20.0554 2.9733 19.4814 3.00506C19.1809 2.92439 18.7288 2.30943 18.3684 1.81693C17.7368 0.965494 17.0258 0 15.9991 0C14.9724 0 14.2615 0.965494 13.634 1.81693C13.2695 2.3108 12.8173 2.92994 12.521 3.00643C11.9475 2.97187 11.3891 2.80831 10.8877 2.52783C9.88599 2.08678 8.85372 1.64718 7.99811 2.14248C7.1425 2.63778 6.99923 3.77302 6.87676 4.86927C6.87278 5.4337 6.74052 5.98985 6.48997 6.49565C5.98548 6.74366 5.43135 6.87395 4.86921 6.87682C3.7785 6.99923 2.65017 7.12588 2.14796 7.98983C1.64574 8.85379 2.08685 9.88619 2.52646 10.8837C2.8106 11.3851 2.97441 11.9457 3.00506 12.5212C2.92439 12.8217 2.30943 13.2752 1.81693 13.6342C0.965494 14.2602 0 14.9726 0 15.9993C0 17.026 0.965494 17.7384 1.81836 18.3644C2.31086 18.7275 2.93137 19.1811 3.0065 19.4774C2.97493 20.051 2.81112 20.6095 2.52789 21.1093C2.09383 22.1055 1.64587 23.1378 2.14391 23.9962C2.64195 24.8546 3.77446 24.9937 4.86379 25.1092C5.42842 25.113 5.98469 25.2457 6.49017 25.4973C6.74216 26.0046 6.87447 26.5629 6.87695 27.1292C6.99936 28.2186 7.126 29.3455 7.98996 29.8491C8.85392 30.3528 9.87928 29.8992 10.8768 29.4651C11.3821 29.1852 11.9443 29.0235 12.5212 28.9921C12.8217 29.0728 13.2739 29.6878 13.6342 30.1803C14.2617 31.0317 14.9726 31.9972 15.9994 31.9972C17.0261 31.9972 17.737 31.0317 18.3645 30.1803C18.729 29.6864 19.1811 29.0673 19.4775 28.9908C20.0514 29.0233 20.6101 29.1869 21.1108 29.4694C22.1069 29.9035 23.1392 30.3487 23.9962 29.8547C24.8531 29.3609 24.995 28.2242 25.1175 27.1335C25.1215 26.5691 25.2538 26.0129 25.5043 25.5071C26.0097 25.2571 26.5654 25.1253 27.1292 25.1218C28.2199 24.9994 29.3483 24.8727 29.8505 24.0088C30.3527 23.1448 29.8992 22.1194 29.4665 21.1219C29.1833 20.6179 29.0214 20.0549 28.9935 19.4775C29.0742 19.177 29.6892 18.7234 30.1817 18.3645C31.0331 17.7371 32 17.0247 32 15.9994C32 14.974 31.0328 14.2602 30.18 13.6342Z" fill="#FFC107"/>
</svg>
