<svg width="56" height="56" viewBox="0 0 56 56" fill="none" xmlns="http://www.w3.org/2000/svg">
<path d="M40.7215 15.5223C36.7566 15.5206 33.5432 12.3072 33.542 8.34279V0H11.3428C8.96689 0.00673077 7.04189 1.93173 7.03516 4.30769V51.6923C7.04189 54.0683 8.96689 55.9933 11.3428 56H44.7561C47.1326 55.9933 49.057 54.0683 49.0638 51.6923V15.5223H40.7215ZM14.8036 21.9692H30.3253C31.1184 21.9692 31.7612 22.612 31.7612 23.4051C31.7612 24.1982 31.1184 24.841 30.3253 24.841H14.8036C14.0105 24.841 13.3677 24.1982 13.3677 23.4051C13.3677 22.612 14.0105 21.9692 14.8036 21.9692ZM42.7458 46.5663H14.8036C14.0105 46.5663 13.3677 45.9235 13.3677 45.1304C13.3677 44.3373 14.0105 43.6945 14.8036 43.6945H42.7458C43.5389 43.6945 44.1817 44.3373 44.1817 45.1304C44.1817 45.9235 43.5389 46.5663 42.7458 46.5663ZM42.7458 35.6966H14.8036C14.0105 35.6966 13.3677 35.0533 13.3677 34.2607C13.3677 33.4676 14.0105 32.8248 14.8036 32.8248H42.7458C43.5389 32.8248 44.1817 33.4676 44.1817 34.2607C44.1817 35.0533 43.5389 35.6966 42.7458 35.6966Z" fill="#3070E2"/>
<path d="M40.7218 12.6501H47.0683L36.4141 2.02441V8.34236C36.4157 10.7206 38.343 12.6478 40.7218 12.6501Z" fill="#3070E2"/>
</svg>
