<svg width="78" height="17" viewBox="0 0 78 17" fill="none" xmlns="http://www.w3.org/2000/svg">
<path d="M6.64701 6.76878C6.64701 6.76878 4.63113 6.99206 3.28637 7.14134C3.16516 7.15601 3.05799 7.23703 3.0178 7.36015C2.97761 7.48327 3.0178 7.61149 3.10711 7.69251C4.10611 8.60412 5.60718 9.9693 5.60718 9.9693C5.6059 9.9693 5.19507 11.9552 4.92203 13.2802C4.89907 13.4001 4.94245 13.5271 5.04707 13.603C5.15105 13.6789 5.28502 13.6802 5.39028 13.6208C6.56663 12.9523 8.32861 11.9469 8.32861 11.9469C8.32861 11.9469 10.0912 12.9523 11.2657 13.6215C11.3728 13.6802 11.5068 13.6789 11.6108 13.603C11.7154 13.5271 11.7588 13.4001 11.7352 13.2808C11.4621 11.9552 11.052 9.9693 11.052 9.9693C11.052 9.9693 12.553 8.60412 13.552 7.69443C13.6413 7.61086 13.6809 7.48263 13.6413 7.36015C13.6018 7.23766 13.4946 7.15665 13.3734 7.14261C12.0286 6.99206 10.0121 6.76878 10.0121 6.76878C10.0121 6.76878 9.17643 4.92004 8.61951 3.68755C8.5672 3.57719 8.45747 3.5 8.32861 3.5C8.19975 3.5 8.08938 3.57783 8.03962 3.68755C7.48207 4.92004 6.64701 6.76878 6.64701 6.76878Z" fill="#FBBA18"/>
<path d="M21.9574 6.77269C21.9574 6.77269 19.9416 6.99596 18.5968 7.14524C18.4756 7.15991 18.3684 7.24093 18.3282 7.36405C18.288 7.48717 18.3282 7.6154 18.4175 7.69642C19.4165 8.60803 20.9176 9.97321 20.9176 9.97321C20.9163 9.97321 20.5055 11.9591 20.2325 13.2841C20.2095 13.404 20.2529 13.531 20.3575 13.6069C20.4615 13.6828 20.5954 13.6841 20.7007 13.6248C21.8771 12.9562 23.639 11.9508 23.639 11.9508C23.639 11.9508 25.4016 12.9562 26.5761 13.6254C26.6833 13.6841 26.8172 13.6828 26.9212 13.6069C27.0258 13.531 27.0692 13.404 27.0456 13.2847C26.7726 11.9591 26.3624 9.97321 26.3624 9.97321C26.3624 9.97321 27.8634 8.60803 28.8624 7.69833C28.9518 7.61476 28.9913 7.48654 28.9518 7.36405C28.9122 7.24157 28.805 7.16055 28.6838 7.14652C27.3391 6.99597 25.3225 6.77269 25.3225 6.77269C25.3225 6.77269 24.4869 4.92395 23.9299 3.69146C23.8776 3.5811 23.7679 3.50391 23.639 3.50391C23.5102 3.50391 23.3998 3.58173 23.35 3.69146C22.7925 4.92395 21.9574 6.77269 21.9574 6.77269Z" fill="#FBBA18"/>
<path d="M37.264 6.76878C37.264 6.76878 35.2481 6.99206 33.9034 7.14134C33.7822 7.15601 33.675 7.23703 33.6348 7.36015C33.5946 7.48327 33.6348 7.61149 33.7241 7.69251C34.7231 8.60412 36.2242 9.9693 36.2242 9.9693C36.2229 9.9693 35.8121 11.9552 35.539 13.2802C35.5161 13.4001 35.5595 13.5271 35.6641 13.603C35.7681 13.6789 35.902 13.6802 36.0073 13.6208C37.1836 12.9523 38.9456 11.9469 38.9456 11.9469C38.9456 11.9469 40.7082 12.9523 41.8827 13.6215C41.9898 13.6802 42.1238 13.6789 42.2278 13.603C42.3324 13.5271 42.3758 13.4001 42.3522 13.2808C42.0792 11.9552 41.669 9.9693 41.669 9.9693C41.669 9.9693 43.17 8.60412 44.169 7.69443C44.2583 7.61086 44.2979 7.48263 44.2583 7.36015C44.2188 7.23766 44.1116 7.15665 43.9904 7.14261C42.6456 6.99206 40.6291 6.76878 40.6291 6.76878C40.6291 6.76878 39.7934 4.92004 39.2365 3.68755C39.1842 3.57719 39.0745 3.5 38.9456 3.5C38.8168 3.5 38.7064 3.57783 38.6566 3.68755C38.0991 4.92004 37.264 6.76878 37.264 6.76878Z" fill="#FBBA18"/>
<path d="M52.5783 6.77269C52.5783 6.77269 50.5625 6.99596 49.2177 7.14524C49.0965 7.15991 48.9893 7.24093 48.9491 7.36405C48.9089 7.48717 48.9491 7.6154 49.0384 7.69642C50.0374 8.60803 51.5385 9.97321 51.5385 9.97321C51.5372 9.97321 51.1264 11.9591 50.8534 13.2841C50.8304 13.404 50.8738 13.531 50.9784 13.6069C51.0824 13.6828 51.2164 13.6841 51.3216 13.6248C52.498 12.9562 54.2599 11.9508 54.2599 11.9508C54.2599 11.9508 56.0226 12.9562 57.197 13.6254C57.3042 13.6841 57.4381 13.6828 57.5421 13.6069C57.6467 13.531 57.6901 13.404 57.6665 13.2847C57.3935 11.9591 56.9833 9.97321 56.9833 9.97321C56.9833 9.97321 58.4844 8.60803 59.4834 7.69833C59.5727 7.61476 59.6122 7.48654 59.5727 7.36405C59.5331 7.24157 59.4259 7.16055 59.3047 7.14652C57.96 6.99597 55.9435 6.77269 55.9435 6.77269C55.9435 6.77269 55.1078 4.92395 54.5508 3.69146C54.4985 3.5811 54.3888 3.50391 54.2599 3.50391C54.1311 3.50391 54.0207 3.58173 53.971 3.69146C53.4134 4.92395 52.5783 6.77269 52.5783 6.77269Z" fill="#FBBA18"/>
<path d="M67.881 6.77659C67.881 6.77659 65.8651 6.99987 64.5204 7.14915C64.3992 7.16382 64.292 7.24484 64.2518 7.36796C64.2116 7.49108 64.2518 7.61931 64.3411 7.70032C65.3401 8.61193 66.8412 9.97712 66.8412 9.97712C66.8399 9.97712 66.4291 11.963 66.156 13.288C66.1331 13.4079 66.1765 13.5349 66.2811 13.6108C66.3851 13.6867 66.519 13.688 66.6243 13.6287C67.8006 12.9601 69.5626 11.9547 69.5626 11.9547C69.5626 11.9547 71.3252 12.9601 72.4997 13.6293C72.6068 13.688 72.7408 13.6867 72.8448 13.6108C72.9494 13.5349 72.9928 13.4079 72.9692 13.2886C72.6962 11.963 72.286 9.97712 72.286 9.97712C72.286 9.97712 73.787 8.61193 74.786 7.70224C74.8753 7.61867 74.9149 7.49044 74.8753 7.36796C74.8358 7.24548 74.7286 7.16446 74.6074 7.15042C73.2626 6.99987 71.2461 6.77659 71.2461 6.77659C71.2461 6.77659 70.4104 4.92786 69.8535 3.69537C69.8012 3.585 69.6915 3.50781 69.5626 3.50781C69.4338 3.50781 69.3234 3.58564 69.2736 3.69537C68.7161 4.92786 67.881 6.77659 67.881 6.77659Z" fill="#BCBCBC"/>
<g clip-path="url(#clip0_1_1442)">
<path d="M67.881 6.77659C67.881 6.77659 65.8651 6.99987 64.5204 7.14915C64.3992 7.16382 64.292 7.24484 64.2518 7.36796C64.2116 7.49108 64.2518 7.61931 64.3411 7.70032C65.3401 8.61193 66.8412 9.97712 66.8412 9.97712C66.8399 9.97712 66.4291 11.963 66.156 13.288C66.1331 13.4079 66.1765 13.5349 66.2811 13.6108C66.3851 13.6867 66.519 13.688 66.6243 13.6287C67.8006 12.9601 69.5626 11.9547 69.5626 11.9547C69.5626 11.9547 71.3252 12.9601 72.4997 13.6293C72.6068 13.688 72.7408 13.6867 72.8448 13.6108C72.9494 13.5349 72.9928 13.4079 72.9692 13.2886C72.6962 11.963 72.286 9.97712 72.286 9.97712C72.286 9.97712 73.787 8.61193 74.786 7.70224C74.8753 7.61867 74.9149 7.49044 74.8753 7.36796C74.8358 7.24548 74.7286 7.16446 74.6074 7.15042C73.2626 6.99987 71.2461 6.77659 71.2461 6.77659C71.2461 6.77659 70.4104 4.92786 69.8535 3.69537C69.8012 3.585 69.6915 3.50781 69.5626 3.50781C69.4338 3.50781 69.3234 3.58564 69.2736 3.69537C68.7161 4.92786 67.881 6.77659 67.881 6.77659Z" fill="#FBBA18"/>
</g>
<defs>
<clipPath id="clip0_1_1442">
<rect width="5.10348" height="10.207" fill="white" transform="translate(64.4667 3.48438)"/>
</clipPath>
</defs>
</svg>
