<svg width="56" height="56" viewBox="0 0 56 56" fill="none" xmlns="http://www.w3.org/2000/svg">
<g clip-path="url(#clip0_1_1548)">
<path fill-rule="evenodd" clip-rule="evenodd" d="M28 0C43.464 0 56 12.536 56 28C56 43.464 43.464 56 28 56C12.536 56 0 43.464 0 28C0 12.536 12.536 0 28 0ZM44.4391 40.9539C44.8391 40.5518 45.0637 40.0076 45.0637 39.4403C45.0637 38.873 44.8391 38.3288 44.4391 37.9267L38.9582 32.447C38.5558 32.0467 38.0114 31.822 37.4439 31.822C36.8763 31.822 36.3319 32.0467 35.9296 32.447L34.4402 33.937C33.9457 34.4357 33.3032 34.7614 32.6086 34.8654C31.9139 34.9695 31.2043 34.8463 30.5853 34.5144C26.7094 32.4615 23.5394 29.2919 21.4861 25.4162C21.154 24.7971 21.0307 24.0873 21.1346 23.3925C21.2385 22.6977 21.5639 22.055 22.0625 21.56L23.5547 20.0703C23.9548 19.668 24.1793 19.1237 24.1793 18.5563C24.1793 17.9889 23.9548 17.4446 23.5547 17.0423L18.0738 11.5631C17.6715 11.1628 17.127 10.938 16.5594 10.938C15.9919 10.938 15.4474 11.1628 15.0451 11.5631C14.8186 11.789 14.532 12.0619 14.2255 12.3506C13.4591 13.075 12.503 13.9766 12.1165 14.5434C10.0807 17.5226 11.0569 21.5085 12.2298 24.328C13.7791 28.0442 16.6344 32.0936 20.2728 35.7294C23.9078 39.3648 27.9559 42.2205 31.6742 43.7698C34.493 44.9443 38.4774 45.9181 41.4565 43.8828C42.023 43.4959 42.9259 42.5421 43.6488 41.7747C43.9388 41.4688 44.2119 41.1797 44.4391 40.9539Z" fill="#42175B"/>
</g>
<defs>
<clipPath id="clip0_1_1548">
<rect width="56" height="56" fill="white"/>
</clipPath>
</defs>
</svg>
