<svg width="447" height="369" viewBox="0 0 447 369" fill="none" xmlns="http://www.w3.org/2000/svg">
<g filter="url(#filter0_i_222_1120)">
<circle cx="227" cy="182.444" r="168" fill="url(#paint0_radial_222_1120)" fill-opacity="0.2"/>
</g>
<g filter="url(#filter1_i_222_1120)">
<circle cx="227" cy="182.444" r="108" fill="url(#paint1_radial_222_1120)" fill-opacity="0.3"/>
</g>
<g filter="url(#filter2_di_222_1120)">
<rect x="180.77" y="135.21" width="95.2316" height="95.2316" rx="10.0244" fill="white" shape-rendering="crispEdges"/>
<path d="M248.511 173.694L203.959 201.11C201.286 202.756 201.164 206.599 203.729 208.409L207.608 211.147L214.521 216.027C215.963 217.045 217.877 217.096 219.371 216.157L253.131 194.936C254.405 194.136 255.178 192.737 255.178 191.233V177.419C255.178 173.997 251.425 171.9 248.511 173.694Z" fill="url(#paint2_linear_222_1120)"/>
<path d="M207.129 192.058L252.724 164.529C255.425 162.898 255.564 159.03 252.986 157.21L242.212 149.605C240.786 148.599 238.898 148.536 237.408 149.446L202.587 170.726C201.287 171.521 200.494 172.935 200.494 174.458L200.494 188.313C200.494 191.718 204.214 193.818 207.129 192.058Z" fill="url(#paint3_linear_222_1120)"/>
</g>
<g filter="url(#filter3_di_222_1120)">
<path d="M242 44.682C242 42.3416 243.897 40.4443 246.238 40.4443H392.762C395.103 40.4443 397 42.3416 397 44.682V74.4914C397 76.8318 395.103 78.7291 392.762 78.7291H246.238C243.897 78.7291 242 76.8318 242 74.4914V44.682Z" fill="white" shape-rendering="crispEdges"/>
<path d="M246.237 40.9443H392.763C394.827 40.9446 396.5 42.6177 396.5 44.6816V74.4912C396.5 76.5554 394.827 78.2293 392.763 78.2295H246.237C244.173 78.2293 242.5 76.5553 242.5 74.4912V44.6816C242.5 42.6177 244.173 40.9446 246.237 40.9443Z" stroke="url(#paint4_linear_222_1120)" shape-rendering="crispEdges"/>
<path d="M264.207 58.1975H262.878C262.827 57.9134 262.732 57.6634 262.592 57.4475C262.453 57.2316 262.283 57.0483 262.081 56.8977C261.879 56.7472 261.653 56.6335 261.403 56.5568C261.156 56.4801 260.893 56.4418 260.615 56.4418C260.112 56.4418 259.662 56.5682 259.264 56.821C258.869 57.0739 258.557 57.4446 258.327 57.9333C258.099 58.4219 257.986 59.0185 257.986 59.723C257.986 60.4333 258.099 61.0327 258.327 61.5213C258.557 62.01 258.871 62.3793 259.268 62.6293C259.666 62.8793 260.114 63.0043 260.611 63.0043C260.886 63.0043 261.148 62.9674 261.395 62.8935C261.645 62.8168 261.871 62.7046 262.072 62.5568C262.274 62.4091 262.445 62.2287 262.584 62.0156C262.726 61.7997 262.824 61.5526 262.878 61.2742L264.207 61.2784C264.136 61.7074 263.999 62.1023 263.794 62.4631C263.592 62.821 263.332 63.1307 263.014 63.3921C262.699 63.6506 262.338 63.8509 261.932 63.9929C261.526 64.135 261.082 64.206 260.602 64.206C259.847 64.206 259.173 64.027 258.582 63.6691C257.991 63.3083 257.526 62.7926 257.185 62.1222C256.847 61.4517 256.678 60.652 256.678 59.723C256.678 58.7912 256.848 57.9915 257.189 57.3239C257.53 56.6534 257.996 56.1392 258.587 55.7813C259.178 55.4205 259.849 55.2401 260.602 55.2401C261.065 55.2401 261.497 55.3068 261.898 55.4404C262.301 55.571 262.663 55.7642 262.984 56.0199C263.305 56.2727 263.571 56.5824 263.781 56.9489C263.991 57.3125 264.134 57.7287 264.207 58.1975ZM266.955 55.3594V64.0867H265.681V55.3594H266.955ZM268.669 64.0867V57.5412H269.943V64.0867H268.669ZM269.312 56.5313C269.091 56.5313 268.901 56.4574 268.741 56.3097C268.585 56.1591 268.507 55.9801 268.507 55.7727C268.507 55.5625 268.585 55.3835 268.741 55.2358C268.901 55.0852 269.091 55.01 269.312 55.01C269.534 55.01 269.723 55.0852 269.879 55.2358C270.038 55.3835 270.118 55.5625 270.118 55.7727C270.118 55.9801 270.038 56.1591 269.879 56.3097C269.723 56.4574 269.534 56.5313 269.312 56.5313ZM274.478 64.2188C273.833 64.2188 273.278 64.081 272.812 63.8054C272.349 63.527 271.991 63.1364 271.738 62.6335C271.488 62.1279 271.363 61.5355 271.363 60.8566C271.363 60.1861 271.488 59.5952 271.738 59.0838C271.991 58.5725 272.343 58.1733 272.795 57.8864C273.25 57.5995 273.781 57.456 274.389 57.456C274.758 57.456 275.116 57.5171 275.463 57.6392C275.809 57.7614 276.12 57.9531 276.396 58.2145C276.672 58.4759 276.889 58.8154 277.048 59.233C277.207 59.6477 277.287 60.152 277.287 60.7458V61.1975H272.083V60.2429H276.038C276.038 59.9077 275.97 59.6108 275.833 59.3523C275.697 59.0909 275.505 58.885 275.258 58.7344C275.014 58.5838 274.727 58.5085 274.397 58.5085C274.039 58.5085 273.727 58.5966 273.46 58.7727C273.196 58.946 272.991 59.1733 272.846 59.4546C272.704 59.733 272.633 60.0355 272.633 60.3622V61.108C272.633 61.5455 272.71 61.9176 272.863 62.2245C273.02 62.5313 273.237 62.7656 273.515 62.9276C273.794 63.0867 274.119 63.1662 274.491 63.1662C274.733 63.1662 274.953 63.1321 275.152 63.0639C275.35 62.9929 275.522 62.8878 275.667 62.7486C275.812 62.6094 275.923 62.4375 276 62.233L277.206 62.4503C277.109 62.8054 276.936 63.1165 276.686 63.3835C276.439 63.6477 276.127 63.8537 275.752 64.0014C275.38 64.1463 274.956 64.2188 274.478 64.2188ZM279.974 60.2003V64.0867H278.7V57.5412H279.923V58.6066H280.004C280.155 58.26 280.391 57.9816 280.712 57.7713C281.036 57.5611 281.443 57.456 281.935 57.456C282.381 57.456 282.771 57.5497 283.107 57.7372C283.442 57.9219 283.702 58.1975 283.886 58.5639C284.071 58.9304 284.163 59.3835 284.163 59.9233V64.0867H282.889V60.0767C282.889 59.6023 282.766 59.2316 282.518 58.9645C282.271 58.6946 281.932 58.5597 281.5 58.5597C281.205 58.5597 280.942 58.6236 280.712 58.7514C280.484 58.8793 280.304 59.0668 280.17 59.3139C280.04 59.5583 279.974 59.8537 279.974 60.2003ZM288.928 57.5412V58.5639H285.352V57.5412H288.928ZM286.311 55.973H287.585V62.1648C287.585 62.412 287.622 62.598 287.696 62.723C287.77 62.8452 287.865 62.929 287.982 62.9745C288.101 63.0171 288.23 63.0384 288.369 63.0384C288.472 63.0384 288.561 63.0313 288.638 63.0171C288.714 63.0029 288.774 62.9915 288.817 62.983L289.047 64.0355C288.973 64.0639 288.868 64.0924 288.732 64.1208C288.595 64.152 288.425 64.1691 288.22 64.1719C287.885 64.1776 287.572 64.1179 287.283 63.9929C286.993 63.8679 286.759 63.6747 286.58 63.4134C286.401 63.152 286.311 62.8239 286.311 62.429V55.973ZM300.864 58.1975H299.534C299.483 57.9134 299.388 57.6634 299.249 57.4475C299.109 57.2316 298.939 57.0483 298.737 56.8977C298.536 56.7472 298.31 56.6335 298.06 56.5568C297.813 56.4801 297.55 56.4418 297.271 56.4418C296.768 56.4418 296.318 56.5682 295.92 56.821C295.526 57.0739 295.213 57.4446 294.983 57.9333C294.756 58.4219 294.642 59.0185 294.642 59.723C294.642 60.4333 294.756 61.0327 294.983 61.5213C295.213 62.01 295.527 62.3793 295.925 62.6293C296.322 62.8793 296.77 63.0043 297.267 63.0043C297.543 63.0043 297.804 62.9674 298.051 62.8935C298.301 62.8168 298.527 62.7046 298.729 62.5568C298.93 62.4091 299.101 62.2287 299.24 62.0156C299.382 61.7997 299.48 61.5526 299.534 61.2742L300.864 61.2784C300.793 61.7074 300.655 62.1023 300.45 62.4631C300.249 62.821 299.989 63.1307 299.67 63.3921C299.355 63.6506 298.994 63.8509 298.588 63.9929C298.182 64.135 297.739 64.206 297.259 64.206C296.503 64.206 295.83 64.027 295.239 63.6691C294.648 63.3083 294.182 62.7926 293.841 62.1222C293.503 61.4517 293.334 60.652 293.334 59.723C293.334 58.7912 293.504 57.9915 293.845 57.3239C294.186 56.6534 294.652 56.1392 295.243 55.7813C295.834 55.4205 296.506 55.2401 297.259 55.2401C297.722 55.2401 298.153 55.3068 298.554 55.4404C298.957 55.571 299.32 55.7642 299.641 56.0199C299.962 56.2727 300.227 56.5824 300.438 56.9489C300.648 57.3125 300.79 57.7287 300.864 58.1975ZM305.094 64.2188C304.48 64.2188 303.945 64.0781 303.488 63.7969C303.03 63.5156 302.675 63.1222 302.422 62.6165C302.169 62.1108 302.043 61.5199 302.043 60.8438C302.043 60.1648 302.169 59.571 302.422 59.0625C302.675 58.554 303.03 58.1591 303.488 57.8779C303.945 57.5966 304.48 57.456 305.094 57.456C305.708 57.456 306.243 57.5966 306.701 57.8779C307.158 58.1591 307.513 58.554 307.766 59.0625C308.019 59.571 308.145 60.1648 308.145 60.8438C308.145 61.5199 308.019 62.1108 307.766 62.6165C307.513 63.1222 307.158 63.5156 306.701 63.7969C306.243 64.0781 305.708 64.2188 305.094 64.2188ZM305.098 63.1492C305.496 63.1492 305.826 63.0441 306.087 62.8338C306.348 62.6236 306.542 62.3438 306.667 61.9943C306.794 61.6449 306.858 61.26 306.858 60.8395C306.858 60.4219 306.794 60.0384 306.667 59.6889C306.542 59.3367 306.348 59.054 306.087 58.8409C305.826 58.6279 305.496 58.5213 305.098 58.5213C304.698 58.5213 304.365 58.6279 304.101 58.8409C303.84 59.054 303.645 59.3367 303.517 59.6889C303.392 60.0384 303.33 60.4219 303.33 60.8395C303.33 61.26 303.392 61.6449 303.517 61.9943C303.645 62.3438 303.84 62.6236 304.101 62.8338C304.365 63.0441 304.698 63.1492 305.098 63.1492ZM309.567 64.0867V57.5412H310.79V58.6066H310.871C311.008 58.2458 311.231 57.9645 311.54 57.7628C311.85 57.5583 312.221 57.456 312.653 57.456C313.09 57.456 313.457 57.5583 313.752 57.7628C314.05 57.9674 314.271 58.2486 314.413 58.6066H314.481C314.637 58.2571 314.886 57.9787 315.227 57.7713C315.567 57.5611 315.974 57.456 316.445 57.456C317.039 57.456 317.523 57.6421 317.898 58.0142C318.276 58.3864 318.465 58.9475 318.465 59.6975V64.0867H317.191V59.8168C317.191 59.3736 317.07 59.0526 316.829 58.8537C316.587 58.6549 316.299 58.5554 315.964 58.5554C315.549 58.5554 315.227 58.6833 314.996 58.9389C314.766 59.1918 314.651 59.5171 314.651 59.9148V64.0867H313.381V59.7358C313.381 59.3807 313.271 59.0952 313.049 58.8793C312.827 58.6634 312.539 58.5554 312.184 58.5554C311.942 58.5554 311.719 58.6193 311.515 58.7472C311.313 58.8722 311.15 59.0469 311.025 59.2713C310.903 59.4958 310.842 59.7557 310.842 60.0512V64.0867H309.567ZM320.173 64.0867V57.5412H321.396V58.6066H321.477C321.613 58.2458 321.836 57.9645 322.146 57.7628C322.456 57.5583 322.826 57.456 323.258 57.456C323.696 57.456 324.062 57.5583 324.358 57.7628C324.656 57.9674 324.876 58.2486 325.018 58.6066H325.086C325.243 58.2571 325.491 57.9787 325.832 57.7713C326.173 57.5611 326.579 57.456 327.051 57.456C327.645 57.456 328.129 57.6421 328.504 58.0142C328.882 58.3864 329.071 58.9475 329.071 59.6975V64.0867H327.797V59.8168C327.797 59.3736 327.676 59.0526 327.434 58.8537C327.193 58.6549 326.904 58.5554 326.569 58.5554C326.154 58.5554 325.832 58.6833 325.602 58.9389C325.372 59.1918 325.257 59.5171 325.257 59.9148V64.0867H323.987V59.7358C323.987 59.3807 323.876 59.0952 323.654 58.8793C323.433 58.6634 323.145 58.5554 322.789 58.5554C322.548 58.5554 322.325 58.6193 322.12 58.7472C321.919 58.8722 321.755 59.0469 321.63 59.2713C321.508 59.4958 321.447 59.7557 321.447 60.0512V64.0867H320.173ZM334.925 61.3722V57.5412H336.203V64.0867H334.95V62.9531H334.882C334.732 63.3026 334.49 63.5938 334.158 63.8267C333.828 64.0568 333.418 64.1719 332.926 64.1719C332.506 64.1719 332.134 64.0796 331.81 63.8949C331.489 63.7074 331.236 63.4304 331.051 63.0639C330.869 62.6975 330.778 62.2443 330.778 61.7046V57.5412H332.053V61.5512C332.053 61.9972 332.176 62.3523 332.423 62.6165C332.67 62.8807 332.991 63.0128 333.386 63.0128C333.625 63.0128 333.862 62.9531 334.098 62.8338C334.337 62.7145 334.534 62.5341 334.69 62.2926C334.849 62.0512 334.928 61.7443 334.925 61.3722ZM339.189 60.2003V64.0867H337.915V57.5412H339.138V58.6066H339.219C339.37 58.26 339.605 57.9816 339.926 57.7713C340.25 57.5611 340.658 57.456 341.15 57.456C341.596 57.456 341.986 57.5497 342.321 57.7372C342.657 57.9219 342.917 58.1975 343.101 58.5639C343.286 58.9304 343.378 59.3835 343.378 59.9233V64.0867H342.104V60.0767C342.104 59.6023 341.98 59.2316 341.733 58.9645C341.486 58.6946 341.147 58.5597 340.715 58.5597C340.419 58.5597 340.157 58.6236 339.926 58.7514C339.699 58.8793 339.519 59.0668 339.385 59.3139C339.255 59.5583 339.189 59.8537 339.189 60.2003ZM345.087 64.0867V57.5412H346.361V64.0867H345.087ZM345.73 56.5313C345.509 56.5313 345.319 56.4574 345.159 56.3097C345.003 56.1591 344.925 55.9801 344.925 55.7727C344.925 55.5625 345.003 55.3835 345.159 55.2358C345.319 55.0852 345.509 55.01 345.73 55.01C345.952 55.01 346.141 55.0852 346.297 55.2358C346.456 55.3835 346.536 55.5625 346.536 55.7727C346.536 55.9801 346.456 56.1591 346.297 56.3097C346.141 56.4574 345.952 56.5313 345.73 56.5313ZM350.832 64.2188C350.199 64.2188 349.653 64.0753 349.196 63.7884C348.741 63.4986 348.392 63.0995 348.148 62.5909C347.903 62.0824 347.781 61.5 347.781 60.8438C347.781 60.179 347.906 59.5924 348.156 59.0838C348.406 58.5725 348.759 58.1733 349.213 57.8864C349.668 57.5995 350.203 57.456 350.82 57.456C351.317 57.456 351.76 57.5483 352.149 57.733C352.538 57.9148 352.852 58.1705 353.091 58.5C353.332 58.8296 353.476 59.2145 353.521 59.6549H352.281C352.213 59.348 352.057 59.0838 351.812 58.8622C351.571 58.6406 351.247 58.5299 350.841 58.5299C350.486 58.5299 350.175 58.6236 349.908 58.8111C349.643 58.9958 349.438 59.26 349.29 59.6037C349.142 59.9446 349.068 60.348 349.068 60.8139C349.068 61.2912 349.141 61.7031 349.286 62.0497C349.43 62.3963 349.635 62.6648 349.899 62.8551C350.166 63.0455 350.48 63.1406 350.841 63.1406C351.082 63.1406 351.301 63.0966 351.497 63.0085C351.696 62.9176 351.862 62.7884 351.996 62.6208C352.132 62.4531 352.227 62.2514 352.281 62.0156H353.521C353.476 62.4389 353.338 62.8168 353.108 63.1492C352.878 63.4816 352.57 63.7429 352.183 63.9333C351.8 64.1236 351.349 64.2188 350.832 64.2188ZM356.789 64.2316C356.374 64.2316 355.999 64.1549 355.664 64.0014C355.328 63.8452 355.063 63.6193 354.867 63.3239C354.674 63.0284 354.577 62.6662 354.577 62.2372C354.577 61.8679 354.648 61.5639 354.79 61.3253C354.932 61.0867 355.124 60.8977 355.365 60.7585C355.607 60.6193 355.877 60.5142 356.175 60.4432C356.473 60.3722 356.777 60.3182 357.087 60.2813C357.479 60.2358 357.797 60.1989 358.042 60.1705C358.286 60.1392 358.463 60.0895 358.574 60.0213C358.685 59.9531 358.74 59.8424 358.74 59.6889V59.6591C358.74 59.287 358.635 58.9986 358.425 58.7941C358.218 58.5895 357.908 58.4872 357.496 58.4872C357.067 58.4872 356.729 58.5824 356.482 58.7727C356.238 58.9602 356.069 59.1691 355.975 59.3992L354.777 59.1264C354.919 58.7287 355.127 58.4077 355.4 58.1634C355.675 57.9162 355.992 57.7372 356.35 57.6264C356.708 57.5128 357.084 57.456 357.479 57.456C357.74 57.456 358.017 57.4872 358.31 57.5497C358.605 57.6094 358.881 57.7202 359.137 57.8821C359.395 58.0441 359.607 58.2756 359.772 58.5767C359.936 58.875 360.019 59.2628 360.019 59.7401V64.0867H358.775V63.1918H358.723C358.641 63.3566 358.517 63.5185 358.353 63.6776C358.188 63.8367 357.976 63.9688 357.718 64.0739C357.459 64.179 357.15 64.2316 356.789 64.2316ZM357.066 63.2088C357.418 63.2088 357.719 63.1392 357.969 63C358.222 62.8608 358.414 62.679 358.544 62.4546C358.678 62.2273 358.745 61.9844 358.745 61.7259V60.8821C358.699 60.9276 358.611 60.9702 358.48 61.01C358.353 61.0469 358.206 61.0796 358.042 61.108C357.877 61.1335 357.716 61.1577 357.56 61.1804C357.404 61.2003 357.273 61.2174 357.168 61.2316C356.921 61.2628 356.695 61.3154 356.49 61.3892C356.289 61.4631 356.127 61.5696 356.005 61.7088C355.885 61.8452 355.826 62.027 355.826 62.2543C355.826 62.5696 355.942 62.8083 356.175 62.9702C356.408 63.1293 356.705 63.2088 357.066 63.2088ZM364.771 57.5412V58.5639H361.196V57.5412H364.771ZM362.155 55.973H363.429V62.1648C363.429 62.412 363.466 62.598 363.54 62.723C363.614 62.8452 363.709 62.929 363.825 62.9745C363.945 63.0171 364.074 63.0384 364.213 63.0384C364.315 63.0384 364.405 63.0313 364.482 63.0171C364.558 63.0029 364.618 62.9915 364.661 62.983L364.891 64.0355C364.817 64.0639 364.712 64.0924 364.575 64.1208C364.439 64.152 364.268 64.1691 364.064 64.1719C363.729 64.1776 363.416 64.1179 363.126 63.9929C362.837 63.8679 362.602 63.6747 362.423 63.4134C362.244 63.152 362.155 62.8239 362.155 62.429V55.973ZM366.181 64.0867V57.5412H367.455V64.0867H366.181ZM366.824 56.5313C366.603 56.5313 366.412 56.4574 366.253 56.3097C366.097 56.1591 366.019 55.9801 366.019 55.7727C366.019 55.5625 366.097 55.3835 366.253 55.2358C366.412 55.0852 366.603 55.01 366.824 55.01C367.046 55.01 367.235 55.0852 367.391 55.2358C367.55 55.3835 367.63 55.5625 367.63 55.7727C367.63 55.9801 367.55 56.1591 367.391 56.3097C367.235 56.4574 367.046 56.5313 366.824 56.5313ZM371.926 64.2188C371.313 64.2188 370.777 64.0781 370.32 63.7969C369.862 63.5156 369.507 63.1222 369.254 62.6165C369.001 62.1108 368.875 61.5199 368.875 60.8438C368.875 60.1648 369.001 59.571 369.254 59.0625C369.507 58.554 369.862 58.1591 370.32 57.8779C370.777 57.5966 371.313 57.456 371.926 57.456C372.54 57.456 373.075 57.5966 373.533 57.8779C373.99 58.1591 374.345 58.554 374.598 59.0625C374.851 59.571 374.977 60.1648 374.977 60.8438C374.977 61.5199 374.851 62.1108 374.598 62.6165C374.345 63.1222 373.99 63.5156 373.533 63.7969C373.075 64.0781 372.54 64.2188 371.926 64.2188ZM371.93 63.1492C372.328 63.1492 372.658 63.0441 372.919 62.8338C373.18 62.6236 373.374 62.3438 373.499 61.9943C373.626 61.6449 373.69 61.26 373.69 60.8395C373.69 60.4219 373.626 60.0384 373.499 59.6889C373.374 59.3367 373.18 59.054 372.919 58.8409C372.658 58.6279 372.328 58.5213 371.93 58.5213C371.53 58.5213 371.197 58.6279 370.933 58.8409C370.672 59.054 370.477 59.3367 370.349 59.6889C370.224 60.0384 370.162 60.4219 370.162 60.8395C370.162 61.26 370.224 61.6449 370.349 61.9943C370.477 62.3438 370.672 62.6236 370.933 62.8338C371.197 63.0441 371.53 63.1492 371.93 63.1492ZM377.674 60.2003V64.0867H376.4V57.5412H377.623V58.6066H377.703C377.854 58.26 378.09 57.9816 378.411 57.7713C378.735 57.5611 379.142 57.456 379.634 57.456C380.08 57.456 380.471 57.5497 380.806 57.7372C381.141 57.9219 381.401 58.1975 381.586 58.5639C381.77 58.9304 381.863 59.3835 381.863 59.9233V64.0867H380.588V60.0767C380.588 59.6023 380.465 59.2316 380.218 58.9645C379.971 58.6946 379.631 58.5597 379.199 58.5597C378.904 58.5597 378.641 58.6236 378.411 58.7514C378.184 58.8793 378.003 59.0668 377.87 59.3139C377.739 59.5583 377.674 59.8537 377.674 60.2003Z" fill="black"/>
</g>
<g filter="url(#filter4_di_222_1120)">
<path d="M42 66.682C42 64.3416 43.8973 62.4443 46.2377 62.4443H158.762C161.103 62.4443 163 64.3416 163 66.682V96.4914C163 98.8318 161.103 100.729 158.762 100.729H46.2377C43.8973 100.729 42 98.8318 42 96.4914V66.682Z" fill="white" shape-rendering="crispEdges"/>
<path d="M46.2373 62.9443H158.763C160.827 62.9446 162.5 64.6177 162.5 66.6816V96.4912C162.5 98.5554 160.827 100.229 158.763 100.229H46.2373C44.1732 100.229 42.5 98.5554 42.5 96.4912V66.6816C42.5002 64.6822 44.0704 63.0495 46.0449 62.9492L46.2373 62.9443Z" stroke="url(#paint5_linear_222_1120)" shape-rendering="crispEdges"/>
<path d="M62.8651 80.1165C62.7827 79.858 62.6719 79.6264 62.5327 79.4219C62.3963 79.2145 62.233 79.0384 62.0426 78.8935C61.8523 78.7458 61.6349 78.6335 61.3906 78.5568C61.1491 78.4801 60.8835 78.4418 60.5938 78.4418C60.1023 78.4418 59.6591 78.5682 59.2642 78.821C58.8693 79.0739 58.5568 79.4446 58.3267 79.9333C58.0994 80.4191 57.9858 81.0142 57.9858 81.7188C57.9858 82.4262 58.1009 83.0242 58.331 83.5128C58.5611 84.0014 58.8764 84.3722 59.277 84.625C59.6776 84.8779 60.1335 85.0043 60.6449 85.0043C61.1193 85.0043 61.5327 84.9077 61.8849 84.7145C62.2401 84.5213 62.5142 84.2486 62.7074 83.8963C62.9034 83.5412 63.0014 83.1236 63.0014 82.6435L63.3423 82.7074H60.8452V81.6208H64.2756V82.6137C64.2756 83.3466 64.1193 83.983 63.8068 84.5227C63.4972 85.0597 63.0682 85.4745 62.5199 85.7671C61.9744 86.0597 61.3494 86.206 60.6449 86.206C59.8551 86.206 59.1619 86.0242 58.5653 85.6605C57.9716 85.2969 57.5085 84.7813 57.1761 84.1137C56.8438 83.4432 56.6776 82.6477 56.6776 81.7273C56.6776 81.0313 56.7741 80.4063 56.9673 79.8523C57.1605 79.2983 57.4318 78.8281 57.7812 78.4418C58.1335 78.0526 58.5469 77.7557 59.0213 77.5512C59.4986 77.3438 60.0199 77.2401 60.5852 77.2401C61.0568 77.2401 61.4957 77.3097 61.902 77.4489C62.3111 77.5881 62.6747 77.7855 62.9929 78.0412C63.3139 78.2969 63.5795 78.6009 63.7898 78.9531C64 79.3026 64.142 79.6904 64.2159 80.1165H62.8651ZM70.707 79.652C70.6616 79.2486 70.4741 78.9361 70.1445 78.7145C69.815 78.4901 69.4002 78.3779 68.9002 78.3779C68.5423 78.3779 68.2326 78.4347 67.9712 78.5483C67.7099 78.6591 67.5067 78.8125 67.3619 79.0085C67.2198 79.2017 67.1488 79.4219 67.1488 79.6691C67.1488 79.8764 67.1971 80.0554 67.2937 80.206C67.3931 80.3566 67.5224 80.483 67.6815 80.5852C67.8434 80.6847 68.0167 80.7685 68.2013 80.8367C68.386 80.902 68.5636 80.956 68.734 80.9986L69.5863 81.2202C69.8647 81.2884 70.1502 81.3807 70.4428 81.4972C70.7354 81.6137 71.0067 81.7671 71.2567 81.9574C71.5067 82.1477 71.7085 82.3835 71.8619 82.6648C72.0181 82.946 72.0962 83.2827 72.0962 83.6747C72.0962 84.1691 71.9684 84.608 71.7127 84.9915C71.4599 85.375 71.092 85.6776 70.609 85.8992C70.1289 86.1208 69.5479 86.2316 68.8661 86.2316C68.2127 86.2316 67.6474 86.1279 67.1701 85.9205C66.6928 85.7131 66.3192 85.4191 66.0494 85.0384C65.7795 84.6549 65.6303 84.2003 65.6019 83.6747H66.9229C66.9485 83.9901 67.0508 84.2529 67.2298 84.4631C67.4116 84.6705 67.6431 84.8253 67.9244 84.9276C68.2085 85.027 68.5195 85.0767 68.8576 85.0767C69.2298 85.0767 69.5607 85.0185 69.8505 84.902C70.1431 84.7827 70.3732 84.6179 70.5408 84.4077C70.7085 84.1946 70.7923 83.946 70.7923 83.662C70.7923 83.4034 70.7184 83.1918 70.5707 83.027C70.4258 82.8622 70.2283 82.7259 69.9783 82.6179C69.7312 82.51 69.4513 82.4148 69.1388 82.3324L68.1076 82.0512C67.4087 81.8608 66.8548 81.581 66.4457 81.2117C66.0394 80.8424 65.8363 80.3537 65.8363 79.7458C65.8363 79.2429 65.9727 78.804 66.2454 78.429C66.5181 78.054 66.8874 77.7628 67.3533 77.5554C67.8192 77.3452 68.3448 77.2401 68.93 77.2401C69.521 77.2401 70.0423 77.3438 70.494 77.5512C70.9485 77.7585 71.3065 78.0441 71.5678 78.4077C71.8292 78.7685 71.9656 79.1833 71.9769 79.652H70.707ZM73.2393 78.4929V77.3594H79.9936V78.4929H77.2706V86.0867H75.9581V78.4929H73.2393ZM86.4645 86.2316C86.0497 86.2316 85.6747 86.1549 85.3395 86.0014C85.0043 85.8452 84.7386 85.6193 84.5426 85.3239C84.3494 85.0284 84.2528 84.6662 84.2528 84.2372C84.2528 83.8679 84.3239 83.5639 84.4659 83.3253C84.608 83.0867 84.7997 82.8977 85.0412 82.7585C85.2827 82.6193 85.5526 82.5142 85.8509 82.4432C86.1491 82.3722 86.4531 82.3182 86.7628 82.2813C87.1548 82.2358 87.473 82.1989 87.7173 82.1705C87.9616 82.1392 88.1392 82.0895 88.25 82.0213C88.3608 81.9531 88.4162 81.8424 88.4162 81.6889V81.6591C88.4162 81.287 88.3111 80.9986 88.1009 80.7941C87.8935 80.5895 87.5838 80.4872 87.1719 80.4872C86.7429 80.4872 86.4048 80.5824 86.1577 80.7727C85.9134 80.9602 85.7443 81.1691 85.6506 81.3992L84.4531 81.1264C84.5952 80.7287 84.8026 80.4077 85.0753 80.1634C85.3509 79.9162 85.6676 79.7372 86.0256 79.6264C86.3835 79.5128 86.7599 79.456 87.1548 79.456C87.4162 79.456 87.6932 79.4872 87.9858 79.5497C88.2813 79.6094 88.5568 79.7202 88.8125 79.8821C89.071 80.0441 89.2827 80.2756 89.4474 80.5767C89.6122 80.875 89.6946 81.2628 89.6946 81.7401V86.0867H88.4503V85.1918H88.3991C88.3168 85.3566 88.1932 85.5185 88.0284 85.6776C87.8636 85.8367 87.652 85.9688 87.3935 86.0739C87.1349 86.179 86.8253 86.2316 86.4645 86.2316ZM86.7415 85.2088C87.0938 85.2088 87.3949 85.1392 87.6449 85C87.8977 84.8608 88.0895 84.679 88.2202 84.4546C88.3537 84.2273 88.4205 83.9844 88.4205 83.7259V82.8821C88.375 82.9276 88.2869 82.9702 88.1562 83.01C88.0284 83.0469 87.8821 83.0796 87.7173 83.108C87.5526 83.1335 87.392 83.1577 87.2358 83.1804C87.0795 83.2003 86.9489 83.2174 86.8438 83.2316C86.5966 83.2628 86.3707 83.3154 86.1662 83.3892C85.9645 83.4631 85.8026 83.5696 85.6804 83.7088C85.5611 83.8452 85.5014 84.027 85.5014 84.2543C85.5014 84.5696 85.6179 84.8083 85.8509 84.9702C86.0838 85.1293 86.3807 85.2088 86.7415 85.2088ZM95.538 83.3722V79.5412H96.8164V86.0867H95.5636V84.9531H95.4954C95.3448 85.3026 95.1033 85.5938 94.771 85.8267C94.4414 86.0568 94.0309 86.1719 93.5394 86.1719C93.119 86.1719 92.7468 86.0796 92.4229 85.8949C92.1019 85.7074 91.8491 85.4304 91.6644 85.0639C91.4826 84.6975 91.3917 84.2443 91.3917 83.7046V79.5412H92.6658V83.5512C92.6658 83.9972 92.7894 84.3523 93.0366 84.6165C93.2837 84.8807 93.6048 85.0128 93.9996 85.0128C94.2383 85.0128 94.4755 84.9531 94.7113 84.8338C94.9499 84.7145 95.1474 84.5341 95.3036 84.2926C95.4627 84.0512 95.5408 83.7443 95.538 83.3722ZM101.584 79.5412V80.5639H98.0085V79.5412H101.584ZM98.9673 77.973H100.241V84.1648C100.241 84.412 100.278 84.598 100.352 84.723C100.426 84.8452 100.521 84.929 100.638 84.9745C100.757 85.0171 100.886 85.0384 101.026 85.0384C101.128 85.0384 101.217 85.0313 101.294 85.0171C101.371 85.0029 101.43 84.9915 101.473 84.983L101.703 86.0355C101.629 86.0639 101.524 86.0924 101.388 86.1208C101.251 86.152 101.081 86.1691 100.876 86.1719C100.541 86.1776 100.229 86.1179 99.9389 85.9929C99.6491 85.8679 99.4148 85.6747 99.2358 85.4134C99.0568 85.152 98.9673 84.8239 98.9673 84.429V77.973ZM105.68 86.2188C105.066 86.2188 104.531 86.0781 104.074 85.7969C103.616 85.5156 103.261 85.1222 103.008 84.6165C102.755 84.1108 102.629 83.5199 102.629 82.8438C102.629 82.1648 102.755 81.571 103.008 81.0625C103.261 80.554 103.616 80.1591 104.074 79.8779C104.531 79.5966 105.066 79.456 105.68 79.456C106.294 79.456 106.829 79.5966 107.287 79.8779C107.744 80.1591 108.099 80.554 108.352 81.0625C108.605 81.571 108.731 82.1648 108.731 82.8438C108.731 83.5199 108.605 84.1108 108.352 84.6165C108.099 85.1222 107.744 85.5156 107.287 85.7969C106.829 86.0781 106.294 86.2188 105.68 86.2188ZM105.684 85.1492C106.082 85.1492 106.412 85.0441 106.673 84.8338C106.934 84.6236 107.127 84.3438 107.252 83.9943C107.38 83.6449 107.444 83.26 107.444 82.8395C107.444 82.4219 107.38 82.0384 107.252 81.6889C107.127 81.3367 106.934 81.054 106.673 80.8409C106.412 80.6279 106.082 80.5213 105.684 80.5213C105.284 80.5213 104.951 80.6279 104.687 80.8409C104.426 81.054 104.231 81.3367 104.103 81.6889C103.978 82.0384 103.916 82.4219 103.916 82.8395C103.916 83.26 103.978 83.6449 104.103 83.9943C104.231 84.3438 104.426 84.6236 104.687 84.8338C104.951 85.0441 105.284 85.1492 105.684 85.1492ZM110.153 86.0867V79.5412H111.376V80.6066H111.457C111.594 80.2458 111.817 79.9645 112.126 79.7628C112.436 79.5583 112.807 79.456 113.239 79.456C113.676 79.456 114.043 79.5583 114.338 79.7628C114.636 79.9674 114.857 80.2486 114.999 80.6066H115.067C115.223 80.2571 115.472 79.9787 115.812 79.7713C116.153 79.5611 116.56 79.456 117.031 79.456C117.625 79.456 118.109 79.6421 118.484 80.0142C118.862 80.3864 119.051 80.9475 119.051 81.6975V86.0867H117.777V81.8168C117.777 81.3736 117.656 81.0526 117.415 80.8537C117.173 80.6549 116.885 80.5554 116.55 80.5554C116.135 80.5554 115.812 80.6833 115.582 80.9389C115.352 81.1918 115.237 81.5171 115.237 81.9148V86.0867H113.967V81.7358C113.967 81.3807 113.857 81.0952 113.635 80.8793C113.413 80.6634 113.125 80.5554 112.77 80.5554C112.528 80.5554 112.305 80.6193 112.101 80.7472C111.899 80.8722 111.736 81.0469 111.611 81.2713C111.489 81.4958 111.428 81.7557 111.428 82.0512V86.0867H110.153ZM122.664 86.2316C122.249 86.2316 121.874 86.1549 121.539 86.0014C121.203 85.8452 120.938 85.6193 120.742 85.3239C120.549 85.0284 120.452 84.6662 120.452 84.2372C120.452 83.8679 120.523 83.5639 120.665 83.3253C120.807 83.0867 120.999 82.8977 121.24 82.7585C121.482 82.6193 121.752 82.5142 122.05 82.4432C122.348 82.3722 122.652 82.3182 122.962 82.2813C123.354 82.2358 123.672 82.1989 123.917 82.1705C124.161 82.1392 124.338 82.0895 124.449 82.0213C124.56 81.9531 124.615 81.8424 124.615 81.6889V81.6591C124.615 81.287 124.51 80.9986 124.3 80.7941C124.093 80.5895 123.783 80.4872 123.371 80.4872C122.942 80.4872 122.604 80.5824 122.357 80.7727C122.113 80.9602 121.944 81.1691 121.85 81.3992L120.652 81.1264C120.794 80.7287 121.002 80.4077 121.275 80.1634C121.55 79.9162 121.867 79.7372 122.225 79.6264C122.583 79.5128 122.959 79.456 123.354 79.456C123.615 79.456 123.892 79.4872 124.185 79.5497C124.48 79.6094 124.756 79.7202 125.012 79.8821C125.27 80.0441 125.482 80.2756 125.647 80.5767C125.811 80.875 125.894 81.2628 125.894 81.7401V86.0867H124.65V85.1918H124.598C124.516 85.3566 124.392 85.5185 124.228 85.6776C124.063 85.8367 123.851 85.9688 123.593 86.0739C123.334 86.179 123.025 86.2316 122.664 86.2316ZM122.941 85.2088C123.293 85.2088 123.594 85.1392 123.844 85C124.097 84.8608 124.289 84.679 124.419 84.4546C124.553 84.2273 124.62 83.9844 124.62 83.7259V82.8821C124.574 82.9276 124.486 82.9702 124.355 83.01C124.228 83.0469 124.081 83.0796 123.917 83.108C123.752 83.1335 123.591 83.1577 123.435 83.1804C123.279 83.2003 123.148 83.2174 123.043 83.2316C122.796 83.2628 122.57 83.3154 122.365 83.3892C122.164 83.4631 122.002 83.5696 121.88 83.7088C121.76 83.8452 121.701 84.027 121.701 84.2543C121.701 84.5696 121.817 84.8083 122.05 84.9702C122.283 85.1293 122.58 85.2088 122.941 85.2088ZM130.646 79.5412V80.5639H127.071V79.5412H130.646ZM128.03 77.973H129.304V84.1648C129.304 84.412 129.341 84.598 129.415 84.723C129.489 84.8452 129.584 84.929 129.7 84.9745C129.82 85.0171 129.949 85.0384 130.088 85.0384C130.19 85.0384 130.28 85.0313 130.357 85.0171C130.433 85.0029 130.493 84.9915 130.536 84.983L130.766 86.0355C130.692 86.0639 130.587 86.0924 130.45 86.1208C130.314 86.152 130.143 86.1691 129.939 86.1719C129.604 86.1776 129.291 86.1179 129.001 85.9929C128.712 85.8679 128.477 85.6747 128.298 85.4134C128.119 85.152 128.03 84.8239 128.03 84.429V77.973ZM132.056 86.0867V79.5412H133.33V86.0867H132.056ZM132.699 78.5313C132.478 78.5313 132.287 78.4574 132.128 78.3097C131.972 78.1591 131.894 77.9801 131.894 77.7727C131.894 77.5625 131.972 77.3835 132.128 77.2358C132.287 77.0852 132.478 77.01 132.699 77.01C132.921 77.01 133.11 77.0852 133.266 77.2358C133.425 77.3835 133.505 77.5625 133.505 77.7727C133.505 77.9801 133.425 78.1591 133.266 78.3097C133.11 78.4574 132.921 78.5313 132.699 78.5313ZM137.801 86.2188C137.188 86.2188 136.652 86.0781 136.195 85.7969C135.737 85.5156 135.382 85.1222 135.129 84.6165C134.876 84.1108 134.75 83.5199 134.75 82.8438C134.75 82.1648 134.876 81.571 135.129 81.0625C135.382 80.554 135.737 80.1591 136.195 79.8779C136.652 79.5966 137.188 79.456 137.801 79.456C138.415 79.456 138.95 79.5966 139.408 79.8779C139.865 80.1591 140.22 80.554 140.473 81.0625C140.726 81.571 140.852 82.1648 140.852 82.8438C140.852 83.5199 140.726 84.1108 140.473 84.6165C140.22 85.1222 139.865 85.5156 139.408 85.7969C138.95 86.0781 138.415 86.2188 137.801 86.2188ZM137.805 85.1492C138.203 85.1492 138.533 85.0441 138.794 84.8338C139.055 84.6236 139.249 84.3438 139.374 83.9943C139.501 83.6449 139.565 83.26 139.565 82.8395C139.565 82.4219 139.501 82.0384 139.374 81.6889C139.249 81.3367 139.055 81.054 138.794 80.8409C138.533 80.6279 138.203 80.5213 137.805 80.5213C137.405 80.5213 137.072 80.6279 136.808 80.8409C136.547 81.054 136.352 81.3367 136.224 81.6889C136.099 82.0384 136.037 82.4219 136.037 82.8395C136.037 83.26 136.099 83.6449 136.224 83.9943C136.352 84.3438 136.547 84.6236 136.808 84.8338C137.072 85.0441 137.405 85.1492 137.805 85.1492ZM143.549 82.2003V86.0867H142.275V79.5412H143.498V80.6066H143.578C143.729 80.26 143.965 79.9816 144.286 79.7713C144.61 79.5611 145.017 79.456 145.509 79.456C145.955 79.456 146.346 79.5497 146.681 79.7372C147.016 79.9219 147.276 80.1975 147.461 80.5639C147.645 80.9304 147.738 81.3835 147.738 81.9233V86.0867H146.463V82.0767C146.463 81.6023 146.34 81.2316 146.093 80.9645C145.846 80.6946 145.506 80.5597 145.074 80.5597C144.779 80.5597 144.516 80.6236 144.286 80.7514C144.059 80.8793 143.878 81.0668 143.745 81.3139C143.614 81.5583 143.549 81.8537 143.549 82.2003Z" fill="black"/>
</g>
<g filter="url(#filter5_di_222_1120)">
<path d="M322 243.682C322 241.342 323.897 239.444 326.238 239.444H417.762C420.103 239.444 422 241.342 422 243.682V273.491C422 275.832 420.103 277.729 417.762 277.729H326.238C323.897 277.729 322 275.832 322 273.491V243.682Z" fill="white" shape-rendering="crispEdges"/>
<path d="M326.237 239.944H417.763C419.827 239.945 421.5 241.618 421.5 243.682V273.491C421.5 275.555 419.827 277.229 417.763 277.229H326.237C324.173 277.229 322.5 275.555 322.5 273.491V243.682C322.5 241.618 324.173 239.945 326.237 239.944Z" stroke="url(#paint6_linear_222_1120)" shape-rendering="crispEdges"/>
<path d="M344.207 257.197H342.878C342.827 256.913 342.732 256.663 342.592 256.447C342.453 256.232 342.283 256.048 342.081 255.898C341.879 255.747 341.653 255.634 341.403 255.557C341.156 255.48 340.893 255.442 340.615 255.442C340.112 255.442 339.662 255.568 339.264 255.821C338.869 256.074 338.557 256.445 338.327 256.933C338.099 257.422 337.986 258.018 337.986 258.723C337.986 259.433 338.099 260.033 338.327 260.521C338.557 261.01 338.871 261.379 339.268 261.629C339.666 261.879 340.114 262.004 340.611 262.004C340.886 262.004 341.148 261.967 341.395 261.893C341.645 261.817 341.871 261.705 342.072 261.557C342.274 261.409 342.445 261.229 342.584 261.016C342.726 260.8 342.824 260.553 342.878 260.274L344.207 260.278C344.136 260.707 343.999 261.102 343.794 261.463C343.592 261.821 343.332 262.131 343.014 262.392C342.699 262.651 342.338 262.851 341.932 262.993C341.526 263.135 341.082 263.206 340.602 263.206C339.847 263.206 339.173 263.027 338.582 262.669C337.991 262.308 337.526 261.793 337.185 261.122C336.847 260.452 336.678 259.652 336.678 258.723C336.678 257.791 336.848 256.991 337.189 256.324C337.53 255.653 337.996 255.139 338.587 254.781C339.178 254.42 339.849 254.24 340.602 254.24C341.065 254.24 341.497 254.307 341.898 254.44C342.301 254.571 342.663 254.764 342.984 255.02C343.305 255.273 343.571 255.582 343.781 255.949C343.991 256.313 344.134 256.729 344.207 257.197ZM346.955 259.2V263.087H345.681V254.359H346.938V257.607H347.019C347.172 257.254 347.407 256.974 347.722 256.767C348.037 256.56 348.449 256.456 348.958 256.456C349.407 256.456 349.799 256.548 350.134 256.733C350.472 256.918 350.733 257.193 350.918 257.56C351.105 257.923 351.199 258.378 351.199 258.923V263.087H349.925V259.077C349.925 258.597 349.801 258.224 349.554 257.96C349.307 257.693 348.963 257.56 348.523 257.56C348.222 257.56 347.952 257.624 347.713 257.751C347.478 257.879 347.292 258.067 347.155 258.314C347.022 258.558 346.955 258.854 346.955 259.2ZM354.804 263.232C354.39 263.232 354.015 263.155 353.679 263.001C353.344 262.845 353.078 262.619 352.882 262.324C352.689 262.028 352.593 261.666 352.593 261.237C352.593 260.868 352.664 260.564 352.806 260.325C352.948 260.087 353.14 259.898 353.381 259.759C353.623 259.619 353.892 259.514 354.191 259.443C354.489 259.372 354.793 259.318 355.103 259.281C355.495 259.236 355.813 259.199 356.057 259.17C356.301 259.139 356.479 259.09 356.59 259.021C356.701 258.953 356.756 258.842 356.756 258.689V258.659C356.756 258.287 356.651 257.999 356.441 257.794C356.233 257.59 355.924 257.487 355.512 257.487C355.083 257.487 354.745 257.582 354.498 257.773C354.253 257.96 354.084 258.169 353.99 258.399L352.793 258.126C352.935 257.729 353.142 257.408 353.415 257.163C353.691 256.916 354.007 256.737 354.365 256.626C354.723 256.513 355.1 256.456 355.495 256.456C355.756 256.456 356.033 256.487 356.326 256.55C356.621 256.609 356.897 256.72 357.152 256.882C357.411 257.044 357.623 257.276 357.787 257.577C357.952 257.875 358.034 258.263 358.034 258.74V263.087H356.79V262.192H356.739C356.657 262.357 356.533 262.518 356.368 262.678C356.203 262.837 355.992 262.969 355.733 263.074C355.475 263.179 355.165 263.232 354.804 263.232ZM355.081 262.209C355.434 262.209 355.735 262.139 355.985 262C356.238 261.861 356.429 261.679 356.56 261.455C356.694 261.227 356.76 260.984 356.76 260.726V259.882C356.715 259.928 356.627 259.97 356.496 260.01C356.368 260.047 356.222 260.08 356.057 260.108C355.892 260.134 355.732 260.158 355.576 260.18C355.419 260.2 355.289 260.217 355.184 260.232C354.936 260.263 354.711 260.315 354.506 260.389C354.304 260.463 354.142 260.57 354.02 260.709C353.901 260.845 353.841 261.027 353.841 261.254C353.841 261.57 353.958 261.808 354.191 261.97C354.424 262.129 354.721 262.209 355.081 262.209ZM361.006 259.2V263.087H359.732V256.541H360.955V257.607H361.036C361.186 257.26 361.422 256.982 361.743 256.771C362.067 256.561 362.474 256.456 362.966 256.456C363.412 256.456 363.803 256.55 364.138 256.737C364.473 256.922 364.733 257.197 364.918 257.564C365.102 257.93 365.195 258.384 365.195 258.923V263.087H363.92V259.077C363.92 258.602 363.797 258.232 363.55 257.965C363.303 257.695 362.963 257.56 362.531 257.56C362.236 257.56 361.973 257.624 361.743 257.751C361.516 257.879 361.335 258.067 361.202 258.314C361.071 258.558 361.006 258.854 361.006 259.2ZM368.808 263.232C368.393 263.232 368.018 263.155 367.683 263.001C367.348 262.845 367.082 262.619 366.886 262.324C366.693 262.028 366.597 261.666 366.597 261.237C366.597 260.868 366.668 260.564 366.81 260.325C366.952 260.087 367.143 259.898 367.385 259.759C367.626 259.619 367.896 259.514 368.195 259.443C368.493 259.372 368.797 259.318 369.107 259.281C369.499 259.236 369.817 259.199 370.061 259.17C370.305 259.139 370.483 259.09 370.594 259.021C370.705 258.953 370.76 258.842 370.76 258.689V258.659C370.76 258.287 370.655 257.999 370.445 257.794C370.237 257.59 369.928 257.487 369.516 257.487C369.087 257.487 368.749 257.582 368.501 257.773C368.257 257.96 368.088 258.169 367.994 258.399L366.797 258.126C366.939 257.729 367.146 257.408 367.419 257.163C367.695 256.916 368.011 256.737 368.369 256.626C368.727 256.513 369.104 256.456 369.499 256.456C369.76 256.456 370.037 256.487 370.33 256.55C370.625 256.609 370.901 256.72 371.156 256.882C371.415 257.044 371.626 257.276 371.791 257.577C371.956 257.875 372.038 258.263 372.038 258.74V263.087H370.794V262.192H370.743C370.661 262.357 370.537 262.518 370.372 262.678C370.207 262.837 369.996 262.969 369.737 263.074C369.479 263.179 369.169 263.232 368.808 263.232ZM369.085 262.209C369.438 262.209 369.739 262.139 369.989 262C370.241 261.861 370.433 261.679 370.564 261.455C370.697 261.227 370.764 260.984 370.764 260.726V259.882C370.719 259.928 370.631 259.97 370.5 260.01C370.372 260.047 370.226 260.08 370.061 260.108C369.896 260.134 369.736 260.158 369.58 260.18C369.423 260.2 369.293 260.217 369.188 260.232C368.94 260.263 368.714 260.315 368.51 260.389C368.308 260.463 368.146 260.57 368.024 260.709C367.905 260.845 367.845 261.027 367.845 261.254C367.845 261.57 367.962 261.808 368.195 261.97C368.428 262.129 368.724 262.209 369.085 262.209ZM374.907 260.866L374.899 259.311H375.12L377.728 256.541H379.254L376.279 259.695H376.079L374.907 260.866ZM373.735 263.087V254.359H375.01V263.087H373.735ZM377.869 263.087L375.525 259.976L376.403 259.085L379.433 263.087H377.869ZM381.256 265.541C381.065 265.541 380.892 265.526 380.736 265.494C380.58 265.466 380.463 265.435 380.386 265.401L380.693 264.357C380.926 264.419 381.134 264.446 381.315 264.438C381.497 264.429 381.658 264.361 381.797 264.233C381.939 264.105 382.064 263.896 382.172 263.607L382.33 263.172L379.935 256.541H381.298L382.956 261.621H383.024L384.682 256.541H386.05L383.352 263.96C383.227 264.301 383.068 264.59 382.875 264.825C382.682 265.064 382.452 265.243 382.185 265.362C381.918 265.482 381.608 265.541 381.256 265.541ZM388.964 263.232C388.55 263.232 388.175 263.155 387.839 263.001C387.504 262.845 387.239 262.619 387.043 262.324C386.849 262.028 386.753 261.666 386.753 261.237C386.753 260.868 386.824 260.564 386.966 260.325C387.108 260.087 387.3 259.898 387.541 259.759C387.783 259.619 388.053 259.514 388.351 259.443C388.649 259.372 388.953 259.318 389.263 259.281C389.655 259.236 389.973 259.199 390.217 259.17C390.462 259.139 390.639 259.09 390.75 259.021C390.861 258.953 390.916 258.842 390.916 258.689V258.659C390.916 258.287 390.811 257.999 390.601 257.794C390.393 257.59 390.084 257.487 389.672 257.487C389.243 257.487 388.905 257.582 388.658 257.773C388.413 257.96 388.244 258.169 388.151 258.399L386.953 258.126C387.095 257.729 387.303 257.408 387.575 257.163C387.851 256.916 388.168 256.737 388.526 256.626C388.884 256.513 389.26 256.456 389.655 256.456C389.916 256.456 390.193 256.487 390.486 256.55C390.781 256.609 391.057 256.72 391.312 256.882C391.571 257.044 391.783 257.276 391.947 257.577C392.112 257.875 392.195 258.263 392.195 258.74V263.087H390.95V262.192H390.899C390.817 262.357 390.693 262.518 390.528 262.678C390.364 262.837 390.152 262.969 389.893 263.074C389.635 263.179 389.325 263.232 388.964 263.232ZM389.241 262.209C389.594 262.209 389.895 262.139 390.145 262C390.398 261.861 390.589 261.679 390.72 261.455C390.854 261.227 390.92 260.984 390.92 260.726V259.882C390.875 259.928 390.787 259.97 390.656 260.01C390.528 260.047 390.382 260.08 390.217 260.108C390.053 260.134 389.892 260.158 389.736 260.18C389.58 260.2 389.449 260.217 389.344 260.232C389.097 260.263 388.871 260.315 388.666 260.389C388.464 260.463 388.303 260.57 388.18 260.709C388.061 260.845 388.001 261.027 388.001 261.254C388.001 261.57 388.118 261.808 388.351 261.97C388.584 262.129 388.881 262.209 389.241 262.209ZM397.907 263.087H396.509L399.65 254.359H401.171L404.312 263.087H402.914L400.447 255.945H400.379L397.907 263.087ZM398.141 259.669H402.675V260.777H398.141V259.669ZM406.889 254.359V263.087H405.572V254.359H406.889Z" fill="black"/>
</g>
<g filter="url(#filter6_di_222_1120)">
<path d="M2 284.682C2 282.342 3.89729 280.444 6.23771 280.444H158.762C161.103 280.444 163 282.342 163 284.682V314.491C163 316.832 161.103 318.729 158.762 318.729H6.23772C3.8973 318.729 2 316.832 2 314.491V284.682Z" fill="white" shape-rendering="crispEdges"/>
<path d="M6.2373 280.944H158.763C160.827 280.945 162.5 282.618 162.5 284.682V314.491C162.5 316.555 160.827 318.229 158.763 318.229H6.2373C4.17321 318.229 2.5 316.555 2.5 314.491V284.682C2.50022 282.618 4.17335 280.945 6.2373 280.944Z" stroke="url(#paint7_linear_222_1120)" shape-rendering="crispEdges"/>
<path d="M19.7841 304.087H16.9588V295.359H19.8736C20.7287 295.359 21.4631 295.534 22.0767 295.884C22.6903 296.23 23.1605 296.729 23.4872 297.379C23.8168 298.027 23.9815 298.804 23.9815 299.71C23.9815 300.619 23.8153 301.401 23.483 302.054C23.1534 302.707 22.6761 303.21 22.0511 303.563C21.4261 303.912 20.6705 304.087 19.7841 304.087ZM18.2756 302.936H19.7116C20.3764 302.936 20.929 302.811 21.3693 302.561C21.8097 302.308 22.1392 301.943 22.358 301.466C22.5767 300.986 22.6861 300.401 22.6861 299.71C22.6861 299.026 22.5767 298.445 22.358 297.967C22.142 297.49 21.8196 297.128 21.3906 296.881C20.9616 296.634 20.429 296.51 19.7926 296.51H18.2756V302.936ZM27.4215 304.232C27.0067 304.232 26.6317 304.155 26.2965 304.001C25.9613 303.845 25.6957 303.619 25.4996 303.324C25.3065 303.028 25.2099 302.666 25.2099 302.237C25.2099 301.868 25.2809 301.564 25.4229 301.325C25.565 301.087 25.7567 300.898 25.9982 300.759C26.2397 300.619 26.5096 300.514 26.8079 300.443C27.1062 300.372 27.4102 300.318 27.7198 300.281C28.1119 300.236 28.43 300.199 28.6744 300.17C28.9187 300.139 29.0962 300.09 29.207 300.021C29.3178 299.953 29.3732 299.842 29.3732 299.689V299.659C29.3732 299.287 29.2681 298.999 29.0579 298.794C28.8505 298.59 28.5408 298.487 28.1289 298.487C27.6999 298.487 27.3619 298.582 27.1147 298.773C26.8704 298.96 26.7013 299.169 26.6076 299.399L25.4102 299.126C25.5522 298.729 25.7596 298.408 26.0323 298.163C26.3079 297.916 26.6246 297.737 26.9826 297.626C27.3406 297.513 27.717 297.456 28.1119 297.456C28.3732 297.456 28.6502 297.487 28.9428 297.55C29.2383 297.609 29.5138 297.72 29.7695 297.882C30.0281 298.044 30.2397 298.276 30.4045 298.577C30.5692 298.875 30.6516 299.263 30.6516 299.74V304.087H29.4073V303.192H29.3562C29.2738 303.357 29.1502 303.518 28.9854 303.678C28.8207 303.837 28.609 303.969 28.3505 304.074C28.092 304.179 27.7823 304.232 27.4215 304.232ZM27.6985 303.209C28.0508 303.209 28.3519 303.139 28.6019 303C28.8548 302.861 29.0465 302.679 29.1772 302.455C29.3107 302.227 29.3775 301.984 29.3775 301.726V300.882C29.332 300.928 29.244 300.97 29.1133 301.01C28.9854 301.047 28.8391 301.08 28.6744 301.108C28.5096 301.134 28.3491 301.158 28.1928 301.18C28.0366 301.2 27.9059 301.217 27.8008 301.232C27.5536 301.263 27.3278 301.315 27.1232 301.389C26.9215 301.463 26.7596 301.57 26.6374 301.709C26.5181 301.845 26.4585 302.027 26.4585 302.254C26.4585 302.57 26.5749 302.808 26.8079 302.97C27.0408 303.129 27.3377 303.209 27.6985 303.209ZM35.4041 297.541V298.564H31.8288V297.541H35.4041ZM32.7876 295.973H34.0618V302.165C34.0618 302.412 34.0987 302.598 34.1726 302.723C34.2464 302.845 34.3416 302.929 34.4581 302.974C34.5774 303.017 34.7067 303.038 34.8459 303.038C34.9482 303.038 35.0376 303.031 35.1143 303.017C35.1911 303.003 35.2507 302.991 35.2933 302.983L35.5234 304.036C35.4496 304.064 35.3445 304.092 35.2081 304.121C35.0717 304.152 34.9013 304.169 34.6967 304.172C34.3615 304.178 34.049 304.118 33.7592 303.993C33.4695 303.868 33.2351 303.675 33.0561 303.413C32.8771 303.152 32.7876 302.824 32.7876 302.429V295.973ZM38.7184 304.232C38.3036 304.232 37.9286 304.155 37.5934 304.001C37.2582 303.845 36.9925 303.619 36.7965 303.324C36.6033 303.028 36.5067 302.666 36.5067 302.237C36.5067 301.868 36.5778 301.564 36.7198 301.325C36.8619 301.087 37.0536 300.898 37.2951 300.759C37.5366 300.619 37.8065 300.514 38.1048 300.443C38.4031 300.372 38.707 300.318 39.0167 300.281C39.4087 300.236 39.7269 300.199 39.9712 300.17C40.2156 300.139 40.3931 300.09 40.5039 300.021C40.6147 299.953 40.6701 299.842 40.6701 299.689V299.659C40.6701 299.287 40.565 298.999 40.3548 298.794C40.1474 298.59 39.8377 298.487 39.4258 298.487C38.9968 298.487 38.6587 298.582 38.4116 298.773C38.1673 298.96 37.9982 299.169 37.9045 299.399L36.707 299.126C36.8491 298.729 37.0565 298.408 37.3292 298.163C37.6048 297.916 37.9215 297.737 38.2795 297.626C38.6374 297.513 39.0138 297.456 39.4087 297.456C39.6701 297.456 39.9471 297.487 40.2397 297.55C40.5352 297.609 40.8107 297.72 41.0664 297.882C41.3249 298.044 41.5366 298.276 41.7013 298.577C41.8661 298.875 41.9485 299.263 41.9485 299.74V304.087H40.7042V303.192H40.6531C40.5707 303.357 40.4471 303.518 40.2823 303.678C40.1175 303.837 39.9059 303.969 39.6474 304.074C39.3888 304.179 39.0792 304.232 38.7184 304.232ZM38.9954 303.209C39.3477 303.209 39.6488 303.139 39.8988 303C40.1516 302.861 40.3434 302.679 40.4741 302.455C40.6076 302.227 40.6744 301.984 40.6744 301.726V300.882C40.6289 300.928 40.5408 300.97 40.4102 301.01C40.2823 301.047 40.136 301.08 39.9712 301.108C39.8065 301.134 39.646 301.158 39.4897 301.18C39.3335 301.2 39.2028 301.217 39.0977 301.232C38.8505 301.263 38.6246 301.315 38.4201 301.389C38.2184 301.463 38.0565 301.57 37.9343 301.709C37.815 301.845 37.7553 302.027 37.7553 302.254C37.7553 302.57 37.8718 302.808 38.1048 302.97C38.3377 303.129 38.6346 303.209 38.9954 303.209ZM47.5021 299.847V300.95H43.6328V299.847H47.5021ZM52.0213 304.219C51.3764 304.219 50.821 304.081 50.3551 303.805C49.892 303.527 49.5341 303.136 49.2812 302.634C49.0312 302.128 48.9062 301.536 48.9062 300.857C48.9062 300.186 49.0312 299.595 49.2812 299.084C49.5341 298.572 49.8864 298.173 50.3381 297.886C50.7926 297.599 51.3239 297.456 51.9318 297.456C52.3011 297.456 52.6591 297.517 53.0057 297.639C53.3523 297.761 53.6634 297.953 53.9389 298.215C54.2145 298.476 54.4318 298.815 54.5909 299.233C54.75 299.648 54.8295 300.152 54.8295 300.746V301.197H49.6264V300.243H53.581C53.581 299.908 53.5128 299.611 53.3764 299.352C53.2401 299.091 53.0483 298.885 52.8011 298.734C52.5568 298.584 52.2699 298.509 51.9403 298.509C51.5824 298.509 51.2699 298.597 51.0028 298.773C50.7386 298.946 50.5341 299.173 50.3892 299.455C50.2472 299.733 50.1761 300.036 50.1761 300.362V301.108C50.1761 301.545 50.2528 301.918 50.4062 302.224C50.5625 302.531 50.7798 302.766 51.0582 302.928C51.3366 303.087 51.6619 303.166 52.0341 303.166C52.2756 303.166 52.4957 303.132 52.6946 303.064C52.8935 302.993 53.0653 302.888 53.2102 302.749C53.3551 302.609 53.4659 302.438 53.5426 302.233L54.7486 302.45C54.652 302.805 54.4787 303.116 54.2287 303.384C53.9815 303.648 53.6705 303.854 53.2955 304.001C52.9233 304.146 52.4986 304.219 52.0213 304.219ZM57.5174 300.2V304.087H56.2433V297.541H57.4663V298.607H57.5472C57.6978 298.26 57.9336 297.982 58.2546 297.771C58.5785 297.561 58.9862 297.456 59.4776 297.456C59.9237 297.456 60.3143 297.55 60.6495 297.737C60.9847 297.922 61.2447 298.197 61.4293 298.564C61.614 298.93 61.7063 299.384 61.7063 299.923V304.087H60.4322V300.077C60.4322 299.602 60.3086 299.232 60.0614 298.965C59.8143 298.695 59.4748 298.56 59.043 298.56C58.7475 298.56 58.4847 298.624 58.2546 298.751C58.0273 298.879 57.8469 299.067 57.7134 299.314C57.5827 299.558 57.5174 299.854 57.5174 300.2ZM66.4705 297.541V298.564H62.8952V297.541H66.4705ZM63.854 295.973H65.1282V302.165C65.1282 302.412 65.1651 302.598 65.239 302.723C65.3129 302.845 65.408 302.929 65.5245 302.974C65.6438 303.017 65.7731 303.038 65.9123 303.038C66.0146 303.038 66.104 303.031 66.1808 303.017C66.2575 303.003 66.3171 302.991 66.3597 302.983L66.5898 304.036C66.516 304.064 66.4109 304.092 66.2745 304.121C66.1381 304.152 65.9677 304.169 65.7631 304.172C65.4279 304.178 65.1154 304.118 64.8256 303.993C64.5359 303.868 64.3015 303.675 64.1225 303.413C63.9435 303.152 63.854 302.824 63.854 302.429V295.973ZM67.88 304.087V297.541H69.1115V298.581H69.1797C69.299 298.229 69.5092 297.952 69.8104 297.75C70.1143 297.545 70.4581 297.443 70.8416 297.443C70.9212 297.443 71.0149 297.446 71.1229 297.452C71.2337 297.457 71.3203 297.465 71.3828 297.473V298.692C71.3317 298.678 71.2408 298.662 71.1101 298.645C70.9794 298.625 70.8487 298.615 70.718 298.615C70.4169 298.615 70.1484 298.679 69.9126 298.807C69.6797 298.932 69.495 299.107 69.3587 299.331C69.2223 299.553 69.1541 299.805 69.1541 300.09V304.087H67.88ZM73.4901 306.541C73.2997 306.541 73.1264 306.526 72.9702 306.494C72.8139 306.466 72.6974 306.435 72.6207 306.401L72.9276 305.357C73.1605 305.419 73.3679 305.446 73.5497 305.438C73.7315 305.429 73.892 305.361 74.0312 305.233C74.1733 305.105 74.2983 304.896 74.4062 304.607L74.5639 304.172L72.169 297.541H73.5327L75.1903 302.621H75.2585L76.9162 297.541H78.2841L75.5866 304.96C75.4616 305.301 75.3026 305.59 75.1094 305.825C74.9162 306.064 74.6861 306.243 74.419 306.362C74.152 306.482 73.8423 306.541 73.4901 306.541ZM83.4968 304.087H82.0991L85.2397 295.359H86.761L89.9016 304.087H88.5039L86.0366 296.945H85.9684L83.4968 304.087ZM83.7312 300.669H88.2653V301.777H83.7312V300.669ZM95.206 301.372V297.541H96.4844V304.087H95.2315V302.953H95.1634C95.0128 303.303 94.7713 303.594 94.4389 303.827C94.1094 304.057 93.6989 304.172 93.2074 304.172C92.7869 304.172 92.4148 304.08 92.0909 303.895C91.7699 303.707 91.517 303.43 91.3324 303.064C91.1506 302.697 91.0597 302.244 91.0597 301.705V297.541H92.3338V301.551C92.3338 301.997 92.4574 302.352 92.7045 302.616C92.9517 302.881 93.2727 303.013 93.6676 303.013C93.9063 303.013 94.1435 302.953 94.3793 302.834C94.6179 302.715 94.8153 302.534 94.9716 302.293C95.1307 302.051 95.2088 301.744 95.206 301.372ZM101.252 297.541V298.564H97.6765V297.541H101.252ZM98.6353 295.973H99.9094V302.165C99.9094 302.412 99.9464 302.598 100.02 302.723C100.094 302.845 100.189 302.929 100.306 302.974C100.425 303.017 100.554 303.038 100.694 303.038C100.796 303.038 100.885 303.031 100.962 303.017C101.039 303.003 101.098 302.991 101.141 302.983L101.371 304.036C101.297 304.064 101.192 304.092 101.056 304.121C100.919 304.152 100.749 304.169 100.544 304.172C100.209 304.178 99.8967 304.118 99.6069 303.993C99.3171 303.868 99.0827 303.675 98.9038 303.413C98.7248 303.152 98.6353 302.824 98.6353 302.429V295.973ZM105.348 304.219C104.734 304.219 104.199 304.078 103.741 303.797C103.284 303.516 102.929 303.122 102.676 302.616C102.423 302.111 102.297 301.52 102.297 300.844C102.297 300.165 102.423 299.571 102.676 299.063C102.929 298.554 103.284 298.159 103.741 297.878C104.199 297.597 104.734 297.456 105.348 297.456C105.962 297.456 106.497 297.597 106.955 297.878C107.412 298.159 107.767 298.554 108.02 299.063C108.273 299.571 108.399 300.165 108.399 300.844C108.399 301.52 108.273 302.111 108.02 302.616C107.767 303.122 107.412 303.516 106.955 303.797C106.497 304.078 105.962 304.219 105.348 304.219ZM105.352 303.149C105.75 303.149 106.08 303.044 106.341 302.834C106.602 302.624 106.795 302.344 106.92 301.994C107.048 301.645 107.112 301.26 107.112 300.84C107.112 300.422 107.048 300.038 106.92 299.689C106.795 299.337 106.602 299.054 106.341 298.841C106.08 298.628 105.75 298.521 105.352 298.521C104.952 298.521 104.619 298.628 104.355 298.841C104.094 299.054 103.899 299.337 103.771 299.689C103.646 300.038 103.584 300.422 103.584 300.84C103.584 301.26 103.646 301.645 103.771 301.994C103.899 302.344 104.094 302.624 104.355 302.834C104.619 303.044 104.952 303.149 105.352 303.149ZM109.821 304.087V297.541H111.044V298.607H111.125C111.262 298.246 111.485 297.965 111.794 297.763C112.104 297.558 112.475 297.456 112.907 297.456C113.344 297.456 113.711 297.558 114.006 297.763C114.304 297.967 114.525 298.249 114.667 298.607H114.735C114.891 298.257 115.14 297.979 115.48 297.771C115.821 297.561 116.228 297.456 116.699 297.456C117.293 297.456 117.777 297.642 118.152 298.014C118.53 298.386 118.719 298.947 118.719 299.697V304.087H117.445V299.817C117.445 299.374 117.324 299.053 117.083 298.854C116.841 298.655 116.553 298.555 116.218 298.555C115.803 298.555 115.48 298.683 115.25 298.939C115.02 299.192 114.905 299.517 114.905 299.915V304.087H113.635V299.736C113.635 299.381 113.525 299.095 113.303 298.879C113.081 298.663 112.793 298.555 112.438 298.555C112.196 298.555 111.973 298.619 111.769 298.747C111.567 298.872 111.404 299.047 111.279 299.271C111.157 299.496 111.096 299.756 111.096 300.051V304.087H109.821ZM122.332 304.232C121.917 304.232 121.542 304.155 121.207 304.001C120.871 303.845 120.606 303.619 120.41 303.324C120.217 303.028 120.12 302.666 120.12 302.237C120.12 301.868 120.191 301.564 120.333 301.325C120.475 301.087 120.667 300.898 120.908 300.759C121.15 300.619 121.42 300.514 121.718 300.443C122.016 300.372 122.32 300.318 122.63 300.281C123.022 300.236 123.34 300.199 123.585 300.17C123.829 300.139 124.006 300.09 124.117 300.021C124.228 299.953 124.283 299.842 124.283 299.689V299.659C124.283 299.287 124.178 298.999 123.968 298.794C123.761 298.59 123.451 298.487 123.039 298.487C122.61 298.487 122.272 298.582 122.025 298.773C121.781 298.96 121.612 299.169 121.518 299.399L120.32 299.126C120.462 298.729 120.67 298.408 120.942 298.163C121.218 297.916 121.535 297.737 121.893 297.626C122.251 297.513 122.627 297.456 123.022 297.456C123.283 297.456 123.56 297.487 123.853 297.55C124.148 297.609 124.424 297.72 124.68 297.882C124.938 298.044 125.15 298.276 125.315 298.577C125.479 298.875 125.562 299.263 125.562 299.74V304.087H124.317V303.192H124.266C124.184 303.357 124.06 303.518 123.896 303.678C123.731 303.837 123.519 303.969 123.261 304.074C123.002 304.179 122.692 304.232 122.332 304.232ZM122.609 303.209C122.961 303.209 123.262 303.139 123.512 303C123.765 302.861 123.957 302.679 124.087 302.455C124.221 302.227 124.288 301.984 124.288 301.726V300.882C124.242 300.928 124.154 300.97 124.023 301.01C123.896 301.047 123.749 301.08 123.585 301.108C123.42 301.134 123.259 301.158 123.103 301.18C122.947 301.2 122.816 301.217 122.711 301.232C122.464 301.263 122.238 301.315 122.033 301.389C121.832 301.463 121.67 301.57 121.548 301.709C121.428 301.845 121.369 302.027 121.369 302.254C121.369 302.57 121.485 302.808 121.718 302.97C121.951 303.129 122.248 303.209 122.609 303.209ZM130.314 297.541V298.564H126.739V297.541H130.314ZM127.698 295.973H128.972V302.165C128.972 302.412 129.009 302.598 129.083 302.723C129.157 302.845 129.252 302.929 129.368 302.974C129.488 303.017 129.617 303.038 129.756 303.038C129.858 303.038 129.948 303.031 130.025 303.017C130.101 303.003 130.161 302.991 130.203 302.983L130.434 304.036C130.36 304.064 130.255 304.092 130.118 304.121C129.982 304.152 129.811 304.169 129.607 304.172C129.272 304.178 128.959 304.118 128.669 303.993C128.38 303.868 128.145 303.675 127.966 303.413C127.787 303.152 127.698 302.824 127.698 302.429V295.973ZM131.724 304.087V297.541H132.998V304.087H131.724ZM132.367 296.531C132.146 296.531 131.955 296.457 131.796 296.31C131.64 296.159 131.562 295.98 131.562 295.773C131.562 295.563 131.64 295.384 131.796 295.236C131.955 295.085 132.146 295.01 132.367 295.01C132.589 295.01 132.778 295.085 132.934 295.236C133.093 295.384 133.173 295.563 133.173 295.773C133.173 295.98 133.093 296.159 132.934 296.31C132.778 296.457 132.589 296.531 132.367 296.531ZM137.469 304.219C136.855 304.219 136.32 304.078 135.863 303.797C135.405 303.516 135.05 303.122 134.797 302.616C134.544 302.111 134.418 301.52 134.418 300.844C134.418 300.165 134.544 299.571 134.797 299.063C135.05 298.554 135.405 298.159 135.863 297.878C136.32 297.597 136.855 297.456 137.469 297.456C138.083 297.456 138.618 297.597 139.076 297.878C139.533 298.159 139.888 298.554 140.141 299.063C140.394 299.571 140.52 300.165 140.52 300.844C140.52 301.52 140.394 302.111 140.141 302.616C139.888 303.122 139.533 303.516 139.076 303.797C138.618 304.078 138.083 304.219 137.469 304.219ZM137.473 303.149C137.871 303.149 138.201 303.044 138.462 302.834C138.723 302.624 138.917 302.344 139.042 301.994C139.169 301.645 139.233 301.26 139.233 300.84C139.233 300.422 139.169 300.038 139.042 299.689C138.917 299.337 138.723 299.054 138.462 298.841C138.201 298.628 137.871 298.521 137.473 298.521C137.073 298.521 136.74 298.628 136.476 298.841C136.215 299.054 136.02 299.337 135.892 299.689C135.767 300.038 135.705 300.422 135.705 300.84C135.705 301.26 135.767 301.645 135.892 301.994C136.02 302.344 136.215 302.624 136.476 302.834C136.74 303.044 137.073 303.149 137.473 303.149ZM143.217 300.2V304.087H141.942V297.541H143.165V298.607H143.246C143.397 298.26 143.633 297.982 143.954 297.771C144.278 297.561 144.685 297.456 145.177 297.456C145.623 297.456 146.013 297.55 146.349 297.737C146.684 297.922 146.944 298.197 147.129 298.564C147.313 298.93 147.406 299.384 147.406 299.923V304.087H146.131V300.077C146.131 299.602 146.008 299.232 145.761 298.965C145.513 298.695 145.174 298.56 144.742 298.56C144.447 298.56 144.184 298.624 143.954 298.751C143.727 298.879 143.546 299.067 143.413 299.314C143.282 299.558 143.217 299.854 143.217 300.2Z" fill="black"/>
</g>
<g filter="url(#filter7_di_222_1120)">
<rect x="353" y="138.444" width="57.0653" height="48.9041" rx="4.23771" fill="white" shape-rendering="crispEdges"/>
<path d="M376.318 150.117L368.606 150.13C368.349 150.13 368.095 150.192 367.867 150.31C367.639 150.429 367.443 150.6 367.294 150.81C367.146 151.02 367.05 151.262 367.015 151.517C366.98 151.772 367.006 152.031 367.092 152.273L371.256 159.453C371.483 159.736 371.77 159.965 372.097 160.122C372.424 160.278 372.781 160.36 373.144 160.36H376.661C376.949 160.36 377.232 160.435 377.481 160.578C377.731 160.722 377.939 160.929 378.083 161.178C378.228 161.427 378.304 161.71 378.305 161.998C378.305 162.286 378.23 162.569 378.087 162.819L376.326 165.856C376.145 166.171 376.038 166.522 376.012 166.883C375.985 167.245 376.041 167.608 376.175 167.945L380.347 175.144C380.515 175.339 380.727 175.492 380.966 175.589C381.205 175.685 381.463 175.723 381.72 175.699C381.976 175.675 382.223 175.589 382.439 175.45C382.656 175.31 382.836 175.12 382.964 174.897L386.795 168.211L376.318 150.117Z" fill="#ED1A3B"/>
<path d="M392.022 159.139L386.784 150.101L376.317 150.118L386.803 168.211L392.022 159.139Z" fill="#F79F1F"/>
<path d="M394.445 150.087L386.795 150.099L392.033 159.138L395.852 152.496C395.993 152.251 396.066 151.973 396.065 151.69C396.064 151.407 395.988 151.129 395.846 150.884C395.703 150.64 395.498 150.438 395.253 150.298C395.007 150.158 394.728 150.085 394.445 150.087Z" fill="#FFC312"/>
</g>
<g filter="url(#filter8_di_222_1120)">
<rect x="34" y="156.444" width="77.1484" height="48.5416" rx="4.23771" fill="white" shape-rendering="crispEdges"/>
<g clip-path="url(#clip0_222_1120)">
<path d="M65.7051 181.625C66.2864 181.241 67.4983 179.763 67.5672 179.635C67.6362 179.507 67.8825 179.251 67.6263 178.995C67.3702 178.739 67.114 178.867 66.7889 179.054C66.4736 179.182 65.1239 180.207 64.6115 180.66C64.0992 181.044 62.8184 182.197 62.8184 182.197C62.8184 182.197 62.1091 182.778 62.3652 183.093C62.6214 183.409 62.8776 183.29 63.2027 183.162C63.5869 183.034 65.1337 182.01 65.7051 181.625ZM94.188 188.877C94.385 188.936 94.8284 189.074 94.8284 189.517C94.8284 189.517 94.3752 190.414 94.2471 190.483C94.05 190.542 93.7348 190.542 93.0944 190.286C92.454 190.029 89.3111 189.261 88.4737 189.064C87.6362 188.867 85.784 188.552 85.784 188.552C85.784 188.552 85.5278 188.423 85.1436 189.005C84.7594 189.645 83.5377 191.379 83.5377 191.379C83.4983 191.527 83.3702 191.635 83.2224 191.635C82.9663 191.635 82.0007 191.566 81.6165 191.379C81.2323 191.192 81.1042 191.182 81.3604 190.798C81.6165 190.414 82.454 188.68 82.8382 188.364C83.1535 188.049 82.582 188.108 82.385 188.049C82.1879 187.99 78.4736 187.793 77.38 187.852C76.2864 187.852 72.4441 187.852 71.0254 187.98C69.6165 188.039 64.6115 188.561 63.2618 188.749C61.912 189.005 56.5229 189.714 55.8233 189.901C55.1238 190.088 53.646 190.286 53.646 190.286C53.1534 190.394 52.6411 190.354 52.1682 190.157C51.4588 189.842 50.3061 189.389 51.2716 189.064C52.2371 188.739 57.045 187.783 58.5229 187.586C60.0007 187.33 64.6805 186.689 66.6017 186.62C68.5229 186.552 73.8529 186.236 75.8431 186.236C77.8333 186.236 80.5229 186.364 81.7446 186.492C82.8973 186.552 83.6658 186.62 83.9219 186.689C84.1781 186.758 84.1781 186.561 84.4343 186.305C84.6904 186.049 85.3998 185.084 85.3998 185.084C85.3998 185.084 85.6559 184.699 85.1436 185.024C84.6904 185.34 83.9219 185.34 83.5377 185.024C83.1535 184.64 83.0254 184.315 82.8283 184.443C82.4145 184.67 81.9909 184.867 81.5475 185.024C81.1633 185.152 79.4983 185.537 78.5328 184.896C77.5672 184.187 77.5081 183.931 77.38 183.616C77.252 183.172 77.183 183.172 76.8677 183.359C76.5426 183.547 75.4589 184.128 75.0057 184.325C74.6017 184.561 74.1288 184.65 73.6559 184.581C73.0155 184.522 72.3061 184.325 71.9909 183.813C71.7347 183.3 71.6756 182.916 71.3505 183.172C71.0254 183.428 69.2322 184.453 68.2766 184.709C67.3111 185.034 67.0549 185.093 66.5426 185.034C65.9613 184.975 65.3899 184.709 65.1928 184.394C64.9958 184.079 64.9367 184.01 64.6805 184.138C64.4244 184.335 63.715 184.847 63.2027 184.847C62.6904 184.788 61.3406 184.463 60.6411 183.113C59.9416 181.763 60.444 181.192 61.0943 180.483C61.7347 179.842 62.8874 178.818 62.8874 178.818C62.8874 178.818 64.3652 177.724 64.8086 177.537C65.3209 177.281 66.0894 176.827 66.6017 176.827C67.3012 176.739 68.0007 176.946 68.5327 177.409C69.2421 177.99 69.6855 178.561 69.7544 178.818C69.8234 179.074 70.1387 179.842 69.6263 180.423C69.114 181.005 67.6362 182.345 67.6362 182.345C67.6362 182.345 67.0549 182.67 67.3111 183.054C67.5672 183.438 68.5327 182.798 68.848 182.611C69.1633 182.354 70.8382 180.946 71.3505 180.492C71.8628 179.98 75.0746 176.837 75.3899 176.512C75.6461 176.187 78.3456 173.556 78.72 173.3C79.1042 173.044 79.2323 172.847 80.0007 172.985C80.4047 173.054 80.7889 173.182 81.1535 173.369C81.1535 173.369 81.9219 173.694 81.2815 174.138C80.7003 174.581 78.651 176.315 78.1387 176.827C77.6264 177.34 76.1485 178.818 75.7052 179.33C75.252 179.97 73.9712 181.576 73.784 181.832C73.5869 182.157 73.4589 182.473 73.784 182.729C74.1091 182.926 74.6805 182.729 75.2618 182.217C75.8431 181.704 77.6362 180.226 78.2175 179.586C78.8579 178.946 82.1978 175.803 82.5131 175.478C82.8382 175.221 84.3751 174 84.3751 174C84.3751 174 84.5722 173.744 85.0155 173.744C85.4589 173.744 85.9121 173.803 86.1682 173.941L86.9367 174.325C86.9367 174.325 87.252 174.453 86.7397 174.837C86.2274 175.221 83.4096 177.399 82.7003 178.236C81.9318 179.074 80.4539 180.739 79.8727 181.448C79.2914 182.217 78.9071 182.542 79.3604 183.054C79.8136 183.566 80.3259 183.438 80.582 183.379C81.2224 183.015 81.8037 182.561 82.316 182.029C82.9564 181.389 84.8776 179.271 85.1436 179.074C85.3407 178.818 86.1091 178.108 86.1091 178.108C86.1091 178.108 86.2372 177.793 86.6904 177.793C87.1436 177.793 87.3308 177.852 87.784 177.921C88.1683 177.98 89.0648 178.177 88.6215 178.689C88.1091 179.202 86.8875 180.483 86.6313 180.739C86.3751 181.054 85.3505 182.217 85.1535 182.532C84.9564 182.847 84.7003 183.241 84.9564 183.428C85.2126 183.616 85.9219 183.369 86.5623 182.975C87.449 182.502 88.2668 181.921 88.9958 181.241C89.8333 180.473 91.1732 179.251 91.1732 179.251C91.1732 179.251 91.4293 178.739 92.3949 178.936C93.3604 179.192 93.6165 179.251 93.6165 179.251C93.6165 179.251 94.385 179.448 93.8727 179.891C93.3604 180.335 91.6954 181.882 91.055 182.453C90.4146 183.093 88.4244 185.084 88.0993 185.468C87.7742 185.852 86.8185 186.749 87.2027 186.818C87.587 186.886 90.5426 187.399 91.183 187.596C91.6855 187.98 94.0008 188.749 94.188 188.877ZM61.0253 172.906C60.4539 172.827 59.8726 172.827 59.2913 172.906C58.3258 173.034 55.5081 173.29 54.9958 173.547C54.4834 173.803 54.0302 173.221 53.843 173.034C53.5869 172.837 53.0746 172.266 53.0746 172.266C53.0746 172.266 52.8184 171.941 53.2716 171.813C53.7839 171.684 56.6706 171.231 57.5672 171.103C58.4638 171.044 62.8283 170.778 64.05 170.778C65.2027 170.778 69.2421 171.034 70.3357 171.29C70.3357 171.29 70.5327 171.231 70.7889 171.744C70.9071 172.069 70.9761 172.423 70.9859 172.768C70.9859 172.768 71.183 173.152 70.4736 173.093C69.6362 173.034 68.4244 172.965 67.5869 172.896C66.7495 172.827 64.7692 172.699 64.4441 172.699C64.1879 172.699 64.0598 172.699 63.9317 172.955C63.7347 173.212 62.9662 174.236 62.779 174.492C62.5918 174.749 61.7544 175.842 61.045 176.808C60.3357 177.773 59.4391 178.985 58.6115 180.207C57.8431 181.487 57.1337 182.64 56.8184 183.162C56.6214 183.468 56.4539 183.793 56.3061 184.128C56.247 184.256 56.178 184.453 55.7938 184.453C55.4096 184.453 53.7445 184.394 53.7445 184.394C53.7445 184.394 53.0352 184.453 53.4884 183.685C53.9416 182.847 54.8972 181.251 55.2815 180.67C55.6657 180.029 57.7839 177.143 58.2273 176.63C58.5918 176.177 61.0253 172.906 61.0253 172.906Z" fill="#ED1C24"/>
<path d="M65.4468 180.987C66.0281 180.602 67.2498 179.125 67.3089 178.996C67.368 178.868 67.634 178.612 67.368 178.356C67.102 178.1 66.8557 178.228 66.5306 178.415C66.2153 178.543 64.8655 179.637 64.3532 180.021C63.8409 180.405 62.5601 181.558 62.5601 181.558C62.5601 181.558 61.8507 182.139 62.1168 182.455C62.3828 182.77 62.6291 182.652 62.9542 182.524C63.3286 182.396 64.8754 181.371 65.4468 180.987ZM63.7818 170.149H63.4665C61.9296 170.149 58.2054 170.405 57.368 170.474C56.4714 170.533 53.5847 171.056 53.0724 171.184C52.5601 171.312 52.8162 171.627 52.8162 171.627C52.8162 171.627 53.3286 172.208 53.5847 172.395C53.8409 172.593 54.2251 173.164 54.7374 172.908C55.3187 172.652 58.1365 172.395 59.033 172.267C59.6044 172.189 60.1857 172.189 60.767 172.267C60.767 172.267 58.3335 175.469 57.9493 176.051C57.565 176.563 55.4468 179.45 54.9936 180.09C54.6094 180.73 53.5847 182.336 53.1315 183.105C52.7473 183.873 53.4468 183.814 53.4468 183.814C53.4468 183.814 55.1118 183.873 55.4961 183.873C55.8113 183.873 55.8803 183.617 55.9493 183.489C56.097 183.154 56.2645 182.839 56.4616 182.524C56.7867 182.011 57.4862 180.859 58.2547 179.568C59.0232 178.277 59.9887 177.065 60.6882 176.1C61.3877 175.134 62.2251 174.051 62.4222 173.794C62.6192 173.538 63.3877 172.514 63.5749 172.258C63.7621 172.001 63.831 172.001 64.0872 172.001C64.4123 172.001 66.3926 172.129 67.2301 172.198C68.1266 172.267 69.3483 172.327 70.1168 172.395C70.8853 172.464 70.6291 172.07 70.6291 172.07C70.6586 171.735 70.5897 171.4 70.432 171.105C70.1759 170.593 69.9788 170.652 69.9788 170.652C68.9739 170.346 64.9345 170.149 63.7818 170.149ZM93.9296 188.238C94.1267 188.366 94.57 188.494 94.5109 188.878C94.5109 188.878 94.1267 189.775 93.9296 189.844C93.7326 189.913 93.4173 189.903 92.7769 189.647C92.1365 189.391 88.9937 188.622 88.1562 188.425C87.3878 188.297 85.5257 187.982 85.5257 187.982C85.5257 187.982 85.2695 187.854 84.8853 188.494C84.501 189.075 83.2794 190.868 83.2794 190.868C83.24 191.016 83.1119 191.125 82.9542 191.125C82.6981 191.125 81.7326 191.065 81.3483 190.868C80.9641 190.671 80.836 190.671 81.0922 190.287C81.3483 189.903 82.1858 188.169 82.57 187.854C82.9542 187.538 82.373 187.597 82.1858 187.538C81.9887 187.538 78.2744 187.282 77.1808 187.341C76.0872 187.341 72.2449 187.341 70.8261 187.469C69.4074 187.597 64.3434 188.051 63.0626 188.238C61.7128 188.435 56.3236 189.203 55.6241 189.391C54.9148 189.519 53.4468 189.775 53.4468 189.775C52.9542 189.883 52.4419 189.844 51.9689 189.647C51.2596 189.331 50.1069 188.878 51.0724 188.553C52.0379 188.228 56.8458 187.272 58.3236 187.075C59.8015 186.878 64.4813 186.179 66.4025 186.11C68.3237 185.982 73.6537 185.726 75.634 185.726C77.6242 185.726 80.3138 185.854 81.5355 185.982C82.6882 186.041 83.4567 186.11 83.7129 186.179C83.969 186.248 83.969 186.051 84.2252 185.795C84.4813 185.538 85.1907 184.573 85.1907 184.573C85.1907 184.573 85.4469 184.248 84.9345 184.514C84.4222 184.829 83.7129 184.829 83.3286 184.455C82.9444 184.07 82.8163 183.814 82.6193 183.873C82.4222 183.932 81.7227 184.317 81.3385 184.455C80.9542 184.593 79.3483 184.967 78.3828 184.258C77.4173 183.617 77.3582 183.292 77.2301 183.036C77.102 182.721 77.033 182.721 76.7178 182.908C76.3927 183.164 75.3089 183.676 74.8557 183.873C74.4419 184.1 73.9789 184.208 73.5059 184.189C72.8656 184.129 72.1562 183.932 71.8409 183.42C71.5256 182.908 71.5158 182.524 71.2005 182.78C70.8853 183.036 69.0823 184.061 68.1266 184.317C67.033 184.445 66.7769 184.573 66.2646 184.445C65.6833 184.317 65.1118 184.12 64.9148 183.804C64.7177 183.489 64.6586 183.42 64.4025 183.607C64.1463 183.795 63.437 184.317 62.9246 184.248C62.4123 184.179 61.0626 183.863 60.2941 182.514C59.5847 181.164 60.097 180.593 60.7374 179.952C61.3778 179.243 62.5995 178.287 62.5995 178.287C62.5995 178.287 64.0774 177.262 64.5207 177.006C65.033 176.75 65.8015 176.297 66.3138 176.297C66.8261 176.297 67.5355 176.297 68.235 176.878C68.9345 177.46 69.3286 178.031 69.4567 178.287C69.5158 178.484 69.8409 179.312 69.3286 179.893C68.8163 180.474 67.4074 181.814 67.4074 181.814C67.4074 181.814 66.8261 182.139 67.0823 182.583C67.3384 182.967 68.304 182.327 68.5601 182.07C68.8852 181.873 70.5503 180.405 71.0626 179.952C71.5749 179.44 74.7867 176.297 75.102 176.041C75.3582 175.716 78.0478 173.085 78.501 172.829C78.8853 172.573 79.0133 172.386 79.7818 172.514C80.1858 172.583 80.57 172.711 80.9345 172.898C80.9345 172.898 81.703 173.213 81.0626 173.666C80.4813 174.179 78.4321 175.844 77.9197 176.356C77.4074 176.868 75.9395 178.346 75.4961 178.859C74.9838 179.371 73.703 180.977 73.5059 181.292C73.3089 181.607 73.1808 181.932 73.5059 182.189C73.8311 182.445 74.4025 182.189 74.9838 181.676C75.5651 181.164 77.3582 179.686 77.9395 179.046C78.5207 178.405 81.9198 175.262 82.235 175.006C82.5503 174.75 84.0971 173.469 84.0971 173.469C84.0971 173.469 84.2942 173.213 84.7375 173.213C85.1809 173.213 85.6341 173.272 85.8902 173.41L86.6587 173.794C86.6587 173.794 86.9838 173.923 86.4616 174.307C85.9395 174.691 83.1217 176.868 82.3533 177.706C81.6439 178.543 80.1069 180.208 79.5355 180.908C78.9542 181.676 78.57 182.061 79.0232 182.514C79.4666 183.026 79.9887 182.898 80.2449 182.829C80.501 182.76 81.3976 182.12 81.9789 181.479C82.6193 180.839 84.5405 178.78 84.7966 178.524C84.9937 178.267 85.7621 177.558 85.7621 177.558C85.7621 177.558 85.8902 177.243 86.3434 177.243C86.7966 177.243 86.9838 177.302 87.437 177.371C87.8213 177.499 88.7178 177.627 88.2745 178.139C87.7621 178.652 86.5405 179.873 86.2843 180.189C86.0281 180.504 85.0035 181.666 84.8065 181.982C84.6094 182.297 84.3631 182.691 84.6094 182.878C84.8557 183.065 85.5749 182.819 86.2153 182.425C87.1217 181.962 87.9592 181.381 88.7178 180.691C89.5552 179.923 90.8951 178.701 90.8951 178.701C90.8951 178.701 91.0922 178.189 92.1168 178.386C93.0824 178.583 93.3385 178.701 93.3385 178.701C93.3385 178.701 94.107 178.898 93.5947 179.341C93.0824 179.785 91.4173 181.262 90.7671 181.903C90.1267 182.484 88.1365 184.533 87.8114 184.918C87.4863 185.302 86.5306 186.198 86.9148 186.267C87.2991 186.336 90.2449 186.908 90.8951 187.105C91.4863 187.331 93.7326 188.169 93.9296 188.238Z" fill="black"/>
</g>
</g>
<g filter="url(#filter9_di_222_1120)">
<rect x="238" y="306.444" width="62.943" height="58.2278" rx="4.23771" fill="white" shape-rendering="crispEdges"/>
<g clip-path="url(#clip1_222_1120)">
<path d="M269.472 353.03C259.824 353.03 252 345.206 252 335.558C252 325.91 259.824 318.087 269.472 318.087C279.119 318.087 286.943 325.91 286.943 335.558C286.943 345.206 279.119 353.03 269.472 353.03Z" fill="#25D366"/>
<path fill-rule="evenodd" clip-rule="evenodd" d="M277.638 327.424C275.472 325.254 272.586 324.059 269.514 324.055C263.186 324.055 258.032 329.206 258.032 335.538C258.032 337.561 258.559 339.539 259.566 341.279L257.938 347.23L264.025 345.633C265.702 346.548 267.589 347.03 269.511 347.03H269.514C275.842 347.03 280.993 341.88 280.996 335.548C281 332.48 279.808 329.594 277.638 327.424ZM269.518 345.091H269.514C267.802 345.091 266.121 344.63 264.657 343.76L264.308 343.554L260.695 344.501L261.659 340.978L261.432 340.618C260.478 339.098 259.971 337.344 259.971 335.538C259.975 330.275 264.255 325.995 269.521 325.995C272.072 325.995 274.466 326.991 276.269 328.794C278.072 330.597 279.064 332.997 279.061 335.545C279.061 340.811 274.777 345.091 269.518 345.091ZM274.752 337.942C274.466 337.799 273.054 337.103 272.792 337.009C272.53 336.914 272.338 336.866 272.145 337.152C271.953 337.439 271.405 338.085 271.237 338.277C271.069 338.469 270.901 338.494 270.615 338.351C270.328 338.207 269.402 337.903 268.309 336.925C267.456 336.163 266.879 335.223 266.712 334.937C266.544 334.65 266.694 334.493 266.837 334.35C266.967 334.22 267.124 334.014 267.267 333.846C267.411 333.679 267.459 333.56 267.554 333.368C267.648 333.176 267.603 333.008 267.529 332.865C267.456 332.721 266.883 331.31 266.645 330.733C266.411 330.174 266.177 330.251 265.999 330.24C265.831 330.233 265.639 330.23 265.45 330.23C265.258 330.23 264.947 330.303 264.685 330.59C264.423 330.876 263.682 331.572 263.682 332.983C263.682 334.395 264.709 335.761 264.853 335.95C264.996 336.142 266.876 339.039 269.755 340.283C270.44 340.58 270.975 340.755 271.391 340.887C272.079 341.108 272.704 341.076 273.197 341.003C273.749 340.919 274.895 340.307 275.133 339.64C275.371 338.969 275.371 338.396 275.301 338.277C275.231 338.158 275.039 338.089 274.752 337.942Z" fill="white"/>
</g>
</g>
<defs>
<filter id="filter0_i_222_1120" x="59" y="14.4443" width="336" height="336" filterUnits="userSpaceOnUse" color-interpolation-filters="sRGB">
<feFlood flood-opacity="0" result="BackgroundImageFix"/>
<feBlend mode="normal" in="SourceGraphic" in2="BackgroundImageFix" result="shape"/>
<feColorMatrix in="SourceAlpha" type="matrix" values="0 0 0 0 0 0 0 0 0 0 0 0 0 0 0 0 0 0 127 0" result="hardAlpha"/>
<feOffset/>
<feGaussianBlur stdDeviation="2"/>
<feComposite in2="hardAlpha" operator="arithmetic" k2="-1" k3="1"/>
<feColorMatrix type="matrix" values="0 0 0 0 0 0 0 0 0 0 0 0 0 0 0 0 0 0 0.08 0"/>
<feBlend mode="normal" in2="shape" result="effect1_innerShadow_222_1120"/>
</filter>
<filter id="filter1_i_222_1120" x="119" y="74.4443" width="216" height="216" filterUnits="userSpaceOnUse" color-interpolation-filters="sRGB">
<feFlood flood-opacity="0" result="BackgroundImageFix"/>
<feBlend mode="normal" in="SourceGraphic" in2="BackgroundImageFix" result="shape"/>
<feColorMatrix in="SourceAlpha" type="matrix" values="0 0 0 0 0 0 0 0 0 0 0 0 0 0 0 0 0 0 127 0" result="hardAlpha"/>
<feOffset/>
<feGaussianBlur stdDeviation="2"/>
<feComposite in2="hardAlpha" operator="arithmetic" k2="-1" k3="1"/>
<feColorMatrix type="matrix" values="0 0 0 0 0 0 0 0 0 0 0 0 0 0 0 0 0 0 0.08 0"/>
<feBlend mode="normal" in2="shape" result="effect1_innerShadow_222_1120"/>
</filter>
<filter id="filter2_di_222_1120" x="178.263" y="135.21" width="105.256" height="105.256" filterUnits="userSpaceOnUse" color-interpolation-filters="sRGB">
<feFlood flood-opacity="0" result="BackgroundImageFix"/>
<feColorMatrix in="SourceAlpha" type="matrix" values="0 0 0 0 0 0 0 0 0 0 0 0 0 0 0 0 0 0 127 0" result="hardAlpha"/>
<feOffset dx="2.5061" dy="5.01219"/>
<feGaussianBlur stdDeviation="2.5061"/>
<feComposite in2="hardAlpha" operator="out"/>
<feColorMatrix type="matrix" values="0 0 0 0 0 0 0 0 0 0 0 0 0 0 0 0 0 0 0.08 0"/>
<feBlend mode="normal" in2="BackgroundImageFix" result="effect1_dropShadow_222_1120"/>
<feBlend mode="normal" in="SourceGraphic" in2="effect1_dropShadow_222_1120" result="shape"/>
<feColorMatrix in="SourceAlpha" type="matrix" values="0 0 0 0 0 0 0 0 0 0 0 0 0 0 0 0 0 0 127 0" result="hardAlpha"/>
<feOffset/>
<feGaussianBlur stdDeviation="1.25305"/>
<feComposite in2="hardAlpha" operator="arithmetic" k2="-1" k3="1"/>
<feColorMatrix type="matrix" values="0 0 0 0 0 0 0 0 0 0 0 0 0 0 0 0 0 0 0.25 0"/>
<feBlend mode="normal" in2="shape" result="effect2_innerShadow_222_1120"/>
</filter>
<filter id="filter3_di_222_1120" x="240.941" y="40.4443" width="159.238" height="42.5224" filterUnits="userSpaceOnUse" color-interpolation-filters="sRGB">
<feFlood flood-opacity="0" result="BackgroundImageFix"/>
<feColorMatrix in="SourceAlpha" type="matrix" values="0 0 0 0 0 0 0 0 0 0 0 0 0 0 0 0 0 0 127 0" result="hardAlpha"/>
<feOffset dx="1.05943" dy="2.11886"/>
<feGaussianBlur stdDeviation="1.05943"/>
<feComposite in2="hardAlpha" operator="out"/>
<feColorMatrix type="matrix" values="0 0 0 0 0 0 0 0 0 0 0 0 0 0 0 0 0 0 0.08 0"/>
<feBlend mode="normal" in2="BackgroundImageFix" result="effect1_dropShadow_222_1120"/>
<feBlend mode="normal" in="SourceGraphic" in2="effect1_dropShadow_222_1120" result="shape"/>
<feColorMatrix in="SourceAlpha" type="matrix" values="0 0 0 0 0 0 0 0 0 0 0 0 0 0 0 0 0 0 127 0" result="hardAlpha"/>
<feOffset/>
<feGaussianBlur stdDeviation="0.529714"/>
<feComposite in2="hardAlpha" operator="arithmetic" k2="-1" k3="1"/>
<feColorMatrix type="matrix" values="0 0 0 0 0 0 0 0 0 0 0 0 0 0 0 0 0 0 0.25 0"/>
<feBlend mode="normal" in2="shape" result="effect2_innerShadow_222_1120"/>
</filter>
<filter id="filter4_di_222_1120" x="40.9406" y="62.4443" width="125.238" height="42.5224" filterUnits="userSpaceOnUse" color-interpolation-filters="sRGB">
<feFlood flood-opacity="0" result="BackgroundImageFix"/>
<feColorMatrix in="SourceAlpha" type="matrix" values="0 0 0 0 0 0 0 0 0 0 0 0 0 0 0 0 0 0 127 0" result="hardAlpha"/>
<feOffset dx="1.05943" dy="2.11886"/>
<feGaussianBlur stdDeviation="1.05943"/>
<feComposite in2="hardAlpha" operator="out"/>
<feColorMatrix type="matrix" values="0 0 0 0 0 0 0 0 0 0 0 0 0 0 0 0 0 0 0.08 0"/>
<feBlend mode="normal" in2="BackgroundImageFix" result="effect1_dropShadow_222_1120"/>
<feBlend mode="normal" in="SourceGraphic" in2="effect1_dropShadow_222_1120" result="shape"/>
<feColorMatrix in="SourceAlpha" type="matrix" values="0 0 0 0 0 0 0 0 0 0 0 0 0 0 0 0 0 0 127 0" result="hardAlpha"/>
<feOffset/>
<feGaussianBlur stdDeviation="0.529714"/>
<feComposite in2="hardAlpha" operator="arithmetic" k2="-1" k3="1"/>
<feColorMatrix type="matrix" values="0 0 0 0 0 0 0 0 0 0 0 0 0 0 0 0 0 0 0.25 0"/>
<feBlend mode="normal" in2="shape" result="effect2_innerShadow_222_1120"/>
</filter>
<filter id="filter5_di_222_1120" x="320.941" y="239.444" width="104.238" height="42.5224" filterUnits="userSpaceOnUse" color-interpolation-filters="sRGB">
<feFlood flood-opacity="0" result="BackgroundImageFix"/>
<feColorMatrix in="SourceAlpha" type="matrix" values="0 0 0 0 0 0 0 0 0 0 0 0 0 0 0 0 0 0 127 0" result="hardAlpha"/>
<feOffset dx="1.05943" dy="2.11886"/>
<feGaussianBlur stdDeviation="1.05943"/>
<feComposite in2="hardAlpha" operator="out"/>
<feColorMatrix type="matrix" values="0 0 0 0 0 0 0 0 0 0 0 0 0 0 0 0 0 0 0.08 0"/>
<feBlend mode="normal" in2="BackgroundImageFix" result="effect1_dropShadow_222_1120"/>
<feBlend mode="normal" in="SourceGraphic" in2="effect1_dropShadow_222_1120" result="shape"/>
<feColorMatrix in="SourceAlpha" type="matrix" values="0 0 0 0 0 0 0 0 0 0 0 0 0 0 0 0 0 0 127 0" result="hardAlpha"/>
<feOffset/>
<feGaussianBlur stdDeviation="0.529714"/>
<feComposite in2="hardAlpha" operator="arithmetic" k2="-1" k3="1"/>
<feColorMatrix type="matrix" values="0 0 0 0 0 0 0 0 0 0 0 0 0 0 0 0 0 0 0.25 0"/>
<feBlend mode="normal" in2="shape" result="effect2_innerShadow_222_1120"/>
</filter>
<filter id="filter6_di_222_1120" x="0.940572" y="280.444" width="165.238" height="42.5224" filterUnits="userSpaceOnUse" color-interpolation-filters="sRGB">
<feFlood flood-opacity="0" result="BackgroundImageFix"/>
<feColorMatrix in="SourceAlpha" type="matrix" values="0 0 0 0 0 0 0 0 0 0 0 0 0 0 0 0 0 0 127 0" result="hardAlpha"/>
<feOffset dx="1.05943" dy="2.11886"/>
<feGaussianBlur stdDeviation="1.05943"/>
<feComposite in2="hardAlpha" operator="out"/>
<feColorMatrix type="matrix" values="0 0 0 0 0 0 0 0 0 0 0 0 0 0 0 0 0 0 0.08 0"/>
<feBlend mode="normal" in2="BackgroundImageFix" result="effect1_dropShadow_222_1120"/>
<feBlend mode="normal" in="SourceGraphic" in2="effect1_dropShadow_222_1120" result="shape"/>
<feColorMatrix in="SourceAlpha" type="matrix" values="0 0 0 0 0 0 0 0 0 0 0 0 0 0 0 0 0 0 127 0" result="hardAlpha"/>
<feOffset/>
<feGaussianBlur stdDeviation="0.529714"/>
<feComposite in2="hardAlpha" operator="arithmetic" k2="-1" k3="1"/>
<feColorMatrix type="matrix" values="0 0 0 0 0 0 0 0 0 0 0 0 0 0 0 0 0 0 0.25 0"/>
<feBlend mode="normal" in2="shape" result="effect2_innerShadow_222_1120"/>
</filter>
<filter id="filter7_di_222_1120" x="351.941" y="138.444" width="61.3031" height="53.1418" filterUnits="userSpaceOnUse" color-interpolation-filters="sRGB">
<feFlood flood-opacity="0" result="BackgroundImageFix"/>
<feColorMatrix in="SourceAlpha" type="matrix" values="0 0 0 0 0 0 0 0 0 0 0 0 0 0 0 0 0 0 127 0" result="hardAlpha"/>
<feOffset dx="1.05943" dy="2.11886"/>
<feGaussianBlur stdDeviation="1.05943"/>
<feComposite in2="hardAlpha" operator="out"/>
<feColorMatrix type="matrix" values="0 0 0 0 0 0 0 0 0 0 0 0 0 0 0 0 0 0 0.08 0"/>
<feBlend mode="normal" in2="BackgroundImageFix" result="effect1_dropShadow_222_1120"/>
<feBlend mode="normal" in="SourceGraphic" in2="effect1_dropShadow_222_1120" result="shape"/>
<feColorMatrix in="SourceAlpha" type="matrix" values="0 0 0 0 0 0 0 0 0 0 0 0 0 0 0 0 0 0 127 0" result="hardAlpha"/>
<feOffset/>
<feGaussianBlur stdDeviation="0.529714"/>
<feComposite in2="hardAlpha" operator="arithmetic" k2="-1" k3="1"/>
<feColorMatrix type="matrix" values="0 0 0 0 0 0 0 0 0 0 0 0 0 0 0 0 0 0 0.25 0"/>
<feBlend mode="normal" in2="shape" result="effect2_innerShadow_222_1120"/>
</filter>
<filter id="filter8_di_222_1120" x="32.9406" y="156.444" width="81.3861" height="52.7792" filterUnits="userSpaceOnUse" color-interpolation-filters="sRGB">
<feFlood flood-opacity="0" result="BackgroundImageFix"/>
<feColorMatrix in="SourceAlpha" type="matrix" values="0 0 0 0 0 0 0 0 0 0 0 0 0 0 0 0 0 0 127 0" result="hardAlpha"/>
<feOffset dx="1.05943" dy="2.11886"/>
<feGaussianBlur stdDeviation="1.05943"/>
<feComposite in2="hardAlpha" operator="out"/>
<feColorMatrix type="matrix" values="0 0 0 0 0 0 0 0 0 0 0 0 0 0 0 0 0 0 0.08 0"/>
<feBlend mode="normal" in2="BackgroundImageFix" result="effect1_dropShadow_222_1120"/>
<feBlend mode="normal" in="SourceGraphic" in2="effect1_dropShadow_222_1120" result="shape"/>
<feColorMatrix in="SourceAlpha" type="matrix" values="0 0 0 0 0 0 0 0 0 0 0 0 0 0 0 0 0 0 127 0" result="hardAlpha"/>
<feOffset/>
<feGaussianBlur stdDeviation="0.529714"/>
<feComposite in2="hardAlpha" operator="arithmetic" k2="-1" k3="1"/>
<feColorMatrix type="matrix" values="0 0 0 0 0 0 0 0 0 0 0 0 0 0 0 0 0 0 0.25 0"/>
<feBlend mode="normal" in2="shape" result="effect2_innerShadow_222_1120"/>
</filter>
<filter id="filter9_di_222_1120" x="236.941" y="306.444" width="67.1808" height="62.4655" filterUnits="userSpaceOnUse" color-interpolation-filters="sRGB">
<feFlood flood-opacity="0" result="BackgroundImageFix"/>
<feColorMatrix in="SourceAlpha" type="matrix" values="0 0 0 0 0 0 0 0 0 0 0 0 0 0 0 0 0 0 127 0" result="hardAlpha"/>
<feOffset dx="1.05943" dy="2.11886"/>
<feGaussianBlur stdDeviation="1.05943"/>
<feComposite in2="hardAlpha" operator="out"/>
<feColorMatrix type="matrix" values="0 0 0 0 0 0 0 0 0 0 0 0 0 0 0 0 0 0 0.08 0"/>
<feBlend mode="normal" in2="BackgroundImageFix" result="effect1_dropShadow_222_1120"/>
<feBlend mode="normal" in="SourceGraphic" in2="effect1_dropShadow_222_1120" result="shape"/>
<feColorMatrix in="SourceAlpha" type="matrix" values="0 0 0 0 0 0 0 0 0 0 0 0 0 0 0 0 0 0 127 0" result="hardAlpha"/>
<feOffset/>
<feGaussianBlur stdDeviation="0.529714"/>
<feComposite in2="hardAlpha" operator="arithmetic" k2="-1" k3="1"/>
<feColorMatrix type="matrix" values="0 0 0 0 0 0 0 0 0 0 0 0 0 0 0 0 0 0 0.25 0"/>
<feBlend mode="normal" in2="shape" result="effect2_innerShadow_222_1120"/>
</filter>
<radialGradient id="paint0_radial_222_1120" cx="0" cy="0" r="1" gradientUnits="userSpaceOnUse" gradientTransform="translate(227 182.444) rotate(90) scale(168)">
<stop stop-color="white"/>
<stop offset="1" stop-color="#D8FFE2"/>
</radialGradient>
<radialGradient id="paint1_radial_222_1120" cx="0" cy="0" r="1" gradientUnits="userSpaceOnUse" gradientTransform="translate(227 182.444) rotate(90) scale(108)">
<stop stop-color="white"/>
<stop offset="1" stop-color="#D8FFE2"/>
</radialGradient>
<linearGradient id="paint2_linear_222_1120" x1="255.024" y1="181.678" x2="208.979" y2="211.224" gradientUnits="userSpaceOnUse">
<stop stop-color="#1A48D3"/>
<stop offset="1" stop-color="#01B9FE"/>
</linearGradient>
<linearGradient id="paint3_linear_222_1120" x1="243.891" y1="158.268" x2="210.509" y2="191.267" gradientUnits="userSpaceOnUse">
<stop stop-color="#1A48D3"/>
<stop offset="1" stop-color="#00B9FE"/>
</linearGradient>
<linearGradient id="paint4_linear_222_1120" x1="319.5" y1="40.4443" x2="319.5" y2="78.7291" gradientUnits="userSpaceOnUse">
<stop stop-color="#2B56D6"/>
<stop offset="1" stop-color="#5CC9FF"/>
</linearGradient>
<linearGradient id="paint5_linear_222_1120" x1="102.5" y1="62.4443" x2="102.5" y2="100.729" gradientUnits="userSpaceOnUse">
<stop stop-color="#2B56D6"/>
<stop offset="1" stop-color="#5CC9FF"/>
</linearGradient>
<linearGradient id="paint6_linear_222_1120" x1="372" y1="239.444" x2="372" y2="277.729" gradientUnits="userSpaceOnUse">
<stop stop-color="#2B56D6"/>
<stop offset="1" stop-color="#5CC9FF"/>
</linearGradient>
<linearGradient id="paint7_linear_222_1120" x1="82.5" y1="280.444" x2="82.5" y2="318.729" gradientUnits="userSpaceOnUse">
<stop stop-color="#2B56D6"/>
<stop offset="1" stop-color="#5CC9FF"/>
</linearGradient>
<clipPath id="clip0_222_1120">
<rect width="49.1484" height="25.2568" fill="white" transform="translate(48 168.087)"/>
</clipPath>
<clipPath id="clip1_222_1120">
<rect width="34.943" height="34.943" fill="white" transform="translate(252 318.087)"/>
</clipPath>
</defs>
</svg>
