<svg width="30" height="31" viewBox="0 0 30 31" fill="none" xmlns="http://www.w3.org/2000/svg">
<path d="M16.875 27.8046C22.8891 26.9 27.5 21.7106 27.5 15.4443C27.5 8.54078 21.9036 2.94434 15 2.94434C8.09644 2.94434 2.5 8.54078 2.5 15.4443C2.5 21.7106 7.11092 26.9 13.125 27.8046V19.1943H11.25C10.2145 19.1943 9.375 18.3549 9.375 17.3193C9.375 16.2838 10.2145 15.4443 11.25 15.4443H13.125V12.9443C13.125 10.5281 15.0838 8.56934 17.5 8.56934H18.125C19.1605 8.56934 20 9.4088 20 10.4443C20 11.4799 19.1605 12.3193 18.125 12.3193H17.5C17.1548 12.3193 16.875 12.5992 16.875 12.9443V15.4443H18.75C19.7855 15.4443 20.625 16.2838 20.625 17.3193C20.625 18.3549 19.7855 19.1943 18.75 19.1943H16.875V27.8046Z" fill="#2B56D6"/>
</svg>
