<svg width="30" height="26" viewBox="0 0 30 26" fill="none" xmlns="http://www.w3.org/2000/svg">
<path d="M9.31783 0.116943L1.60565 0.129715C1.3486 0.129955 1.09536 0.191847 0.867177 0.310199C0.638995 0.428551 0.442529 0.59991 0.294268 0.809893C0.146007 1.01988 0.0502772 1.26236 0.0151111 1.51699C-0.020055 1.77163 0.00636908 2.03098 0.0921659 2.27329L4.25585 9.4533C4.48256 9.73621 4.76993 9.96458 5.09674 10.1215C5.42354 10.2785 5.78144 10.36 6.14398 10.3601H9.66054C9.94858 10.3596 10.2317 10.4349 10.4814 10.5784C10.7311 10.7219 10.9387 10.9286 11.0832 11.1778C11.2278 11.427 11.3042 11.7098 11.3048 11.9978C11.3054 12.2858 11.2302 12.569 11.0868 12.8187L9.32634 15.8563C9.1454 16.1705 9.03783 16.5215 9.01166 16.8831C8.98548 17.2448 9.04139 17.6076 9.17521 17.9446L13.3474 25.1437C13.5149 25.3395 13.727 25.492 13.9658 25.5887C14.2045 25.6853 14.4631 25.7231 14.7195 25.6989C14.976 25.6747 15.2229 25.5892 15.4394 25.4496C15.6559 25.31 15.8356 25.1204 15.9635 24.8968L19.7951 18.2106L9.31783 0.116943Z" fill="#ED1A3B"/>
<path d="M25.0222 9.13892L19.7836 0.100586L9.31689 0.117615L19.8027 18.2113L25.0222 9.13892Z" fill="#F79F1F"/>
<path d="M27.4451 0.0867072L19.7947 0.0994792L25.0333 9.13782L28.8522 2.49636C28.9929 2.25085 29.0665 1.97256 29.0653 1.68956C29.0642 1.40656 28.9885 1.12886 28.8458 0.884468C28.7031 0.640079 28.4984 0.437644 28.2525 0.297581C28.0066 0.157518 27.7281 0.0847815 27.4451 0.0867072Z" fill="#FFC312"/>
</svg>
