<svg width="30" height="31" viewBox="0 0 30 31" fill="none" xmlns="http://www.w3.org/2000/svg">
<path d="M15 12.9443C13.6193 12.9443 12.5 14.0636 12.5 15.4443C12.5 16.825 13.6193 17.9443 15 17.9443C16.3807 17.9443 17.5 16.825 17.5 15.4443C17.5 14.0636 16.3807 12.9443 15 12.9443Z" fill="#2B56D6"/>
<path fill-rule="evenodd" clip-rule="evenodd" d="M3.75 10.4443C3.75 6.99256 6.54822 4.19434 10 4.19434H20C23.4518 4.19434 26.25 6.99256 26.25 10.4443V20.4443C26.25 23.8961 23.4518 26.6943 20 26.6943H10C6.54822 26.6943 3.75 23.8961 3.75 20.4443V10.4443ZM10 15.4443C10 12.6829 12.2386 10.4443 15 10.4443C17.7614 10.4443 20 12.6829 20 15.4443C20 18.2058 17.7614 20.4443 15 20.4443C12.2386 20.4443 10 18.2058 10 15.4443ZM20.625 11.0693C21.3154 11.0693 21.875 10.5097 21.875 9.81934C21.875 9.12898 21.3154 8.56934 20.625 8.56934C19.9346 8.56934 19.375 9.12898 19.375 9.81934C19.375 10.5097 19.9346 11.0693 20.625 11.0693Z" fill="#2B56D6"/>
</svg>
