<svg width="30" height="31" viewBox="0 0 30 31" fill="none" xmlns="http://www.w3.org/2000/svg">
<path fill-rule="evenodd" clip-rule="evenodd" d="M3.74976 7.94458C3.74976 5.87351 5.42869 4.19458 7.49976 4.19458H22.4998C24.5708 4.19458 26.2498 5.87351 26.2498 7.94458V22.9446C26.2498 25.0156 24.5708 26.6946 22.4998 26.6946H7.49976C5.42869 26.6946 3.74976 25.0156 3.74976 22.9446V7.94458ZM11.2498 10.4446C11.2498 11.1349 10.6901 11.6946 9.99976 11.6946C9.3094 11.6946 8.74976 11.1349 8.74976 10.4446C8.74976 9.75422 9.3094 9.19458 9.99976 9.19458C10.6901 9.19458 11.2498 9.75422 11.2498 10.4446ZM11.2498 14.1946C11.2498 13.5042 10.6901 12.9446 9.99976 12.9446C9.3094 12.9446 8.74976 13.5042 8.74976 14.1946V20.4446C8.74976 21.1349 9.3094 21.6946 9.99976 21.6946C10.6901 21.6946 11.2498 21.1349 11.2498 20.4446V14.1946ZM12.4998 15.4616V20.4446C12.4998 21.1349 13.0594 21.6946 13.7498 21.6946C14.4401 21.6946 14.9998 21.1349 14.9998 20.4446V15.8694C15.3809 15.439 16.0256 14.9348 16.7414 14.6286C17.1574 14.4506 17.7833 14.3795 18.2186 14.5163C18.409 14.5762 18.5176 14.6603 18.5847 14.751C18.6499 14.8392 18.7498 15.033 18.7498 15.4445V20.4445C18.7498 21.1349 19.3094 21.6945 19.9998 21.6945C20.6901 21.6945 21.2498 21.1349 21.2498 20.4445V15.4445C21.2498 14.6061 21.0371 13.8624 20.5945 13.2641C20.1538 12.6684 19.5592 12.3172 18.9684 12.1314C17.8412 11.777 16.5921 11.9733 15.7581 12.33C15.4935 12.4432 15.2326 12.575 14.9799 12.7212C14.8745 12.1374 14.3639 11.6946 13.7498 11.6946C13.0594 11.6946 12.4998 12.2542 12.4998 12.9446V15.4252C12.4996 15.4373 12.4996 15.4495 12.4998 15.4616Z" fill="#2B56D6"/>
</svg>
