<svg width="347" height="80" viewBox="0 0 347 80" fill="none" xmlns="http://www.w3.org/2000/svg">
<path d="M25.906 35.286L2.91432 49.4347C1.53443 50.2839 1.47193 52.2671 2.79561 53.2015L4.79703 54.6143L8.3648 57.1327C9.1092 57.6581 10.0965 57.6846 10.868 57.1997L28.2904 46.2484C28.9477 45.8353 29.3465 45.1134 29.3465 44.3372V37.2085C29.3465 35.4425 27.41 34.3604 25.906 35.286Z" fill="url(#paint0_linear_155_631)"/>
<path d="M4.5485 44.7646L28.0786 30.5577C29.4727 29.716 29.544 27.7201 28.2136 26.781L22.6536 22.8563C21.9177 22.3368 20.9433 22.3045 20.1747 22.7743L2.20457 33.756C1.53354 34.1661 1.12428 34.8958 1.12428 35.6822L1.12428 42.8321C1.12428 44.5896 3.04398 45.673 4.5485 44.7646Z" fill="url(#paint1_linear_155_631)"/>
<path d="M47.0527 36.0653C46.9845 35.3778 46.6919 34.8437 46.1748 34.4631C45.6578 34.0824 44.9561 33.892 44.0697 33.892C43.4675 33.892 42.9589 33.9773 42.5442 34.1477C42.1294 34.3125 41.8112 34.5426 41.5896 34.8381C41.3737 35.1335 41.2658 35.4688 41.2658 35.8438C41.2544 36.1562 41.3197 36.429 41.4618 36.6619C41.6095 36.8949 41.8112 37.0966 42.0669 37.267C42.3226 37.4318 42.618 37.5767 42.9533 37.7017C43.2885 37.821 43.6464 37.9233 44.0271 38.0085L45.5953 38.3835C46.3567 38.554 47.0555 38.7812 47.6919 39.0653C48.3283 39.3494 48.8794 39.6989 49.3453 40.1136C49.8112 40.5284 50.172 41.017 50.4277 41.5795C50.6891 42.142 50.8226 42.7869 50.8283 43.5142C50.8226 44.5824 50.5498 45.5085 50.0101 46.2926C49.476 47.071 48.7033 47.6761 47.6919 48.108C46.6862 48.5341 45.4731 48.7472 44.0527 48.7472C42.6436 48.7472 41.4163 48.5312 40.3709 48.0994C39.3311 47.6676 38.5186 47.0284 37.9334 46.1818C37.3538 45.3295 37.0498 44.2756 37.0214 43.0199H40.5925C40.6322 43.6051 40.7998 44.0937 41.0953 44.4858C41.3964 44.8722 41.797 45.1648 42.297 45.3636C42.8027 45.5568 43.3737 45.6534 44.0101 45.6534C44.6351 45.6534 45.1777 45.5625 45.6379 45.3807C46.1038 45.1989 46.4646 44.946 46.7203 44.6222C46.976 44.2983 47.1038 43.9261 47.1038 43.5057C47.1038 43.1136 46.9873 42.7841 46.7544 42.517C46.5271 42.25 46.1919 42.0227 45.7487 41.8352C45.3112 41.6477 44.7743 41.4773 44.1379 41.3239L42.2373 40.8466C40.7658 40.4886 39.6038 39.929 38.7516 39.1676C37.8993 38.4062 37.476 37.3807 37.4817 36.0909C37.476 35.0341 37.7572 34.1108 38.3254 33.321C38.8993 32.5312 39.6862 31.9148 40.6862 31.4716C41.6862 31.0284 42.8226 30.8068 44.0953 30.8068C45.3908 30.8068 46.5214 31.0284 47.4873 31.4716C48.4589 31.9148 49.2146 32.5312 49.7544 33.321C50.2942 34.1108 50.5726 35.0256 50.5896 36.0653H47.0527ZM64.0918 31.0455H67.7821V42.3807C67.7821 43.6534 67.4781 44.767 66.8702 45.7216C66.2679 46.6761 65.4241 47.4205 64.3389 47.9545C63.2537 48.483 61.9895 48.7472 60.5463 48.7472C59.0974 48.7472 57.8304 48.483 56.7452 47.9545C55.6599 47.4205 54.8162 46.6761 54.2139 45.7216C53.6116 44.767 53.3105 43.6534 53.3105 42.3807V31.0455H57.0008V42.0653C57.0008 42.7301 57.1457 43.321 57.4355 43.8381C57.731 44.3551 58.1457 44.7614 58.6798 45.0568C59.2139 45.3523 59.8361 45.5 60.5463 45.5C61.2622 45.5 61.8844 45.3523 62.4128 45.0568C62.9469 44.7614 63.3588 44.3551 63.6486 43.8381C63.944 43.321 64.0918 42.7301 64.0918 42.0653V31.0455ZM73.9717 31.0455L78.1905 44.3068H78.3524L82.5797 31.0455H86.6706L80.6535 48.5H75.8979L69.8723 31.0455H73.9717ZM92.4618 31.0455V48.5H88.7714V31.0455H92.4618ZM94.8332 34.0881V31.0455H109.168V34.0881H103.825V48.5H100.177V34.0881H94.8332Z" fill="#272727"/>
<defs>
<linearGradient id="paint0_linear_155_631" x1="29.2673" y1="39.4063" x2="5.50491" y2="54.6539" gradientUnits="userSpaceOnUse">
<stop stop-color="#1A48D3"/>
<stop offset="1" stop-color="#01B9FE"/>
</linearGradient>
<linearGradient id="paint1_linear_155_631" x1="23.5203" y1="27.3271" x2="6.2926" y2="44.3568" gradientUnits="userSpaceOnUse">
<stop stop-color="#1A48D3"/>
<stop offset="1" stop-color="#00B9FE"/>
</linearGradient>
</defs>
</svg>
