<svg width="50" height="26" viewBox="0 0 50 26" fill="none" xmlns="http://www.w3.org/2000/svg">
<g clip-path="url(#clip0_307_1141)">
<path d="M17.7051 13.6254C18.2864 13.2412 19.4983 11.7633 19.5672 11.6352C19.6362 11.5072 19.8825 11.251 19.6263 10.9948C19.3702 10.7387 19.114 10.8668 18.7889 11.054C18.4736 11.182 17.1239 12.2067 16.6115 12.6599C16.0992 13.0441 14.8184 14.1968 14.8184 14.1968C14.8184 14.1968 14.1091 14.7781 14.3652 15.0934C14.6214 15.4086 14.8776 15.2904 15.2027 15.1623C15.5869 15.0343 17.1337 14.0096 17.7051 13.6254ZM46.188 20.8766C46.385 20.9358 46.8284 21.0737 46.8284 21.517C46.8284 21.517 46.3752 22.4136 46.2471 22.4826C46.05 22.5417 45.7348 22.5417 45.0944 22.2855C44.454 22.0294 41.3111 21.2609 40.4737 21.0638C39.6362 20.8668 37.784 20.5515 37.784 20.5515C37.784 20.5515 37.5278 20.4234 37.1436 21.0047C36.7594 21.6451 35.5377 23.3791 35.5377 23.3791C35.4983 23.5269 35.3702 23.6353 35.2224 23.6353C34.9663 23.6353 34.0007 23.5663 33.6165 23.3791C33.2323 23.1919 33.1042 23.1821 33.3604 22.7978C33.6165 22.4136 34.454 20.6796 34.8382 20.3643C35.1535 20.0491 34.582 20.1082 34.385 20.0491C34.1879 19.9899 30.4736 19.7929 29.38 19.852C28.2864 19.852 24.4441 19.852 23.0254 19.9801C21.6165 20.0392 16.6115 20.5614 15.2618 20.7486C13.912 21.0047 8.52286 21.7141 7.82335 21.9013C7.12384 22.0885 5.646 22.2855 5.646 22.2855C5.15339 22.3939 4.64108 22.3545 4.16817 22.1574C3.45881 21.8422 2.30609 21.389 3.27161 21.0638C4.23713 20.7387 9.04503 19.783 10.5229 19.586C12.0007 19.3298 16.6805 18.6894 18.6017 18.6205C20.5229 18.5515 25.8529 18.2362 27.8431 18.2362C29.8333 18.2362 32.5229 18.3643 33.7446 18.4924C34.8973 18.5515 35.6658 18.6205 35.9219 18.6894C36.1781 18.7584 36.1781 18.5614 36.4343 18.3052C36.6904 18.049 37.3998 17.0835 37.3998 17.0835C37.3998 17.0835 37.6559 16.6993 37.1436 17.0244C36.6904 17.3397 35.9219 17.3397 35.5377 17.0244C35.1535 16.6402 35.0254 16.3151 34.8283 16.4431C34.4145 16.6697 33.9909 16.8668 33.5475 17.0244C33.1633 17.1525 31.4983 17.5367 30.5328 16.8963C29.5672 16.187 29.5081 15.9308 29.38 15.6155C29.252 15.1722 29.183 15.1722 28.8677 15.3594C28.5426 15.5466 27.4589 16.1279 27.0057 16.3249C26.6017 16.5614 26.1288 16.65 25.6559 16.5811C25.0155 16.5219 24.3061 16.3249 23.9909 15.8126C23.7347 15.3003 23.6756 14.916 23.3505 15.1722C23.0254 15.4284 21.2322 16.453 20.2766 16.7091C19.3111 17.0343 19.0549 17.0934 18.5426 17.0343C17.9613 16.9752 17.3899 16.7091 17.1928 16.3939C16.9958 16.0786 16.9367 16.0096 16.6805 16.1377C16.4244 16.3348 15.715 16.8471 15.2027 16.8471C14.6904 16.788 13.3406 16.4628 12.6411 15.1131C11.9416 13.7633 12.444 13.1919 13.0943 12.4825C13.7347 11.8421 14.8874 10.8175 14.8874 10.8175C14.8874 10.8175 16.3652 9.7239 16.8086 9.53671C17.3209 9.28055 18.0894 8.82735 18.6017 8.82735C19.3012 8.73868 20.0007 8.94558 20.5327 9.40863C21.2421 9.98992 21.6855 10.5613 21.7544 10.8175C21.8234 11.0737 22.1387 11.8421 21.6263 12.4234C21.114 13.0047 19.6362 14.3446 19.6362 14.3446C19.6362 14.3446 19.0549 14.6697 19.3111 15.054C19.5672 15.4382 20.5327 14.7978 20.848 14.6106C21.1633 14.3545 22.8382 12.9456 23.3505 12.4924C23.8628 11.9801 27.0746 8.8372 27.3899 8.51208C27.6461 8.18696 30.3456 5.55641 30.72 5.30025C31.1042 5.04409 31.2323 4.84705 32.0007 4.98498C32.4047 5.05394 32.7889 5.18202 33.1535 5.36922C33.1535 5.36922 33.9219 5.69434 33.2815 6.13769C32.7003 6.58104 30.651 8.31503 30.1387 8.82735C29.6264 9.33967 28.1485 10.8175 27.7052 11.3298C27.252 11.9702 25.9712 13.5761 25.784 13.8323C25.5869 14.1574 25.4589 14.4727 25.784 14.7288C26.1091 14.9259 26.6805 14.7288 27.2618 14.2165C27.8431 13.7042 29.6362 12.2264 30.2175 11.586C30.8579 10.9456 34.1978 7.80272 34.5131 7.47759C34.8382 7.22144 36.3751 5.99976 36.3751 5.99976C36.3751 5.99976 36.5722 5.7436 37.0155 5.7436C37.4589 5.7436 37.9121 5.80271 38.1682 5.94064L38.9367 6.32488C38.9367 6.32488 39.252 6.45296 38.7397 6.8372C38.2274 7.22144 35.4096 9.39878 34.7003 10.2362C33.9318 11.0737 32.4539 12.7387 31.8727 13.4481C31.2914 14.2165 30.9071 14.5416 31.3604 15.054C31.8136 15.5663 32.3259 15.4382 32.582 15.3791C33.2224 15.0146 33.8037 14.5614 34.316 14.0293C34.9564 13.3889 36.8776 11.2707 37.1436 11.0737C37.3407 10.8175 38.1091 10.1081 38.1091 10.1081C38.1091 10.1081 38.2372 9.79287 38.6904 9.79287C39.1436 9.79287 39.3308 9.85198 39.784 9.92095C40.1683 9.98006 41.0648 10.1771 40.6215 10.6894C40.1091 11.2017 38.8875 12.4825 38.6313 12.7387C38.3751 13.054 37.3505 14.2165 37.1535 14.5318C36.9564 14.8471 36.7003 15.2412 36.9564 15.4284C37.2126 15.6155 37.9219 15.3692 38.5623 14.9751C39.449 14.5022 40.2668 13.921 40.9958 13.2412C41.8333 12.4727 43.1732 11.251 43.1732 11.251C43.1732 11.251 43.4293 10.7387 44.3949 10.9357C45.3604 11.1919 45.6165 11.251 45.6165 11.251C45.6165 11.251 46.385 11.448 45.8727 11.8914C45.3604 12.3347 43.6954 13.8815 43.055 14.453C42.4146 15.0934 40.4244 17.0835 40.0993 17.4678C39.7742 17.852 38.8185 18.7486 39.2027 18.8175C39.587 18.8865 42.5426 19.3988 43.183 19.5958C43.6855 19.9801 46.0008 20.7486 46.188 20.8766ZM13.0253 4.90616C12.4539 4.82734 11.8726 4.82734 11.2913 4.90616C10.3258 5.03424 7.50808 5.2904 6.99576 5.54655C6.48345 5.80271 6.03024 5.22143 5.84305 5.03424C5.58689 4.83719 5.07458 4.26576 5.07458 4.26576C5.07458 4.26576 4.81842 3.94064 5.27162 3.81256C5.78394 3.68448 8.67064 3.23128 9.5672 3.1032C10.4638 3.04409 14.8283 2.77808 16.05 2.77808C17.2027 2.77808 21.2421 3.03423 22.3357 3.29039C22.3357 3.29039 22.5327 3.23128 22.7889 3.7436C22.9071 4.06872 22.9761 4.4234 22.9859 4.76823C22.9859 4.76823 23.183 5.15247 22.4736 5.09335C21.6362 5.03424 20.4244 4.96527 19.5869 4.89631C18.7495 4.82734 16.7692 4.69926 16.4441 4.69926C16.1879 4.69926 16.0598 4.69926 15.9317 4.95542C15.7347 5.21158 14.9662 6.23621 14.779 6.49237C14.5918 6.74853 13.7544 7.84213 13.045 8.80765C12.3357 9.77317 11.4391 10.985 10.6115 12.2067C9.84306 13.4875 9.1337 14.6402 8.81843 15.1623C8.62138 15.4678 8.45389 15.7929 8.30611 16.1279C8.247 16.2559 8.17803 16.453 7.79379 16.453C7.40956 16.453 5.74453 16.3939 5.74453 16.3939C5.74453 16.3939 5.03516 16.453 5.48837 15.6845C5.94157 14.8471 6.89724 13.251 7.28148 12.6697C7.66571 12.0293 9.78395 9.14262 10.2273 8.63031C10.5918 8.1771 13.0253 4.90616 13.0253 4.90616Z" fill="#ED1C24"/>
<path d="M17.4468 12.9866C18.0281 12.6024 19.2498 11.1246 19.3089 10.9965C19.368 10.8684 19.634 10.6122 19.368 10.3561C19.102 10.0999 18.8557 10.228 18.5306 10.4152C18.2153 10.5433 16.8655 11.6369 16.3532 12.0211C15.8409 12.4054 14.5601 13.5581 14.5601 13.5581C14.5601 13.5581 13.8507 14.1393 14.1168 14.4546C14.3828 14.7699 14.6291 14.6517 14.9542 14.5236C15.3286 14.3955 16.8754 13.3709 17.4468 12.9866ZM15.7818 2.14917H15.4665C13.9296 2.14917 10.2054 2.40533 9.36798 2.47429C8.47143 2.53341 5.58472 3.05558 5.0724 3.18366C4.56009 3.31173 4.81624 3.62701 4.81624 3.62701C4.81624 3.62701 5.32856 4.20829 5.58472 4.39548C5.84087 4.59253 6.22511 5.16396 6.73743 4.9078C7.31871 4.65164 10.1365 4.39548 11.033 4.2674C11.6044 4.18858 12.1857 4.18858 12.767 4.2674C12.767 4.2674 10.3335 7.46938 9.94926 8.05066C9.56502 8.56298 7.44679 11.4497 6.99359 12.0901C6.60935 12.7305 5.58472 14.3364 5.13152 15.1049C4.74728 15.8733 5.44679 15.8142 5.44679 15.8142C5.44679 15.8142 7.11182 15.8733 7.49605 15.8733C7.81133 15.8733 7.88029 15.6172 7.94925 15.4891C8.09704 15.1541 8.26453 14.8389 8.46157 14.5236C8.7867 14.0113 9.48621 12.8586 10.2547 11.5679C11.0232 10.2773 11.9887 9.06544 12.6882 8.09992C13.3877 7.1344 14.2251 6.05066 14.4222 5.7945C14.6192 5.53834 15.3877 4.51371 15.5749 4.25755C15.7621 4.00139 15.831 4.00139 16.0872 4.00139C16.4123 4.00139 18.3926 4.12947 19.2301 4.19844C20.1266 4.2674 21.3483 4.32652 22.1168 4.39548C22.8853 4.46445 22.6291 4.07036 22.6291 4.07036C22.6586 3.73538 22.5897 3.40041 22.432 3.10484C22.1759 2.59252 21.9788 2.65163 21.9788 2.65163C20.9739 2.34622 16.9345 2.14917 15.7818 2.14917ZM45.9296 20.2379C46.1267 20.366 46.57 20.494 46.5109 20.8783C46.5109 20.8783 46.1267 21.7748 45.9296 21.8438C45.7326 21.9128 45.4173 21.9029 44.7769 21.6468C44.1365 21.3906 40.9937 20.6221 40.1562 20.4251C39.3878 20.297 37.5257 19.9817 37.5257 19.9817C37.5257 19.9817 37.2695 19.8536 36.8853 20.494C36.501 21.0753 35.2794 22.8684 35.2794 22.8684C35.24 23.0162 35.1119 23.1246 34.9542 23.1246C34.6981 23.1246 33.7326 23.0655 33.3483 22.8684C32.9641 22.6714 32.836 22.6714 33.0922 22.2871C33.3483 21.9029 34.1858 20.1689 34.57 19.8536C34.9542 19.5384 34.373 19.5975 34.1858 19.5384C33.9887 19.5384 30.2744 19.2822 29.1808 19.3413C28.0872 19.3413 24.2449 19.3413 22.8261 19.4694C21.4074 19.5975 16.3434 20.0507 15.0626 20.2379C13.7128 20.4349 8.32364 21.2034 7.62413 21.3906C6.91477 21.5187 5.44679 21.7748 5.44679 21.7748C4.95417 21.8832 4.44186 21.8438 3.96895 21.6468C3.25959 21.3315 2.10688 20.8783 3.0724 20.5532C4.03791 20.228 8.84581 19.2724 10.3236 19.0753C11.8015 18.8783 16.4813 18.1788 18.4025 18.1098C20.3237 17.9817 25.6537 17.7256 27.634 17.7256C29.6242 17.7256 32.3138 17.8536 33.5355 17.9817C34.6882 18.0408 35.4567 18.1098 35.7129 18.1788C35.969 18.2477 35.969 18.0507 36.2252 17.7945C36.4813 17.5384 37.1907 16.5729 37.1907 16.5729C37.1907 16.5729 37.4469 16.2477 36.9345 16.5137C36.4222 16.829 35.7129 16.829 35.3286 16.4546C34.9444 16.0704 34.8163 15.8142 34.6193 15.8733C34.4222 15.9325 33.7227 16.3167 33.3385 16.4546C32.9542 16.5926 31.3483 16.9669 30.3828 16.2576C29.4173 15.6172 29.3582 15.2921 29.2301 15.0359C29.102 14.7206 29.033 14.7206 28.7178 14.9078C28.3927 15.164 27.3089 15.6763 26.8557 15.8733C26.4419 16.0999 25.9789 16.2083 25.5059 16.1886C24.8656 16.1295 24.1562 15.9325 23.8409 15.4201C23.5256 14.9078 23.5158 14.5236 23.2005 14.7797C22.8853 15.0359 21.0823 16.0605 20.1266 16.3167C19.033 16.4448 18.7769 16.5729 18.2646 16.4448C17.6833 16.3167 17.1118 16.1196 16.9148 15.8044C16.7177 15.4891 16.6586 15.4201 16.4025 15.6073C16.1463 15.7945 15.437 16.3167 14.9246 16.2477C14.4123 16.1788 13.0626 15.8635 12.2941 14.5137C11.5847 13.164 12.097 12.5925 12.7374 11.9521C13.3778 11.2428 14.5995 10.2871 14.5995 10.2871C14.5995 10.2871 16.0774 9.26249 16.5207 9.00633C17.033 8.75017 17.8015 8.29697 18.3138 8.29697C18.8261 8.29697 19.5355 8.29697 20.235 8.87825C20.9345 9.45953 21.3286 10.031 21.4567 10.2871C21.5158 10.4842 21.8409 11.3118 21.3286 11.893C20.8163 12.4743 19.4074 13.8142 19.4074 13.8142C19.4074 13.8142 18.8261 14.1393 19.0823 14.5827C19.3384 14.9669 20.304 14.3265 20.5601 14.0704C20.8852 13.8733 22.5503 12.4054 23.0626 11.9521C23.5749 11.4398 26.7867 8.29697 27.102 8.04081C27.3582 7.71569 30.0478 5.08514 30.501 4.82898C30.8853 4.57282 31.0133 4.38563 31.7818 4.51371C32.1858 4.58267 32.57 4.71075 32.9345 4.89795C32.9345 4.89795 33.703 5.21322 33.0626 5.66642C32.4813 6.17874 30.4321 7.84377 29.9197 8.35608C29.4074 8.8684 27.9395 10.3462 27.4961 10.8586C26.9838 11.3709 25.703 12.9768 25.5059 13.2921C25.3089 13.6073 25.1808 13.9325 25.5059 14.1886C25.8311 14.4448 26.4025 14.1886 26.9838 13.6763C27.5651 13.164 29.3582 11.6861 29.9395 11.0457C30.5207 10.4053 33.9198 7.26248 34.235 7.00633C34.5503 6.75017 36.0971 5.46938 36.0971 5.46938C36.0971 5.46938 36.2942 5.21322 36.7375 5.21322C37.1809 5.21322 37.6341 5.27233 37.8902 5.41026L38.6587 5.7945C38.6587 5.7945 38.9838 5.92258 38.4616 6.30682C37.9395 6.69105 35.1217 8.8684 34.3533 9.70584C33.6439 10.5433 32.1069 12.2083 31.5355 12.9078C30.9542 13.6763 30.57 14.0605 31.0232 14.5137C31.4666 15.026 31.9887 14.898 32.2449 14.829C32.501 14.76 33.3976 14.1196 33.9789 13.4792C34.6193 12.8389 36.5405 10.7797 36.7966 10.5236C36.9937 10.2674 37.7621 9.55806 37.7621 9.55806C37.7621 9.55806 37.8902 9.24278 38.3434 9.24278C38.7966 9.24278 38.9838 9.3019 39.437 9.37086C39.8213 9.49894 40.7178 9.62702 40.2745 10.1393C39.7621 10.6517 38.5405 11.8733 38.2843 12.1886C38.0281 12.5039 37.0035 13.6664 36.8065 13.9817C36.6094 14.297 36.3631 14.6911 36.6094 14.8783C36.8557 15.0655 37.5749 14.8192 38.2153 14.4251C39.1217 13.962 39.9592 13.3807 40.7178 12.6911C41.5552 11.9226 42.8951 10.7009 42.8951 10.7009C42.8951 10.7009 43.0922 10.1886 44.1168 10.3856C45.0824 10.5827 45.3385 10.7009 45.3385 10.7009C45.3385 10.7009 46.107 10.898 45.5947 11.3413C45.0824 11.7847 43.4173 13.2625 42.7671 13.9029C42.1267 14.4842 40.1365 16.5334 39.8114 16.9177C39.4863 17.3019 38.5306 18.1985 38.9148 18.2674C39.2991 18.3364 42.2449 18.9078 42.8951 19.1049C43.4863 19.3315 45.7326 20.1689 45.9296 20.2379Z" fill="black"/>
</g>
<defs>
<clipPath id="clip0_307_1141">
<rect width="49.1484" height="25.2568" fill="white" transform="translate(0 0.0866699)"/>
</clipPath>
</defs>
</svg>
