<svg width="35" height="36" viewBox="0 0 35 36" fill="none" xmlns="http://www.w3.org/2000/svg">
<g clip-path="url(#clip0_307_1146)">
<path d="M17.4715 35.0297C7.82374 35.0297 0 27.2059 0 17.5582C0 7.91041 7.82374 0.0866699 17.4715 0.0866699C27.1193 0.0866699 34.943 7.91041 34.943 17.5582C34.943 27.2059 27.1193 35.0297 17.4715 35.0297Z" fill="#25D366"/>
<path fill-rule="evenodd" clip-rule="evenodd" d="M25.6384 9.42393C23.4719 7.25397 20.5856 6.05891 17.5141 6.05542C11.1859 6.05542 6.03185 11.206 6.03185 17.5377C6.03185 19.5609 6.55949 21.5387 7.56584 23.2788L5.9375 29.2296L12.0246 27.6327C13.7018 28.5482 15.5888 29.0304 17.5106 29.0304H17.5141C23.8423 29.0304 28.9929 23.8798 28.9964 17.5482C28.9999 14.4802 27.8083 11.5939 25.6384 9.42393ZM17.5176 27.0911H17.5141C15.8019 27.0911 14.1212 26.6299 12.657 25.7598L12.3076 25.5536L8.6945 26.5006L9.65893 22.9783L9.4318 22.6184C8.47786 21.0984 7.97118 19.3442 7.97118 17.5377C7.97468 12.2753 12.2552 7.99476 17.5211 7.99476C20.0719 7.99476 22.4655 8.99063 24.2686 10.7937C26.0717 12.5968 27.064 14.9973 27.0605 17.5447C27.0605 22.8106 22.7765 27.0911 17.5176 27.0911ZM22.7521 19.9418C22.4655 19.7985 21.0538 19.1031 20.7918 19.0088C20.5297 18.9144 20.3375 18.8655 20.1453 19.1521C19.9531 19.4386 19.4045 20.085 19.2368 20.2772C19.0691 20.4694 18.9014 20.4939 18.6148 20.3506C18.3283 20.2073 17.4023 19.9033 16.3086 18.9249C15.456 18.1632 14.8794 17.2232 14.7117 16.9367C14.544 16.6501 14.6942 16.4929 14.8375 16.3496C14.9668 16.2203 15.124 16.0142 15.2673 15.8465C15.4105 15.6787 15.4595 15.5599 15.5538 15.3677C15.6482 15.1755 15.6027 15.0078 15.5294 14.8646C15.456 14.7213 14.8829 13.3096 14.6453 12.733C14.4112 12.1739 14.1771 12.2508 13.9988 12.2403C13.8311 12.2333 13.6389 12.2298 13.4502 12.2298C13.2581 12.2298 12.9471 12.3032 12.685 12.5898C12.4229 12.8763 11.6821 13.5717 11.6821 14.9834C11.6821 16.3951 12.7095 17.7613 12.8527 17.95C12.996 18.1422 14.8759 21.039 17.7552 22.283C18.4401 22.58 18.9747 22.7547 19.3906 22.8875C20.0789 23.1076 20.7044 23.0762 21.1971 23.0028C21.7492 22.9189 22.8953 22.3074 23.133 21.64C23.3706 20.9691 23.3706 20.396 23.3007 20.2772C23.2308 20.1584 23.0386 20.0885 22.7521 19.9418Z" fill="white"/>
</g>
<defs>
<clipPath id="clip0_307_1146">
<rect width="34.943" height="34.943" fill="white" transform="translate(0 0.0866699)"/>
</clipPath>
</defs>
</svg>
