<svg width="172" height="68" viewBox="0 0 172 68" fill="none" xmlns="http://www.w3.org/2000/svg">
<g filter="url(#filter0_d_1_1393)">
<rect x="4" y="2" width="160" height="56" rx="8" fill="white"/>
<path d="M84.0509 13C74.6732 13 67.0703 20.6025 67.0703 29.9806C67.0703 39.3584 74.6732 46.9602 84.0509 46.9602C93.4287 46.9602 101.032 39.358 101.032 29.9806C101.032 20.6025 93.4291 13 84.0509 13Z" fill="#0C234B"/>
<path d="M84.0513 46.6682C74.8365 46.6682 67.3672 39.1967 67.3672 29.982C67.367 20.7677 74.8365 13.2969 84.0513 13.2969C93.2664 13.2969 100.736 20.7677 100.736 29.982C100.736 39.1964 93.2661 46.6672 84.0513 46.6672V46.6682Z" fill="white"/>
<path d="M84.0515 13.7539C75.0895 13.7539 67.8242 21.0194 67.8242 29.9812C67.8242 38.9432 75.0898 46.2084 84.0515 46.2084C93.0135 46.2084 100.279 38.9434 100.279 29.9812C100.279 21.0192 93.0131 13.7539 84.0515 13.7539Z" fill="#0C234B"/>
<path d="M96.1324 29.9803C96.1324 23.3076 90.7227 17.8984 84.0505 17.8984C77.3782 17.8984 71.9687 23.3072 71.9687 29.9803C71.9687 36.6532 77.3777 42.0622 84.0505 42.0622C90.7229 42.0622 96.1324 36.6537 96.1324 29.9803Z" fill="white"/>
<path d="M84.0529 40.7151C78.1248 40.7151 73.3203 35.9098 73.3203 29.9826C73.3203 24.0551 78.1249 19.25 84.0529 19.25C89.981 19.25 94.7854 24.055 94.7854 29.9826C94.7854 35.91 89.9808 40.7151 84.0529 40.7151Z" fill="#AB0520"/>
<path d="M84.0495 19.4922C78.2561 19.4922 73.5586 24.1894 73.5586 29.9831C73.5586 35.7772 78.2564 40.474 84.0495 40.474C89.8436 40.474 94.5404 35.7774 94.5404 29.9831C94.5404 24.189 89.8432 19.4922 84.0495 19.4922Z" fill="white"/>
<path d="M84.0499 19.8047C81.705 19.8047 79.4148 20.6198 77.6005 22.1001C75.8119 23.5597 74.5596 25.5984 74.0726 27.8422L74.0407 27.9871H75.756H83.9086H84.2433H92.3454H94.0579L94.0263 27.8422C93.5399 25.5989 92.2877 23.5595 90.4998 22.1002C88.6857 20.6199 86.3955 19.8048 84.0492 19.8048L84.0499 19.8047ZM74.0156 31.9211L74.045 32.0634C74.5075 34.3366 75.7531 36.4062 77.5521 37.892C79.3743 39.3979 81.6823 40.2271 84.0499 40.2271C86.4182 40.2271 88.7269 39.3979 90.5497 37.892C92.3481 36.4057 93.5934 34.3359 94.0554 32.0634L94.0855 31.9211H93.9386H74.0156Z" fill="#AB0520"/>
<path d="M77.8869 28.5315C78.0755 28.8294 78.0208 29.2591 78.0041 29.6267C77.9814 29.8619 77.7155 29.7366 77.6056 29.8621L74.8125 29.8925L74.7027 29.9475C74.6799 30.0338 74.6872 30.1121 74.7659 30.1588L77.637 30.1747C78.091 30.3001 77.8637 30.8393 77.9817 31.1686L78.0364 31.2384C78.0758 31.2617 78.137 31.2704 78.177 31.2384C78.325 30.9958 78.2398 30.6513 78.2865 30.37C78.2637 30.1746 78.4508 30.0257 78.3416 29.8457C78.3023 29.3605 78.2943 28.829 77.8871 28.5312L77.8869 28.5315ZM92.0796 28.5551C91.9783 28.5708 91.877 28.5941 91.8057 28.6804C91.5638 28.9856 91.3052 29.3376 91.032 29.5878C90.7421 29.7524 90.5306 29.3998 90.2334 29.4235C89.381 29.4155 88.7553 29.9477 87.9568 30.065C87.7769 30.0414 87.5501 30.1357 87.4323 29.9555C87.2996 29.9713 87.159 29.8072 87.0656 29.9634C86.9951 30.1824 87.097 30.425 87.2375 30.5736C87.3074 30.5497 87.2842 30.433 87.3702 30.3937C87.5968 30.3705 87.8474 30.417 88.0827 30.3624C88.8418 30.2291 89.4978 29.7052 90.3274 29.8928C90.3974 29.9398 90.5073 29.9947 90.492 30.1042C89.9594 30.3862 89.6861 30.9179 89.2318 31.2853L89.2558 31.3174C89.8269 31.3174 90.4214 31.2781 91.0007 31.3174L91.1339 31.2853C91.1412 31.2072 91.0473 31.1607 91.0633 31.0741C91.1179 30.9648 91.2513 30.9493 91.3372 30.8627C91.5325 30.7228 91.8923 30.6362 91.8843 30.3309C91.8456 30.1749 91.6657 30.1278 91.6263 29.9948L92.9324 29.0634L93.0972 29.009C93.1832 28.9694 93.2304 29.1029 93.2686 29.1496C93.3239 29.1966 93.3864 29.1496 93.4252 29.111C93.4731 29.009 93.4179 28.8993 93.3552 28.821C93.2533 28.7117 93.1132 28.7041 92.98 28.7507L91.7203 29.6196L91.5004 29.6349C91.4538 29.6267 91.3919 29.6196 91.3919 29.5645C91.5865 29.306 91.7511 29.048 91.9862 28.8294C92.0796 28.7664 92.1423 28.8993 92.2134 28.9228C92.3075 28.8994 92.2989 28.79 92.2989 28.7276C92.2682 28.6333 92.1736 28.5708 92.0796 28.5551ZM80.4323 29.1125C80.3753 29.113 80.3172 29.1224 80.2586 29.1421C79.9453 29.2281 79.7967 29.5565 79.7341 29.846C79.6714 30.2449 79.8201 30.6754 80.1874 30.8867C80.3286 30.9648 80.5478 30.9334 80.6885 30.8788C80.8605 30.8088 80.9862 30.6516 81.0563 30.4875C81.1344 30.3862 81.0565 30.2055 81.1971 30.1429L84.1071 30.1355L84.3815 30.1823C84.4441 30.2216 84.6001 30.1663 84.5769 30.3003C84.5769 30.4563 84.7568 30.3935 84.8428 30.4562C84.8901 30.6281 84.6706 30.5189 84.608 30.6049C84.5693 30.7302 84.6001 30.8709 84.6155 30.9961C84.7568 31.0435 84.9526 31.0349 85.0853 31.0041C85.1479 30.9415 85.0932 30.8002 85.2265 30.7854C85.2652 30.8002 85.2966 30.8481 85.2812 30.8948C85.328 31.1448 85.6565 30.9883 85.8291 31.0201L85.8364 30.6208C85.7738 30.5267 85.5936 30.6281 85.5697 30.4875C85.5936 30.4249 85.6565 30.433 85.7111 30.433C85.8138 30.4096 85.8364 30.3002 85.8364 30.2055C85.8916 30.0963 86.0396 30.1195 86.0629 29.9866C86.0632 29.9086 86.0324 29.8305 85.9618 29.8072L84.6548 29.799C84.5142 29.8381 84.3969 29.6267 84.2949 29.799C83.2626 29.815 82.2222 29.799 81.1971 29.799L81.0957 29.7524C81.0484 29.5959 80.9932 29.4392 80.8925 29.3059C80.763 29.1887 80.6031 29.1109 80.4323 29.1125ZM91.2745 29.8452C91.2871 29.8443 91.2969 29.8463 91.2969 29.8621C91.2577 29.9088 91.2114 29.9477 91.1483 29.9477C91.1563 29.9007 91.1876 29.8539 91.2348 29.846C91.2462 29.85 91.2618 29.8462 91.2745 29.8452Z" fill="#0C234B"/>
<path d="M84.3167 14.3633C84.17 14.4017 83.9397 14.3245 83.8777 14.471C83.8932 14.5558 83.8626 14.6638 83.9399 14.7172C84.1556 14.7559 84.4017 14.7559 84.6247 14.7559C84.6787 14.7559 84.7327 14.8177 84.7248 14.8715L84.6713 17.1503L84.7248 17.2043C84.8324 17.212 84.979 17.2738 85.0792 17.1815L85.149 14.9025L85.2025 14.8097L85.9719 14.8251L86.026 14.7716C86.026 14.6866 86.0721 14.5638 85.9874 14.4942C85.4407 14.4097 84.8714 14.4404 84.3167 14.3633ZM83.5162 14.3861C83.3926 14.3941 83.239 14.3708 83.1463 14.4402C83.131 15.2949 83.2771 16.1035 83.3004 16.9657C83.3154 17.0506 83.2699 17.1736 83.3774 17.2043C83.4774 17.189 83.6397 17.2429 83.6931 17.1196L83.5542 14.4323L83.5162 14.3861ZM81.7904 14.4952C81.5951 14.5 81.3989 14.5484 81.2451 14.6256C81.0142 14.7098 80.852 14.9484 80.8293 15.1797C80.8218 16.0805 81.8683 15.6875 82.3301 16.0879C82.4457 16.2037 82.5609 16.3499 82.515 16.5267C82.4768 16.7039 82.3529 16.8657 82.1919 16.9505C81.8683 17.1043 81.5225 16.9428 81.2677 16.75L81.1986 16.7656C81.1606 16.8887 80.8983 17.0116 81.1064 17.1351C81.3835 17.3429 81.6918 17.42 82.0614 17.3815C82.3766 17.2971 82.6844 17.1428 82.8619 16.835C83 16.5734 83 16.2189 82.8619 15.957C82.5929 15.5953 82.1692 15.4412 81.7301 15.4182C81.5765 15.3874 81.3764 15.4028 81.3069 15.2259C81.2683 15.1488 81.2834 15.0409 81.3682 14.9869C81.6077 14.7943 81.9683 14.9178 82.2304 14.9869C82.3305 14.9178 82.3305 14.7867 82.3613 14.679L82.3306 14.6256C82.1804 14.5291 81.9861 14.4903 81.7908 14.4951L81.7904 14.4952ZM87.2022 14.7081C87.139 14.7081 87.077 14.7199 87.0193 14.7488C86.5415 15.549 86.0336 16.3035 85.5717 17.1116L85.5412 17.2427C85.618 17.3201 85.734 17.3042 85.8341 17.3203C85.9951 17.2816 86.0029 17.0889 86.1184 16.9812C86.5656 17.0115 86.9966 17.135 87.4352 17.2275L87.4966 17.5818C87.5586 17.7283 87.7283 17.7204 87.8591 17.774C87.913 17.7973 87.9505 17.7283 87.9505 17.674C87.7889 16.758 87.7354 15.8033 87.5819 14.8872L87.5118 14.7796C87.4155 14.7408 87.3074 14.7082 87.2022 14.7081ZM79.8205 15.0385C79.4798 15.0298 79.0998 15.1677 78.8269 15.2717C78.6579 15.3488 78.4498 15.3717 78.3343 15.5104C78.6967 16.3574 78.935 17.258 79.3353 18.0742C79.459 18.0364 79.6353 18.0437 79.6746 17.9049C79.4277 17.2661 79.2121 16.6118 78.9425 15.9802C78.9044 15.8878 78.8348 15.7644 78.8969 15.6566C79.1887 15.5257 79.5276 15.3564 79.8586 15.4411C79.9668 15.5105 80.121 15.6029 80.0896 15.7724C80.0743 16.034 79.882 16.2268 79.6584 16.3189C79.5737 16.3881 79.328 16.3113 79.3661 16.4575C79.8199 16.8887 80.2898 17.2581 80.7823 17.6122C80.9218 17.5817 81.098 17.5741 81.1755 17.451C80.8291 17.1889 80.4906 16.8656 80.1436 16.5807C80.0741 16.4268 80.3438 16.3573 80.4132 16.2108C80.5514 15.9879 80.6055 15.6643 80.4753 15.4103C80.3267 15.1408 80.0855 15.0453 79.8205 15.0385ZM88.5665 15.0512C88.5392 15.0524 88.5113 15.0604 88.4824 15.0795C88.4825 15.1794 88.3596 15.2951 88.4824 15.3718L89.1604 15.634L89.1987 15.6875C88.9523 16.4424 88.6827 17.1814 88.4586 17.944C88.5138 18.0364 88.6368 18.0668 88.7448 18.0899C88.8829 17.9977 88.8828 17.8052 88.9603 17.6588C89.1907 17.0508 89.3606 16.4112 89.6678 15.8339C89.8527 15.8645 90.0149 15.957 90.1838 16.0419C90.2698 16.0805 90.4153 16.1266 90.4693 16.0034C90.5 15.9341 90.5768 15.8492 90.508 15.7726C89.9528 15.5184 89.3907 15.3028 88.8054 15.118C88.7247 15.1067 88.6484 15.0477 88.5665 15.0512ZM87.1584 15.3334H87.1816C87.2658 15.8109 87.358 16.2962 87.3506 16.7891C87.0194 16.7734 86.7111 16.6812 86.4035 16.6118L86.4269 16.5117L87.1584 15.3334ZM77.6959 15.7415C77.1565 15.957 76.648 16.2496 76.1321 16.519L76.1014 16.6118L77.4342 18.9291L77.5109 18.9828C78.0415 18.7057 78.5815 18.4441 79.1195 18.1745L79.1356 18.0589C79.0816 17.9818 79.0815 17.8123 78.9353 17.843C78.5428 18.0512 78.1264 18.244 77.7413 18.4287L77.7032 18.421C77.5258 18.1668 77.349 17.9048 77.2341 17.628C77.403 17.4428 77.6565 17.3582 77.8567 17.212C77.8954 17.1736 77.8652 17.1195 77.8567 17.0734C77.8267 17.0114 77.7955 16.8887 77.688 16.9193C77.4564 17.0114 77.2487 17.2196 77.003 17.2427L76.7407 16.8273C76.71 16.7733 76.6634 16.6964 76.7254 16.6423L77.8266 16.0498L77.8421 15.9651C77.7954 15.8954 77.7954 15.7724 77.6959 15.7415ZM90.9159 16.0111L89.7225 18.4287L89.7146 18.5213C89.8301 18.5596 89.9221 18.7287 90.0535 18.629L90.2611 18.1975C90.5767 17.5353 90.9534 16.8813 91.2537 16.2036C91.1929 16.0877 91.0388 16.0186 90.9159 16.0111ZM92.0523 16.728C92.0254 16.7291 91.9984 16.7314 91.971 16.7347C91.8389 16.8041 91.678 16.8582 91.6007 17.0117C91.3158 17.7052 92.2474 18.1055 92.0398 18.7986C91.9163 19.0143 91.6848 19.1681 91.4312 19.1143C91.2009 19.0371 91.0468 18.8446 90.9694 18.6134C90.8773 18.4904 90.9847 18.1899 90.7691 18.2133C90.6769 18.2977 90.4847 18.2904 90.4927 18.4516C90.5847 18.8214 90.7772 19.1526 91.1002 19.384C91.3777 19.5915 91.8006 19.5528 92.1016 19.4144C92.3781 19.1984 92.571 18.8985 92.5403 18.5522C92.5016 18.0516 92.0777 17.7051 92.0164 17.2123C92.0471 17.1661 92.0931 17.1429 92.1473 17.1276C92.3167 17.1045 92.4628 17.1972 92.6091 17.2894C92.7552 17.4203 92.7864 17.6284 92.9093 17.782C93.002 17.8363 93.1096 17.7742 93.1869 17.7128C93.279 17.5355 93.1094 17.3971 93.0481 17.2506C92.7953 16.9403 92.455 16.7114 92.0523 16.728ZM75.7824 16.7797C75.6742 16.7664 75.5008 16.9347 75.4476 17.0196L75.9021 19.0141L75.8869 19.0988C75.2714 18.7831 74.6554 18.4978 74.0548 18.1515L73.9239 18.1434C73.8465 18.2132 73.6697 18.313 73.6931 18.4287C74.5707 18.9063 75.4477 19.3757 76.3493 19.7918C76.3873 19.7992 76.4413 19.7841 76.426 19.7377C76.2872 18.7832 76.0562 17.8671 75.872 16.9351C75.8672 16.8292 75.8315 16.7857 75.7824 16.7797ZM73.4239 18.65C73.2807 18.6547 73.1394 18.8466 73.1458 18.9679L74.994 20.7696L75.1094 20.8465C75.2174 20.8079 75.3329 20.6848 75.3557 20.5693C74.7323 19.9456 74.139 19.2988 73.4849 18.6601C73.4648 18.6524 73.4443 18.6493 73.4239 18.65ZM72.6513 19.4386C72.543 19.4453 72.4598 19.6041 72.4225 19.6917C72.8229 20.1536 73.3461 20.4769 73.7704 20.908C73.7619 20.931 73.7312 20.9232 73.7233 20.9385C73.0077 20.8695 72.2916 20.7387 71.5916 20.692C71.5295 20.7851 71.4055 20.8618 71.4601 20.9849C72.0533 21.4238 72.6612 21.8781 73.2772 22.2861C73.4308 22.3402 73.5462 22.5402 73.7157 22.5096C73.7618 22.4248 73.8999 22.3248 73.8232 22.2096C73.3619 21.8779 72.8917 21.5547 72.4458 21.2006L72.4766 21.1774C73.1694 21.2393 73.8468 21.3391 74.5248 21.4471L74.6396 21.3777C74.6783 21.3236 74.7784 21.2622 74.7017 21.1774C74.0315 20.6466 73.4001 20.0146 72.73 19.461C72.7026 19.4436 72.6763 19.4371 72.6513 19.4386ZM96.5145 20.7852C95.7529 20.9544 95.0129 21.17 94.2742 21.3698C94.0585 21.3854 93.8744 21.4775 93.6894 21.5473C93.6741 21.686 93.7968 21.7703 93.9123 21.8475C94.0812 21.832 94.2434 21.7782 94.3975 21.7549L95.0749 22.7097C95.2604 22.9099 94.9514 23.0714 94.9055 23.2566C94.9142 23.3798 94.9977 23.4721 95.0836 23.5566C95.1218 23.5642 95.1524 23.5565 95.175 23.5334L96.7382 21.1239L96.7536 21.0008C96.7075 20.908 96.6459 20.7696 96.5145 20.7852ZM71.2847 21.1699C71.2043 21.1825 71.1695 21.2779 71.1293 21.3317C71.0217 21.5086 71.252 21.6087 71.322 21.7549C71.6297 22.2324 71.9989 22.6788 72.2685 23.164L72.2457 23.2025C71.5369 23.164 70.8829 23.1254 70.2048 23.0867L70.1125 23.1331C70.0893 23.2564 69.8978 23.3488 70.0047 23.4795C70.9978 23.5336 71.9528 23.626 72.954 23.6494C73.0001 23.6567 73.0467 23.6029 73.0307 23.5489C72.5148 22.7254 71.8914 21.9627 71.322 21.1699C71.3085 21.1679 71.2962 21.1681 71.2847 21.1699ZM96.0911 21.3083L96.0838 21.3854C95.8369 21.7396 95.6214 22.1244 95.3677 22.4481C95.1829 22.2018 94.9666 21.9395 94.8284 21.6552L94.8898 21.6006C95.2903 21.5085 95.6833 21.3853 96.0911 21.3083ZM85.2753 21.4812L84.0486 22.8618C84.0486 22.8618 83.0919 21.7396 82.888 21.4995C82.7688 21.7965 82.1767 23.2754 82.1767 23.2754C82.1767 23.2754 80.7532 22.3692 80.4927 22.203C80.4522 22.5083 80.2391 24.1344 80.2391 24.1344C80.2391 24.1344 78.6631 23.7089 78.3615 23.6275C78.4203 23.9324 78.7196 25.4906 78.7196 25.4906C78.7196 25.4906 77.0521 25.6263 76.7396 25.6518C76.898 25.9189 77.7067 27.28 77.7067 27.28C77.7067 27.28 76.9515 27.5576 76.4269 27.7501C78.2118 27.75 80.9202 27.7499 83.6699 27.7499V26.4763H83.0177V25.644H83.6699V24.9206H84.4818V25.644H85.1605V26.4763H84.4818V27.7499H91.8053C91.3577 27.5415 90.6723 27.2233 90.6723 27.2233C90.6723 27.2233 91.3343 25.8152 91.4718 25.5227C91.1537 25.5407 89.7067 25.6238 89.7067 25.6238C89.7067 25.6238 89.8829 23.8637 89.9124 23.5716C89.633 23.6493 88.0674 24.0836 88.0674 24.0836C88.0674 24.0836 87.8943 22.568 87.8629 22.2892C87.608 22.4162 86.1363 23.1522 86.1363 23.1522C86.1363 23.1522 85.4073 21.7372 85.2753 21.4812ZM97.6313 22.5788C96.8532 23.0176 96.0682 23.4642 95.2982 23.9262L95.4136 24.2344H95.4749L97.423 23.1719L97.5767 23.1255C97.7389 23.5182 98.1312 23.9571 97.847 24.3805C97.7082 24.4729 97.5693 24.5265 97.3919 24.4727C97.239 24.3729 97.0613 24.2188 97.0306 24.0337C96.9839 23.9339 96.984 23.8029 96.9227 23.718L96.8299 23.7798C96.5142 24.2649 96.2446 24.7655 95.9217 25.2427C95.8835 25.3889 95.9751 25.5272 96.045 25.6507C96.0911 25.6818 96.1217 25.6508 96.1531 25.62L96.7997 24.565L96.8687 24.5266L97.1069 24.7348C97.3538 24.9196 97.6848 24.9423 97.9699 24.8194C98.1387 24.7114 98.2936 24.5187 98.3163 24.3108C98.4237 23.6338 98.0005 23.1253 97.7081 22.5863L97.6314 22.5787L97.6313 22.5788ZM98.7546 25.1738C98.2694 25.3356 97.7926 25.5275 97.3001 25.6586C96.9297 25.8048 96.5374 25.8972 96.191 26.0897C96.1836 26.2052 96.2216 26.3208 96.3064 26.3902C97.0765 26.1979 97.808 25.8973 98.5777 25.682C98.6777 25.6049 98.8779 25.6433 98.9166 25.4893C98.8851 25.3738 98.9167 25.1812 98.7546 25.1738ZM69.0505 26.1595C68.927 26.2213 68.935 26.3904 68.9424 26.4982L70.0517 27.6144L70.0824 27.7068C69.6053 27.9842 69.1126 28.1996 68.6422 28.4846C68.5421 28.5847 68.5267 28.7616 68.5734 28.8697L71.2835 29.0231L71.3677 28.9773C71.3991 28.8927 71.4218 28.7537 71.3449 28.685C70.7363 28.6152 70.1129 28.5615 69.5122 28.5615L69.4434 28.5151C69.8666 28.2379 70.336 28.0608 70.7677 27.7995V27.761C70.3979 27.3679 70.0129 27.0599 69.6665 26.6751C69.8667 26.629 70.0588 26.7524 70.2745 26.7443C70.7676 26.7754 71.214 26.9603 71.6992 26.9446C71.6992 26.8445 71.8148 26.7368 71.7068 26.6523C70.8296 26.4905 69.9513 26.2829 69.0504 26.1596L69.0505 26.1595ZM99.0612 26.3331C98.9802 26.3338 98.8953 26.3673 98.8316 26.4136L99.0473 27.4757C99.0393 27.5451 99.1088 27.6527 99.0168 27.6835C98.1385 27.4065 97.3382 26.9367 96.4526 26.6904L96.3677 26.7136C96.4912 27.2602 96.5992 27.8222 96.6606 28.3999L96.7302 28.4768C96.8376 28.4844 96.9764 28.4769 97.0612 28.3921L96.9297 27.6686C96.9223 27.5529 96.8608 27.3987 96.9297 27.2912C97.7612 27.6299 98.601 27.9532 99.4166 28.3302C99.4865 28.3302 99.494 28.2691 99.5246 28.223L99.2474 26.6441L99.1399 26.3441C99.1148 26.3363 99.0882 26.3328 99.0612 26.3331ZM98.1699 28.3378C97.7848 28.3535 97.4304 28.4614 97.1613 28.7307C96.6834 29.1544 96.5373 29.8623 96.7762 30.4709C97.0152 30.9716 97.4997 31.356 98.0624 31.3873C98.7163 31.426 99.3089 31.0402 99.6093 30.4709C99.7868 30.0321 99.7403 29.5009 99.5099 29.1001C99.2324 28.6305 98.7239 28.3302 98.1699 28.3378ZM98.2343 28.7394C98.3534 28.7448 98.4709 28.7693 98.5776 28.8157C98.801 28.9079 99.0167 29.0928 99.132 29.3156C99.3631 29.6854 99.3018 30.2554 99.0394 30.5939C98.7471 30.8869 98.3159 31.0717 97.8847 30.9328C97.4535 30.8401 97.1534 30.4251 97.0925 30.0089C97.0612 29.5317 97.246 29.0771 97.6692 28.8615C97.8331 28.7749 98.0358 28.7304 98.2343 28.7394ZM68.5962 29.116L68.5415 29.1465C68.5187 29.285 68.4879 29.4315 68.5641 29.5467C69.2267 29.8086 69.8975 30.055 70.5516 30.3329L70.5589 30.371C70.0892 30.656 69.6112 30.9176 69.1272 31.1719C68.957 31.372 68.4263 31.318 68.6106 31.7339C68.6032 31.8032 68.6572 31.8486 68.726 31.8265C69.5815 31.364 70.436 30.9249 71.2829 30.417C71.3445 30.3855 71.4287 30.302 71.3372 30.248L68.5973 29.1139L68.5962 29.116ZM80.3958 29.5443C80.2779 29.5675 80.2312 29.7004 80.184 29.7862C80.1294 30.0213 80.1841 30.256 80.3094 30.436C80.388 30.4986 80.4899 30.5219 80.5679 30.4592C80.6066 30.3806 80.646 30.3034 80.6306 30.2014C80.5526 30.0602 80.5206 29.8726 80.6066 29.7239C80.5993 29.6142 80.4898 29.5596 80.3958 29.5443ZM91.2715 29.8483C91.2589 29.8492 91.2433 29.853 91.2319 29.8491C91.1846 29.857 91.1534 29.9038 91.1454 29.9508C91.2085 29.9508 91.2546 29.9118 91.2939 29.8651C91.2939 29.8494 91.2842 29.8473 91.2715 29.8483ZM71.2623 31.0158C71.1774 31.0167 71.0806 31.0701 71.023 31.1084C71.0303 31.5783 71.192 32.0176 71.2072 32.4947L71.1533 32.5641C70.4145 32.7023 69.729 32.9872 69.0049 33.1568L68.8741 33.2342C68.866 33.3496 68.8975 33.4804 68.9821 33.5499C69.8524 33.3337 70.7067 33.0953 71.569 32.8643L71.6538 32.8177C71.585 32.233 71.4231 31.6784 71.3917 31.0858C71.3601 31.0337 71.3134 31.0153 71.2624 31.0158L71.2623 31.0158ZM96.7855 31.5316L96.6766 31.5863C96.6534 31.6784 96.5693 31.7945 96.6535 31.8866L98.2553 32.1176L98.3098 32.163C97.6858 32.4258 97.0237 32.6028 96.4151 32.8878C96.339 32.98 96.3391 33.1107 96.3391 33.2261C96.4619 33.3102 96.6162 33.3262 96.7544 33.3337C97.4785 33.5731 98.2552 33.6725 98.9947 33.8882L99.0799 33.8422C99.1253 33.7421 99.164 33.5952 99.1333 33.4878C98.4947 33.3804 97.8782 33.2036 97.2473 33.072L97.1928 33.0181C97.9014 32.687 98.679 32.5254 99.4112 32.233C99.4179 32.1251 99.526 31.9554 99.3798 31.8866C98.4948 31.8166 97.6704 31.617 96.7855 31.5316ZM87.5331 32.6643C87.5331 32.6643 87.3138 32.9068 87.2046 33.0093L86.8754 32.6722C86.8214 32.8208 86.8755 32.9775 86.7901 33.1108L86.43 32.8681C86.43 32.8681 86.5 33.1888 86.4842 33.3527C86.3274 33.3527 86.1796 33.2588 86.0308 33.2514C86.0536 33.4161 86.2416 33.502 86.2736 33.6579C86.1715 33.7599 85.9678 33.6811 85.8823 33.7991C85.9916 33.8772 86.117 33.9011 86.2416 33.9552C86.2262 34.1038 85.9915 34.0731 85.9603 34.2138C86.0696 34.2918 86.2342 34.2523 86.3436 34.3151C86.2888 34.3777 86.1874 34.4089 86.148 34.4636C86.226 34.5103 86.6406 34.417 86.7344 34.4636C86.8592 34.4089 86.8754 34.2759 86.9698 34.1985C86.9931 34.1198 86.9219 34.0491 86.8671 33.9871C86.5901 33.6892 87.001 33.6934 86.9771 33.3839C87.1331 33.4232 87.0471 33.22 87.1651 33.228C87.1965 33.478 87.2903 33.8065 87.0951 34.0105C87.0239 34.2138 87.2272 34.315 87.3212 34.4636L87.5718 34.4951C87.5952 34.5031 87.5952 34.5415 87.5718 34.5497C86.7508 34.589 85.9677 34.5968 85.1464 34.5735C85.0684 34.5415 85.1231 34.4249 85.029 34.417L83.0342 34.4249C82.9323 34.417 83.0109 34.5496 82.9323 34.5655C82.1891 34.6122 81.4848 34.5655 80.7496 34.5655C80.5851 34.6355 80.7729 34.7536 80.8044 34.8396C81.0789 34.9256 81.3601 35.0275 81.5714 35.2227C81.5634 35.246 81.5394 35.2387 81.524 35.254C81.0309 35.2147 80.5618 35.1915 80.1086 35.0583C79.7406 34.863 79.2313 34.5816 79.2946 34.0805C79.3572 33.8145 79.5766 33.588 79.8579 33.556C80.0606 33.494 80.2572 33.5718 80.3977 33.7277C80.5151 33.8691 80.5851 34.0258 80.5696 34.2209C80.5463 34.3542 80.4443 34.237 80.3822 34.237C80.311 34.2609 80.3191 34.3384 80.3344 34.3857C80.3664 34.4717 80.4523 34.5496 80.5462 34.5415C80.6943 34.3856 80.8983 34.5735 81.039 34.4483C81.0236 34.417 80.9848 34.4169 80.9609 34.4089C80.8356 34.331 80.7967 34.1824 80.8042 34.0337C80.7495 33.7278 80.4995 33.4 80.1857 33.3373C79.8737 33.2907 79.5286 33.3454 79.2946 33.5719C79.0594 33.8065 78.9893 34.135 79.0673 34.4636C79.3258 34.9021 79.7632 35.2928 80.2797 35.3554C80.7814 35.4968 81.4301 35.3015 81.8845 35.5747C81.9466 35.6452 82.002 35.7314 81.97 35.8333C81.978 35.8881 82.0326 35.9113 82.0872 35.9033C82.2045 35.8566 82.1964 35.7079 82.1812 35.6219C82.2285 35.6219 82.2672 35.6451 82.3059 35.676C82.7604 35.9351 83.269 36.0598 83.8082 36.1071L83.7775 36.1378C83.5821 36.1537 83.4256 36.263 83.269 36.3883C83.245 36.4277 83.2143 36.4899 83.2536 36.5297C83.7076 36.5838 84.1913 36.5837 84.6619 36.5683C84.7318 36.5604 84.8492 36.5138 84.8025 36.4198C84.6458 36.2166 84.3881 36.224 84.2 36.1146L84.2232 36.0986C85.0683 36.0913 85.7795 35.692 86.414 35.1521C86.8286 34.8468 87.4071 34.9487 87.8144 34.6355L88.2209 34.6209C88.1816 34.5029 88.0176 34.4248 87.9477 34.3149C88.0877 34.2521 88.2684 34.2844 88.417 34.229C88.4242 34.1271 88.0964 33.947 88.0964 33.947C88.2211 33.8691 88.4329 33.893 88.4797 33.7438C88.3229 33.7045 88.1509 33.7045 88.0018 33.6345C88.0569 33.4939 88.1976 33.4073 88.2602 33.2587C88.1116 33.2121 87.987 33.3607 87.8457 33.3059C87.8063 33.1574 87.9949 33.0321 87.955 32.8681C87.8144 32.8995 87.7131 33.0241 87.5798 33.0866L87.5564 33.0561C87.5564 32.9308 87.5796 32.7735 87.5331 32.6643ZM84.0421 32.7918C83.9556 32.7806 83.9219 32.9072 83.8946 32.9615C83.8632 33.0094 83.8012 33.0093 83.8012 33.0714C83.8012 33.1027 83.832 33.1028 83.8559 33.1188C83.91 33.1655 83.8713 33.2122 83.848 33.2588C83.4955 33.4547 83.3946 33.8533 83.2533 34.1824L83.2848 34.2138C83.7301 34.245 84.1605 34.2291 84.6065 34.2211C84.6532 34.2138 84.7317 34.2138 84.7164 34.1432C84.5831 33.8459 84.5126 33.5252 84.2393 33.2907C84.1054 33.1187 84.3878 33.1816 84.3878 33.0476C84.3799 32.9701 84.2858 32.9849 84.2311 32.9701C84.1531 32.9462 84.1054 32.8754 84.0826 32.8055C84.0679 32.7976 84.0545 32.7934 84.0421 32.7918ZM71.6089 33.0543C71.5142 33.0571 71.4173 33.0991 71.3777 33.1802L71.716 34.1806C71.7239 34.3194 71.8695 34.4356 71.7773 34.5657C71.0612 34.8888 70.3372 35.2052 69.6131 35.5055L69.5903 35.5667C69.6524 35.6669 69.6523 35.8444 69.8065 35.8358C70.592 35.5128 71.3541 35.1282 72.1543 34.8273L72.2622 34.7506C72.0779 34.1886 71.901 33.626 71.7008 33.0647C71.6719 33.0569 71.6405 33.0534 71.6089 33.0543ZM96.2712 33.7027C96.2334 33.6988 96.198 33.7114 96.1694 33.7575C96.0153 34.1198 95.938 34.5043 95.7538 34.8507C95.6997 34.9735 95.607 35.1198 95.6844 35.244C95.7691 35.2893 95.9072 35.3827 95.992 35.282L96.331 34.3116L96.4078 34.2273C96.7469 34.2886 97.078 34.3888 97.3856 34.535L97.2081 35.1664L97.2553 35.2206C97.3475 35.2279 97.4549 35.3593 97.5397 35.2438C97.6245 35.0508 97.6706 34.8433 97.7862 34.6584C97.979 34.681 98.1785 34.7352 98.364 34.82L98.3866 34.8739C98.2791 35.2891 98.0637 35.6595 97.9396 36.0594C97.971 36.1214 98.0404 36.1522 98.0939 36.1835C98.1552 36.2056 98.2553 36.214 98.3019 36.152C98.5029 35.6594 98.7178 35.1742 98.8639 34.6663L98.8482 34.543C98.0484 34.2889 97.2622 34.0266 96.4619 33.7809C96.404 33.7617 96.3341 33.7093 96.2712 33.7027ZM95.5813 35.3752C95.5612 35.3772 95.5414 35.3857 95.5222 35.4048C95.4914 35.5214 95.3379 35.6517 95.4379 35.7671C95.8999 36.0288 96.3926 36.2598 96.8391 36.5372L96.8237 36.568H95.2993C95.1377 36.5828 94.937 36.4905 94.8373 36.6447C94.8066 36.7215 94.6987 36.8062 94.7835 36.8983L95.7611 37.5075C96.2152 37.7606 96.6233 38.1308 97.0939 38.3386C97.2081 38.2924 97.2702 38.1464 97.2781 38.031L95.8311 37.084C95.8073 37.0765 95.7918 37.0218 95.8226 36.9991C96.5079 36.9377 97.1773 37.0066 97.848 36.9838C97.9788 36.9218 98.0324 36.7683 98.0324 36.6449C97.5164 36.3986 97.0077 36.1216 96.5077 35.8446L95.769 35.428C95.7055 35.4224 95.6417 35.3693 95.5813 35.3752ZM72.5161 35.4046C71.7004 35.8358 70.8609 36.2056 70.0526 36.6447C70.0446 36.7682 70.122 36.907 70.214 36.9836C71.0229 36.5679 71.8539 36.1521 72.6781 35.7437L72.7009 35.6596C72.6315 35.5743 72.6549 35.428 72.5161 35.4046ZM72.5233 36.6223C72.3072 36.6272 72.0929 36.674 71.9006 36.7607C71.7926 36.8294 71.6003 36.8678 71.593 37.0298L72.0696 37.7532C72.1696 37.8539 72.2618 37.6919 72.3472 37.6378C72.3317 37.4843 72.2163 37.3688 72.1229 37.2454C72.0696 37.1994 72.1075 37.1224 72.1542 37.0911C72.6006 36.9602 73.094 37.0603 73.4017 37.4375C73.6326 37.7151 73.7328 38.1154 73.602 38.4692C73.5025 38.8158 73.1866 39.1473 72.8403 39.2394C72.3932 39.3856 71.946 39.2089 71.6537 38.8619C71.3687 38.5615 71.4 38.0768 71.4688 37.6917C71.3847 37.6223 71.2531 37.5997 71.1377 37.6144C70.9147 38.1156 70.9991 38.7617 71.3848 39.1627C71.7926 39.5785 72.3317 39.7782 72.9164 39.6166C73.355 39.5165 73.7948 39.1162 73.9563 38.6929C74.1718 38.2237 74.0564 37.6146 73.7635 37.2228C73.4827 36.8044 72.9984 36.6117 72.5232 36.6224L72.5233 36.6223ZM85.1524 36.728C84.3987 36.7289 83.6435 36.7479 82.8854 36.7325C82.5568 36.7325 82.1969 36.7485 81.885 36.7571C81.7045 36.7951 81.5092 36.6784 81.3605 36.7718C81.3133 36.8812 81.4304 36.9131 81.4851 36.9677C81.4618 37.171 81.6033 37.4524 81.4073 37.5704C81.376 37.6097 81.3759 37.6797 81.4226 37.711C81.5006 37.7423 81.6105 37.7423 81.6885 37.703L86.4845 37.6562C86.6023 37.6095 86.673 37.4997 86.7123 37.3824C86.7823 37.1398 86.673 36.9131 86.5079 36.7571C86.0562 36.7334 85.6046 36.7274 85.1524 36.728ZM95.0458 37.3455C94.8536 37.3535 94.6298 37.3301 94.4683 37.4454C94.0753 37.6377 93.7597 38.0456 93.7217 38.4692C93.7142 38.8617 93.9986 39.1241 94.2982 39.3316C94.684 39.4852 95.0919 39.309 95.4308 39.1395C95.6458 39.0548 95.9153 38.8084 96.139 39.0159C96.1931 39.2162 96.0702 39.3931 95.9387 39.5319C95.8159 39.7321 95.2839 39.7248 95.5383 40.0637C95.7231 40.1092 95.8546 39.979 96.0083 39.9249C96.3472 39.678 96.6628 39.309 96.5241 38.8618C96.447 38.6857 96.2855 38.5387 96.1007 38.4999C95.8077 38.4538 95.5926 38.6081 95.3692 38.7389C95.0847 38.8157 94.8226 39.0547 94.507 38.9239C94.3756 38.8772 94.2373 38.7546 94.1913 38.6316C94.0677 38.3233 94.2601 38.0849 94.4683 37.8767C94.6378 37.7386 94.8848 37.7533 95.0848 37.6758C95.1457 37.5998 95.0849 37.5077 95.107 37.4149L95.0458 37.3455ZM82.903 37.7966C82.8346 37.8007 82.7716 37.8215 82.7221 37.8831V38.752L82.7761 38.8147C83.6918 38.7907 84.6623 38.8533 85.6167 38.7907C85.6247 38.7593 85.6088 38.7362 85.6009 38.7048C85.6555 38.4388 85.6554 38.0942 85.5688 37.8442C84.8342 37.8049 83.989 37.8442 83.2538 37.8049C83.146 37.8295 83.0169 37.7898 82.903 37.7966ZM82.23 37.8095C82.1508 37.8086 82.0726 37.8205 82.0023 37.8595L82.0249 38.7358L82.0723 38.7986C82.221 38.8451 82.3937 38.8379 82.5336 38.7752C82.549 38.5013 82.5335 38.204 82.5102 37.9301L82.4634 37.8363C82.3891 37.8243 82.3091 37.8104 82.23 37.8095ZM86.4378 37.8123C86.3746 37.8282 86.3359 37.8596 86.3206 37.9223L86.3512 38.7201L86.4065 38.7907C86.7823 38.8453 87.1576 38.8146 87.5568 38.822L87.6502 38.7754C87.6895 38.5641 87.4703 38.6574 87.3761 38.5954C87.2829 38.4228 87.2981 38.157 87.3922 37.9844C87.4473 37.9617 87.5255 38.0162 87.5721 37.9537C87.6034 37.9223 87.5955 37.8597 87.5568 37.8283L86.4378 37.8123ZM86.0156 37.8147C85.9275 37.8116 85.8364 37.8312 85.7727 37.8749C85.7186 38.1723 85.78 38.4695 85.788 38.7675L85.828 38.7988C85.9527 38.7907 86.1171 38.8768 86.2111 38.7675L86.2032 37.9455L86.1644 37.8442C86.1202 37.8265 86.0685 37.8165 86.0156 37.8147ZM81.5284 37.8262C81.2827 37.8269 81.0566 37.8518 80.8046 37.8283C80.7499 37.8364 80.6641 37.8677 80.7033 37.9455C80.75 38.0315 80.8433 38.0237 80.9373 38.0237C81.0392 38.157 81.0472 38.3296 81.0392 38.5089C80.9919 38.6968 80.7266 38.564 80.6719 38.7359C80.6873 38.7987 80.7499 38.8145 80.8046 38.8293C81.1491 38.806 81.5005 38.8453 81.8375 38.7907C81.8923 38.5167 81.8063 38.2039 81.8375 37.8908L81.7824 37.8363C81.6944 37.8284 81.6103 37.8259 81.5284 37.8262ZM74.7655 38.7004C74.1335 39.3091 73.4793 39.9631 72.8479 40.5943L72.8166 40.6951C72.9013 40.7712 72.9781 40.9256 73.1015 40.9182L74.9877 39.0241L75.027 38.9239C74.9336 38.8465 74.895 38.7237 74.7655 38.7004ZM93.2284 38.8391C93.0981 38.8317 92.9828 38.9853 92.9212 39.0774C93.5367 39.7481 94.1983 40.3021 94.8609 40.9715L94.9684 41.0028C95.0458 40.9481 95.1612 40.856 95.1992 40.7565C94.5757 40.1172 93.8672 39.4853 93.2284 38.8391ZM75.395 39.5139C75.2032 39.5121 75.0038 39.5687 74.8495 39.6554C74.6186 39.763 74.4497 40.017 74.4116 40.264C74.2955 40.8721 74.9195 41.1951 74.8808 41.7491C74.8494 41.8499 74.758 41.9345 74.65 41.9265C74.3269 41.811 74.1106 41.4569 74.0111 41.1571C73.9024 41.1339 73.7642 41.1877 73.7023 41.2872C73.7575 41.7109 74.1027 42.0807 74.4884 42.2343C74.7427 42.2956 75.0195 42.2502 75.1965 42.0574C75.5356 41.5648 75.0811 41.0796 74.8889 40.6485C74.8041 40.4556 74.8429 40.2247 74.9738 40.0637C75.0966 39.9471 75.266 39.8943 75.4503 39.9017C75.8973 39.9864 76.1283 40.4715 76.2284 40.8559L76.3125 40.9408C76.4212 40.8794 76.6289 40.9481 76.6363 40.7712L76.4975 40.3481C76.3359 40.0244 76.0515 39.7247 75.7204 39.5858C75.6223 39.5368 75.51 39.5149 75.395 39.5139ZM92.6263 39.6235C92.4306 39.624 92.2327 39.6686 92.0745 39.7554C91.789 39.9402 91.4967 40.2098 91.4738 40.5563C91.3811 40.9408 91.5881 41.2565 91.8504 41.4954C92.4282 41.9266 93.029 41.3878 93.6292 41.3878C93.6833 41.4258 93.7521 41.4725 93.7378 41.5573C93.6444 41.7796 93.4982 41.9805 93.2599 42.0572C93.1358 42.0879 92.9977 42.065 92.8903 42.1111C92.8823 42.242 92.8668 42.4269 92.9976 42.4962C93.3754 42.4809 93.7445 42.2954 93.9835 41.9884C94.107 41.7956 94.2607 41.5412 94.1378 41.287C94.0374 41.0795 93.814 40.9569 93.5909 40.9481C93.175 41.0182 92.8201 41.2257 92.3817 41.2257C92.2128 41.1791 92.02 41.141 91.9433 40.9715C91.8892 40.7947 91.8506 40.587 91.9433 40.4102C92.1509 40.0478 92.5973 40.0097 92.9831 40.0169C93.029 39.9323 93.0289 39.8169 93.0131 39.7167L92.9676 39.6705C92.8606 39.6387 92.7438 39.6232 92.6263 39.6235ZM88.8288 41.9726C88.4007 42.1445 87.9558 42.2692 87.5432 42.4725L87.5206 42.5817L87.902 43.8047L87.9793 43.8275C88.2599 43.6568 88.5327 43.4614 88.8835 43.4614C89.0781 43.4541 89.2421 43.5708 89.3428 43.7115C89.4133 43.8362 89.4447 44.0148 89.39 44.1634C89.2814 44.4981 88.9227 44.6773 88.6033 44.7394C88.4706 44.8021 88.3073 44.7081 88.1819 44.81C88.2368 44.9267 88.3538 45.0595 88.4859 45.0987C88.8214 45.0595 89.1175 44.9343 89.3979 44.771C89.694 44.561 89.8727 44.2488 89.8966 43.8901C89.8573 43.6248 89.7722 43.3682 89.5381 43.2048C89.1488 42.9321 88.5873 43.072 88.2139 43.2746C88.1199 43.088 88.0491 42.9007 88.034 42.6825C88.2138 42.5265 88.4621 42.5032 88.6807 42.4098C88.79 42.3238 89.1012 42.48 89.0552 42.254C89.0005 42.1526 88.9928 41.9579 88.8288 41.9726ZM79.9068 42.0745C79.6026 42.1372 79.3138 42.2933 78.9871 42.3087C79.0098 42.4253 79.1506 42.4015 79.2207 42.4961C79.182 42.7688 79.01 43.002 78.9167 43.2514C78.6759 43.6407 78.6286 44.1468 78.2238 44.4123C78.3559 44.5996 78.6132 44.6308 78.816 44.7242C78.956 44.7008 78.8466 44.4902 78.9088 44.3968C79.2361 43.6248 79.6026 42.8775 79.9294 42.114L79.9068 42.0745ZM81.862 42.5734C81.5267 42.566 81.1925 42.6826 81.0286 42.9946C80.9739 43.1505 80.9661 43.3519 81.044 43.508C81.0833 43.6333 81.2547 43.7187 81.2467 43.8514C81.0287 43.9368 80.7713 44.0302 80.6472 44.2641C80.5294 44.5141 80.5613 44.8332 80.748 45.0434C81.1147 45.4408 81.6447 45.5496 82.1815 45.4876C82.4467 45.4256 82.7967 45.2534 82.836 44.9341C82.9373 44.6074 82.7662 44.3187 82.5168 44.1241C82.4775 44.0927 82.4229 44.0302 82.4702 43.9835C82.6335 43.906 82.8129 43.8275 82.9221 43.6716C83.0155 43.5322 83.0228 43.314 82.9681 43.1506C82.7663 42.7293 82.3068 42.5893 81.862 42.5734ZM85.3518 42.7467C85.0597 42.7507 84.7577 42.8423 84.5277 42.9627C84.3404 43.1814 84.1065 43.4074 84.2317 43.7115C84.2937 43.9368 84.4809 44.0694 84.6762 44.1701L84.6911 44.2336C84.4265 44.4355 84.2004 44.7008 84.2699 45.0515C84.3098 45.3628 84.6605 45.589 84.9404 45.6516C85.4858 45.7215 86.0545 45.6516 86.4052 45.2302C86.5459 45.0435 86.5846 44.771 86.5145 44.5449C86.4132 44.2642 86.1326 44.1469 85.891 44.0303C85.9531 43.8202 86.2265 43.7034 86.2339 43.4699C86.2185 43.3213 86.2025 43.1733 86.1171 43.0561C85.9264 42.8264 85.644 42.7427 85.3518 42.7467ZM81.9429 42.8612C82.1828 42.8762 82.4191 42.9885 82.5241 43.228C82.5636 43.3293 82.5555 43.4614 82.4934 43.5548C82.4074 43.6801 82.2755 43.7421 82.1434 43.7888C81.8621 43.6715 81.5041 43.5008 81.4886 43.1427C81.5114 43.0328 81.6046 42.9161 81.7066 42.8774C81.7826 42.8619 81.863 42.8561 81.9429 42.8612ZM85.2317 43.0509C85.4002 43.0509 85.5677 43.1074 85.6884 43.2201C85.7744 43.3214 85.7977 43.4927 85.7431 43.6173C85.6963 43.7266 85.5719 43.8361 85.4939 43.8901C85.1899 43.8514 84.8312 43.8202 84.6985 43.5167C84.6604 43.4074 84.715 43.3053 84.7697 43.2201C84.894 43.1074 85.0633 43.0509 85.2317 43.0509ZM81.5622 44.0888C81.6125 44.0852 81.6639 44.0929 81.7147 44.1162C81.9481 44.2489 82.2369 44.3889 82.3534 44.6542C82.3769 44.7782 82.346 44.9035 82.2834 45.0042C82.096 45.215 81.7769 45.2229 81.5269 45.1456C81.3487 45.0989 81.2 44.9575 81.1146 44.7863C81.0519 44.6455 81.0668 44.4436 81.1688 44.3189C81.2683 44.2139 81.4112 44.0999 81.5622 44.0888ZM85.1931 44.3286C85.3399 44.3333 85.4976 44.4056 85.6343 44.4202C85.7896 44.4982 86.0164 44.561 86.0545 44.771C86.0858 44.9503 86.0084 45.0749 85.9069 45.1922C85.6577 45.3629 85.3143 45.4256 85.0336 45.2856C84.9009 45.215 84.7849 45.0828 84.7536 44.9342C84.6983 44.7162 84.8309 44.5608 84.9476 44.4202C85.0208 44.3472 85.105 44.3257 85.1931 44.3286Z" fill="white"/>
<path d="M83.3592 23.1642C83.0978 23.1599 82.8086 23.2535 82.591 23.3217C82.6468 23.8056 82.8086 24.2408 82.9374 24.6919C83.0098 24.7002 83.0749 24.6919 83.1234 24.6437C83.1142 24.2728 82.914 23.9506 82.8886 23.5717C83.0343 23.4267 83.2604 23.4101 83.4698 23.4346C83.5503 23.4668 83.6387 23.523 83.6473 23.62C83.6228 23.7085 83.5986 23.7973 83.5097 23.8455C83.4133 23.9426 83.2279 23.8538 83.1635 23.9504C83.3164 24.2004 83.6068 24.3053 83.7923 24.5469C83.8887 24.6599 84.0177 24.5468 84.1387 24.5711V24.5146C84.0025 24.3375 83.7677 24.2727 83.6792 24.0549C83.8401 23.8781 83.9938 23.6445 83.872 23.4101C83.7489 23.2302 83.5625 23.1676 83.3592 23.1642ZM85.009 23.2251C84.8156 23.2571 84.5575 23.3297 84.5176 23.5475C84.4526 23.983 84.9611 23.9262 85.1792 24.1119C85.235 24.1602 85.2117 24.241 85.1712 24.2812C84.8967 24.4261 84.5987 24.2812 84.3727 24.1442C84.3242 24.2087 84.2837 24.289 84.3003 24.3699C84.4293 24.5231 84.6067 24.5791 84.7756 24.6437C84.9937 24.6517 85.1944 24.6602 85.364 24.5309C85.4849 24.4182 85.5016 24.2652 85.5016 24.1039C85.4611 23.983 85.3406 23.8538 85.2184 23.7974C85.0975 23.7086 84.8313 23.7573 84.8313 23.5634C85.0414 23.4185 85.2755 23.5391 85.4849 23.612C85.5089 23.5391 85.5575 23.4584 85.5089 23.3782C85.3639 23.2891 85.1865 23.2494 85.009 23.2251ZM86.0541 23.4648C86.0229 23.4616 85.9971 23.4747 85.9848 23.5231L86.1385 24.9096L86.195 25.0549C86.4211 24.9824 86.5733 24.7565 86.7588 24.6274C86.9602 24.3859 87.2587 24.2569 87.4283 23.9909C87.3712 23.9102 87.2587 23.8695 87.1617 23.8695L86.5008 24.5148L86.4209 24.5309C86.3238 24.4021 86.332 24.1928 86.2914 24.0149L86.2428 23.5717L86.219 23.531C86.1733 23.5211 86.106 23.4702 86.0541 23.4648ZM82.1556 23.4745C82.0665 23.483 81.9461 23.4909 81.9057 23.5796L81.8331 24.4664C81.8331 24.5147 81.8251 24.5871 81.7608 24.5955C81.4623 24.4745 81.2129 24.2326 80.9464 24.0474C80.8739 23.9261 80.7451 23.9829 80.6652 24.055C80.632 24.0795 80.632 24.144 80.6652 24.1601L81.8738 25.055L81.9614 25.0627C82.0831 24.6273 82.0751 24.1763 82.1476 23.7169L82.1556 23.4745ZM87.7833 24.1926L87.1378 25.2403L87.0892 25.3853C87.1222 25.4581 87.2029 25.5224 87.2907 25.5305L87.5897 25.0708C87.613 25.0385 87.6617 25.0143 87.6855 25.0549C87.7187 25.2158 87.6616 25.3853 87.7341 25.5305C87.7831 25.5465 87.8311 25.5305 87.8711 25.5063C88.0008 25.4338 88.1701 25.3773 88.3151 25.3936C88.2094 25.619 87.9766 25.7885 87.9036 26.0222C87.9354 26.0869 88.0087 26.1273 88.0732 26.1432C88.3551 25.7965 88.6609 25.4338 88.9433 25.1027V24.9984C88.75 24.7565 88.5094 25.0386 88.2987 25.0629C88.1863 25.0871 88.0572 25.1918 87.9602 25.0787L87.9847 24.2973C87.9282 24.2324 87.8711 24.1926 87.7833 24.1926ZM80.3253 24.4504C80.0593 24.4504 79.8021 24.5471 79.6166 24.7405C79.5356 24.8453 79.5037 24.9901 79.5357 25.1274C79.7857 25.5871 80.2044 25.1355 80.5355 25.1438C80.6564 25.1598 80.6969 25.2963 80.6723 25.3937C80.6232 25.5226 80.479 25.6029 80.3666 25.6596C80.2363 25.7643 79.9232 25.6438 79.9551 25.8771C79.9551 25.9983 80.0839 26.0064 80.181 25.9901C80.5028 25.9662 80.826 25.7644 80.9549 25.45C81.0268 25.2568 80.9145 25.0709 80.7929 24.9661C80.511 24.7404 80.1724 24.9661 79.9065 25.0708L79.8341 25.0227C79.8261 24.8936 79.9386 24.8049 80.0435 24.7563C80.1479 24.66 80.4465 24.7969 80.382 24.5469L80.3253 24.4504ZM84.1013 32.9764C84.0613 32.9764 83.9484 33.0353 83.9404 33.066C83.9485 33.1053 84.14 33.1643 84.1707 33.1176C84.2024 33.0856 84.1325 32.9838 84.1013 32.9764Z" fill="#AB0520"/>
</g>
<defs>
<filter id="filter0_d_1_1393" x="0" y="0" width="172" height="68" filterUnits="userSpaceOnUse" color-interpolation-filters="sRGB">
<feFlood flood-opacity="0" result="BackgroundImageFix"/>
<feColorMatrix in="SourceAlpha" type="matrix" values="0 0 0 0 0 0 0 0 0 0 0 0 0 0 0 0 0 0 127 0" result="hardAlpha"/>
<feOffset dx="2" dy="4"/>
<feGaussianBlur stdDeviation="3"/>
<feComposite in2="hardAlpha" operator="out"/>
<feColorMatrix type="matrix" values="0 0 0 0 0 0 0 0 0 0 0 0 0 0 0 0 0 0 0.16 0"/>
<feBlend mode="normal" in2="BackgroundImageFix" result="effect1_dropShadow_1_1393"/>
<feBlend mode="normal" in="SourceGraphic" in2="effect1_dropShadow_1_1393" result="shape"/>
</filter>
</defs>
</svg>
