<svg width="160" height="56" viewBox="0 0 160 56" fill="none" xmlns="http://www.w3.org/2000/svg">
<rect width="160" height="56" rx="8" fill="white"/>
<path d="M86.6938 23.4748C86.6938 20.4406 86.7461 17.6157 86.903 15L78.899 16.5171V17.2495L79.6837 17.3541C80.2592 17.4064 80.6254 17.6157 80.8346 17.9296C81.0439 18.2958 81.2008 18.8189 81.3055 19.6036C81.4101 21.1207 81.5147 24.5734 81.4624 30.0141C81.4624 35.4024 81.4101 38.8028 81.3055 40.1107C84.1827 40.7384 86.4322 41 88.1063 41C91.2451 41 93.7039 40.1107 95.4825 38.2797C97.2612 36.501 98.2029 33.9899 98.2029 30.9034C98.2029 28.4447 97.5228 26.4044 96.1626 24.7827C94.8024 23.161 93.0761 22.3763 91.0358 22.3763C89.6757 22.3763 88.2632 22.7425 86.6938 23.4748ZM86.8507 39.5875C86.7461 37.9135 86.6415 32.8913 86.6415 24.6781C87.1123 24.5211 87.7401 24.4165 88.5248 24.4165C89.7803 24.4165 90.7743 25.0443 91.5067 26.3521C92.2391 27.66 92.6053 29.2294 92.6053 31.2173C92.6053 33.6761 92.1868 35.664 91.3497 37.338C90.5127 38.9598 89.4664 39.7968 88.1586 39.7968C87.7401 39.6922 87.3216 39.6398 86.8507 39.5875ZM48.8709 15.5231H27.9453V16.5694L29.0439 16.674C29.8809 16.831 30.4564 17.1449 30.8226 17.6157C31.1888 18.1388 31.398 18.9759 31.4503 20.1268C31.8689 25.7767 31.8689 31.0604 31.4503 35.9256C31.3457 37.0765 31.1365 37.9135 30.8226 38.4366C30.4564 38.9598 29.8809 39.2736 29.0439 39.3783L27.9453 39.5352V40.5815H41.4423V39.5352L40.0298 39.4306C39.1928 39.326 38.6173 38.9598 38.2511 38.4889C37.8849 37.9658 37.6757 37.1288 37.6234 35.9779C37.4664 33.8853 37.3618 31.4789 37.3618 28.8109L40.1868 28.8632C41.7039 28.9155 42.7501 30.0664 43.2733 32.3682H44.3196V23.841H43.2733C42.7501 26.0905 41.7562 27.2414 40.1868 27.2938L37.3618 27.3461C37.3618 22.6378 37.4664 19.2897 37.6234 17.2495H41.7562C44.6858 17.2495 46.6737 19.1328 47.8246 22.8994L49.0801 22.5332L48.8709 15.5231ZM46.4121 31.6358C46.4121 34.3561 47.1968 36.6056 48.7139 38.3843C50.231 40.163 52.4805 41 55.3055 41C58.1304 41 60.4322 40.1107 62.1063 38.2797C63.7803 36.501 64.565 34.2515 64.565 31.5312C64.565 28.8109 63.7803 26.5614 62.2632 24.7827C60.7461 23.004 58.4966 22.167 55.6717 22.167C52.8467 22.167 50.5449 23.0563 48.8709 24.8873C47.1968 26.666 46.4121 28.9155 46.4121 31.6358ZM58.0781 25.672C58.7059 27.1891 58.9674 29.1771 58.9674 31.5835C58.9674 37.1288 57.8165 39.8491 55.567 39.8491C54.4161 39.8491 53.5268 39.0644 52.899 37.495C52.2713 35.9256 52.0097 33.9376 52.0097 31.5835C52.0097 26.0905 53.1606 23.3702 55.4101 23.3702C56.561 23.3179 57.4503 24.1026 58.0781 25.672ZM102.283 38.3843C104.01 40.1107 106.207 41 108.823 41C110.444 41 111.857 40.6861 113.112 40.006C114.368 39.3783 115.362 38.5936 116.042 37.6519L115.519 37.0241C114.368 37.9135 113.06 38.332 111.543 38.332C109.45 38.332 107.829 37.6519 106.73 36.2394C105.579 34.827 105.056 33.0483 105.161 30.7465H116.356C116.356 28.2354 115.728 26.1952 114.42 24.5734C113.112 23.004 111.281 22.2193 108.927 22.2193C105.998 22.2193 103.748 23.161 102.126 24.992C100.505 26.8229 99.7199 29.0724 99.7199 31.7404C99.7199 34.4608 100.557 36.6579 102.283 38.3843ZM106.155 25.2535C106.73 23.998 107.462 23.3702 108.456 23.3702C110.026 23.3702 110.81 25.3581 110.81 29.3863L105.265 29.4909C105.318 27.9215 105.579 26.5091 106.155 25.2535ZM130.428 23.161C129.016 22.5332 127.237 22.167 125.092 22.167C122.895 22.167 121.169 22.7425 119.861 23.841C118.553 24.9396 117.873 26.2998 117.873 27.9215C117.873 29.334 118.291 30.4326 119.076 31.2173C119.861 32.002 121.116 32.6821 122.738 33.2575C124.203 33.7807 125.249 34.3038 125.772 34.7746C126.295 35.2978 126.609 35.8732 126.609 36.6579C126.609 37.3903 126.348 38.0704 125.772 38.5936C125.249 39.169 124.517 39.4306 123.575 39.4306C121.273 39.4306 119.547 37.7565 118.344 34.4084L117.454 34.67L117.664 39.9014C119.547 40.6338 121.639 41 123.941 41C126.348 41 128.179 40.4769 129.539 39.3783C130.899 38.332 131.579 36.8149 131.579 34.9316C131.579 33.6761 131.265 32.6298 130.585 31.8451C129.905 31.0604 128.806 30.3803 127.237 29.7525C125.511 29.1247 124.307 28.5493 123.68 28.0262C123.052 27.503 122.738 26.8753 122.738 26.0905C122.738 25.3058 122.947 24.6781 123.418 24.1549C123.889 23.6318 124.464 23.4225 125.197 23.4225C127.289 23.4225 128.806 24.9396 129.748 27.9215L130.637 27.66L130.428 23.161ZM80.1022 22.6901C79.3699 22.3239 78.5851 22.167 77.6958 22.167C76.8065 22.167 75.9171 22.5332 74.9232 23.2656C73.9292 23.998 73.1968 24.992 72.6214 26.3521L72.6737 22.167L64.722 23.7364V24.4688L65.5067 24.5211C66.5006 24.6258 67.0761 25.4105 67.1807 26.8229C67.4946 30.0664 67.4946 33.5191 67.1807 37.1811C67.0761 38.5936 66.5006 39.326 65.5067 39.4829L64.722 39.5875V40.5815H75.8125V39.5875L74.4 39.4829C73.4061 39.3783 72.8306 38.5936 72.726 37.1811C72.4121 34.1469 72.3598 30.9034 72.6214 27.5553C72.9352 27.0322 73.6153 26.7183 74.6616 26.6137C75.7079 26.5091 76.9111 26.8229 78.1666 27.5553L80.1022 22.6901Z" fill="black"/>
</svg>
