<svg width="160" height="56" viewBox="0 0 160 56" fill="none" xmlns="http://www.w3.org/2000/svg">
<rect width="160" height="56" rx="8" fill="white"/>
<path d="M127.449 17.8956L129.817 33.7099H125.081L127.449 17.8956ZM131.292 12.3753H124.098L119.096 43.6247H123.599L124.447 37.9505H130.478L131.326 43.6247H136.287L131.292 12.3753ZM96.1361 19.8808C96.1361 28.8125 105.74 30.0134 105.74 36.4531C105.74 38.7048 104.76 39.4892 103.195 39.4892C101.63 39.4892 100.647 38.6861 100.647 36.4531V34.2015H96.0048V36.1192C96.0048 41.1216 98.5042 44 103.33 44C108.156 44 110.656 41.1404 110.656 36.1192C110.656 27.1875 101.052 25.9866 101.052 19.5506C101.052 17.2989 101.945 16.4658 103.507 16.4658C105.068 16.4658 105.965 17.3139 105.965 19.5506V20.8453H110.611V19.8808C110.611 14.8596 108.153 12 103.375 12C98.598 12 96.1361 14.8596 96.1361 19.8808ZM81.2563 43.6247H86.3038V12.3753H81.9318V31.0717L76.8844 12.3753H70.7223V43.6247H75.1431V20.9767L81.2563 43.6247ZM47.4062 30.0134V43.636H60.8074V39.1589H52.3186V25.5325H57.2385V30.0134H47.4062ZM52.3186 16.8223H60.8074V12.3753H47.4062V25.5325H52.3186V16.8223ZM25.3398 43.6247H38.3395V39.1589H30.2522V12.3753H25.3398V43.6247Z" fill="#313233"/>
</svg>
